<?xml version="1.0" encoding="UTF-8"?>
<svg id="Layer_2" data-name="Layer 2" xmlns="http://www.w3.org/2000/svg" viewBox="0 0 123.2967698064 35.2683318744">
  <defs>
    <style>
      .cls-1 {
        fill: #6f1e92;
      }
    </style>
  </defs>
  <g id="Layer_1-2" data-name="Layer 1">
    <path class="cls-1" d="M123.0044906686,34.5527707767c-1.7471170371-1.7471005503-3.2252198278-5.3753389018-12.7625719931-7.9274213477,0,0-5.1041648917-1.0740126286-8.5973438141-.1340042774,0,0-3.0890722734-.1328831786-6.8512984155-2.4180781685-1.3041346393-.7919903391-2.6936211665-1.6704371781-4.1090413462-2.6125888063.0010881253-.0464596523-.0010716385-.0940074298.0097271806-.1361475544-.1685604985-.0767293193-.3295535803-.1404670821-.4927064258-.1869267344-.1793593176-.121012721-.3597902738-.2463449695-.5391495914-.3684458158.2333863866-.6623385629-.420313121-1.1020730715-.9443278788-.64937998-.0097271806-.00755093-.0183827226-.0140137347-.0280934164-.0205095129.236617789-.4991857173-.3922197046-1.0891144886-.9821649626-1.1118002521-.252824261-.1285966244-.5294224108-.1858386091-.810356575-.1815190814-.0680572905-.0507791799-.1361310677-.1026464851-.2052764835-.153425665-.0021762506-.2226040543-.0810488469-.4786762044-.0280934164-.6861124517-.386820295-.1771995538-.7401312773-.3079394553-1.1517970996-.2063810955-.0183662358-.0140467082-.0356525898-.0280934164-.0540188256-.0421401246.4916183006-.6655699652.0691454158-1.2371325007-.4343515858-1.1398936685.0064792915-.0324129441.0194461177-.0572749581.0259336526-.0907760275-.1231807281-.0950625816-.2582401573-.1652961227-.3954593503-.2258024831-.1491061374-.3273938164-.552124661-.6007440771-.946495886-.6299256188-.0151265901-.123155998-.0259336526-.244168719.0010798819-.352222857-.4148972247-.1891029849-.7876625681-.337120997-1.2414602717-.1891029849.7595691517-.9291930454-.3046998096-1.7103680786-.9216503587-.8211389073.6861042083-.6083279806-.4116575789-1.5515677342-1.1355823842-1.2738979459-.0010798819-.0561868328.0010881253-.1134288175,0-.1696156503-.1491061374.0291485682-.4094978151-.0561868328-.597496188-.0248620141.9940354202-1.2889998059-.5337584252-1.4640560826-1.6336799762-1.2209425154-.1080458946-.0896879022-.2247390879-.1815190814-.3349529898-.2733502607.5683311331-1.0750677804-.5067366473-1.4824223184-1.6196250247-1.4067811245-.0453880137-.1966539149-.1318197834-.4030020369-.1123736657-.5910168966-.2452650876-.070233541-.4764917104-.1242441233-.706630208-.1264203739-.0950790684-.0097271806-.1901663801-.0043195276-.2852454484-.0086390553-.0529471871-.0399968476-.1058861308-.0799607216-.1599131999-.121012721.10913402-.3154903853.054027069-.5694192583-.0929193045-.7303958534.2150119074-.2161082761.3241459273-.528367259.2690389764-.9659584905-.4537977036-.1728800261-.9400165946-.1685604985-1.3732882985.0291815417-.0053994096-.2571602754-.2431053238-.5402377166-.252824261-.810356575-.452726065-.0637377628-.8514168177-.1015583598-1.2447081608.1685604985.4678444118-1.1064255726-.7747039852-1.5547991365-1.1161362664-.5294553843.1998935607-.3187217877.0929275479-.6072068818-.1436984844-.804948922.1977255535-.9054191566-.826563047-1.5223861925-1.5958676226-.7141728946,1.3538421807-1.3560019445-1.7708991692-1.3289966534-2.9702275596-.6839691746-.0756329506-.0313248188-.1512659012-.0594182352-.2279787337-.090743054.137219193-.7628087974-.5056567654-1.0037790875-1.2598347509-.9659584905-.0075591734-.0324129441-.0053994096-.0605063605-.0151265901-.0929193045-.4203048776-.0961507069-.842769519-.0388757488-1.2133750986.153425665-.0324129441-.0086390553-.0637460062-.0226857635-.0961589503-.0313248188,0,0-.033492826-.0118704576-.0939991864-.0302366935-.0907595407-.2074692208-.278766157-.412762191-.3187382744-.6310137441-.4116658223.0021762506-.7747039852.030269667-1.0999297944.2712069836-.0313330621-.0075839035-.06590577-.0140467082-.0972388322-.0205424864.2020450811-1.0728915298-1.0070022465-1.2998151117-1.1896012098-.266887456.4429906411-1.0080656417-1.657453865-1.386238638-1.7709074126-.236617789-.1015583598-.0140467082-.1966456715-.0259171658-.3003720386-.0399638741-.2895649761-.5488767719-.876262345-.7498502145-1.2446999174-.1285966244-.0270135345-.0032314024-.0507874233-.0053746794-.0778009578-.00755093-.0064792915-.090743054-.0107988191-.2009734426,0-.2355296637-.4084179332-.0270382646-.7638969227-.0345891946-1.1118084955.1566570674-.0453797704-.0021432771-.087519895-.0064957782-.1328996653-.0097271806-.2506644972-.4365031063-1.1377339047-.5251028832-1.4467532419-.0583301099-.1361393111-.0043195276-.2690389764-.0075839035-.4073380513-.0108153058-.3565588714-.2485212201-.9227302406-.253928873-1.2328212164,0-.0637542496.0010881253-.1231807282-.0010881253-.1880066163,0-.049699298-.8114447003-1.0577814264-.8978682266-1.2220141539.0335010693.4365113496-.994051907-1.6001871503-1.3754563057-1.7622601139-.2787579136-.3457518089-.2312431095-.8859895256-.0183662359-1.1118084954.414905468-.1566653107-.0421401246-.2949643856-.0075839035-.3889718154.1274755257-.0529389437.0054076529-.1048062489.0129585829-.1577451927.0183662359-.2258189699-.8027726715-1.400301833-.7303958534-1.4435135962.1880148596-.0399803608.0064628047-.0810406035.0129585829-.1210127209.0183662359-.3803327602-.6536995076-1.0977700306-.3986825093-1.6109942128.0896879022-.2182515531-.055131681-.5045768835-.1296517762-.8135962207-.2161082761-.2344662685-.2258024831-.5672512512-.3014436771-.8870694075-.2733502607-.3543991076-.1177813186-.6709776182-.2409702901-.8589759911-.3533109823-.6720575001-.4030350104-1.4770146655-1.2079839325-1.8800331892-1.2079839325-.4040984056,0-.8071086859-.4030020369-1.3441067568-.269030733s-.5369980709.269030733-1.209055571.269030733h-1.3430268749l-1.3430351182,1.2717216953c-.4213847595-.0583630834-1.0426548363.3360328717-1.8659782376.3781729963-.8460174081.0421401246-3.8097574329.3381761488-4.443994336-.1275084992-.6342451465-.4645965227-1.8206067106-.465684648-1.8206067106-.465684648-1.6941780933-1.3549138193-2.2430631086.5931931471-2.2430631086.5931931471,0,0-.1275002558.3381761488-1.0156495452,1.2274053201-.8892291713.8892291713-8.5508800401,1.6931229415-8.9744286851,1.7784583426-.4235445233.0842802493-8.9733446815.3792611216-10.242906613.3792611216h-1.7773825824s-.6774569096-1.3970539439-1.4391899468-.083192124c0,0-2.6666158753.2971241495-1.1010055546,1.4813341931,0,0-.2539123863,1.4381059432,1.7352424577,1.353825694,0,0,1.1193717905-.2096124978,1.7374063432-.374941594.0615862424-.0161899853.1177689535-.0324129441.1674723732-.0475148041.5499607755-.1696486238.465684648,0,.8049530437,0,.3381885139,0,14.7290451953.2528077743,15.576134242.2960360242.8460091648.0421401246,1.3970539439.3803162734,1.6509663302.4645965227.2539123863.0853683745,1.9037988346.4667727732,2.9205282616.8460338949.5175437098.1944776644,2.8913467199,1.3214127499,5.4985361167,2.2927459199.103726367.0399968476.2128521436.0778174445.3198181563.1156380415,2.0626321525.7519934916,4.2225031372,1.3765114575,5.7049172122,1.3473299158.0043195276.0119034311.0129585829.0226857635.016206472.0335010693.1350594292.4030350104.4030185237.8060370473.4030185237,1.2090390842v2.0161972303s-1.3430351182,4.4331872736-1.6109942127,4.8351011852c-.2690389764.4030350104-1.6131457332,3.3592076185-1.6131457332,3.3592076185,0,0-2.8211214223-.2679426078-3.0890805168.269030733l-.2690389764.5370063143s-.2690389764.6720657434.8060370473.6720657434c1.0750677804,0,3.493170679-.1350594292,3.493170679-.1350594292h.9400165946s.2690389764-.4030350104.5369980709-.804948922c.2690389764-.4030350104,2.0161642568-3.3592076185,2.5531623278-4.4342753988.5369980709-1.0740126286.5369980709-1.2090720577,1.0739961418-1.3419552363.5380697095-.1350594292.8071086859-1.0750677804,1.2101272095-1.8811048277.4019386417-.8060370473,3.0890805168-.1350594292,4.2981360878.8060370473,1.2090473276.9400083512,2.687141875,1.8811048277,3.0901603987,4.2992159697.4030102803,2.4170230167,1.4770064221,4.431011023.5369898275,5.6411382325l-1.6120658513.269030733h-.5369980709l-.5380779528.2690637065v.5369733408s-.4030185237.9400413247.2690389764.9400413247h3.7611380169l.6720575001-.5370063143s.806028804-.9400083512.9400083512-1.3430433616c.1339795473-.4040901622.2690389764-.6731208952.2690389764-1.3440985134,0-.6720657435-.2690389764-5.2392243209-.2690389764-5.910201939v-.6720657434s8.8663827905,1.8800496759,10.8814671654,1.2079839325c0,0,.2690389764,1.0761559056.1350594292,1.7471335238-.1350594292.67203277-.5380779528,2.4180781685-.5380779528,2.4180781685l-.5369898275,1.3430433616-.5380779528.9400083512-.5369980709.2701188583-2.1490639222.269030733h-1.209055571c-.5369898275,0-.9400083512.2679755812-.9400083512.2679755812l-.4030185237.5380614661v.5370063143l.4030185237.2679755812h.4030185237l.5369898275.1350594292s-.6720492567.1339713039,1.0739961418.1339713039h2.1501438041c.6709776181,0,2.6860619931-.4030350104,2.6860619931-.4030350104l.1350594292-.5369733408s0-.2679755812.4030185237-.9400413247c.4030185237-.6731208952.2690389764-1.0761229322.9400165946-1.3440985134.6720492567-.269030733,0,.1339713039.6720492567-.269030733.6709776182-.4030350104.9400165946-.1339713039,1.3430351182-.6720657435.4030185237-.5370063143.6720575001-.2679426078.6720575001-1.8800167024s.2690389764-2.5520824459.2690389764-2.5520824459c0,0,7.5222677903.9389202259,8.7313151179,4.0290971113,0,0,.6720575001.5380614661-.1339713039.9410964765-.8060370473.4030020369-1.3430351182.6709776182-1.3430351182.6709776182l-.9410964765.1339713039-.5380779528.1350594292h-.8049489221l-.5380779528.2679426078s-.6709776182.0010881253-.2679590945.5391495914l.4030185237.5370063143s.9400165946.269030733,1.3430268749.269030733h2.0150926183c.4030185237,0,.9410882331-.1350594292.9410882331-.1350594292,0,0,0-.4030020369.5369980709-.4030020369s1.209055571-.2679755812,1.209055571-.2679755812l.5369980709-.269030733.6709693748-.2701188583.5380779528-.6709776182s-.1361393111-.5369733408.4030185237-.5369733408c.5380779528,0,.2690389764-.5380944396,1.209055571.1339713039.9400083512.6709776182,2.5520824459,1.4780698173,3.4920907971,2.0161642569.9410964765.5370063143,2.0161725002.6709776182,3.2252280712,1.3430433616,1.2090390842.6709446447,5.1052365302,3.223060064,12.4935247733,3.223060064,7.3872166045,0,13.7015087058-.9410964765,15.4486422296,0,1.7460453985.941063503,8.3293847196,2.8222013042,6.5822511957,1.0761229322"/>
  </g>
</svg>