<?xml version="1.0" encoding="UTF-8"?>
<svg id="Layer_2" data-name="Layer 2" xmlns="http://www.w3.org/2000/svg" viewBox="0 0 33.2135427475 81.129573866">
  <defs>
    <style>
      .cls-1 {
        fill: #82ff82;
        fill-rule: evenodd;
      }
    </style>
  </defs>
  <g id="Layer_1-2" data-name="Layer 1">
    <path class="cls-1" d="M33.1871508094,22.2847187596c-1.9757482825-3.2310921084-4.6853321982-5.9464238089-8.0569182417-7.6280476203-.9460565711-.5360423232-2.029821481-.7476987765-3.0562431031-1.1093164881-.7206334549-.1679857572-1.9389110433.1408563816-1.9446862149-.8322534854-.5571244072-.540093848-.693132338-1.3301426354-1.1113155527-1.9416989911-.6114526864-.9360382821-1.2897247192-1.8559280608-1.9448146534-2.7737739711-1.2591703944-1.1567412677-2.3976898797-2.9019854364-3.8895360197-3.6060196865-.542695129-.4398473904-.9276488716-.8198327953-1.5280750696-.971024082-.0082294763-.2462441305-.2501656885-.2063400295-.416705989-.4158568726-.2043287393-.0480199527-.2674172673-.2634926328-.5557824696-.2774518766-.0421688853-.2590997332-.2812875535-.3276951285-.5555600363-.4162224494-.0432557304-.25975944-.2805819931-.3269412117-.5556359397-.4160123079-.308280103-.5408457592-1.4853519856-.6392993264-2.0835885125-.8321978289.0855824716-.1422326897-.1797865281-.1670705824-.2779851623-.138372872.0861747612-.1422567702-.1799810036-.1675951586-.277792966-.1386923245-.3086657235-.2519694237-.7181807316-.3716522817-1.1113177403-.4162648191-.500790086-.4828032662-1.7910659539-.4576970687-2.5003506917-.1385020993-.7533589874.473670256-.8035079628,1.0670337834-1.3891618857,1.6643570101-.2799695954.4070414025-.853961499.3936458709-.9725438146.6932389442-.2249498745-.0217079354-.4027519117.0920382489-.4167489958.2774506215-.0718171317.0600975884-.3835798083-.0936728886-.2775325855.1388606407-.3604179804-.025599306-.3457167702,1.1878356147-.0002141421,1.2480451501-.0262721079.0991304711.1424926559.6277846712.277708678.5547165581.0333441804.1510201842-.0741436122.3263023451.1390844558.2774213784-.2781681616.4540007763,2.2959079861.9930052613,2.77813573.9708942729.7907064476.6375920142,2.0325983173-.1515529018,3.1950413604-.0000766885.6687602635.3750512781,1.789363538.5440898059,2.2227406963,1.109569101.7051509227.4412892662,1.5543756016,1.5632330441,2.3615102758,2.0802920721.4464272599.5765434152,1.0292909292,1.0155801242,1.5278814045,1.5257325289.0398263957.4323490367.67421806.5090583743.6946360217.9707350398.5258521129.1381495534.6213581775.8314434606.9724960653,1.1094125927,1.2114228012,1.555068685.8634510629,1.2131290758-.6947382678,2.0805429682-5.1752069305,3.0795459809-8.0464669401,9.5085606367-6.6677157421,15.3946812668.7359367054,3.8228929363,3.6200677173,7.1534222445,6.3898395542,9.7083840335.5384161571.4966069434,1.0302574552.9883636235,1.5280894059,1.5255810862.3182462079.0690118492.3766267654.4852359809.6946927123.5547176018.0561056036.2139970235-.194893978.0627402504-.1388960914.2774178939-.478704828.7462750089-.5968037249,1.4316783183-1.1113436706,2.2190377804-1.1981113318,4.184882224-5.6626326359,7.6239976872-7.3623445804,12.204806207-.3792328612,1.1729554078-.800737075,2.4111562938-.6945915922,3.7446388124-.1928024443.4379579511-.4531965398,1.3741679229-.1391893241,1.8030020255.0603570891,1.5195034422.7606532881,2.817832312,1.2503203294,4.1607679692.3512634491,1.4855554814-.0506184527,3.1395897051-.5556109422,4.4379514383-.2684644042,2.0376993666.0273832315,4.5746930242.1391092204,6.6571803448-.7593762627,3.0754005168.1021732361,3.613454416,2.7783478718,2.6350881833.5941650086.3466988538,2.4089581295-.6088775717,2.917017563.0002490236.3908883426-.0538638574.5570966101-.3412921068.9723748361-.2774927643-.0993015781-.2796107383.317128594-.0757078838.4168137805-.1388773287-.0265927193-.167080579.0247744999-.128507371.1389081232-.1386219924.674251761-.4501276604.3176109569-1.1999018371-.0000507327-1.8030114625-.0599661487-.1546407789-.0692973601-.8766941695-.2777229038-.8319997892-.0556233963-.090910536.1445309969-.8446657516-.1389612044-.6935175461-.3577933159-2.9057444842.0574804293-6.0664101194.6945678955-8.4601958481,2.1580174745-.7868319411,1.006331565.7167908003,1.5278023886,1.9417295016.1133617409,2.7174372517.3598800765,6.6445386125.1396200726,9.1535936226-.0832187533.6999852239-.4272803483,1.858286682.6941476322,1.6642466899.1215887424.3093408323.8631537877.217666469,1.2500153534.2776966862.0394397767.3131345508.9381760988.1484979298.8335639966.0001132416.8477655635-.7768424557,2.7847724989-.3082816196,3.4729113479-.832274223,1.1150788055.0922317678.6243742142-1.0400439162.1386420489-1.5258888787-.0781359209-.9712158564-.3043930073-2.2021693607-.2776504339-3.189847924.3894281682-2.9308084541.8440393396-6.2959078756,1.3892097713-9.0148785305.5045888132-.5827073412.4923664716-1.0859886443.9723379262-1.8030416417.252574047-.5198891467.3333914458-1.4799078207.6943388937-1.8030819818-.0317712296-.9770496549.4847769979-1.2373074149,1.5283362619-1.1092874337.2594203646-.2027030976.5725435589-.2053288746.8333016222-.2777502662.3113228482-.1864620219.612225197-.4926541786.9724005892-.5545711476,2.7343193184-2.9140000021,3.595074253-6.0082273035,1.3889624798-9.5695722293-1.6784963392-2.3052039007-3.2123022948-4.0468529709-5.2785070741-5.963720656-.4653390907-.1648797489-.9988686144-.9835482104-1.3890616248-1.1095609689.0533688718-.2195900651-.1928598218-.0587010971-.1388797493-.2774042633-.2187131002.0525960435-.0597090331-.19217723-.2778937169-.1386833925.0534913836-.2193556831-.1930063728-.0587388769-.1388877384-.2773269639-.2185661443.052742774-.0598156986-.1922836515-.2778938252-.138683454-.9105810775-.5141553476-.7292815743-1.3701579715-.555363269-2.3578706463.3152576795-.9442338174.1976003954-2.093927595.5554481803-3.0510684041.6172355402-5.1726111729,1.5951635104-10.7648182245.416615699-15.9494464756-.1957037861-1.4007857716-.5343883353-2.3650853798-.8333455866-3.6059983751-.1894629921-.0526690152-.2335690474-.5780290412-.2779877056-.8321576328-.1758961453-.0357071285-.2702909766-.4537435534-.2778271134-.6935098116-.1939313128-.2749905806-.9085575497-1.9602785838.138878878-1.6640786932,1.3702809641.5581448471,2.9974454452,1.1050968939,4.0286280512,2.0803076461,1.5051228527,1.0172032142,2.6826591505,2.2209836204,4.0285213937,3.328587915.898878016.2645234824,3.6585751918,4.8360497839,3.3339741077,1.66415734ZM22.3518650813,49.0521362252c.0463064336.1242536276.1715104482.4352694757.4166507668.4160697817-.0962441944.4606439446.4839647965.6659813716.4169102145,1.1094183268.3839842981.6708669974.780575378,1.3752670558.8334796496,2.0803834806.1628252375-.084314172.4450303357.9681946948.1389214733.5547431764-.1482675143-.3733398842-.3285562799-.5747865775-.694611799-.9708153995-.7449720269-1.2588787164-2.080566966-3.1239290497-3.7505694015-3.6060846396-.0180579593-.4562927252.0619880867-1.0963504146.4164740734-1.2481043897-.0526414956-.4933590652.1563151522-.1458411307.4168744415-.1385375895.0932362483.2452868965.7083204161.701984407.9722261872.8321626577.1205078552.3300057295.5602338421.6025794448.8336443941.9707645951ZM12.3501431259,35.3217178546c-3.187973274-3.8398319159-4.0084153295-9.5868733586-1.6670284548-14.007781009,1.0634012551-2.0820861131,2.9643628273-4.0927692238,4.8621914659-5.2701039445,1.0466265657-.3222855446,1.1675446646,2.5586103541,1.6670210328,3.3283440104,1.8490942008,5.9048442917,2.6375123435,10.7065229897.5548640359,16.5042259631-.2929033812.3842512008-.9140188719,3.4846230932-1.2496742115,3.051328798-1.6395663757-.7532971298-3.1207378345-2.1170023814-4.1673738684-3.606013818ZM10.5442092494,76.5128595627c-.4741805592,1.2059794315-.5744945099-1.1414745423-.2780102808-1.5255383918.0563940978-1.104325609.3388159226,1.1342316299.2780102808,1.5255383918Z"/>
  </g>
</svg>