<?xml version="1.0" encoding="UTF-8"?>
<svg id="Layer_2" data-name="Layer 2" xmlns="http://www.w3.org/2000/svg" viewBox="0 0 119.3026874132 39.8138450704">
  <defs>
    <style>
      .cls-1 {
        fill: #05cace;
      }
    </style>
  </defs>
  <g id="Layer_1-2" data-name="Layer 1">
    <path class="cls-1" d="M104.5605903936,30.0571919931s-5.7588500977-1.2122802734-9.7026367188-.1512451172c0,0-3.4899291992-.1512451172-7.7252807617-2.7292480469-1.4803466797-.8946533203-3.0469970703-1.8854980469-4.6461181641-2.9508056641,0-.0518798828,0-.1047973633.0108642578-.15234375-.1945800781-.0864257812-.3673706055-.1588745117-.5510864258-.2117919922-.2053222656-.1361083984-.4105834961-.2776489258-.6159667969-.4159545898.2701416016-.7476806641-.4753417969-1.2435913086-1.0588378906-.7326049805-.0108032227-.008605957-.0216064453-.0162353516-.0322875977-.0237426758.2701416016-.5629272461-.4430541992-1.228515625-1.1129150391-1.2543945312-.2809448242-.1448364258-.5942993164-.2096557617-.9183959961-.2053222656-.0756835938-.0572509766-.1512451172-.1156005859-.2269897461-.1728515625,0-.2517700195-.0971679688-.540222168-.0322875977-.7747192383-.4322509766-.1998901367-.83203125-.346862793-1.2966918945-.2333984375-.0216064453-.0151367188-.0432128906-.0313110352-.0647583008-.0475463867.5510864258-.7509765625.0756225586-1.3959960938-.4862670898-1.2868041992,0-.0367431641.0216064453-.0637817383.0216064453-.1026611328-.1404418945-.1058959961-.2917480469-.1859130859-.4429931641-.2539672852-.1619873047-.3705444336-.6158447266-.678527832-1.0697021484-.7108764648-.0108032227-.1383666992-.032409668-.2755126953,0-.397644043-.4644775391-.2139282227-.885925293-.3814086914-1.3936767578-.2139282227.8534545898-1.048034668-.3458251953-1.930847168-1.0481567383-.9270629883.7780151367-.6871337891-.4645385742-1.7514648438-1.2749023438-1.4392089844v-.1901245117c-.1729125977.0323486328-.4646606445-.0637817383-.6807250977-.0270385742,1.1235961914-1.4564208984-.6051025391-1.6530761719-1.8477172852-1.3797607422-.1188354492-.1015625-.2484741211-.2052612305-.3673095703-.3090209961.6374511719-1.2122802734-.5726928711-1.6725463867-1.836730957-1.5872192383-.0432739258-.221496582-.1405029297-.4559326172-.1188354492-.6666259766-.2809448242-.0799560547-.5402832031-.1415405273-.7995605469-.143737793-.1081542969-.0108032227-.2161865234-.0032348633-.32421875-.009765625-.0648803711-.0453491211-.1188354492-.0906982422-.1837158203-.1361083984.1296386719-.3565673828.0648803711-.6428222656-.1080322266-.8244018555.2485351562-.2442016602.3673706055-.5963745117.3134155273-1.0901489258-.5186157227-.1966552734-1.0588378906-.1901855469-1.5559692383.032409668,0-.2896118164-.2701416016-.6104736328-.2809448242-.9141235352-.5186157227-.0734863281-.9614868164-.1156005859-1.4045410156.1890869141.5294189453-1.2479248047-.8752441406-1.7546386719-1.2641601562-.5964355469.2269897461-.3608398438.1079711914-.6860351562-.162109375-.9086303711.2269897461-1.0231933594-.9291992188-1.7190551758-1.8043212891-.8071289062,1.5341796875-1.5299682617-1.998840332-1.500793457-3.3494262695-.771484375-.0865478516-.0356445312-.1729125977-.0680541992-.2594604492-.1036987305.1513061523-.8611450195-.5725708008-1.1323852539-1.4261474609-1.0891113281,0-.0378417969,0-.0681152344-.0108642578-.1048583984-.4753417969-.1090698242-.9508056641-.0442504883-1.3721923828.1729125977-.0323486328-.0108032227-.0647583008-.0258789062-.1080322266-.0356445312,0,0-.032409668-.0130004883-.1080322266-.0335083008-.0971679688-.2344360352-.3133544922-.465637207-.3565063477-.7130737305-.4646606445.0020751953-.8752441406.0345458984-1.2425537109.3057250977-.0324707031-.0075073242-.0756835938-.0151367188-.1080322266-.0227050781.2268676758-1.2111816406-1.1345214844-1.4672241211-1.3399047852-.3014526367.4971313477-1.1366577148-1.8692016602-1.5645141602-1.998840332-.2668457031-.1188354492-.0151367188-.2268676758-.0302124023-.345703125-.0442504883-.32421875-.6202392578-.9832763672-.8471069336-1.4046630859-.1458740234-.0324707031-.0032348633-.0539550781-.0065307617-.0864257812-.009765625-.0108032227-.1015625-.0108032227-.2258300781,0-.2647094727-.4646606445-.0302734375-.8643798828-.0389404297-1.2533569336.1761474609-.0539550781-.0021972656-.0972290039-.0064697266-.1513061523-.0108642578-.2809448242-.4926757812-1.2857055664-.5920410156-1.6315307617-.0658569336-.1512451172-.0032958984-.3024291992-.0075683594-.4645385742-.0108032227-.3997192383-.2809448242-1.0372924805-.2874145508-1.3829956055-.001159668-.0756225586.0021972656-.1405029297-.0010375977-.2160644531,0-.0540771484-.9161987305-1.1994628906-1.0134277344-1.3830566406.037902832.4970092773-1.1226196289-1.8044433594-1.5526733398-1.9880371094-.3154907227-.3890380859-.2593994141-.9940795898-.0194702148-1.2533569336.4688720703-.1837158203-.0475463867-.3350219727-.0086669922-.4430541992.1447753906-.0539550781.0064697266-.1188354492.0129394531-.1729125977.0194702148-.2592773438-.905456543-1.5882568359-.8233642578-1.6315307617.2128295898-.0430908203.0075683594-.0863647461.0151367188-.1403198242.0216064453-.4213867188-.739074707-1.2317504883-.4505615234-1.815246582.1005249023-.2376708984-.060546875-.5618896484-.1436767578-.9075927734-.2399291992-.0432739258-.0745239258-.0648803711-.1176757812-.0648803711-.1176757812l-1.6639404297-.7218017578c-.2916259766-.1393432617-.5186157227-.1707763672-.6806030273-.1567382812-.6483764648-.4710083008-1.3182983398-1.0793457031-1.6964111328-1.0793457031-.4538574219,0-.9075927734-.4548950195-1.5126953125-.3035888672-.6049804688.15234375-.6049804688.3035888672-1.372253418.3035888672h-1.512512207l-.4214477539.4732666016c-.4105834961-.0432128906-.7455444336-.0702514648-.7455444336-.0702514648,0,0-1.7395629883-1.3225097656-3.4575195312-.2247314453-.0432128906.0248413086-.0863647461.0529785156-.1296386719.0820922852-1.7611694336,1.2415161133-2.668762207,1.8638916016-4.0625610352,2.387878418-1.3830566406.526184082-2.0529785156,1.3387451172-2.3339233398,1.2911987305-.2917480469-.0486450195-3.3494262695.428894043-4.0192871094.5725708008-.669921875.143737793-1.3397827148-.0485839844-1.3397827148-.0485839844,0,0-1.8583984375-1.3840942383-2.8200683594-.2376708984,0,0-4.3435058594.8589477539-1.0479736328,3.8216552734,0,0,.0971679688,1.1474609375,1.6206665039,1.3862304688,1.4586181641.2279663086,7.3363647461,1.5774536133,14.2514038086,2.1598510742.2160644531.7628173828,2.0097045898,1.4111328125,2.5823974609,1.8649291992.3348388672.2657470703.9616088867.8081665039,1.4045410156,1.2976074219-.0106811523.0475463867.0216064453.092956543.1297607422.1340332031.1296386719.1588134766.2484741211.3090209961.3132324219.4364624023.4538574219.8427734375-.1080322266,2.0540161133.32421875,2.9151611328-.2809448242.9194946289-1.4910888672,4.862121582-1.7611694336,5.2640991211-.3026123047.4548339844-1.8261108398,3.7913208008-1.8261108398,3.7913208008,0,0-3.1765136719-.3035888672-3.4898681641.3025512695l-.3026123047.6072387695s-.3024291992.7584838867.9185180664.7584838867c1.210144043,0,3.9436645508-.15234375,3.9436645508-.15234375h1.0589599609s.3024291992-.4548950195.6049804688-.9097290039c.3025512695-.4548950195,2.2689819336-3.7914428711,2.8849487305-5.0047607422.6049804688-1.2123413086.6049804688-1.3646850586,1.2100830078-1.5159301758.6050415039-.1513061523.9075927734-1.2133789062,1.3614501953-2.1231079102.4536743164-.9097900391,3.4898681641-.1513061523,4.8513183594.9097290039,1.3721923828,1.0620727539,3.0360717773,2.124206543,3.4899291992,4.853515625.4537963867,2.7292480469,1.6747436523,5.0025634766.6049804688,6.3682861328l-1.8151245117.3035888672h-.6051635742l-.6049804688.3036499023v.6061401367s-.4646606445,1.0621337891.3025512695,1.0621337891h4.2462158203l.7564086914-.6072387695s.9075927734-1.0599975586,1.0588378906-1.5159301758c.1513061523-.4559936523.3025512695-.7584838867.3025512695-1.5169677734s-.3025512695-5.9145507812-.3025512695-6.6729736328v-.7575073242s10.0052490234,2.1221313477,12.2850341797,1.3646850586c0,0,.3025512695,1.2133789062.1512451172,1.971862793-.1512451172.7585449219-.6051025391,2.7292480469-.6051025391,2.7292480469l-.6050415039,1.5159301758-.6051025391,1.0610351562-.6157836914.3046875-2.4202880859.3035888672h-1.3613891602c-.6159667969,0-1.0697021484.3026123047-1.0697021484.3026123047l-.4537963867.6072387695v.6060791016l.4537963867.3036499023h.4537353516l.6159667969.1512451172s-.7672119141.1512451172,1.2100830078.1512451172h2.4202880859c.7670898438,0,3.0360717773-.4548339844,3.0360717773-.4548339844l.1512451172-.6062011719s0-.3024902344.4538574219-1.0610351562c.4537353516-.7595825195.3026123047-1.2144165039,1.0697021484-1.5169677734.7562866211-.3035888672,0,.1513061523.7562866211-.3035888672.7564086914-.4548950195,1.0588378906-.1513061523,1.5126342773-.7584838867.4538574219-.6062011719.7564697266-.3025512695.7564697266-2.1220703125s.3024291992-2.8826904297.3024291992-2.8826904297c0,0,8.4924926758,1.0620727539,9.8647460938,4.5498657227,0,0,.7564086914.6061401367-.1513061523,1.0620727539-.9183959961.4548950195-1.5233764648.7574462891-1.5233764648.7574462891l-1.0589599609.15234375-.6050415039.1512451172h-.9075317383l-.6159667969.3025512695s-.7562866211.0010375977-.3025512695.6082763672l.4538574219.6062011719s1.0696411133.3036499023,1.5234985352.3036499023h2.2689819336c.4646606445,0,1.0696411133-.1524047852,1.0696411133-.1524047852,0,0,0-.4548339844.6051635742-.4548339844.6049804688,0,1.3613891602-.3026123047,1.3613891602-.3026123047l.6049804688-.3035888672.7562866211-.3046875.6159667969-.7573852539s-.162109375-.6062011719.4538574219-.6062011719c.6049804688,0,.3024291992-.6071777344,1.3612670898.1513061523,1.0589599609.7584838867,2.8848876953,1.6682128906,3.9437255859,2.2755126953,1.0588378906.6060791016,2.2689819336.7573852539,3.6412353516,1.5158691406,1.3613891602.7584838867,5.7590332031,3.6390380859,14.1002197266,3.6390380859,8.3412475586,0,15.4723510742-1.0621337891,17.4389038086,0,1.9772338867,1.0620727539,9.4000854492,3.1862792969,7.4336547852,1.2144775391-1.977355957-1.9730224609-3.6411743164-6.0668945313-14.4136352539-8.9485473633Z"/>
  </g>
</svg>