<?xml version="1.0" encoding="UTF-8"?>
<svg id="Layer_2" data-name="Layer 2" xmlns="http://www.w3.org/2000/svg" viewBox="0 0 105.6097053794 56.3684139517">
  <defs>
    <style>
      .cls-1 {
        fill: #6d969a;
      }
    </style>
  </defs>
  <g id="Layer_1-2" data-name="Layer 1">
    <path class="cls-1" d="M84.1943359375.6851864126c-.9443359375-.5772705078-3.1391601562-1.0880126953-4.1538085938-.2236328125,1.333984375,1.1767578125,4.9311523438,1.4584960938,4.04296875,4.0393066406-.2170410156.6235351562-1.3134765625.8370361328-1.9079589844.8984375-3.6994628906.3928222656-5.8806152344.6696777344-9.2080078125,2.1333007812-1.6394042969.7204589844-3.4948730469,2.0834960938-5.041015625,2.6680908203-1.3801269531.8010253906-2.6596679688,1.7364501953-4.0490722656,2.5073242188-1.0788574219.5985107422-2.2446289062,1.0545654297-3.3671875,1.5823974609l7.3466796875-4.0627441406c-.5537109375.2021484375-1.0668945312.3024902344-1.5131835938.2291259766-.583984375-.0989990234-1.0092773438-.6234130859-.896484375-1.2416992188l-.2517089844-.1884765625c-.0258789062.0635986328-.0554199219.1258544922-.0935058594.1849365234l.0895996094-.1878662109-.1936035156-.1451416016c-2.1811523438,1.5782470703-3.4262695312,4.1693115234-5.6142578125,5.8381347656-2.6987304688,2.0649414062-6.6254882812,3.251953125-9.990234375,5.0539550781-8.8715820312,4.7465820312-19.2119140625,7.1651611328-29.5283203125,10.5522460938-2.2683105469.7497558594-4.900390625.8591308594-6.7348632812,1.7967529297-2.1743164062,1.1085205078-3.8020019531,2.9327392578-6.2888183594,3.1478271484h-1.0095214844c-2.6264648438,1.2398681641-5.59375,1.7351074219-5.83203125,4.7277832031l.0454101562-.0904541016s-.052734375,1.1517333984.0615234375,1.7575683594c1.0947265625.8881835938,2.6882324219,1.2758789062,3.7045898438,2.2442626953.5654296875-.4304199219,1.7524414062-.4064941406,2.4697265625-.1109619141,4.3178710938-1.0743408203,9.2045898438,2.0872802734,14.5952148438,2.4681396484,4.314453125.3142089844,8.9106445312-.3500976562,12.7963867188,0,1.0673828125.0991210938,1.3955078125.6370849609,2.1350097656.9001464844,2.6354980469.9512939453,5.7219238281,1.4825439453,7.9697265625,2.6934814453.3005371094.3006591797.3483886719.8507080078.6745605469,1.1239013672,4.1643066406,1.375,10.0705566406,1.0043945312,12.4616699219,4.1520996094,1.7490234375-.720703125,5.8432617188-1.1220703125,6.4001464844.8984375.8403320312-.6728515625,2.55859375-.5106201172,3.14453125.3365478516,2.5390625-.2232666016,4.9907226562-.5104980469,5.9450683594-2.2254638672.0419921875-.0270996094.0876464844-.0590820312.0891113281-.0665283203-.0356445312.0235595703-.0620117188.0412597656-.0832519531.0557861328.0124511719-.0227050781.0249023438-.0451660156.0368652344-.0681152344l.0483398438.0087890625c.0014648438,0-.001953125.0026855469-.001953125.0035400391.0021972656-.0015869141.0029296875-.0020751953.0053710938-.0035400391.1015625-.0678710938.0939941406-.1146240234.0224609375-.1468505859.2958984375-.6578369141.3940429688-1.5042724609.2233886719-2.6082763672-8.1950683594-1.3100585938-14.5573730469-4.6936035156-20.9284667969-7.8278808594,2.7072753906-1.2194824219,5.4111328125-2.6423339844,7.568359375-4.0734863281,3.5834960938-2.3793945312,7.5646972656-6.2583007812,9.880859375-9.6555175781,2.9001464844-4.259765625,5.2744140625-9.4794921875,8.6442871094-13.2474365234,2.2888183594-2.55859375,5.8618164062-7.8516845703,11.0014648438-5.4998779297,2.4731445312,1.1342773438,4.7873535156,2.8303222656,7.3425292969,3.7884521484,2.5981445312.9718017578,3.6791992188.5926513672,6.3950195312.3109130859,1.0639648438-.1110839844,0,0,2.8046875-.7806396484,1.0349121094-.2869873047-3.3427734375-2.5534667969-4.4189453125-2.8148193359-3.5131835938-.8642578125-7.1154785156-1.9897460938-10.1027832031-4.0975341797-2.6372070312-1.8616943359-4.2292480469-5.2077636719-6.7365722656-6.7347412109ZM37.5815429688,47.6835994986c.0576171875.0111083984.1181640625.0177001953.1804199219.0183105469l.2224121094.0408935547-.1252441406.0393066406c-.06640625-.0177001953-.1665039062-.0534667969-.2775878906-.0985107422Z"/>
  </g>
</svg>