<?xml version="1.0" encoding="UTF-8"?>
<svg id="Layer_2" data-name="Layer 2" xmlns="http://www.w3.org/2000/svg" viewBox="0 0 90.7392104712 40.0907285975">
  <defs>
    <style>
      .cls-1 {
        fill: #ddbaff;
        fill-rule: evenodd;
      }
    </style>
  </defs>
  <g id="Layer_1-2" data-name="Layer 1">
    <path class="cls-1" d="M90.5660407289,3.0241935278c-2.6985481047-3.9897943277-4.5896301365-1.2219292326-5.6304053481-3.0024489563-.6566193996-.1374553517-1.0327976957.4007816839-1.1258881199.9380362316-.4402390111-.779803729-3.6576447628-.3626666094-4.3164573348-.0004350252-6.6465053918,1.3494304601-1.3344839312,11.5334965457-10.3222513208,8.4451239936-3.1170513893.00808714-6.5277834967.3167815284-9.0081974051,1.5016212389-1.9385210596-.0343863053-4.410679731.3303989247-6.3809406365.7512233362-6.4480763962,2.5136844083-13.5765959913,3.7524457998-20.6442418632,4.504093957-7.9026258587,1.3281152075-16.3084887613,1.8791302496-24.3975858245,3.189687322-1.7084235177-.0399556927-13.0670267031,3.9075954906-6.9441719649,3.379049977,10.4613851424-2.2991340368,22.545872032-2.4665333064,33.4060940508-.7519953631,4.9049588203.8183263738,11.414391114-.4559944875,15.7646305094,2.252444986,1.1967570868.5054548234,2.1500173507.1548786768.7506594043,1.3137214352-.3423505782,1.0666041587-.8016387784,2.1066963788-1.3131627387,3.1905100495-2.4977755699,2.753461577-4.0836123101,1.8984587189-4.3165716454,6.3808764446-4.6093823941,5.8351639627,6.2704697312,5.5165466168,3.7533644474,4.1285399151-1.1972361778-1.0503689113-3.6839717982-.7133860514-1.6890989162-3.1905127059.4664999913-1.4355145181-.3025439857-2.8048236854,1.3140685296-3.3776043481,1.7665365508-1.9693015274,4.3111143135-1.8249941579,6.3803507466-3.0030968865,1.7956634626-.6854777686,1.6349067638,2.7993634716,1.8767824384,3.3780696575.8476265462.0478722289.3868013633,1.3309059033.3752345754,2.0651178073.9139962784-.322075634-.1635653303,1.6340156036.7507345459,1.3129155391,2.153237539,4.6684861483,1.2998111528-4.4712881979,1.6890319821-6.1928303279-.46317564-1.0382910773-3.2128816308-.8557115935-2.4400424941-2.2521074469,1.164208683-1.6871518271,4.9390765476.0917389836,5.8179144662-2.0651356939,2.4089170769-1.6573121763,5.1200606907-2.5517759662,7.6946890395-3.9409031413,1.433527062-1.3570990052.0894922596,1.1771942083,3.7539840711,2.4399110149.5898646205.237863639,1.2200513351,1.8882766304.3753802979,1.5016655756.0736664379-.9943816194-.6113708374-1.4362606867-.5631964268-.1878307946-.9016415741-1.4792499718-1.0375160389.7824536515-.3755033933,1.3138297414,1.3370758902,1.2877632245,2.7368331665-1.122535398,2.8152246398-2.4398142371,1.1889200232-2.4751633596-5.3848292579-2.4663576293-.9379327949-6.0052702747,1.3936146847-.2018264184.16311526-2.3791495436.7500128593-3.1904354767.7215737451-.7071469076,1.0029476963-1.5819550166,1.5015776822-2.4394974204,4.0756861736-9.2147339546,5.7635947395-1.1157760735,10.8852003563-2.6270579937.1270965267-.5755682626-.4801198732-.4466559717-.7509262585-.7511658644-.3508882714-.2011841473-.4262382536-.6554269647-.9379731778-.5630782695-.8291049697-.6908655049-1.8862626058-.9697365464-.5628515068-1.6888583226-.2958050282-.4080760597-1.7143392693-.049121508-2.0643499004-.9387808052-.5123204237-.3726938086-1.6388372438-.6139248226-1.5021255942-1.313039258,1.3792780565-1.3142162936,7.8780924667,2.3710302646,6.5689400225-2.0645396105Z"/>
  </g>
</svg>