<?xml version="1.0" encoding="UTF-8"?>
<svg id="Layer_2" data-name="Layer 2" xmlns="http://www.w3.org/2000/svg" viewBox="0 0 119.3027142509 39.8138603459">
  <defs>
    <style>
      .cls-1 {
        fill: #cabb91;
      }
    </style>
  </defs>
  <g id="Layer_1-2" data-name="Layer 1">
    <path class="cls-1" d="M118.9742600069,39.0057486612c-1.9773544551-1.9730019539-3.6411969344-6.0669249534-14.4136372438-8.9485444928,0,0-5.7588865776-1.2123034601-9.7026482879-.1512823879,0,0-3.4899145465-.151216441-7.7252938328-2.7292160527-1.4803779618-.8946368242-3.0470145825-1.8854903023-4.6460971207-2.9507979286,0-.0519002787,0-.1047897622.0108153058-.1523375397-.1945436113-.0864564998-.367324717-.1588662914-.5510530225-.2118217219-.2053589172-.136114581-.4105859404-.2776368148-.6159448576-.4159276463.2701188583-.7477069374-.4753458815-1.2436282789-1.0588448216-.7326050774-.0108153058-.0086390553-.0216306117-.0162229588-.0323140236-.0237409153.2701188583-.5629234801-.443031858-1.2285264189-1.1129213509-1.2544435847-.2809341642-.1448195832-.5943142459-.2096454713-.9183777395-.2052929702-.075707141-.0572419846-.1512823879-.115605068-.2269895289-.1728470527,0-.251785596-.0972058587-.5402377166-.0323140236-.774745202-.4322165521-.1998853173-.8319871867-.3468152041-1.2966496563-.2333863866-.0216306117-.01510186-.0432612234-.0313248188-.0647599411-.0475477775.5510530225-.7509383398.075575247-1.3959658186-.4862930814-1.2868235553,0-.0367324717.0216306117-.0637707363.0216306117-.1026135116-.1404670821-.105910861-.29174947-.1859045561-.443031858-.2539618465-.1619657998-.3705561194-.6158129636-.6785285482-1.0696601274-.7109085187-.0108153059-.1383567785-.0324459176-.2755265112,0-.397660331-.4645305757-.2139320255-.885931822-.3813714252-1.393723621-.2139320255.8534859044-1.0480295157-.3458259993-1.9307958823-1.0481614097-.9270167948.7780425514-.6871676034-.4645305757-1.7514860249-1.2748871507-1.439227042v-.1901251632c-.1729129996.0323799706-.4646624697-.0637707363-.6807047987-.0270382646,1.1236047627-1.4564392056-.6051295518-1.6530931205-1.8477026788-1.3797428598-.1188364704-.1015583598-.2484882466-.2052929702-.367324717-.3090275806.6374435753-1.2123034601-.5726836342-1.6725474816-1.836755479-1.5872120806-.0432612234-.221515929-.1404670821-.4559574674-.1188364704-.6666580905-.2809341642-.0799277481-.5402377166-.1415222339-.7995412691-.1436984844-.1081530585-.0108153058-.2161742231-.0032314024-.3241953876-.0097601541-.0648918351-.045371527-.1188364704-.090743054-.1837283055-.136114581.1296517762-.3565753581.0648918351-.6428512283-.1080211645-.8244032832.2484882466-.2442016925.367324717-.5964245495.3133800817-1.0901696404-.5186071049-.1966539149-1.0588448216-.1901911102-1.5559532088.0323799706,0-.2895732195-.2701188583-.6104712577-.2809341642-.9140911854-.518607105-.0734649434-.9615070689-.115605068-1.4045389269.1890700114.5294224108-1.247914833-.8752484101-1.7546514803-1.2642037388-.5964245495.2269895289-.3608619123.1080211645-.6860465047-.1620976938-.9086175854.2269895289-1.0232334487-.9291930454-1.7190401074-1.8043095615-.8071251726,1.5341907031-1.529970096-1.9988531728-1.5008215278-3.3494474644-.7715137997-.0865224468-.0356113729-.1729129996-.0680572905-.2594354464-.1036686634.1512823879-.8611357549-.5725517402-1.132375712-1.4261695386-1.0891144886,0-.0378535705,0-.0681232375-.0108153058-.1048557092-.4753458815-.1090763163-.9508236571-.0442504282-1.3722249033.1729129996-.0323140236-.0108153058-.0647599411-.0259171659-.1080211645-.0356773199,0,0-.0324459175-.0129915564-.1080211645-.0335010693-.0972058587-.2344415384-.3133800817-.4656516745-.3565094112-.7130847693-.4646624697.0021103036-.8752484101.0345562211-1.2425731271.3057302312-.0324459176-.0075179565-.075707141-.01510186-.1080211645-.0226857635.2268576349-1.2111823613-1.1345519625-1.4672545114-1.3399108797-.3014436771.4971083872-1.1366622661-1.8692013966-1.5645263171-1.9988531728-.266887456-.1188364704-.01510186-.2268576349-.03020372-.3456941053-.0442504282-.3241953876-.6202314118-.9832695746-.8470890467-1.4046708209-.145874735-.0324459175-.0032314024-.0539446353-.0065287517-.0863905528-.0097601541-.0108153058-.1015583598-.0108153058-.2258024831,0-.2647112054-.4646624697-.030269667-.8644331042-.0389087223-1.2533884329.176144402-.0539446353-.0021762506-.0972058587-.0064628047-.1512823879-.0108153059-.2809341642-.4926899391-1.2857024565-.5920720483-1.6315284558-.0658810399-.1512823879-.0032973493-.3024328819-.0075839035-.4645305757-.0108153058-.3997706345-.2809341642-1.0373461038-.2873969689-1.3830402092-.0011210988-.075575247.0021762506-.1404670821-.0010551518-.2160423291,0-.0540765292-.9162014889-1.1994437977-1.0134732946-1.3830402092.0378535705.4969764932-1.1226155579-1.8044414554-1.5526558595-1.988037867-.3154903853-.3890872227-.2593694995-.9940848805-.0194543611-1.2533884329.4688830768-.1837283055-.0475477776-.3350106934-.0086390553-.443031858.1448195832-.0539446353.0064628047-.1188364704.0129256094-.1729129996.0194543611-.2593035525-.9054521301-1.5882672324-.8233481314-1.6315284558.2128109267-.0431293294.0075839035-.0863905528.015167807-.1403351881.0216306117-.4214012462-.7390678821-1.2317578212-.4505498145-1.8152567613.100503208-.2376729408-.060539334-.5618683284-.1436984844-.9075624337-.2399151383-.0432612234-.0745200952-.0648918351-.1177153716-.0648918351-.1177153716l-1.6639743733-.7217897716c-.2916175761-.1393459833-.5186071049-.1707367491-.6805729048-.1566900409-.6483907751-.4710593274-1.318280268-1.0793543345-1.6964202909-1.0793543345-.4538471638,0-.9075624337-.4549023156-1.5126919854-.3036199277-.6049976578.1523375397-.6049976578.3036199277-1.3722249033.3036199277h-1.5125600914l-.4214012463.473235578c-.4105859404-.0431952764-.7455966338-.070233541-.7455966338-.070233541,0,0-1.7395496203-1.3225008752-3.4574686289-.2247473313-.0432612234.0248620141-.0863905528.0529554305-.1296517762.0821039987-1.761180232,1.2415179753-2.6687426657,1.8638596906-4.0625981807,2.3878744485-1.3830402092.5261910084-2.052929702,1.338723834-2.3338638662,1.2911760564-.29174947-.0486029293-3.3494474644.4289192028-4.0193369573.5726176872s-1.3397789858-.0486029293-1.3397789858-.0486029293c0,0-1.8583860907-1.384095361-2.8200250536-.2376729408,0,0-4.3435323449.8589595043-1.0480295157,3.8216278906,0,0,.0972058587,1.147477572,1.6207131499,1.3862716115,1.4586154561.2279787337,7.3363385041,1.5774519265,14.251407656,2.1598297678.2160423291.7628087974,2.0096684786,1.4111336256,2.5823521128,1.8649148424.3348787994.2657663572.9616389629.8081803244,1.4045389269,1.2976388611-.0106834119.0475477776.0216306117.0929193045.1297836702.1340042774.1296517762.1588003444.2484882466.3090275806.3132481877.4365031063.4538471638.8427365455-.1080211645,2.0539848538.3241953876,2.9151206087-.2809341642.9194988383-1.4910613737,4.8621394498-1.761180232,5.2640863349-.3025647759.4548363686-1.8260720671,3.7913582236-1.8260720671,3.7913582236,0,0-3.1765344648-.3036199277-3.4899145465.3025647759l-.3025647759.6072398553s-.3024328819.7584562963.9185096335.7584562963c1.2101272095,0,3.9436298163-.1523375397,3.9436298163-.1523375397h1.0589767156s.3024328819-.4549023156.6049976578-.9097386842c.3025647759-.4549023156,2.2689720311-3.7914241706,2.8849168887-5.0047827825.6049976578-1.2123034601.6049976578-1.3646409998,1.2101272095-1.5159233878.6049976578-.1512823879.9075624337-1.2133586119,1.3614095975-2.1230972961.4537152698-.9098046312,3.4899145465-.1512823879,4.851324144.9097386842,1.3722249033,1.0620762239,3.0360673827,2.1242183949,3.4899145465,4.8535003945.4538471638,2.7292819996,1.6747896792,5.0026065319.6049976578,6.3683026835l-1.8151248673.3036199277h-.6051295517l-.6049976578.3036199277v.6061187566s-.4646624697,1.0621421709.3025647759,1.0621421709h4.2461945922l.7564119397-.6072398553s.9075624337-1.0599659204,1.0588448216-1.5159233878.3025647759-.7584562963.3025647759-1.5169785395c0-.7584562963-.3025647759-5.9145214667-.3025647759-6.672977763v-.7574670915s10.0052130638,2.1221080913,12.2850004008,1.3646409998c0,0,.3025647759,1.2134245589.1512823879,1.9718808552-.1512823879.7585222433-.6051295517,2.7292819996-.6051295517,2.7292819996l-.6049976578,1.5159233878-.6051295517,1.0610210722-.6158129636.3046750795-2.4202544191.3036199277h-1.3614095975c-.6159448576,0-1.0696601274.3025647759-1.0696601274.3025647759l-.4538471638.6072398553v.6061187566l.4538471638.3036199277h.4537152698l.6159448576.1512823879s-.7672272455.151216441,1.2101272095.151216441h2.4202544191c.7670953516,0,3.0360673827-.4548363686,3.0360673827-.4548363686l.1512823879-.6061847035s0-.3024988289.4538471638-1.0610210722c.4537152698-.7595773951.3025647759-1.2144137637,1.0696601274-1.5169785395.7562800457-.3036199277,0,.1512823879.7562800457-.3036199277.7564119397-.4549023156,1.0588448216-.1512823879,1.5126919854-.7584562963.4538471638-.6061847035.7564119397-.3025647759.7564119397-2.1221080913,0-1.8194773684.3024328819-2.8826746912.3024328819-2.8826746912,0,0,8.4925210784,1.0620762239,9.8647459817,4.5498804669,0,0,.7564119397.6061187566-.1512823879,1.0620762239-.9183777395.4549023156-1.5233753973.7574670915-1.5233753973.7574670915l-1.0589767156.1523375397-.6049976578.151216441h-.9075624336l-.6159448576.3025647759s-.7562800457.0010551518-.3025647759.6082950071l.4538471638.6061847035s1.0696601275.3036199277,1.5235072913.3036199277h2.2689720311c.4646624697,0,1.0696601274-.1524034867,1.0696601274-.1524034867,0,0,0-.4548363686.6051295517-.4548363686.6049976578,0,1.3614095975-.3025647759,1.3614095975-.3025647759l.6049976578-.3036199277.7562800457-.3046750795.6159448576-.7574011445s-.1620976938-.6061847035.4538471638-.6061847035c.6049976578,0,.3024328819-.6071739083,1.3612777035.1512823879,1.0589767156.7585222433,2.8849168887,1.6682609275,3.9437617103,2.2755007828,1.0588448216.6061187566,2.2689720311.7574011445,3.6411969344,1.5159233878,1.3614095975.7584562963,5.7590184716,3.6390206839,14.100257162,3.6390206839s15.4723501714-1.0621421709,17.4388893206,0c1.9772225611,1.0620762239,9.400083512,3.1862946188,7.4336762568,1.2144797107"/>
  </g>
</svg>