<?xml version="1.0" encoding="UTF-8"?>
<svg id="Layer_2" data-name="Layer 2" xmlns="http://www.w3.org/2000/svg" viewBox="0 0 90.7627146624 23.41610994">
  <defs>
    <style>
      .cls-1 {
        fill: #a1ffa1;
        fill-rule: evenodd;
      }
    </style>
  </defs>
  <g id="Layer_1-2" data-name="Layer 1">
    <path class="cls-1" d="M90.6429645938.7251298378c-.3847576075-.3480835726-2.1788245974-1.2029401193-2.2520592479-.3751441613.3981139639.4299736989.9058976216.7295848921.750517549,1.4987001928-.5402996914.2266085999-1.9805793356-.4504010244-2.2516287738.561987151.0139666932.6609320554-.2562394923.2808557254-.5634165482-.0000706231-.3704724489-.1678050468-.5636424119.0495564888-.9382974797-.1870637557-1.0813801996-.2840355502-.688170954,1.4774596572-1.6890968066,1.3109402167-.2957893161-1.2427511802-.8177786499-.8048447215-1.8769399034-.562042607-.2876109376,1.0908703691-1.035853613.9142179292-1.1262380295-.1874827361-1.5695092006-1.784103658-2.3656212977,2.5855894199-2.8150580788.5624546174-1.2695010391-.6704080609-1.8484123046-.1932713216-2.626822963.5616692142-.5799588481-.2443980058-.483119808-.6442793216-.9385705475-.9367708554-1.0011298055-.1453490933-1.2335214924.4804038773-1.6889202997.7496275475-.0590714025.7509425797-1.3214787417-1.4831418631-3.1905865646.0000063015-.5820597855.1448277741-.5837975172-.3455203479-.5631676041-.7496263709-.3233781753.0013757104-1.3495813209.0966726478-1.5016608028-.1871001618-.9650933156-.1834847642-.4452545606.9665660498-1.3134474553.7491957261-.2621959404-2.3504722548-2.2057757319.4968301344-3.1903411905-.1869233116-.0225913428-.9313058611-.4499826778-.8698449195-1.1262001682-.9367437453-1.7137847911.8224576862-.8831094585,1.5080602933-2.8150953074-.0004089806-1.1286494989-.4032754434-.925617433,1.4309580785-2.0645741991.5621063496.3618650666-1.8829942568-2.2212179881.4093842166-2.6273078664-.5617565408-1.0918167393-.6266186932-1.5330578393-.9358139865-2.251836103.1874394864-.4229126248.3457193765-.6262823272-.0271857923-.7509977565-.5621173701-.9473465067-.4696847283-1.8718565428-.1773439081-2.0638982436.7492600426-1.3462889408.2947909697-1.7101886685-2.3337456468-3.0034332834-.5615945803-.4356218052.9092112571-.8262511207-.5035162718-1.1261184271-.7495980503-.714520331-.0786980563-1.6908334095.2318783323-1.5009525677,1.1238334283-.5509022635-.5930083097-1.1496977603-1.7159752536-2.2524811064-.9362930507-.8266113095,2.4022173831-.6226881128-1.7268095863-2.4397435754.0000421362-.514211461.352194744-.3720839678,1.1237411097-1.1258004424.9361314438-.8696589111-1.9608031104-1.4600952434-.5673352965-2.439703141.1875405877-.7133602422.0733082263-.2940346723-.2730791827-.5632986505-.7491338458-.9148933946.2182044286-1.8389112362-.0046440935-2.2515004763.9363335511-1.5960093492-.4681439141-2.3697429003-1.20444071-3.0029914629.5623164164-.3598365897-.240331085-.7210987909-.4510405648-.750678793-.937058699-.6853367572.1392323974-1.3923122464.4159160219-1.6891751702,1.1240175054-3.1687618764-.9948457851-1.4346698744.6470089029-2.814973209.9366735958-.6378926906-.9932339886-1.9571198221-.3845239981-1.8769941394.7488099055-.17985684-.0026571329-1.6324044754-.7380882361-1.5013128684-.1874644526-1.4399256325,2.1613601793-1.4467873091-1.0957061192-2.8150019571,1.4984078268-.8406972458.0999291109-.6841235025-.8878402759-1.8767665929.7494970014-.8080970725-.1567640727-1.8204505544-.697007371-2.2522127103.1871858628-1.4212998289.3011173136-.7136594053-.8539742121-1.1257628748-1.4987015678-.317902032-.2541031235-1.3009748306.0384777264-1.126435226-.5616042465-.3637028319-1.1384160869-2.6824752357.0236949108-2.4397634158-1.6857983839-.8415885154-.0140036697-1.4465041142.5208849453-1.688489074-.561959124-1.7129267591-.7211097954-3.151347904,1.1518954445-4.8798638234,1.3113672762-5.9176083865,2.5566723463.2814198274,1.7922343621-1.5015268657,2.9961611341.2277637357,1.8123317987,2.5380170961-.2578901375,3.5656351232-.3739291918,2.2165977644-.1388550329,4.4100797551-.468954959,6.0057295652,1.4983132516.4784745886.8384672868,1.1060975173,2.2025031606,2.2520041231,2.2471766328,6.2597903167,1.9651464663,8.5824512981,1.613331902,5.0672370155,8.8028522937-1.673349533,1.1881146766-3.0627351524-.525813096-2.8149182386,2.8092816518,2.8714809247.7483886139,3.935710957-2.3697390022,6.0054193099-3.9334911762.4554513361-.6533640996.9694310666-1.384737749,1.3140226681-2.060047551.2605415383-.3235146502.2773092881-2.0351867063.5626292097-1.1238827736-.022240638,1.9374086975,3.7031129909,2.9290726615,2.8153786383,5.0567319651-2.1077067637-.426057583-1.1841583649,1.2154018489-1.3134477148,2.247607915,2.8201128874.6579720473,4.5674001032-1.8355324514,3.0020131972-4.1207613215-3.6302786171-3.5256567125-2.5572712933-6.2154427431,2.4407264463-5.2436658983,2.2542997139.0216140956,4.6847962428.9422428827,6.9432389813.3743936152.5105359064,1.2902182949,1.8092792321,1.9311716991,2.8154895754,2.8093000658.8796203539,2.1611478893-2.4010584154,3.2229451991-3.1906067457,4.8695366917-1.0519532074,1.2266781497.2492481375.2509570674.9380165948.3746719028.3284827905.5535893515.2633666499.6868528152.9387575783.3743077454,1.4136943336-.805200031,2.3991485251-2.1386921543,3.1905345643-3.5580250351,1.209174731-.9871368141.6756567586-2.1692160463-.1882584304-3.184008814-1.1178962419-2.7365772949,3.2221083637.6149224769,4.5045229683.3743436544,2.792530498.9660351496,5.5553756322,2.1818963124,7.6944125841,4.4954364815.7239864227,1.8909156831-.7073007378.5223453568-1.126073413,1.1229765092-.8783741196.698580728-.2735707644,2.2916137839.7509894734,1.3111207332.5799024368-.077173808.1411388883.7559781162.7506934347.5621668382.6624671772-.3399521266,1.4228462728-.4106315621,2.0641853994-.7492688915.9158698782-2.2280639933-1.2982088066-5.4119124704-3.377550806-5.9934005754-2.0019760522-1.4221664143-3.6728217453-3.5633052932-5.8183906666-4.6817744381-1.1231513219-.1297462012,2.2562676264-.1412169114,2.8150403823-1.3112254353,2.4429876047-1.4806887769,4.5631852437-3.4217450364,7.3192641752-2.2470854888.3942861271-.508652835.7766349208-1.2044578038,1.5018292442-1.1238480294-.0142805219.2671286321-.0352240884,1.0119993192.3751546254.936468218.3425066981-.4314325289.9747952305-.5197718594,1.5012489833-.562123505-.1281514366-.4918993432.1039862872-.6408001822.5632119916-.5615360667.2691968896.3112921164.1597549743.5523023916.5632936161.748742736.4806852859-.4363710784,1.4899449139.1239285351,1.6884979568-.7491092943.9161577854-.7062141634-.9442843407,1.3108308411,2.0649461454.7486987293-.1304647499-.7725448656.224731353-1.3501678254.562560399-.3737889239.5154053695.3056760262,2.351142834.2107740081,2.0644852101-.7490919564.6422431217-.2168143445.6622299459.7339470145.7506523128,1.1235712685.9192896927-.0259211169,1.6392646672-.7681012494,1.8762115667-1.3114987206.542629878.3146161764.2087585242.9971688571.7514058131,1.3113645565,1.0429582264.2029787062,1.04569345-.7857940327,1.6889589842-1.3110600679,1.8349137507,1.9728546339,1.7981731671-.2232299897,3.1904182511-.3748151199.0059416716,1.5260963728,1.3737769882.7098121342,2.4399641502.7494297697.1400447976-.4672140721.0214068908-1.2678836448.3747476395-1.1235421298,1.8342528906,2.2928738833,2.6853174456-1.1830329305,3.0034825683.1869993268,1.2117388559.8523964585,1.6463894745-.8677776966,2.439529201-1.1235723951.1855772252,1.2958617126,2.3664923111.7326363145,2.0644861108-.3742976397.550953108.7069970656,1.4706502173.5137963641,2.0643819113-.000111298.093495731-.0612956124.1680646176-1.0131827178.374882585-.5620413707,1.5556569243.7143673791,2.0695336634-2.0721743569,1.6895799848-3.1837367408Z"/>
  </g>
</svg>