<?xml version="1.0" encoding="UTF-8"?>
<svg id="Layer_2" data-name="Layer 2" xmlns="http://www.w3.org/2000/svg" viewBox="0 0 90.941361905 25.8169811578">
  <defs>
    <style>
      .cls-1 {
        fill: #11cbea;
        fill-rule: evenodd;
      }
    </style>
  </defs>
  <g id="Layer_1-2" data-name="Layer 1">
    <path class="cls-1" d="M90.8752464077,12.6961791439c-4.2683890304-4.031812182-12.1345533265-4.7563808205-17.8288594225-3.3804191009.9049368797,1.3232413971,6.8211248395-.1557760318,8.8203906799.5650447275,2.2744744249.6507610498,4.8078279931.8111150315,6.7565083049,2.2521145703,3.1786523926,2.6119280214-7.5725169367-.0138711106-9.0079661078.0001015684-6.2883337183-.3154203161-12.481999139-1.1906466427-18.3925102756-2.817045955-5.2490203011-.6295973081-10.0804826837-2.308395997-15.0139474667-3.567771333-4.837220847-1.6007282269-10.3680559582-.3155492026-15.2015246953.3764718394-3.7630726661-.415314645-7.3778123312-1.0782600942-10.8849888694-2.2541654641C14.3451685885,1.9239247479,8.6184920071-.5678145549,2.1055902052.1154026528c-1.254831131.4323412449-3.6057991128,3.7994503498-.7506482903,2.065813682-2.4976814513,3.0842621408,1.7749722905-1.3930212226,6.3808490292.9390006731,6.4377955423,1.8101485097,12.3720113783,5.7850962855,18.7673163708,8.0733950841,5.1999156569,1.3604624221,4.7579257977.8563275085,7.3189276987,5.4460717619.4195625726.8620345179,1.0578827994,1.7398865562,1.3144366851,2.4404667596-.8480965057.6616889693-.7720597772,1.8299070952-1.3141861473,2.6290554822-.4033872062.8750523481-1.112299014,1.3468610653-1.3135462931,2.253430713-2.2720407423,2.0679672209,2.3102078854,2.2356945515,2.0641133678.0000811512,2.6514589768-2.2115752159-.431865135,1.4681385588.3752634024,1.3140498062.7577684296.4070267487,1.7173826729.4144923156,2.4401838581.0002819259-.4972654576-1.0680591877.7207537294-2.6511613917.3747799638-3.9433083925-1.0231765409-1.0658270464.6350379903-2.610325699-.1873005716-3.7553789401-.1928088476-.7398768397,3.1136023941.6912100081,3.941178268.5629827402-.6348245773,1.550779351.5910920288,5.9027587131-1.1256749002,6.7601144807-1.2139379307,1.320219956,1.7263308629.4961013749,2.4393835714.5631168419.0320433425-1.5599492864.6514200488-2.9900543999,1.1268004948-4.3185298205.4918430466-.394525681.9199450227,1.0492423181,1.5009527205,1.3140880599,3.1735069604,2.0128543055-.7872603321,2.5560887732,1.125708445,3.1922204434,1.5524046364.5816881551,2.686675396-.442032272,2.8151968895-2.0657382258-.2621583449-1.5566051683-3.6029905979-4.4061029994-2.4403165753-5.4448271951,1.4356149737-.2132651739,2.5000592972-.6986059912,3.7539332721-1.3148623575.4801376462-1.1337137389,1.6571389305-1.6986623532,2.8152875223-2.0652017999,8.6476613034-.3648356902,17.5874337893-.0031003171,26.0867746611.1877361956,3.1476334001-.5975697078,12.185408559,2.7398251295,11.2602427598-2.2532825787Z"/>
  </g>
</svg>