<?xml version="1.0" encoding="UTF-8"?>
<svg id="Layer_2" data-name="Layer 2" xmlns="http://www.w3.org/2000/svg" viewBox="0 0 90.744848128 48.7650437571">
  <defs>
    <style>
      .cls-1 {
        fill: #d9beb3;
        fill-rule: evenodd;
      }
    </style>
  </defs>
  <g id="Layer_1-2" data-name="Layer 1">
    <path class="cls-1" d="M89.7910235232,1.8755349688c.5528214416.4590119745,1.4880546215-.6218290297.5627841752-1.1251575871-1.6502804598.0589065617-3.2139129007-.4146678005-4.6915187932-.7503773818-.930773222.7794865822-1.9779131271,2.432926608-2.252503805,2.8131898371.4114203487.2452839819-.2183971201.5033260628-.3749681104.7504592614-.0523443194.4475329966.2634799395.6727301891-.1877621738.7502479431-.6618005299.6006519823.565415713.5507433449-.1878684982.9375391043-.3606564421.0285765525-.3590645235.5856607931.0000599055.5628538881-.2059688919.2447780474-.5855283043.4355999093-.563067604.7503207364,1.0124223106.1670572845-.7451797538.4868148431.0001959869.9376828626-.8330894963.2878221905-.3955380005,1.050825415-1.1262598625,1.3128484371-.0513333147.9498520733-.9216187801,1.8041465431-1.5006613488,2.6261316195-.8214901803.9456910113-1.9179542753,1.624376959-2.6278914544,2.2503616128-.4668194545.5734382889-1.8793734228.2473462036-2.0647055994.9376211179-.635958627-.2801883602-1.0435892857.8725032221-1.5011391528.3755138777-.8765074481.3571118882-1.8159676418-.7490319776-2.4397417113-.1880308364-.3468063034-.6545304553-1.0513252573-.4181438119-1.5016382341-.7496241222-.2439961866.0609883243-.4256986143-.8765240266-.7504550294-.3755748488-.5318962694.1024015454-.5643164594-.3713711937-.9384488623-.5624013991-.4464428356.1830725039-.7633648026.0499153595-1.126167429-.3754082733-.4932707235-.005646087-.7726160483.3978111323-1.1258955222-.1875946229-.6117299814-.3504821905-1.4585996739-.2232104953-2.0642050939-.7503074698-.8531958824.1260812238-1.3297509209.0230382105-2.0645647624-.3750461885-.3975292904.433052149-.6774288726.2755231845-1.1260254825.0002262737-.411413224-.0839308329-.9728182946.5070719909-1.313786443-.0000054097-.8637833231.1524458902-1.3101894866.1005370494-2.0643931024-.187891908-.0329382785.7740647322-1.1478778232.2503801562-1.5012694829.0004421663.1203076308.5057185717-.2415212645.3439977156-.5631967262.3750985599-.8994791507-.3333859873-1.8189772256.0703284355-2.8150721393-.0002892405-.4746061261.7626317197-.9457115158-.0989336046-1.3138164324.1878075669-.7386452685,1.7643935449-.7479980369-.4642703871-1.3136991301.7501020694-1.6754328653-.1581849667-.3915667774.9844292055-1.3138137634.5630943727-.7979063258-.9556703455-.6611562805.8878359077-1.8767135526.3742687911.2139288399,1.3783741347-1.2411444866.10347501-1.3137084817.9379630771-.2665833339.2519258339-.4660544617-.0941510382-.7505116324.3756057637-.1356254704-.219061029-.4218975149-.2570357556-.5629895272-.0000180116-.3170680361.615654116-1.2777809413.1838041281-1.689505404.3744921819-.2850554363.6911214934-.5433598321-.2208661938-.9381648172.1877482752.0382127786.9193464656-1.9119221219-.2529199829-1.50122499.9380263156-1.2769000736-.905692549-1.1985011417.7319671566-2.6274117062.3750395042-.2713454537,1.3404112321-1.522525829-.6171410703-1.3138521653.9376026708-1.6290542532-.2804764582-2.2811631315,1.2375852282-3.9411230513,1.1257744595-.6645046701,1.0637973368-.4874632311.0623378026-1.3139153661.7497533418-.2464829763.6607012831-1.8805163157.5730583406-2.4396676172,1.313208742-.1792971602.3317923871-1.0320291661.1244089864-1.3135838891.7505385149-.5223065234-.4458838209-1.019868089.0264929389-1.1261937926.5624940925-.8042110161.3505316226-.138171947-.3233610948-.9380822893-.1878479399-.0192205615.8962230229-.5852319556.1407349914-.9385331309.5626051059.1473320346.5030680324-.694858987.355690008-.9383254686.3751974209-.3363624325.3839122261-.7911001894.629089326-1.3137361605.5627211245-.4971760525-.1983029367-.9497742743.9221093773-1.8771626928.5622746403-.2357851837.8543924918-1.1878737921.5575816931-1.68850728.750795162-.607135988.8106212989-1.4926845754.8188869846-2.2522921373.9374426194-.404176212.2082405244-.9491627197.4160233523-1.8771038249.3752445073-.36778173.9221490384-1.4946443342.5324560716-2.2517198541.5627719567-.6920281246.6293624975-1.9427228983.1435703568-2.8153330002.9376138454-.8610910312.0592917499-1.0693999395-.0035928011-2.0641575015.0002941065-.467838999.6470767124-1.1071308938-.0699445381-1.5013531185.3748146035-.2205300592-.0704121185-.3397018892.258237486-.5630779225.1877282514-.017015282-.1967004473-.3294724666-.1873174323-.3750426004.0001381154-.365455076.4123598511-.7931822403-.1798339653-1.3142440996.0000743613-.7445491559.5193159399-1.3636213098-.1856051813-2.2521206016.3747424681-2.0036310709,2.0778027183,7.7531084341,1.2665973963,9.0082202379,1.1259185572,4.7599654024.010896775,9.3066436777-1.1473363148,13.8881825538-1.6884487324,7.8093414114-1.2570373372,19.4046457492-8.2078817227,25.523682304-1.5008512293,2.7059622695.9096987861-.6419138803,2.027836665-1.5012742144,3.1889182215-1.4958965113,1.703161498-3.2246983609,3.5519201994-5.0674592189,4.3134429966-1.7266739978,1.9861901883-1.3338193818,4.8933656126-2.252586754,7.314885707-1.1888917974,1.8354809873-2.1497217041,3.6770988536-4.3158920196,4.1260666411-1.2569660609-.3119122107-.381657887.912646408-.5624971337.9381708553-1.4182585934.6577762167-.9150942955,1.3043327367.5628018982,1.125170173,1.4793154229-.5572332031,3.4147736297-.7577396554,4.5037281376-2.4386640455.9908448593-2.3765948742,2.2267188376-4.7927421988,3.1906305396-7.3142882109,1.399774814-3.0855259777,4.4617985737-3.2459030285,7.1321100674-4.6884188115,2.0330112308-.9486056689,4.2202422579-3.2283549755,5.6292986565-4.3149197616.4556522706,2.2767628876,1.0133847874,4.5308370266,1.5017261807,6.7528798374-.2450474,3.1077175727.5694832215,5.6897459949,3.0035553087,7.6893376304,1.1339492188.6828610347,1.7520971162,1.7809690929,2.4390751814,2.8136093118.5462715468.7175351497.0292105161,1.9301194377.9385103082,2.2506917528,1.6369133422-.1724975519,2.8675361864.4534307147,4.5040561584.5630678087.2011991293-.2589055504.6218562486-.223101243.1876582938-.5630484211.1135161051-.1593309831,1.5012339475.2126253408,1.5013351002-.1876872813,2.5227445694-1.0346858676-3.515721026-1.1443468832-4.1284808714-1.8753360261-1.7265382419-1.4411058403-3.3663091815-3.1751072441-4.5043955046-5.0640225352-.3525024826-3.2849219811-1.5182289496-4.0952174434-.5621873733-7.6898876035,1.3790014852-1.6029107969-.0066270529-7.3461939858,3.0019772202-6.0020132389,1.3452415906,2.1690215742,1.1893996833,4.7803243647-1.8768313297,3.9387693339-.3318739564.7515544459.636419549.4640738965.1872481365,1.6881796793-1.6433146296,1.1722669464,1.3927519105.3582824496,1.8769327203-.0001543899,1.2717466221-.7709033024,2.5471950373-1.9707610942,2.4400471977-3.5634791509.4074650131.4960672608,1.1644436202.7996071554.5632279024,1.5005113669.088979881.8634264614-.1019284774,1.7404991916-.9387526513,2.0629926628-.2654250054.4747896563-.4008530425,1.0256735386-1.1258978679.9378302336.3973041908.787379365.9961921855.2054191417-.0001238387,1.313020287,1.6469819393,1.2882612908,2.8757971692-2.4504620174,3.753816001-3.5633398314,1.4034013234-2.1284793018-1.2538150086-4.4820527892-.7514711456-6.1897010526.9792425811-.5824203153,2.3390624721-.4321928268,3.1911907567-1.3127982524,1.6155169555-1.0669340125,2.4136319678-2.8731183218,4.1288952093-3.9385660415,3.2553315895-1.5808536272,6.5691676311-3.9081904923,8.0696290139-7.1273055563.7719686476-1.3797779607,1.3929828907-2.8136644737,1.8765906791-4.3138676011.109968098-.8830526239,1.1657870207-3.5284195691,1.6892816631-3.0011144565.5239516255-1.4514185401,1.2875955711-2.5921592047,3.1904084112-2.2502450994,2.2191121592-1.1001506098-3.6822677128-1.1054738262-.3751125571-1.6882458136Z"/>
  </g>
</svg>