<?xml version="1.0" encoding="UTF-8"?>
<svg id="Layer_2" data-name="Layer 2" xmlns="http://www.w3.org/2000/svg" viewBox="0 0 90.4631996639 35.5566071803">
  <defs>
    <style>
      .cls-1 {
        fill: #d9beb3;
        fill-rule: evenodd;
      }
    </style>
  </defs>
  <g id="Layer_1-2" data-name="Layer 1">
    <path class="cls-1" d="M90.4631996639,15.2582577407c-2.3872789948-2.34308323-7.0853258386-2.7741927501-10.50946069-3.742879306-8.9072498097-2.3886144965-18.6276198891-2.7776776259-27.4007825886-3.7419156121-7.9517277785-1.3316356038-16.8768042231-3.8983474001-25.1482317139-2.0581154538-3.4348674209.8552472879-6.6549508095,2.7025308844-10.3221757739,3.1814912382C14.0705362837,6.8851265286,14.1452275573,1.5075999098,10.5140619392.4760439486c-1.6318536275-1.132638193-3.399072855.0443852244-5.0672384636.561700465C3.5271650665,1.2436773965-1.9990934947,3.4324292554.7545654647,5.7156824691c2.4130474313,1.4049952697,5.716672767-.1777845044,8.6333351415.0001639454,1.0465794554,1.3307088532,1.4894627569,3.3784563382,2.2519053875,5.0517708939,2.0114463733,5.4250840442,4.753720708,3.4225811648,6.944245461,6.7359600801.5138951626.0738286435.2416785097.5234259718.5629277182.7487937283.3668527663.1257280952,1.0437314338.2739899771.9385065929.7480036136.5635584134.3240002406,1.4342349774.2219392817,1.8765975742.9361827697.7379577399,1.014400134.7723102969,2.1574301228,1.3134417633,2.9935503685.2538585077.5546678236-.6282844284.8474855596-.9379433613,1.4971372993-1.4088525933,1.1790605725-2.4473966959,2.5501265204-4.1291415868,3.1800985657-.6674040157.2584426088-.5623664203.4611353544.0005348616.748782661-.7543509018,1.0248136215-.6820558743,2.215134136.3752024153,2.9939042127.3872192265-.4657271037.5075350409-.6275399022,1.1258751943-.3740784678.2456100681-1.2400050374.7871196128-.4286221356,1.1258825852-1.3098690146-.0275427611-.9111323847,3.7414040255-4.1358975424,3.0032724369-2.8069245782-.1863648981,1.5643697425-.7049629668,3.1214415717-1.8769986097,4.3038789482-.5147484871.3487947079-1.2821878029.334413256-1.5014117398,1.1228976251,3.0135108652-.2554078199-1.0158016024,1.3745613259-.5629210433,2.8062848556-.0843932884.3872810962,3.1558312858.0456442855,2.8146853075-.1865060555.3478815186-.3229571593.6433749027-.4303432269.9385829214-.0003984977.7795937026-.5679023593.4988556205-1.9734526535,1.1262239866-2.9937166272,1.5626116859-1.9370270561,2.7586593976-3.8075899119,3.3778595775-5.987909019.1296126239-.7754502765.5196930403-1.8943043862.3752500399-2.806672967-.0887523865-.2426151253-.7153997878-.9469324523-.1875487189-.9355116912,5.4979166141-.0510572565,3.2831348153.7931659883,7.8824520672,1.8719287263.9758474336.6580194747,2.4225252586.4041646274,3.1902855239,1.4960857953.3610729501.8528194057,1.6861779331.8198115152,2.4398320774,1.4969422558-.895525802.4861852496-1.5209307059,1.8126048864-1.6893027928,2.8066323609-.4848726467.5540304351-.1731301252,4.4416491875.7508625779,2.9940237995.8097853172-.2125312465,1.0361585432.7644358016,1.3138258222-.9359773337.6707119122-.6314506972.4519094238-3.2000239154,1.5011363338-2.9939348811,1.669950163.4546246815,1.3133768134,3.277537531.3757434975,4.3040899102-.6485938594,1.0440657431-3.6911083193.7591488733-2.8156724268,2.2450702379,2.1009110376.4608667702,3.8370036738-.976814475,5.8183233248-1.3099376418.1412007367-1.9831077567.8093651376-5.0852308716.0005105697-6.9228955716-.4736059979-.5247460736-1.5263226286-.3227336352-.7510995313-1.1225673863-.0760974982-.502236557,1.2095851584-.8327239284.5628661396-1.3099101774.0197634978-.5761665359-2.0289508996-1.4059492244-1.126205584-1.6839107239,1.0172917348-.1374721666,2.535104927-1.4986493312,2.8157238535-2.4322913398,1.0600421217-1.3518887053,2.0565546636-.2496667593,3.7529326096-2.9945023201,3.9662655085-2.1183272128,8.3117334036-2.7349494655,12.949879705-3.367284442,5.6294274619-.9511398529,12.6273590301-1.342620354,18.3919625161-.3742886067,1.5585380726-.0373170922,6.565797354,2.6108163742,6.756214011,1.3094799612Z"/>
  </g>
</svg>