<?xml version="1.0" encoding="UTF-8"?>
<svg id="Layer_2" data-name="Layer 2" xmlns="http://www.w3.org/2000/svg" viewBox="0 0 90.8042744876 33.0129978429">
  <defs>
    <style>
      .cls-1 {
        fill: #59ffa4;
        fill-rule: evenodd;
      }
    </style>
  </defs>
  <g id="Layer_1-2" data-name="Layer 1">
    <path class="cls-1" d="M90.7958920485,3.8116062407c-.3233800713-1.6112153915-2.384553232-2.0385163575-3.5658171516-2.6192070792-.5401261499-.3988635821-1.1428113201-.469039876-1.5010021096-1.1229351511-.9661861108-.182362503-1.9361219101.0123500775-2.8154131581.3741044439-5.006007367-.2300443924-6.0928552326,7.9994013828-9.9465522857,8.0459029411-5.4653609091-.726397829-11.106762386.0318298916-17.078396212-.0006513216-4.472314238,2.119415921-12.6801689086.8310960176-18.0168870833,1.1229263903-11.0150263198-1.5789747675-22.0634124596-2.2306006611-32.8427917468,1.1233439357-1.4882608356.7449850894-3.1845064058.8396391226-4.6921731965,1.4956107983-1.2224852025.9612414782,1.2420053504.6684023011,1.6892093816.1872886318,11.7544360423-3.7327794477,21.5107651572-3.5880363029,33.9692103997-.7477038089,3.9325479368,1.0020101133,7.9021267107,1.4786945389,11.8234912871,2.2440080295,2.0328392696-.0645037787,3.4421572204,1.8342425813,5.4423138296,1.8718272375,1.3839378659,2.3648647649-3.4608743414-.415756467-1.1259650443,2.993410293.4483042026.296126424-.5939084437.200202698-.7506777439.5611976741-1.2434729237.4982567313-1.7899754198,1.8588126128-2.815153072,2.6192391652-.4456971252.8580433525-1.5963609315.8026853857-2.0642461708,1.6839791453.4769077138,3.0767966622-2.8675727367,6.0962380203.3755406999,8.4190483133.4380213277.6511004421,1.7484477804,1.4359853364,2.2518620381.5614559032.6711965999-.142546802.781558601.5367828072.5629179622-.3741033818-1.2371170825-.5295111056-3.1100247312-1.6738559733-2.8150243766-3.5550503558,1.5893490571-5.5846079434,2.6490484139-4.9436845986,7.31962888-7.2961544569,1.6036178151.0369731861,1.114081055,2.5084047587,1.8765439728,2.9928131956.7003785277.4175892575-.7016270267,3.4225206703.3751293531,2.8069648551,3.8634764799-5.3930610171-5.9722529782-8.2669951462,4.8795561905-8.4191843106.881070194.0378469771,1.4396597852-.615110372,1.5013411395-1.4972249118.6561119675-3.0569725712,5.0391910071-1.488522173,7.1315287872-2.806649894,1.5923335291-1.1750306094-.9066637338,3.7321729436,4.1290894079,1.871083979,1.288003247-.4746542079,6.3885063208,2.458818801,5.4429292072.3744979326-.4819969864-.0212931168.4454974512-.402574312.5625378279.0000682243.3300637575.0455168364,1.0808992938.5371357539.9382916192-.1874259006-.1394387395-.2911011045-1.0362749227-.3864113383-.5629810932-.7481982396.2629653234-.4598125412.6150480952.1011423079.9384865142.1869788121.0919307192-.5668574916-.3760451625-.8724270448-.7507010317-1.3098228034-.8439057069.2538035767-2.0627913861.1107737825-.7510132795-.5616151646-.3406443629-1.0721439986-1.0696800457.1942935049-1.5011443403.3747368967-.740260609.5810929555-3.6020337398.5443171646-4.3166113523.3749200223-.6368926364-1.3850502316-.4644483068-1.8316789303.9385729471-2.6201755171,3.7861654322-2.1585075842,3.5789419726-7.043783715,7.5068673257-8.9805597423,1.9809590558-.3374760635,3.1183696681,1.6325418003,4.6918171857,2.4322590809,4.1855980559.697741065.9201103343-.7391750303-.187903896-1.6836520702-1.2142785181-1.4115497143.6875724168.4047608843,1.3135738013.3741506111-2.4488380119-2.8197229254,2.6828146042.3640737983,2.4400145867-.5615024024Z"/>
  </g>
</svg>