<?xml version="1.0" encoding="UTF-8"?>
<svg id="Layer_2" data-name="Layer 2" xmlns="http://www.w3.org/2000/svg" viewBox="0 0 70.4431836564 14.826675772">
  <defs>
    <style>
      .cls-1 {
        fill: #1e01a1;
      }
    </style>
  </defs>
  <g id="Layer_1-2" data-name="Layer 1">
    <path class="cls-1" d="M1.7748573463,9.9848485595c1.1995037144-.1205677364,2.391084579-.2507227867,3.5810736105-.4506037568.6283140634-.1046857213,1.0995450715-.2189587565,1.67867573-.4759762443.2967043676-.1317045152.1697692991-1.7088660849.1697692991-2.0293147914,0-1.3455165694-.7949118015-2.1785476281.13169241-3.4811633885.2491067432-.3490169653.1999172857-.3141540054.6140359866-.1761547891.449024029.1507823016.5061423888-.0776669274.9202610896-.0412545026.3807931006.0334103366.43632568.2792910455.8488586004.1967820404.1951538917-.0412545026.4982074338-.0079410075.6203791084.1555275378.13169241.1760579475.8980420053.3378801864,1.2439358305.4347217418.575953045.160272774.9948290872.1665674751,1.5771313067.4363680482.9964148677.4616436941,2.1514985712.4712310081,3.146333711.9122474509.6235506694.2760952742,1.0868527752.4379175131,1.7754628119.3364275631.3141540054-.0459997388.6425921402.1221172012.9424680688.2142135203.2284794919.0681764549.398248791-.236487078.6394205793-.236487078.2586274786,0,.7488999575.1983315053.9408883409.1761547891.2792486773-.033313495.2491006906-.3506632717.7171661904-.3506632717.6457637011,0,.9313615529-.6219164682,1.6469419629-.0857047764.13169241-.455348993.6933673782-.2649584953,1.0916161692-.1998809701.5489826718.0904500127.8107817114-.0142357086,1.3613501637-.1507823016.9107343017-.2268029225,1.8056107986.060332289,2.7163451003-.1760579475-.2316510529-.2174092917-.4982074339-.4030545532-.7901484075-.5268180608.441089074-.5711714932,1.4851015661-.2331944652,2.0658180051-.0396081961.6600478306.2189587565,1.3153322671.126959279,2.0515399283.126959279-.1554912223-.2745458093-.4077695264-.4903087945-.7012962805-.6125228373.4791659631-.4093492543,1.1645983863-.1650180102,1.6897822459.0459997388.6473555342.2586637942.9630953201.1634685453,1.6390130605.2174092916-.1650119576-.228449229-.1808818675-.3728399879-.4379175131-.5267212193,1.0313262484-.5601315559,1.683439124.328389714,2.6703332563.2205082214,1.2122020633-.1332539801-.8091898783-1.5597300897-1.2724919841-1.7437290448-.5553318463-.2221545279-.8964562248-.1015867915-1.3978412722-.2268997641-.4347398995-.109527799-.271319775.2062725128-.6108583731-.3030172265-.1586688358-.2380365429-.4395032935-.355408508-.6822608623-.5061908096-.7409710552-.4632900006-1.5739597457-.7869344784-2.3847414571-1.1186168053,3.1526768328.187291568,6.2006376815,1.2202035968,9.1295984164,2.3180963093.487100918.1840957966.6775035209.3078593043,1.0455982726.675954056.3903198886.388722003.3696926374.0539407463.8583793358.0713722263.7853971187.0253724875,1.6596463644-.0793132338,2.4307593537.1031362564,1.5755394736.3697410581,3.2050317987.5760135709,4.8091395311.8060122648,1.6643916006.2395860078,3.3541798991.4236818044,4.9916011265.8124038074,1.5580958885.371290523,3.3494225577.666366742,4.9249741365.5251717544,1.6881904128-.1523317665,3.2066175792.0174314799,4.8821217482.1411949876,1.6977172008.1237635077,3.4065469701-.1110772639,5.1106072928-.1110772639.6410063598,0,1.5089124836-.2935267541,2.1054927798,0,.793326021.3935640808-1.3169241002,1.3470660343-1.5834804811,1.4597896046-1.4644743149.6139754606-3.1748898646,1.3295377127-4.5045002085,2.1752550152-1.2153857294.7742482346-2.6941441737,1.1709112452-3.8095531025,1.9706288088-1.1281072777.810757501-2.6386055417,1.2867337453-4.0729379225,1.7088660849-1.5723679127.4632900006-3.1685467428.7726987698-4.7282284117,1.2185572904-.7266869258.2078219777-1.4819300052.1522349249-2.2102027115.3268402491-.7996691429.1903904977-1.7167586716.5552894781-2.5418124072.6044849882-1.8008534572.1031362564-3.3113517212-.2062725128-5.0582523269-.6188175384-.7441426161-.1729590178-1.4946283541-.295076219-2.2340015237-.4791720156-.7124149016-.1792537189-1.6532911373-.1110772639-2.2974751106-.3506632717-.3649292434-.1332539801-.7647638148-.2379397014-1.1185865423-.3950167041-.1190001137-.0523912814-.139627365-.4030545532-.2617990396-.4363680482-.1554912222-.0428039674-.3617576824.0999404851-.5251838596.0857047764-.8996338384-.0777637689-1.7992616242.0365092663-2.7179369333-.0586859825-1.5549182749-.1619190805-3.1034873754-.6981307722-4.6393702321-.9933038327-1.589823603-.3045666914-3.179647206-.6188175384-4.7551927322-1.0138342425-1.6897882985-.4204860331-3.192345555-.9345210087-4.9662225864-.7361895034-3.3446591636.3728399879-6.4830579197,1.4470065193-9.7944035883,1.9451594798-1.5676105713.236487078-3.0590613119.5315632971-4.6298494967.6886402998-.8948704444.0889005478-4.9122757875.3395264929-3.5302983726-1.5819068059.3411304311-.4744267794.9567461456-.7076212446,1.4882791797-.877384491"/>
  </g>
</svg>