<?xml version="1.0" encoding="UTF-8"?>
<svg id="Layer_2" data-name="Layer 2" xmlns="http://www.w3.org/2000/svg" viewBox="0 0 54.3560791016 29.8361816406">
  <defs>
    <style>
      .cls-1 {
        fill: #a1ffa1;
      }
    </style>
  </defs>
  <g id="Layer_1-2" data-name="Layer 1">
    <path class="cls-1" d="M45.3211669922,26.6059570312l.0722045898-.0708007812-.0752563477-.0676269531c-.6918334961-.62109375-1.8375244141-.9312744141-2.6267089844-1.4543457031-1.0574951172-.6879882812-1.4429321289-1.9272460938-2.6175537109-2.6630859375-1.7356567383-1.0788574219-3.3154296875-2.0041503906-5.2571411133-2.0048828125-.1702270508,0-.3466186523.0167236328-.5223999023.0317382812.4426879883-.306640625.8800048828-.6213378906,1.3099975586-.9311523438,1.3525390625-.9685058594,2.5081176758-1.7294921875,4.1608886719-1.7294921875.0820922852,0,.1657714844.0021972656.2509155273.0061035156,1.6216430664.0729980469,3.2006835938.9753417969,4.5775146484,1.767578125,1.4688110352.8377685547,4.0042724609,2.4799804688,6.1884765625,2.4836425781.8613891602.0008544922,1.6748046875-.2622070312,2.3263549805-.9381103516.9359130859-.9754638672,1.2476196289-2.3834228516,1.2476196289-3.7237548828,0-.1687011719-.0045776367-.3375244141-.014465332-.5040283203-.0532226562-.8629150391-.3307495117-1.5950927734-.3291625977-2.4206542969l.0022583008-.1330566406c.0151977539-.4044189453.0342407227-.7952880859.0342407227-1.1866455078,0-.4014892578-.0197753906-.8044433594-.0836791992-1.2219238281-.2174072266-1.3660888672-.2182006836-3.4074707031-1.4938964844-4.3288574219-.2893066406-.2077636719-.5822753906-.3435058594-.8760375977-.4288330078.0000610352-.0014648438.0001831055-.0030517578.0002441406-.0045166016.0007324219-.0341796875.0015258789-.0676269531.0015258789-.1010742188-.1011352539.0083007812-.2053222656.0183105469-.3102416992.03125-.0026245117.0002441406-.0054321289.0010986328-.0081176758.0014648438-.1489868164-.0241699219-.2979736328-.0380859375-.446472168-.0380859375-1.2848510742.0031738281-2.5286254883.8203125-3.6705322266,1.3168945312-1.8580932617.8073730469-4.0377197266,1.6177978516-6.0075073242,1.9454345703-.8629150391.1451416016-1.6292724609.4151611328-2.3363037109.4143066406-.6173095703-.0023193359-1.1890258789-.1938476562-1.7866210938-.8597412109-.1235351562-.138671875-.2235717773-.2462158203-.3043823242-.3536376953-.067565918-.1756591797-.0993652344-.3677978516-.0982666016-.5816650391.1314697266.0668945312.2570800781.1013183594.3760986328.1013183594.336730957-.0024414062.5747070312-.2456054688.7556762695-.5063476562.1809082031-.2631835938.3185424805-.5642089844.4310302734-.7238769531.3170776367-.4567871094.8941040039-.7647705078,1.4095458984-1.2231445312.621887207-.5550537109.9837646484-1.2879638672,1.3372802734-1.9829101562.4181518555-.8149414062.8233642578-1.2133789062,1.5121459961-1.8654785156.3717651367-.3536376953.8013305664-.9146728516,1.258972168-1.3959960938.4569091797-.4819335938.9442749023-.8719482422,1.3874511719-.9016113281l.3596191406-.0266113281-.3261108398-.1535644531c-.1581420898-.0737304688-.4212036133-.1778564453-.6363525391-.1801757812l-.028137207.0007324219c-.7009277344.0380859375-1.3912353516.45703125-2.0260620117.5908203125-.3527832031.0751953125-.6370849609.1801757812-.975402832.2219238281l-.1398925781.0061035156c-.1923828125.0007324219-.4280395508-.0280761719-.6219482422-.0280761719l-.1862182617.013671875c-.4074707031.08203125-.7245483398.3557128906-1.0719604492.4112548828l-.155090332.0120849609c-.2630615234.0015869141-.5557861328-.0971679688-.8431396484-.0987548828l-.126953125.0075683594c-.6568603516.0859375-1.4102783203.3785400391-2.1036376953.4926757812l-.0167236328.0014648438c-.0509033203.0008544922-.1566162109-.0228271484-.2523803711-.0478515625-.100402832-.0242919922-.1809692383-.0509033203-.2516479492-.0532226562l-.0479125977.0084228516c-.1488647461.0625-.2408447266.2019042969-.3232421875.3088378906-.0241699219.0305175781-.0479125977.056640625-.0709838867.0864257812l-.0467529297.0388183594h-.0015258789c-.0896606445.0219726562-.1725463867.0295410156-.2523803711.0295410156-.1946411133.0008544922-.3732910156-.0493164062-.579284668-.0500488281l-.0927734375.0036621094c-.7123413086.0668945312-1.3563232422.0753173828-2.0869140625.1247558594-.33984375.0266113281-.579284668.1566162109-.8544921875.1535644531-.0889892578,0-.1824951172-.0122070312-.2889404297-.0440673828-.0167236328,0-.1429443359-.0958251953-.2645263672-.1954345703-.1284790039-.1018066406-.268371582-.2113037109-.4067382812-.2607421875-.1452636719-.0501708984-.2775268555-.0751953125-.4006958008-.0751953125-.3063964844-.0013427734-.5290527344.1639404297-.6929321289.3955078125-.6555786133.6472167969-.8852539062,2.3442382812-1.7420043945,2.943359375-.1508789062.0434570312-.3070068359.0738525391-.4768066406.0738525391-.1184082031.0003662109-.2404174805-.0090332031-.3649902344-.0260009766-.3077392578-.0783691406-.6145629883-.1519775391-.9216918945-.2268066406-.6077270508-.1948242188-1.2181396484-.4482421875-1.7292480469-.5598144531-.760559082-.1632080078-1.5260009766-.2520751953-2.2941894531-.3024902344-.0101318359-.0024414062-.0197753906-.0052490234-.0299072266-.0078125h-.0036621094c-.1333618164-.0324707031-.2675170898-.0640869141-.403137207-.095703125-.6089477539-.1398925781-1.1837158203-.2014160156-1.7409667969-.2045898438h-.0897216797c-.6271362305.0036621094-1.2322387695.0842285156-1.8394775391.2003173828-.5361938477.0443115234-1.080078125.1060791016-1.6455078125.2094726562-.7896728516.1446533203-1.5547485352.3621826172-2.3018188477.6282958984-1.1199951172.3275146484-2.2048950195.7828369141-3.2424926758,1.3930664062-.0092773438.0037841797-.0191040039.0056152344-.0283813477.0092773438-.0364990234.0213623047-.0729980469.0434570312-.1094970703.0654296875-2.8934936523,1.7470703125-5.3590087891,4.04296875-7.7378540039,6.4104003906-.0396728516.0397949219-.0871582031.0810546875-.1304321289.1214599609-.0928955078.0736083984-.1864624023.1456298828-.2786254883.2145996094-.0021972656.0140380859-.0043334961.0279541016-.0065917969.0418701172-.2818603516.2426757812-.5911865234.4946289062-.8669433594.7534179688-.4196166992.3968505859-.7693481445.8043212891-.7739257812,1.2529296875-.0006103516.1516113281.0551757812.3017578125.147644043.4467773438l-.0610961914.0439453125c-.1976318359.0732421875-.3452758789.1507568359-.4476318359.2397460938-.1049194336.0905761719-.1657714844.2015380859-.1657714844.3186035156.0064086914.2172851562.176940918.3879394531.4105834961.5543212891v.16796875l-.3314819336.0440673828c.0933227539.1010742188.2060546875.1918945312.3314819336.2756347656v.0311279297l-.030456543.0550537109c-.0182495117.0213623047-.0623168945.0693359375-.0615844727.1430664062l.0311889648.1185302734.0106201172.0220947266.0197753906.0144042969c.9959716797.7055664062,2.0983276367,1.2133789062,3.0235595703,1.9157714844,1.1844482422.8933105469,2.3765869141,1.1730957031,3.7572021484,1.6801757812.5361328125.197265625.9577026367.4377441406,1.48046875.5783691406l-.0051269531.0064697266c-.0001831055-.0001220703-.0003051758-.0001220703-.0004882812-.0001220703l-.0098876953.0129394531c1.075012207.8499755859,3.5162353516,1.2932128906,4.8489379883,1.4521484375-.0007324219-.0168457031-.0014038086-.0334472656-.0014648438-.0495605469,0,.0163574219.000793457.033203125.0022583008.0502929688.0023803711.0002441406.0048217773.0004882812.0072631836.0007324219.0302124023.5444335938.4713134766,1.3432617188.97265625,2.1088867188.5177612305.7846679688,1.0940551758,1.5091552734,1.3472290039,1.7866210938.9556274414,1.0476074219,2.26171875,1.8466796875,3.3458862305,2.7155761719l.069152832.0556640625.0362548828-.0390625c.0590820312.0458984375.1224365234.0906982422.1804199219.1369628906.4369506836-.4692382812.4857788086-1.1330566406.2958374023-1.8592529297-.1198120117-1.0012207031-.6978759766-2.1267089844-1.4232788086-3.0648193359-.5394897461-.693359375-1.1536254883-1.2794189453-1.7370605469-1.6318359375.3130493164.0428466797.6286010742.0795898438.9501953125.1044921875.7799682617.0607910156,1.5653686523.0888671875,2.3537597656.0888671875,3.216796875,0,6.4754638672-.4720458984,9.5938720703-1.1037597656.1419067383.2629394531.3400268555.4962158203.5626831055.7119140625.0059814453.0064697266.0112915039.0131835938.0173339844.01953125.3438720703.6784667969.9176025391,1.2618408203,1.5552978516,1.7917480469.6432495117.5327148438,1.3469848633,1.0153808594,1.9502563477,1.4881591797.0620727539.0496826172.1245117188.0989990234.1851806641.1500244141.1714477539.1394042969.3388061523.2783203125.4844360352.4174804688.4576416016.4379882812.4569091797.42578125.9624633789.7702636719l.0233154297-.0341796875c.0994873047.0546875.1967773438.0993652344.2907714844.1315917969-.0526733398-.0850830078-.0717773438-.1325683594-.0667114258-.1606445312.026550293.0059814453.0546875.0172119141.0803222656.0206298828l-.0620727539-.0550537109c.0468139648-.0444335938.1592407227-.0810546875.1973876953-.3843994141.7191772461-.2242431641,1.5045166016.0798339844,2.1978759766.3162841797.9951782227.3337402344,1.4118041992.2980957031,2.3909912109.0402832031.8728027344-.2333984375,1.7189941406-.4013671875,2.6548461914-.4128417969.7039794922-.0106201172,2.0709228516.0812988281,2.5772705078-.4143066406-.0549316406-.0500488281-.1295166016-.0885009766-.1906738281-.134765625.0120849609-.0104980469.0309448242-.0146484375.0424194336-.0256347656ZM9.0388793945,21.7186279297c.0326538086.0152587891.0814208984.0313720703.119934082.0469970703-.0386352539-.015625-.0872802734-.0314941406-.1200561523-.0467529297l.0001220703-.0002441406ZM2.3782958984,12.7556152344c-.004699707.0043945312-.0089111328.0085449219-.0136108398.0126953125-.0521240234.0469970703-.1035766602.09375-.1586303711.1413574219-.0009155273.0008544922-.0018920898.0017089844-.0028076172.0024414062.0611572266-.052734375.117980957-.1046142578.1750488281-.1564941406ZM9.3473510742,21.8391113281c-.0006713867-.0002441406-.0009765625-.0004882812-.0016479492-.0007324219-.0053100586-.0025634766-.008972168-.0056152344-.0142211914-.0083007812.0006103516.0002441406.0010986328.0004882812.0017089844.0007324219.0052490234.0025634766.0088500977.0057373047.0141601562.0083007812.000793457.0002441406.0018920898.0004882812.0026855469.0007324219,1.1441650391.5598144531,2.9659423828.8994140625,4.0700073242,1.0324707031.0256347656-.0480957031.0573730469-.0903320312.0941162109-.1264648438h.0004882812c-.0367431641.0361328125-.068359375.0783691406-.0941162109.1264648438h-.0004882812c-.013671875.0251464844-.0250854492.0517578125-.0349731445.0798339844l.0889892578.0319824219.0036621094.0012207031h0l-.0036621094-.0012207031c0,.0112304688-.000793457.0231933594-.000793457.0344238281v-.0002441406c0-.0114746094,0-.0228271484.000793457-.0341796875l-.0897216797-.0319824219c.0098876953-.0280761719.0220336914-.0546875.0349731445-.0798339844-1.104675293-.1330566406-2.9270019531-.4729003906-4.0719604492-1.033203125ZM29.7727050781,22.3117675781c.008972168.0457763672.0204467773.0904541016.0315551758.1352539062-.0475463867.0092773438-.0946044922.0207519531-.1422119141.0295410156l-.1331787109-.1182861328c.0806274414-.0164794922.1634521484-.0299072266.2438354492-.0465087891Z"/>
  </g>
</svg>