<?xml version="1.0" encoding="UTF-8"?>
<svg id="Layer_2" data-name="Layer 2" xmlns="http://www.w3.org/2000/svg" viewBox="0 0 152.907011416 68.8498471366">
  <defs>
    <style>
      .cls-1 {
        fill: #9edf6a;
      }
    </style>
  </defs>
  <g id="Layer_1-2" data-name="Layer 1">
    <path class="cls-1" d="M99.8017257854,45.1598250242c4.3943546039-.5379879768,9.1675296913-5.6914633154,9.7736794592-6.3051044064.621317385-.6166931115,1.3789583521-1.0016176361.9242997834-.1545432197-.4698261857.8455021633,0,2.6926219627,0,4.0761121029,0,1.3849699077,1.3789583521,3.0759742343,1.6212702826,3.6154419787.2273292843.5378954914,3.1519048049,2.8442056474,3.5307252885,2.9971766142.3788204836.1546357052,3.0002286347,2.232044324,3.0002286347,2.232044324,1.5456171684,1.0758834682,2.3789112498.9213402484,2.1517669363.9213402484-.2273292843,0-.8486466693-1.3061722875-.8486466693-1.3061722875,0,0,.0758380851-.2318610724.9242997835.2317685869.8486466693.4621498917.9242997835,1.0744037007,1.0757909827.7682767962.1516761702-.3061269045-.3029823985-1.615258727-.3029823985-1.615258727,0,0,.621317385.8469819308.7728085842.3833522716.1514911992-.4606701242-.7728085842-1.7683221793-1.4697790833-2.4592811229-.681987853-.6925311966-1.7577788357-.6925311966-3.0002286347-1.2304266879-1.2274671529-.5394677443-1.5304495514-2.6168763631-2.606425505-3.6927598313-1.0757909827-1.0758834682-.1514911992-1.5380333599-.1514911992-1.5380333599,0,0,1.0757909827-2.230472071.9091321664-4.15333747-.1514911992-1.9229578845.4698261857-1.5396056129.621317385-1.0758834682.1514911993.4621498917,1.5456171684,1.8456400319,1.924437652,2.3850152907.3788204836.5364157238,2.0000907662,1.0001378685,2.9243905496,1.0758834682.9244847544.0773178526,3.2427255361.7773403722,3.2427255361.7773403722,2.4094314547,0,1.924437652,2.0531774257,2.1669345534,3.1426562579.2424969014,1.0865192972-.9698026345,2.7775236238-.2424969014,2.7775236238s.6061497679-1.933501228,1.2122995359-.966750614c.6061497679.966750614,0,1.6910968121.7273057331,1.4501721638s0-2.5365989755.8484616984-2.0547496787c.8334790523.4849013172,1.0759759536,1.4516519313,1.0759759536,1.4516519313l.3636528666-1.0894788322s-.2424969014-1.0864268117-.1213409361-4.2261235346c.1213409361-3.1427487434-7.2429070684-5.0746777184-7.6065599349-5.0746777184s-1.0911435707.3606008461-.9698026345-.9682303815c.1211559652-1.3274439456-.9698026345-3.7458464908-.9698026345-3.7458464908-1.3182878841-1.4485999108.1211559652-1.5698483615.1211559652-1.5698483615,3.879210538-1.2076752624,4.9550015207-8.2158542089,4.9550015207-8.5779348224,0-.3621730991.8486466693-2.7790958768,1.4546114663-2.6578474262.6061497679.1212484507,3.2578931531-3.7457540054,3.7428869558-5.3156023668.4848088318-1.5698483615,3.0305638687-1.3289237131,3.5002050835-.966750614.4849938027.3621730991,4.7125046194.8455021633,6.0459601205.1196761977,1.3334555011-.7242537127,3.5003900545-.4818492967,3.5003900545-.4818492967,0,0,4.8336605846.1212484507,6.5307689523,0,1.6819407506-.1211559652.9546350175-1.3289237131.9546350175-1.3289237131,0,0-1.0757909827-.2409246484-1.6819407506-.4833290643-.6061497679-.2409246484,0-.7258259656,0-.7258259656,0,0,0,.3636528666,1.3334555011.2409246484,1.3182878841-.1212484507,1.1971319189-1.3289237131,1.0757909827-1.931928975-.1211559652-.6030977474-.8332940813-2.1745183619-1.4394438493-2.4154430102-.6061497679-.2424044159-4.7125046194-3.2623324556-5.4398103525-3.9881584213-.7273057331-.7243461981-2.7730843213-1.4501721637-4.2276957876-1.4501721637s-1.939605269-.1196761977-2.9094079035-.2409246484c-.9546350175-.1212484507-3.9851988862.4834215497-8.8036918538,2.1744258764-4.8490131725,1.6925765796-6.4854510721,7.1581903782-6.4854510721,7.1581903782-.621317385.4197915466-10.3038061711,9.8872516159-22.5018997312,7.9946289655-12.1980935601-1.894102418-27.3509129038,7.7824672982-27.3509129038,7.7824672982,0,0-3.5760431686,3.5761356541-5.4701455866,3.3670260072-1.894102418-.2121616673-16.8347600943,4.4184933114-28.1842069851,8.626489694-11.3646145078,4.2064241296-19.1531858469.2091096468-19.1531858469.2091096468-13.6677801579-4.6291752113-20.3956356459-.2091096468-20.3956356459-.2091096468,0,0-.333410118.3439534615-.4697337002.7728085842-.1515836847.4287626372,2.9244830351-1.1425654918,6.712687871-.5728549989,0,0,7.5005715867.7167623896,11.8645909566,3.8609909005,4.3640193698,3.1426562579,13.8648666937,4.7155566399,17.9408863111,4.7155566399,4.0762045883,0,18.9410241796-2.8593732645,19.1531858469-2.9290148231,0,0,8.6523856255-1.930541693,12.5010759585.3575488256,3.864042921,2.2866107511,4.7125046194,6.0020295224,3.2882283871,8.647761352,0,0-3.1365522169,4.5715567637-3.848875304,7.8612649183-.7273057331,3.2866561341,2.2880905186,8.646189099,2.2880905186,8.646189099,0,0,.9242997835.357641311,1.4244612032.2864274994.4999764488-.0727860646,5.2124810682-.2137339203,5.5761339348,0,.3484852496.2151212024,3.7882048359-.1454796437,3.7882048359-.1454796437,0,0,0-.7137103691-.4393059807-1.0697794272-.4243233346-.3576413111-.5606469169-1.2152590709-.7879762012-1.5714206144-.2121616673-.3575488256-.7728085842-2.6456393442-2.5002521859-1.3591664616,0,0-1.5001143174.0712138116-2.2122524335.5000689343-.7123230871.4303348902-1.288137621-.5000689343-1.6366228705-1.0016176361-.3636528666-.4970169138-1.1516290678-3.4276039899.1365085532-5.1444117625,1.28795265-1.7152355197,3.4243669984-2.7865871999,3.7123667508-2.7865871999.2878147815,0,5.0154870179-2.572945765,5.2883191533-4.788250219.2879997524-2.2153969395.7121381161-2.4305181418,1.8637671839-1.8577556284,1.1364614508.5697104929,2.2880905186,1.92896944,1.4244612032,4.9306778422-.8486466693,3.0018008877,0,5.8611741521.5758145339,6.6475781004.5758145339.7849241807.636300031,1.0712591947.636300031,1.6441141936,0,.5697104929.0758380851,1.7122759847.4394909517,1.927397187.3484852495.2136414348,2.1365993193,2.7865871999,2.2122524335,3.6457772127.0758380851.8561379923,1.1364614508.3560690581,1.1364614508.3560690581,0,0,1.8032816868-.1439073907,2.2880905186-.0726935791.5001614197.0726935791,8.5158770723.4333869107,8.8643623219.0726935791.3636528666-.3560690581-.1363235822-1.7137557522-.3484852495-1.8561833754-.2273292843-.1454796437-.9394674005-3.1457082784-4.0760196174-2.216876707,0,0-1.7122759847.2166934553-2.2124374044,0-.4999764488-.2136414348-2.7273964993-2.1440906424-2.7880669674-3.6442974452-.0756531141-1.4985420644-.6514676481-4.2154877056.0758380851-5.2883191533.7121381161-1.0712591947,2.9243905496-5.14589153,2.7728993504-5.6458679789-.1363235822-.5000689343.2879997524-1.0001378685.7879762012-1.0001378685,0,0,3.5002050835-2.7153733883,3.3638815013-3.2866561341-.1514911993-.5742422809.5303116828-.5939416859.5303116828-.5939416859"/>
  </g>
</svg>