<?xml version="1.0" encoding="UTF-8"?>
<svg id="Layer_2" data-name="Layer 2" xmlns="http://www.w3.org/2000/svg" viewBox="0 0 117.2605371476 29.9545049769">
  <defs>
    <style>
      .cls-1 {
        fill: #11cbea;
      }
    </style>
  </defs>
  <g id="Layer_1-2" data-name="Layer 1">
    <path class="cls-1" d="M26.5542383195,22.5678215832c2.13671875-.1315917969,3.9436035156-.7515869141,5.3459472656-.8676757812.6235351562-.0478515625,1.0266113281.2902832031,1.7373046875.5772705078l1.15625,1.0145263672c.5668945312.3911132812.9086914062,1.4655761719,1.8786621094,1.87890625.2836914062.1212158203.7531738281,0,1.0112304688.1434326172.3791503906.2169189453.4526367188.7344970703.8693847656,1.0128173828.2102050781.1384277344.9616699219.2049560547,1.4467773438.4321289062.869140625.421875,4.1298828125,1.8208007812,4.912109375,1.591796875.3793945312-.1075439453.5295410156-.9154052734,1.0112304688-.5805664062-1.5166015625.4969482422,1.5883789062.7736816406,2.0239257812.7241210938,1.3208007812-.1428222656,1.3806152344-.5661621094,1.0705566406-1.1015625-.1806640625-.3842773438-.5415039062-.7866210938-.7492675781-1.1018066406-.1232910156-.1884765625-.2470703125-.3679199219-.3708496094-.5490722656-.1496582031-.3599853516-.1501464844-.7069091797.1948242188-1.0051269531l-.380859375-.5654296875.6694335938-.1571044922c-.1330566406-.5329589844-.7770996094-1.5543212891-.8693847656-1.7370605469-.1176757812-.2322998047-.6062011719-1.0640869141-.5771484375-1.1546630859.3312988281-.8676757812,3.673828125-.7600097656,6.0720214844-.8676757812,3.4501953125-.1555175781,7.3889160156-.5841064453,10.5520019531-.8659667969,3.2590332031-.2902832031,7.2028808594.0290527344,9.9748535156-.5808105469.4270019531-.0887451172.9497070312-.4013671875,1.1564941406-.4304199219,2.2407226562-.3022460938,4.0222167969.4440917969,6.2136230469.4304199219,1.5356445312-.0032958984,3.2111816406-.4678955078,4.9157714844-.4304199219,4.9226074219.1025390625,11.2934570312,2.7346191406,15.7563476562,3.03515625.6867675781.0495605469,1.5407714844-.1450195312,2.0241699219,0,1.0778808594.3245849609,2.041015625,2.5946044922,2.8898925781,3.4689941406.9291992188.9565429688,2.41015625,1.4040527344,3.0368652344,2.0224609375.1674804688.1689453125.0666503906.421875.2888183594.5788574219.6437988281.4458007812,1.9265136719.7703857422,2.8898925781,1.2998046875.8129882812.4475097656,3.0009765625,1.5852050781,4.1931152344,1.0146484375l.0654296875-.5280761719.296875.0788574219c-.0930175781-.0517578125-.1921386719-.0853271484-.2927246094-.1121826172l.0739746094-.5965576172c-2.2700195312-1.8806152344-1.5458984375-5.8723144531-3.9028320312-7.6606445312-.3740234375-.2834472656-1.361328125-.2937011719-1.5900878906-.5771484375-.3315429688-.4066162109.1928710938-.8438720703,0-1.4467773438.1142578125.3500976562-1.4025878906-2.0001220703-1.1564941406-1.8804931641-.9274902344-.4645996094-3.0334472656,1.0435791016-4.0480957031,1.0128173828-1.2331542969-.0307617188-2.1364746094-1.4876708984-3.0349121094-2.1674804688-.2102050781-.1572265625-.5637207031.0051269531-.72265625-.1452636719-.5278320312-.5054931641-.572265625-.8198242188-1.3015136719-1.3013916016-.9631347656-.6439208984-1.9387207031-1.5184326172-2.8881835938-2.1676025391-.8984375-.6147460938-1.7644042969-1.0554199219-2.6030273438-1.5900878906-.7155761719-.4594726562-1.15625-.5960693359-2.1691894531-1.15625-.4150390625-.2307128906-.7275390625-.8096923828-1.15625-1.0129394531-.5415039062-.2509765625-1.2109375.0187988281-1.5903320312-.1434326172-.1791992188-.0803222656.0666503906-.3912353516-.1435546875-.5806884766-.1586914062-.13671875-.8383789062-.1606445312-1.15625-.4304199219-.6625976562-.5603027344-1.0297851562-.5244140625-2.0239257812-1.0112304688-.4458007812-.2169189453-.7275390625-.7839355469-1.1579589844-1.0145263672-.2939453125-.1553955078-1.0043945312-.1895751953-1.5903320312-.4321289062-.9309082031-.3843994141-1.8957519531-1.2657470703-3.0334472656-1.4466552734-.2099609375-.0290527344-.5380859375.2048339844-.7224121094.1451416016-.2492675781-.0734863281-.4167480469-.4440917969-.7243652344-.5772705078-1.1552734375-.4970703125-2.7575683594-.9135742188-3.8015136719-1.4597167969-.0056152344-.0257568359-.0031738281-.0469970703-.0141601562-.0759277344-.1706542969-.4611816406-.4953613281-.8044433594-.9001464844-1.0759277344-.4252929688-.2852783203-.9001464844-.6457519531-1.4072265625-.3059082031l-.1196289062.2700195312.0393066406.1160888672c-.0991210938.0816650391-.2048339844.1549072266-.3093261719.2293701172-.1020507812.0600585938-.1979980469.1098632812-.2800292969.1345214844-1.3439941406.4064941406-3.9028320312.6369628906-5.4912109375.4304199219-.2307128906-.0290527344.1247558594-.2614746094-.1469726562-.2869873047-.4047851562-.0324707031-.1364746094.2869873047-.1433105469.2869873047-.3793945312.0256347656-.8149414062-.3673095703-1.1564941406-.4304199219-2.1638183594-.4235839844-4.939453125-.1948242188-7.3735351562-.1469726562-1.6618652344.0358886719-3.5695800781.0666503906-5.2009277344.2904052734-1.3288574219.1844482422-2.3500976562.4456787109-4.0512695312.4337158203-3.7099609375-.0255126953-7.2573242188.6901855469-10.5505371094,1.2998046875-2,.3741455078-3.7114257812.6936035156-6.3623046875,1.3016357422-1.2570800781.2869873047-2.8884277344.6251220703-4.0446777344,1.0111083984-.5380859375.1827392578-.7189941406.5859375-1.1579589844.7225341797-.8010253906.2545166016.4167480469-.3245849609-.287109375-.2886962891-.7805175781.0427246094-1.8259277344,1.1392822266-2.6027832031,1.3015136719-.5004882812.1025390625-1.0966796875-.1519775391-1.5903320312,0-.5073242188.1555175781-.7958984375.6558837891-1.3032226562.8676757812-.4868164062.2049560547-1.1613769531.1008300781-1.7319335938.2885742188-1.1442871094.3861083984-2.0068359375,1.5595703125-3.1821289062,1.8771972656-.6608886719.1828613281-1.3833007812-.1434326172-2.0239257812,0-.2526855469.0632324219-.7036132812.6524658203-1.2998046875.8693847656-1.2177734375.4406738281-1.619140625.6849365234-2.7446289062,1.4450683594-.6765136719.4576416016-1.6398925781.7941894531-1.8806152344,1.0109863281-.24609375.2290039062-.1572265625.7038574219-.4338378906.8676757812-.3723144531.2238769531-.8317871094-.0767822266-1.15625.1452636719-.3520507812.2408447266.0615234375.5483398438-.2888183594.8676757812-.2407226562.2237548828-.6320800781-.0546875-1.0109863281.1435546875-.4047851562.2099609375-.9873046875,1.4346923828-1.7373046875,1.8787841797-.3603515625.2169189453-.7993164062.1280517578-1.0109863281.2886962891v.5788574219c-.5893554688.5380859375-1.6413574219.9821777344-2.1674804688,1.7354736328-.1264648438.1810302734-.0546875.5294189453-.1435546875.7242431641-.5004882812,1.0776367188-1.9470214844,1.8223876953-.8676757812,3.1785888672l2.4577636719,1.3013916016c2.1591796875.7294921875,4.8168945312-.9632568359,7.3718261719-1.3013916016,5.2624511719-.7003173828,11.1791992188-.6866455078,16.333984375-1.0128173828Z"/>
  </g>
</svg>