<?xml version="1.0" encoding="UTF-8"?>
<svg id="Layer_2" data-name="Layer 2" xmlns="http://www.w3.org/2000/svg" viewBox="0 0 90.8538817603 31.7223762913">
  <defs>
    <style>
      .cls-1 {
        fill: #4d5e1b;
        fill-rule: evenodd;
      }
    </style>
  </defs>
  <g id="Layer_1-2" data-name="Layer 1">
    <path class="cls-1" d="M88.7010025007,3.0446052249c2.6286214271-1.3574071889,2.3470750341.4521377805,1.3137277819-2.9992761854-1.1736606288-.2933256191-1.7225180047.9402079761-2.8152909078.7501166617-1.6671846356.5371655033-4.4715676542-.1267634877-5.8177707755,1.124628986-2.2373065934,1.9985249601-1.6271283033,6.8201991512-5.0672678676,7.4973409308-1.1368692745-.6959568557-1.9830969827-1.9595965737-3.3782280508-1.8741863736-.9984832124.5954109358-2.1325875773-1.0809159871-3.1905298094-1.311648699-1.1510954276-.8217224991-2.5701089574-1.0363917944-3.7534346714-1.6874898982-3.0143137584-.1582936591-6.7862830585-1.507669282-9.7589704353-.5628791348-1.0760503106-.2090586037-3.3859309165-.1993121923-4.3166363079.5631979481-15.7009157601-1.4943508771-30.831720466,5.9860551221-46.5431174633,4.3107381423-6.5128754664-1.6581284732-7.5088662961-.1347063056-.7508312634,1.5000384082,12.3084229826,2.9973860894,25.2166214777-4.6930026773,37.7228060682-1.5000514724,4.0448190297,1.2643355567,9.3498212742.7137324632,12.198920153,4.3107085257.6985541673.3210927505,3.2328243364,1.1639825634,1.5011270055,1.6871306001-1.371269629,1.0593245462-5.7475612034-.0756521828-3.9411357126,2.8116034606.7961684752.8244592483,2.2980999123.5659600103,1.8766493194,1.8742334034-1.2859640186,1.5425330906-3.9124757165,1.5300262531-3.752987835,3.9364531887-1.9436530809,4.2716671992-2.1564835361,3.4432911105.5633734871,7.6846060895,1.3347883423.7946696944,3.0738109536.1161547835,4.503597454.5625064847-.5557755337-.9215631104-1.5254619802-1.2042095129-2.4399485173-1.4991568109-1.5653772484.0107026728-2.6269155072-1.7288566939-2.4395897524-3.186811033,1.0744443973-1.3372072248,1.5153403352-3.0163367703,2.8149235238-3.9363814722.930921509-.7890094637,2.3669613494-.7483272999,3.1907653687-1.8739153134.5908371276-.4351404032.8229715681.6485250669,1.5012189672.5618454791,1.3728798858.9539573478,1.2612201843,2.7436193891,2.0640788504,4.1240101054.6195502777.3433194972.4786317141,1.744332723,1.313966634,1.1244443407.1146719425-2.1879415864-1.4061558012-3.7613958679-1.3133251533-5.9981252315-.6546407687-.5102284955-1.5770299511-.9270456092-.3755349169-1.3120298425,1.3939662534-2.5100408019,2.6859668752-1.6326375998,4.5041725725-2.8109639459.5839468527-.2253074187.767927707-1.0228294532,1.1261187434-1.4998748676,1.0860445285.5019230303,2.4548562707-.0560463911,3.3778852305-.5622709434,5.8965170117-2.4419495476.0234768625,4.030989781,6.3811943831,3.3734501246.5288532192.4616264408,1.4759797094.2375956012,1.6886761204,1.1251357466,2.3168513274,2.4421210182-.6446733447,2.6572038594-2.4396742462,2.0611242665.5229253395,1.6656352783,2.505465675,1.6525505495,3.753663416.9377936376,1.5996249901-.822953581.5209774859-4.8413521339-1.5012646681-4.8735438566,1.1850901027-.819996658,5.6217833144.9814622923,3.9411617181,2.4368499047-.9376833011.5836619478-1.8433178559.3318299407-.5630720092,1.4996448129,1.1051912429-.1950003636,3.0045262348-.8758812272,2.0642381362-2.2495934561-.2694114715-1.0783262446-.2415158967-2.2697600585-.9382736965-2.9989308908-.5597033784-.046602068-.9076838374.2858250148-1.3139527386-.1875498919-1.4588338552-.2348500603-5.0869192595-.8752239573-4.1289244226-2.8115133813.8591762217-.3973511971,2.2727652986-.1142251809,3.0028407559-.9374462645,2.10206727-1.2535535268,3.1430648884-3.64798719,3.7537241916-5.8101337919,1.3441323185-1.2814470391,3.6573644339-.4186181209,4.6917461854-1.8741828001,1.8404842132-.0039635937,6.5925185663-1.265978953,1.6891851549-1.4996456908Z"/>
  </g>
</svg>