<?xml version="1.0" encoding="UTF-8"?>
<svg id="Layer_2" data-name="Layer 2" xmlns="http://www.w3.org/2000/svg" viewBox="0 0 90.9654533858 41.4205865804">
  <defs>
    <style>
      .cls-1 {
        fill: #de7575;
        fill-rule: evenodd;
      }
    </style>
  </defs>
  <g id="Layer_1-2" data-name="Layer 1">
    <path class="cls-1" d="M90.8346483181,25.1898062552c-1.187381561-3.5695518093-5.0846765925-6.460928302-8.6329341862-7.1140869695-7.6586896111-4.3336685796-18.8029962424-.9263985407-27.0251045219-2.4333209086-13.0919434894-2.6103649453-11.101472703-4.3857673797-24.585181652.0005347382-4.7796838987,2.4700242048-10.1804082602-.3121863596-12.9493651767-4.6810149491-2.5265158364-3.4241664944-5.2940970515-7.0404202366-8.6330610258-9.3606979103C6.4647206521.1111548365.3752132498-1.541182194,0,2.7247318737c4.7195864351,1.0513599524,6.2587137733-.1453435613,9.9469139977,4.6810753809,2.8914283518,5.5207149365,5.0985936084,11.9051271816,10.8854162401,15.5373283908,2.3703120469,1.8774726467,5.3293126878,1.3388873406,6.7559760876,3.9314629942,1.3949308088,2.4871785215-.4615381645,6.2368667644-1.8761411315,8.4241113192-.6098378377.9451363989-.5805446367,2.0995233109-1.6897858278,2.8082078641-.4597450854,1.2751651755,2.171970294,1.1958616612,3.0028268428.9360983352.6265803715-2.5430900713-.0098484245-1.4855757253,2.2528685692-3.369422487,1.0457801614-.4356866057,1.2603662821-2.9738193984,2.2514527352-2.9957238107.4288119839,1.1135547858.7276016845,2.4215024643,1.5011954582,3.3701535104.814948044,1.1390407777,2.4356377358,2.0030799334,2.4402086657,3.5565840935.5091215381.0740177259.8925067878-.470984236.9382959976-.9359271643.8073986153-.335344538,1.3835517518-1.3343180304.5628101587-2.0594631387-1.5112190573-1.017533025-1.0802525426-2.4874926728-1.6887350315-3.931253698-1.0722018338-2.5523012826.036426638-1.8833841361,2.0645972925-1.3103707184,1.1937983912.3418676773,5.9177727013-.594620358,5.6302462348.3739810305-.6425488145,3.0377714097,1.8581737211,6.7259304926-1.8773668614,8.2371653296-.159575154.9915385951,3.8203322562,1.1171408446,3.9413167579.3754463242-.1650728129-1.1910307678.1377126711-2.4109350634.9388617602-3.1830614295.041209357-.6949092796.3969398462-2.5227337911.9378435332-.9359851727.5893032744,1.3740650313,2.4911671026,3.8636625652.3753028566,4.6800858647,2.9294716032,1.9257063672,5.0204993784-2.1189833988,2.6272393815-4.3057630638-.4129555575-2.7434519242-3.0207543792-6.6611244569.7512875899-8.2368879473,1.1834159261-1.0645506419,1.4528082362-2.4501484607,3.0028538345-3.1824594469,2.8851819091-2.6905752387,6.6407917887-3.1352935523,10.321912571-4.1186900876,6.9457751771-2.0692312787,14.8083122386-1.0461230697,21.3947950113.5619069535,1.2700587772,1.4402223026,3.2803710095,2.1424206507,4.1289548564,3.93069593.1897457499,2.0981773391-.7384406905,4.7460051909-2.8151446036,5.4292741449-4.6055124672,2.5336453471-11.0801804054.9440628845-16.1401100014,2.4333502059-1.3075467294.3577955498-2.9892700614.13392669-4.1288182049.7488726759-.4830976957.1496517596-.9155686312,1.5820468296-.1876153666.9364964849,5.0636786251-1.0480492541,11.3031751771-1.0334650036,16.7029766429-1.3104817704,4.3887786348-.1814150852,8.8379436673-3.9528279209,7.8822122712-8.6117325159Z"/>
  </g>
</svg>