<?xml version="1.0" encoding="UTF-8"?>
<svg id="Layer_2" data-name="Layer 2" xmlns="http://www.w3.org/2000/svg" viewBox="0 0 91.1610923494 29.1207918704">
  <defs>
    <style>
      .cls-1 {
        fill: #82ff82;
        fill-rule: evenodd;
      }
    </style>
  </defs>
  <g id="Layer_1-2" data-name="Layer 1">
    <path class="cls-1" d="M90.8998727625,22.3717749271c-.6092463905-2.860794414-6.0238378437-5.0238517149-8.4447061108-6.7685349753-5.3851378974-3.5788116595-11.1088372918-6.8931608716-16.8912156318-9.7754586875-7.3130010451-4.5621239226-11.6380369486-5.4217969451-19.8936970241-3.0071218711-3.9309432432,1.66046251-8.2792651526,1.9466927833-11.447847545,4.8873583092-3.7873058682,2.6220239196-10.3481889752,3.9442476409-14.263474873.7522199408-2.156541595-1.6738676246-4.0913494431-3.9004962473-6.3808977774-5.4520874115C11.2276866125,1.6593742283,8.6713555379.6628979573,6.0711603036,0,3.868575004,1.0438989818-2.1785000708.6195082524.8162139981,4.5120920542c2.4272868849-.5482789003,5.7907304334.6030088939,8.0699853115,1.1269846421,3.7818306003,2.3552435972,6.9971339077,5.0291541987,9.9466837613,8.460688342.9949479619,1.5954757617,2.9445639293.7904574646,4.1291586758,1.8798728605,1.8516805404.7674423187,6.5849350196,1.7595993766,4.8794132596,4.5123828469-1.4805169222,1.6951034902-1.6399286136,4.5932278268-3.9411709847,5.4519867345-1.0669382293.6288712012-2.7527524246-.5142322181-3.5657929379.7520571066-1.3222774759,2.9817013389.9473743425.7043296265,2.2519199245,1.5033843235,4.0024891665,1.443868736,6.6978184876-3.7157250208,9.0083877998-6.391595577,3.7348695232,5.5418866925-.5288645658,2.695029843-.939159926,6.2036732913.8827286163-.4134911406,1.7163883353.7023336113,3.0033394367.3758742282,1.7476998799-.5785492762,2.3552247931-2.8572382229,2.0646392759-4.5117148247-1.0791450032-7.8665202702-2.2704164761-4.115980277,4.5047350704-5.8274098581,2.417950851-.8091331675,6.1422743444-1.6659657834,4.5034845461,2.0677705245-.7114399964,1.7843456381,1.2294830182,2.1357788828-1.3139022991,4.3237015228-.7141782888,1.7890881945-6.583971375,1.2643346024-5.4423013375,3.5717865109,3.9549212129.6350848681,8.8161952353-.9482102855,9.5707700571-5.076461852.9409574735-1.5694257613,2.3875097467-2.9677387441,2.0649991581-5.075340437.9078510348,1.6173761612,6.0218754651,4.4668857861,5.255530349,6.2036010961-.3304016626,1.2878360663-1.0488823757,2.6983553864-2.2524207048,3.0083898257-6.3469903557.2725730487-3.5780526047,2.7034247161,1.1258661655,1.8794082824,1.6410730389-.5683181283,3.0665743554-2.2178790978,4.1288791741-3.759265402,2.1501160428-1.2205840267-.0549721778-4.0463246074-.7504757124-5.6399743427-1.2670709253-2.7514711971.2068502669-2.2801295527,1.876883292-3.3836438592,3.6877095938-1.6590223632,9.0666417057-.4182169817,12.9492568923.3751856155,10.3216252881,1.4944140192,26.2236164409,8.3983444744,4.87926889,9.7765353763-.12763964,3.0936430665,6.7848975049,1.8564570818,8.820511602.9401111934,1.3984620058-.8374555481,6.7506267024-2.8747156473,5.255170025-4.888305298Z"/>
  </g>
</svg>