<?xml version="1.0" encoding="UTF-8"?>
<svg id="Layer_2" data-name="Layer 2" xmlns="http://www.w3.org/2000/svg" viewBox="0 0 128.2352564761 40.0352003712">
  <defs>
    <style>
      .cls-1 {
        fill: #7fd4ac;
      }
    </style>
  </defs>
  <g id="Layer_1-2" data-name="Layer 1">
    <path class="cls-1" d="M127.9038317695,39.2270466233c-1.9664072552-1.9729360069-3.6411969344-6.0679471317-14.4026900439-8.9484785458,0,0-5.7697018835-1.2133915854-9.7026482879-.1512823879,0,0-3.4899145465-.1512494144-7.7362410327-2.7292819996-1.4802460679-.895691976-3.0468826885-1.8865124806-4.6460971207-2.9507649551,0-.0518673052,0-.1048227357.0108153058-.1523375397-.1835964115-.0864564998-.367324717-.1588333179-.5510530225-.2117887484-.2052270232-.1361475544-.4104540464-.2776697883-.6158129636-.4159935933.2701188583-.7476739639-.4646624697-1.2436282789-1.0588448216-.7325391304-.0108153058-.0086720288-.0216306117-.0162229588-.0324459175-.0237738888.2701188583-.5629234801-.443031858-1.2284934454-1.1129213509-1.2544435847-.2809341642-.1447866097-.5941823519-.2096124978-.9075624336-.2052929702-.075575247-.0572749581-.1620976938-.1166931933-.2376729408-.1728800261,0-.2517526225-.0865224468-.5402377166-.0324459176-.7746792551-.4322165521-.1998853173-.8319871867-.3468481776-1.2965177623-.2333863866-.0216306117-.0151348335-.0432612234-.0313577923-.0648918351-.0475477776.5618683284-.7509383398.0865224468-1.3959658186-.4861611874-1.2868565288.0108153058-.0367324717.0216306117-.0637377628.0324459176-.1026464851-.1404670821-.1069660127-.29174947-.1869267344-.4538471638-.2538958996-.1620976938-.3706220663-.6159448576-.6796166734-1.0588448216-.7109744657-.0216306117-.1382908315-.0324459176-.2754935378,0-.397594384-.4754777755-.2139320255-.8968790218-.3814043987-1.4046708209-.2139320255.8536177984-1.0491506145-.3456941053-1.9308288558-1.0372142099-.9270497683.7670953516-.6872005769-.4754777755-1.7514530515-1.2858343505-1.4391940685v-.1901581367c-.1727811057.0324129441-.4645305757-.0637707363-.6807047987-.0270382646,1.1237366567-1.4564721791-.5941823519-1.653126094-1.836755479-1.3797428598-.1188364704-.1015583598-.2593035525-.2052929702-.3781400229-.3090275806.6374435753-1.2123034601-.5726836342-1.6725804551-1.836887373-1.5872120806-.0431293294-.221515929-.1404670821-.4559574674-.1188364704-.6677462158-.2809341642-.0799607216-.5402377166-.1404670821-.7995412691-.1426103592-.1080211645-.0108153059-.2160423291-.0043195276-.3240634936-.0097271806-.0540765293-.045371527-.1189683644-.0907760275-.1729129996-.1361475544.1188364704-.3554542594.0539446353-.6439393535-.1080211645-.8233151579.2376729408-.2452568443.367324717-.5964245495.3024328819-1.0912907391-.5186071049-.1966209414-1.0588448216-.1901581367-1.5558213148.0324129441,0-.2906283712-.2701188583-.6104712577-.2809341642-.9140582119-.5077917991-.0734979169-.9616389629-.1156380415-1.4046708209.1890700114.5294224108-1.2479478065-.8751165161-1.7557725791-1.2640718448-.5975126748.2268576349-.359773787.1080211645-.6850243264-.1620976938-.9086835324.2268576349-1.0221123499-.9291930454-1.7179519821-1.8044414554-.8060040738,1.5343225971-1.5310582212-1.9880378669-1.5007885543-3.3494474644-.7703927009-.0863905528-.037820597-.1729129996-.0691454158-.2484882466-.1037346104.1512823879-.8622238802-.5726836342-1.1333978903-1.4261695386-1.0912577656-.0108153059-.0356773199-.0108153059-.0670021387-.0216306117-.1048227357-.4754777755-.1069660127-.9508236571-.0432282499-1.3614095975.1739681514-.0432612234-.0119034311-.075707141-.0259501393-.1188364704-.0367324717,0,0-.0324459176-.0119034311-.0973377527-.0324129441-.1080211645-.2333863866-.3240634936-.465684648-.367324717-.7131177428-.4645305757.0021432771-.8751165161.0345562211-1.2425731271.3057632047-.0323140236-.00755093-.0647599411-.0151348335-.1080211645-.0237738888.2268576349-1.2112153348-1.1345519626-1.4661993596-1.3397789858-.3003555518.4969764932-1.1356071143-1.8692013965-1.5656144424-1.9988531728-.2657993307-.1188364704-.0151348335-.2269895289-.0313577923-.3458259993-.0443163752-.3240634936-.62125359-.9831376806-.8492323237-1.393723621-.1480180121-.0324459175-.0021762506-.0648918351-.0064957782-.0973377526-.0086390553,0-.100503208-.0108153058-.2258354566,0-.2647112054-.4537152698-.0291815417-.8534859044-.0399968476-1.253256539.1771995538-.0540765293-.0043195276-.0973377527-.0086720288-.1512823879-.0108153059-.2809341642-.4926899391-1.2858343505-.5931931471-1.6315284558-.0670021387-.1512823879-.0032314024-.3025647759-.0086390553-.4646624697-.0107823324-.3997706345-.2809341642-1.0372142099-.2874299424-1.3829083152,0-.075707141,0-.1404670821-.0021762506-.216174223,0-.0539446353-.9173225877-1.1884965978-1.0145943934-1.3830402092.0367324717.4971083872-1.1215274326-1.8043095615-1.5515677342-1.988037867-.3154903853-.3889553287-.259336526-.9940848805-.0205424864-1.2533884329.4700041756-.1727811057-.0486359028-.3348787994-.0097271806-.4320846581.1436984844-.0648918351.0054076529-.1189683644.0118704576-.1837283055.0194543611-.2484882466-.9065402554-1.5774519265-.8233481314-1.6315284558.2139320255-.0432612234.0064628047-.0863905528.0140467082-.1296517762.0205095129-.4322165521-.7390349086-1.2425731271-.4505498145-1.8259401731.1015583598-.2486201406-.0637377628-.5618683283-.1469298868-.9185096335-.2463449695-.2593035525-.2528077743-.6374435753-.3392642741-.9939529865-.3057632047-.3997706345-.1339713039-.7672272455-.2733502607-.9724542688-.3997706346-.2268576349-.1361475544-.4646624697-.3133471082-.7023354104-.4948661897l-.2160423291-1.1593480296c-.5510530225.1620647203-.7995412691.2701188583-.9832695746.344671927-.0863905528-.0324129441-.1620976938-.0550987076-.2268576349-.0550987076-.4538471638,0-.9076943276-.4549023156-1.5126919854-.3036199277-.5618683283.1404670821-.6051295517.2787579136-1.1993119037.2993004-.2809341642-.261479803-1.177813186-.9508236571-2.2474733134-.2377059143-1.2857024565.8600476296-1.9555919494.4764669803-2.2473414194.4764669803-.2809341642,0-1.7719955379-1.0977535439-2.7228191949-.5240147579-.9508236571.5726506607-2.4310697249.5726506607-2.6795579715.5726506607-.2376729408,0-1.761180232-.95623131-3.1981650765-.0486359028-1.4371167384.9086835324-6.6882115169,3.4413445906-6.6882115169,3.4413445906,0,0-3.6844581578.1912132885-5.0134218377,1.0512938916,0,0-1.8692013966.0486029293-2.204080196,0-.3350106934-.0475477776-1.8585179847-.6688343411-3.0037533591-.0950955551,0,0-3.7816640165,1.3376357087-1.4802460679,2.6277236398,0,0-1.393855515,1.2414520283,1.6639743733,1.9102863694,0,0,6.8393620109,1.4348745409,15.4399042538,1.2911760564,0,0,2.8200250536,1.3851505127,3.965392322,1.5763967747.0972058587.0162229588.2701188583.0691454158.4861611874.1382908315,1.2533884329.5705073836,2.7768957242,1.1345189891,4.3002711215,1.4046378474,1.1669978801.3424956764,2.4635156425.6807047987,3.8465558516.9529669341.1620976938.412762191.3997706346.8244032832.3997706346,1.2371654742v2.2754678093s-1.5126919854,5.0036946572-1.8152567613,5.4585639993c-.3024328819.4559574674-1.8151248673,3.7924793224-1.8151248673,3.7924793224,0,0-3.1874816646-.3036199277-3.4899145465.3025318024l-.3025647759.6072068818s-.3133800817.757434118.9075624337.757434118c1.2101272095,0,3.9437617103-.1512823879,3.9437617103-.1512823879h1.0588448216s.3025647759-.4548693421.6051295517-.9097716577c.3024328819-.4548693421,2.279787337-3.7913911971,2.8847849947-5.004749809.6051295517-1.2133586119.6051295517-1.3646409998,1.2101272095-1.5158904143.6051295517-.1512823879.9076943276-1.2133915854,1.3614095975-2.1231632431.4646624697-.9097386842,3.4899145465-.1512494144,4.8621394498.9097716577,1.3614095975,1.0621091974,3.0253839708,2.1242183949,3.4792311346,4.8535003945.4537152698,2.7292819996,1.6746577852,5.0026065319.6158129636,6.368335657l-1.8260720671.3035869542h-.6049976578l-.6051295517.3036199277v.60615173s-.4537152698,1.0621091974.3025647759,1.0621091974h4.2463264862l.7562800457-.6072398553s.9075624336-1.0599329469,1.0588448216-1.5158904143.3025647759-.7595773951.3025647759-1.5169785396c0-.7585222433-.3025647759-5.9145544402-.3025647759-6.67304371v-.7574011445s10.0160283696,2.1220421443,12.2850004007,1.3646409998c0,0,.3025647759,1.2133586119.1512823879,1.9718808552-.1512823879.7574011445-.6049976578,2.7292819996-.6049976578,2.7292819996l-.6051295517,1.5158904143-.6049976578,1.0610210722-.6051295518.304708053-2.4310697249.3036199277h-1.3614095975c-.6049976578,0-1.0588448216.3025318024-1.0588448216.3025318024l-.4645305757.6072068818v.60615173l.4645305757.3036199277h.4538471638l.6049976578.1512494144s-.7562800457.1512823879,1.2101272095.1512823879h2.4310697249c.7564119397,0,3.0253839708-.4548693421,3.0253839708-.4548693421l.1512823879-.60615173s0-.3025318024.4537152698-1.0610210722c.4646624697-.7595773951.3133800817-1.2144797107,1.0696601274-1.5180666648.7564119397-.3025318024,0,.1523375397.7564119397-.3025318024.7562800457-.4549023156,1.0588448216-.1523705132,1.5126919854-.7585222433.4537152698-.6061187566.7562800457-.3035869542.7562800457-2.1231302696,0-1.8195103419.3133800817-2.8816195394.3133800817-2.8816195394,0,0,8.4925210784,1.0621091974,9.8539306759,4.5498804669,0,0,.7562800457.60615173-.1512823879,1.0610210722-.9075624337.4549023156-1.5235072913.7584892698-1.5235072913.7584892698l-1.0588448216.1512823879-.6049976578.1523375397h-.9076943276l-.6049976578.3025318024s-.7672272455.0010881253-.3025647759.6083279806l.4538471638.6061187566s1.0588448216.3036199277,1.5125600914.3036199277h2.2799192309c.4537152699,0,1.0588448216-.1523375397,1.0588448216-.1523375397,0,0,0-.4548693421.6049976578-.4548693421.6051295517,0,1.3614095975-.3025318024,1.3614095975-.3025318024l.6159448576-.3036199277.7562800457-.304708053.6049976578-.7574011445s-.151150494-.6072398553.4538471638-.6072398553c.6051295517,0,.3025647759-.60615173,1.3614095975.1523705132,1.0588448216.7574011445,2.8849168887,1.668227954,3.9437617103,2.2754678093,1.0588448216.60615173,2.279787337.7574011445,3.6411969344,1.5158904143,1.3614095975.7585222433,5.7588865776,3.6390536574,14.1001252681,3.6390536574,8.3413705844,0,15.4724820653-1.0621091974,17.4388893206,0,1.9773544551,1.0621091974,9.4110307119,3.1863275923,7.4336762568,1.2144467372"/>
  </g>
</svg>