<?xml version="1.0" encoding="UTF-8"?>
<svg id="Layer_2" data-name="Layer 2" xmlns="http://www.w3.org/2000/svg" viewBox="0 0 90.634850765 31.076860201">
  <defs>
    <style>
      .cls-1 {
        fill: #f2cc0d;
        fill-rule: evenodd;
      }
    </style>
  </defs>
  <g id="Layer_1-2" data-name="Layer 1">
    <g>
      <path class="cls-1" d="M90.634850765,8.3705063356c-6.0351012748-1.2413107604-13.7259251387-.524670173-19.8934178971-1.6896760993-10.4058118779-.0269616783-20.4880518787,2.0066294331-30.9662724111,1.8771652111-5.1375954827-1.2833388445-10.8995548501-3.6027324133-16.5154966522-3.0027456165-1.6029637601-.1883249208-3.4360371168,1.0713771071-4.8795669705.5636938884C14.8808210161,3.5291680696,14.301462833-1.2454882643,8.4330358398.3020043718c-2.1625720255.2291439719-3.4720028391,2.457407554-5.8175364294,2.0630823036-.7377350756.4277968485-1.8268375886.3150104343-2.2520279763,1.1265858142-2.2543541715,3.2038800299,6.7603264273.2023298245,5.6304129798,1.8761072234-.5627043208.3982657433-1.1089546427.6571535778-1.5013176154,1.1264143763-.3617224618.0577732457-.7086621443.2966924095-.7510118753.5627204197.367311673.1630302654,2.3610740991-.519360007,1.8768340263-.0000157104-.3172214893.6890419073-1.5060853987.9672633568-2.2518146158,1.1261251468-.1424472358.5670434889-1.0635562896.5564013659-1.5015688329.9380998833-.9689949853.9183470863.4695495096,1.2491625535,1.1261524193.7507498295,1.0969357872-.1130629503,1.764983185-1.4954454036,3.0025024945-1.3134741253.9061794799-.4030721485,2.358568775-1.5005539363,3.7537358425-1.688428962,2.6546758564-.2725667834,3.7809338665.080399814,4.5035955836,2.6270414879.5868219097.7521864477,1.0952448647,1.1433766336,1.8773893598,1.500203729.6541545569.6993920775.8022797925,1.6012596138,1.3136518153,2.2522451087-.0008314731.5845122556.9961901778.2225201012,1.3135439901.5631308147.5505787183.4339327724.8023179218,1.0540174903,1.3138174481,1.5011863145,1.8677994133.4182133704-.0989774694,1.5917765848-.9385898851,2.2517299104-1.2333209234.8369029001-3.0602523846.2666054079-3.3776191308,2.0644740022.1132451623,1.7035725002.1116948329,4.2607453368,1.1250364064,5.4417490365,1.7247968491.4537039428,4.0869657675-.1328848211,4.8802626905-1.8765235427.0768426502-.8475086477-1.8103136903.716850423-.9386220593-.7509079215-.783157004.4626139324-1.7191725998.5786085281-2.627327503.9381932902-.7548692323.5984754554,1.7621716268-1.4260683368.5629259603-.7508187872-.4212458255-.356440098-.4650843839-.2095420257.0004300486-.5624542349.6985351334-.6616154789-.3576432807-.5686626052-.7509970434-.562953245,1.804441273-2.1803087714,4.7424594828-3.0956458991,6.7561121228-5.0668685976,1.5666377702.1433097344,2.9695928918,1.0452493376,4.3167876253,1.6887474705,2.0217165244.246637079,5.2541410651,1.0379618852,6.1931844881,2.2522654167-.5262491186.2322541621-.4364461288.7019977697-.750628443,1.1259875433.1590805214-.6797664053-.3776271455-.5875633434-.751117258-.9383540519-.0788129459-.8540887064-1.1312718327-1.4713734315-1.876260509-1.5013848569-.6791415005.3990298658-1.4580377347.9035104527-1.3137644613,1.8766803149.3712356481-.1026625414,1.6689560122-.7456287551,1.6889405223-.0000902518-.3461725163,1.1626150477-.6649394238,1.5755422406.7512546422,2.6270229471.0129129588.2540338698-.0994234068,2.6677017651.186970276,2.8149098934-.9924439094.2696890472-.7625740594,1.1879233438-.3750950449,1.8765918706.4967813674,1.5449561097,1.8100449675,1.1095353957.7503883177-.1878320349.4713451209-.5880560932.4306188739-.8606913833.3753008168-1.6886615648.4078846945-.5918678734.751600946-1.3019260355.7510570966-2.064225622,2.9170895563-4.0015236955,2.0934161617-4.3771066761,6.7563041458-1.8764990546.486886846.4302596524,3.1644672881,2.1163376194,1.8768596716,2.0640166944-.5791065498-.6272180582-1.3433445451-.5040354607-2.0647955938-.3751568615-1.6601923728,1.8075812676.4620652776.8384766257.938734279,1.6884838534-.0695199942,1.2780248295,1.7722070915,1.5523697105,3.0026724021,2.0644543487.8669658211,1.7716243506-.7666866952,1.7211349556-2.2523328399,2.2515577269-.0426844357.7700950643,1.2102915986.4821779141,1.6889857388.9389484831,1.0191735202-.2924405748,1.6223214529-.854222828,2.2519784759-1.6895941518.8219758818-1.1101578303.7519183449-2.4197556881.187829644-3.5649513054-.2364447076-.3559952-1.1130797084-.2911427486-.3752138231-.5629933971.7377838931.0069074504,2.0506939351.384498863,1.1259865271-.5632279319-1.7065594279-1.2681880485-2.937437398.2998892329-3.9409314938-2.4396048905-1.2769941143-1.6486896469-3.4283262632-2.0525645608-4.5046009019-3.7526029745-1.0808743966-.7931641507,1.5787776802-1.6976723854-.3754320038-2.4395354117-1.3999895792.1294241409-1.0135043712-1.0452698567-.3750625404-1.8767789774,2.4492898581-.0332442514,4.4881868499-1.2161680734,6.7564369801-1.6887238157,3.650657497-1.7326662867,7.9597718397-2.0386273058,12.0108905283-2.8151575769,9.1708129152-2.8708473278,25.7181008575.695715011,33.2185174395-1.3131834327Z"/>
      <path class="cls-1" d="M45.2176144368,28.4492416872c.0257270578-.1658307863-.0223984106-.2129576175-.1877799432-.187462095.0000358025-.000037905.1877799432.187462095.1877799432.187462095Z"/>
    </g>
  </g>
</svg>