<?xml version="1.0" encoding="UTF-8"?>
<svg id="Layer_2" data-name="Layer 2" xmlns="http://www.w3.org/2000/svg" viewBox="0 0 47.6616426313 20.1930764184">
  <defs>
    <style>
      .cls-1 {
        fill: #9cf;
      }
    </style>
  </defs>
  <g id="Layer_1-2" data-name="Layer 1">
    <path class="cls-1" d="M45.3661641238,5.2977934748c-.9487915039.0258789062-1.8436279297.5549316406-2.6715087891.9631347656-.6034545898.2978515625-1.2373046875.5244140625-1.876953125.7351074219-.1599121094.0469970703-.3165893555.0974121094-.4665527344.1524658203-.311340332.0997314453-.6226806641.1989746094-.9317016602.3023681641-.5002441406.1672363281-.9822387695.3427734375-1.5037841797.4333496094-.5892333984.1025390625-1.1951293945.1041259766-1.7919311523.0911865234-.0842285156-.0018310547-.1675415039-.0104980469-.2515258789-.0142822266.3843994141-.5240478516-.0360107422-1.5426025391-.2442016602-2.0170898438-.4994506836-1.1419677734-1.385925293-1.8831787109-2.5065307617-2.3842773438-1.2072753906-.5389404297-2.5354614258-.7548828125-3.8362426758-.9282226562-.7435302734-.099609375-1.4878540039-.1884765625-2.2275390625-.3093261719-.3740844727-.0609130859-.7450561523-.1346435547-1.1137695312-.2197265625-.0646362305-.0152587891-.4957275391-.0753173828-.4979858398-.1643066406-.0030517578-.1352539062-.0532226562-.2622070312-.0562744141-.3999023438-.0007324219-.0524902344-.0479125977-.08203125-.0957641602-.0729980469-.9863891602.1741943359-1.852355957-.4993896484-2.8395996094-.3684082031-.0350952148-.1684570312-.1090698242-.3259277344-.1162719727-.5012207031-.0015258789-.0539550781-.0463867188-.0814208984-.0958251953-.0737304688-.5253295898.0843505859-1.5972900391.4431152344-1.6566162109-.3878173828-.0029907227-.0462646484-.0463256836-.0904541016-.0957641602-.0737304688-.4850463867.1672363281-.9556274414.3671875-1.4505615234.5086669922-.270690918.0766601562-.5557861328.1428222656-.8393554688.126953125-.3656616211-.0212402344-.3185424805-.33984375-.2174072266-.6005859375.0220336914-.0571289062-.0426025391-.1057128906-.0935058594-.0935058594-.4145507812.0983886719-.76171875.3060302734-1.0484008789.6146240234-.4743041992-.9371337891-1.6700439453.5069580078-2.233215332,1.0194091797.046081543-.2556152344.1126708984-.5078125.1516113281-.7651367188.0137329102-.0942382812-.1254272461-.1375732422-.1474609375-.0402832031-.11328125.5192871094-.6469726562.7427978516-.991394043,1.0795898438-.0562744141.0546875-.0866699219.1254882812-.1003417969.2006835938-.0380249023.2067871094-.1148071289.3671875-.2296142578.5444335938-.0081176758.0124511719-.0053100586.0236816406-.0059204102.0352783203-2.1845703125.21875-4.3157348633.7896728516-6.2525024414,1.8895263672-1.3296508789.7550048828-2.4312744141,1.8459472656-3.8734741211,2.3979492188-.3556518555.1357421875-1.7385864258.5363769531-1.6353759766,1.126953125-.2681884766-.0512695312-.6318969727.1982421875-.7822875977.3623046875-.2171020508.2353515625.1836547852.6051025391.4733276367.8223876953-.3781738281-.0152587891-.7572631836.0169677734-1.1354980469-.0240478516-.0433349609-.0046386719-.0744628906.0388183594-.0767822266.0759277344-.0364990234.6668701172.5344848633.9306640625,1.0841064453,1.1146240234.9678344727.3238525391,1.8900146484.6356201172,2.7734375,1.1639404297.4029541016.2409667969.7754516602.5238037109,1.1472167969.8112792969.3603515625.2781982422.7907104492.4743652344,1.2080688477.6491699219.9465332031.3953857422,1.9264526367.8051757812,2.9155883789,1.0803222656,1.0445556641.2905273438,2.1362915039.4599609375,3.2036743164.6516113281.4515991211.0805664062.9031982422.1314697266,1.3631591797.1246337891.512878418-.0081787109,1.0211791992-.0891113281,1.5325317383-.1231689453-.0299682617.0198974609-.0467529297.0559082031-.0188598633.0935058594.3968505859.5405273438.6264648438,1.1525878906.8978881836,1.7592773438.2280273438.5124511719.4690551758.8498535156.9237060547,1.169921875.4713745117.3315429688.8271484375.8181152344,1.2133789062,1.2392578125.4074707031.4448242188.8651733398.8166503906,1.3935546875,1.1069335938.0478515625.0258789062.0927124023,0,.112487793-.0456542969.2136230469-.5100097656.6127929688-.9395751953.9632568359-1.3601074219.3603515625-.4309082031.7252807617-.8627929688,1.0134277344-1.3471679688.212097168-.3549804688.3664550781-.7609863281.2949829102-1.1782226562-.0767822266-.4456787109-.4950561523-.7438964844-.8927001953-.9609375-.0374145508-.0235595703-.0672607422-.0496826172-.1065063477-.0725097656.1802978516.0356445312.3605957031.0676269531.5415039062.1110839844.6364135742.15234375,1.2608642578.26171875,1.9027099609.1928710938.2673339844.4747314453.4354858398.99609375.7574462891,1.4409179688.0372314453.0517578125.1193847656.0495605469.1390991211-.0181884766.2858886719-.9693603516,1.7805175781.3572998047,2.3203125.5169677734.0395507812.0122070312.0813598633-.013671875.0935058594-.0532226562.1368408203-.4545898438.5025634766-.4318847656.8956298828-.3634033203.1953735352.0343017578.3511962891.0767822266.5032348633.2113037109.0737915039.0661621094.1581420898.1506347656.2562255859.1779785156.2630615234.0744628906.5268554688.0251464844.7891235352-.0319824219.3824462891-.0834960938.8180541992.0334472656,1.201965332.0805664062,1.3776245117.1688232422,2.7149047852.03125,3.8727416992-.7852783203.7344360352-.5169677734,1.33203125-1.3365478516,1.4361572266-2.2457275391.1031494141-.8994140625-.2221069336-1.6240234375-.8835449219-2.2010498047.446472168-.0574951172.8875732422-.1315917969,1.3381958008-.2219238281.9229125977-.1862792969,1.8025512695.0501708984,2.701171875.2546386719,1.6223754883.3687744141,3.1474609375,1.0286865234,4.7538452148,1.4399414062.580078125.1483154297,1.2005004883.4683837891,1.8109741211.4173583984.4637451172-.0395507812.8628540039-.4508056641,1.2224731445-.703125.0250854492-.0183105469.0471191406-.0532226562.0342407227-.0859375-.057800293-.1459960938-.1421508789-.1688232422-.0023193359-.2768554688.0623779297-.0493164062.2205200195-.1625976562.2205200195-.2591552734,0-.1650390625-.1315307617-.3839111328-.1939086914-.5329589844-.0965576172-.2296142578-.2029418945-.4554443359-.3033447266-.6834716797-.1900634766-.4295654297-.3968505859-.9077148438-.2987670898-1.3852539062.0783081055-.3837890625.3162841797-.7365722656.5428466797-1.0490722656.1892700195-.2623291016.4067382812-.5048828125.6317749023-.7375488281.0638427734-.0660400391.2090454102-.1572265625.2379150391-.2492675781.0828857422-.2623291016.1125488281-.5473632812.1156005859-.8203125.0189819336-1.3054199219-1.0393066406-2.0944824219-2.2952270508-2.0603027344ZM30.7293843386,13.468203631c-.0194091797.0161132812-.0397338867.0310058594-.0592041016.0469970703.0194702148-.0159912109.0394897461-.0313720703.0592041016-.0469970703ZM22.2990254519,3.1911040216c.6640014648.0870361328,1.3754272461.1845703125,2.0963745117.2954101562-.6987304688-.0981445312-1.3972167969-.1966552734-2.0963745117-.2954101562ZM30.1576069949,13.8971587091c-.1983642578.1317138672-.4199829102.2397460938-.6624145508.3264160156.2260742188-.0985107422.451965332-.1979980469.6624145508-.3264160156ZM15.180678284,2.5861235529c-.5001220703.0056152344-.9996948242.0222167969-1.4966430664.0620117188.4427490234-.0524902344,1.1748046875-.0782470703,1.4299926758-.0667724609.0200805664.0009765625.0459594727.0035400391.0666503906.0047607422ZM21.3215474246,17.7736235529c-.5279541016.744140625-1.2808837891,1.3951416016-1.6679077148,2.2341308594-.0396118164-.0229492188-.0715942383-.0522460938-.1098632812-.076171875.0138549805.0075683594.0250244141.0157470703.0390625.0231933594.3939208984-.9953613281,2.2243041992-2.4459228516,2.2831420898-3.591796875.0051879883.0336914062.0258178711.0590820312.0272827148.0946044922.0189819336.4774169922-.3086547852.9456787109-.5717163086,1.3160400391Z"/>
  </g>
</svg>