<?xml version="1.0" encoding="UTF-8"?>
<svg id="Layer_2" data-name="Layer 2" xmlns="http://www.w3.org/2000/svg" viewBox="0 0 80.7006218261 44.1089005119">
  <defs>
    <style>
      .cls-1 {
        fill: #d95239;
      }

      .cls-2 {
        fill: #f2c5b3;
      }

      .cls-3 {
        fill: #e1795d;
      }

      .cls-4 {
        fill: #e38166;
      }

      .cls-5 {
        fill: #f9e6dd;
      }

      .cls-6 {
        fill: #f5d4c5;
      }

      .cls-7 {
        fill: #f0b8a2;
      }
    </style>
  </defs>
  <g id="Layer_1-2" data-name="Layer 1">
    <g>
      <path class="cls-4" d="M6.7143639671,24.637174765c-.2808405104,0-.5457990057-.0333377054-.6536804983-.1555033274-.093645784-.1031362564-.2174092917-.3268402491-.320545548-.5949945158-.0983910202-.2602132591-.177704254-.5585094598-.1919399626-.829811077v-.0206272513c-.0016463064-.0158820151-.0016463064-.0301419341-.0016463064-.0444260635,0-.055538632.0031957713-.107905703.0079410075-.1586748883.0016463065-.0031715609.0016463065-.0047452362.0016463065-.0063431219.0015494649-.0174556903.0047452362-.033313495.0062947011-.0507691854.0016463064-.0063431219.0031957713-.0126862437.0047452362-.019053576.0031957713-.014259919.0063915427-.0285440484.009587314-.0428281778.0015494649-.0079410075.0031957713-.0142841294.0062947011-.0222251369.0031957713-.0126862437.0063915427-.0253724875.0111367789-.0364850559.0063915427-.0206272513.0126862438-.0396566169.0206272513-.0587101929.2395860078-.5600831351.0571365176-.8567814501.2967225254-.9376925696,0,0,.4680352368-.3919177743.8456204609-.3919177743.0650775252,0,.126959279.0111125685.1825463317.0380829416.3775852241.1713611321.9947564561.1491359952,1.2914789815.3538348327,0,0,.1634685454.1205677364.3459180356.3268402492.0062947011.0079410075.0126862437.0142841294.0174314799.0222009266.0031957713.0015978856.0047452362.0047694466.0079410076.0063673323.1285087439.1523075561.261762724.3458696148.3491138069.5711957036,0-.0015978857.0015494649-.0015978857.0030989298-.0031957713.1205677363.3014677617.1587233091.6584741553-.0158820151,1.0424509221-.4140944905.896438067-.9075022147.9742018359-1.2343424639.9742018359-.0682732965,0-.1301550503-.0031715609-.1809000253-.0031715609-.1523317665,0-.4903087945.0412545026-.8092080361.0412545026"/>
      <path class="cls-6" d="M51.5024211958,8.3025706867c-.0635280603,0-.1412918292.0142841294-.2380365429.0475976244-.5140349756.1713611321-1.7469248161.6854445284-2.7289950284,1.9198838339,0,0-.5871503498.8345805236-.3411727993.8345805236h.0206272513c.2855857466-.0349113807.5029950382-.2174092917.7203074883-.3554569287.2158598268-.1475381095,1.9293743063-2.1816465579,2.8432680637-2.1816465579,0,0,0-.2649584953-.2759984326-.2649584953M50.5741948883,7.9107013331c-.320545548,0-1.1963805742.3633010947-3.5239673559,2.6909362972,0,0-.1713127113.5410537695.0682732965.5410537695.0570396761,0,.1379992163-.0301661445.2506259451-.1078814926,0,0,1.9310206127-2.3641444688,3.3812229034-3.0495405765,0,0-.0302145653-.0745679976-.1761547891-.0745679976M52.8018411849,8.5151863213c-.1205677363,0-.2681542666.033313495-.439466978.1206161571-.7314442672.366496866-1.680297826.5838577369-3.0971866217,2.2514208985,0,0-.261762724.4855151375-.0459997388.4855151375.0143325502,0,.0285682588-.0015494649.0459997388-.0063431219.2855857466-.0793132338.7997175637-.6172196527,1.2344393054-.9138937574.4347217418-.2855857466,2.0785103015-1.5993382858,2.4783690833-1.5993382858.3045666914,0,.2062725128-.337977028-.1761547891-.337977028M53.3207182382,9.3545120811c-.1063320277,0-.2221545279.0142841294-.3427222642.0475976244-.6616215058.182497911-1.5993382858.4331722769-2.5466423798,1.702522963,0,0-.3315854853.444260635-.1491359952.5822598513.0365092664.0285682588.0777637689.0412545026.1206645779.0412545026.1697632464,0,.3711936815-.1951357339.4616436941-.2586153734.1142730353-.0682248757,2.4339188094-1.7024745422,2.87977733-1.781787776.3538590431-.055538632.0539407463-.3332317918-.4235849629-.3332317918M53.9585167214,10.2605132518c-.1253129726,0-.2840362817.0253724875-.4776225508.088852127-.7996207221.2522722516-1.7024745422.8345805236-2.1816465578,1.3835753006,0,0-.2173124501.5013487318,0,.582308272.0285682588.0078925868.0587828241.0126862437.0889005478.0126862437.2030767414,0,.4394669779-.1761547891.5283675257-.2760952742.1141761937-.1031362564,1.9309237712-1.4168887956,2.2609597916-1.4851136713.2427817791-.0602838682.177704254-.3062129979-.2189587565-.3062129979M55.0675462127,10.7285969093c-.06662699,0-.134803445.0063431219-.2046262064.0205788305-.5013487318.1031362564-1.815101271.3998587818-2.4672323044,1.4168887956,0,0-.1475865303.3998587818.0348629599.3998587818s2.1816465578-1.4168887956,2.8322281264-1.4962020294c.5743672645-.0603322889.2395860078-.3411243786-.1952325755-.3411243786M55.6483050199,11.4282771464c-.1903904977,0-.4252312693.0412545026-.7044254733.155479117-.9821670539.3998587818-1.2804390442.3998587818-2.1134701029,1.1995279248,0,0-.4347217417.4347701625-.1491359952.4347701625.2967225254,0,1.1661660089-.548994777,1.4168887956-.6854445284.2634090304-.1491359952,1.9642372662-.8457173025,2.1133732614-.8457173025.1063320277,0-.0856079349-.2586153734-.5632304857-.2586153734M55.9846357415,12.2327399463c-.0189809449,0-.0380587312,0-.0586859825.0015494649-.3648989804.0349113807-1.3819289942.6172196527-2.2625092565,1.1662144297,0,0-.4458585206.5870535082-.3347812567.5870535082.0157851735,0,.0428039675-.0126862437.08405847-.0396566169.320545548-.215811406,2.5815053397-1.4613390695,2.8337775913-1.4613390695.2475270153,0,.0586859825-.2538217164-.2618595655-.2538217164M56.8906853329,12.8261365764c-.0794100753,0-.1729590178.0079410075-.2792910455.0253724875-.8345805236.1491359952-1.0170300138.3316339061-1.8500610725.9138937574,0,0-.5204265182.5188528429-.2697037315.5188528429.0143325502,0,.0317640301,0,.0523912814-.0047452362.3537622015-.0793374442,2.3180963093-1.096367458,2.6163682996-1.096367458.2490764802,0,.2808405104-.3570063936-.2697037315-.3570063936M57.8140695627,13.3957586047c-.4680352368,0-1.2867337453.1951357339-2.5164278145,1.02177525,0,0-.3998587818.2966983151-.1364497514.2966983151.2507227867,0,1.3010662955-.5140591859,1.5993382858-.6171954423.2855857466-.1142246145,1.3820258357-.5140833963,1.5295155244-.548994777.0635280603-.0142841294-.08405847-.1522833457-.4759762443-.1522833457M58.7756093653,13.9479007323h-.0857047764c-.844070996.0349113807-2.4434092818.2855857466-3.0955403152,1.0170300138,0,0-.2157629852.3728641983.0079410075.3728641983.01743148,0,.0380587312-.0015736753.0602354474-.0063431219.3316823269-.0809111194,3.1305001167-.9488293485,3.4272226421-.9488293485.2760952742,0,.4235849629-.4347217418-.3141540054-.4347217418M58.6312186063,14.845936685c-.4157407969,0-.8758350261.0602838682-2.0546872788.5870535082,0,0-.2967225255.2173850813-.0682732965.2173850813.2174092917,0,2.1816465579-.3998345714,2.4672323044-.3998345714.2982719903,0,.6172680735-.3998345715.0349598015-.3998345715-.1349002866,0-.2554680229-.0047694466-.3792315306-.0047694466M55.9323413016,16.7657963084c-3.4399088859-2.9797662359-7.7984567654-4.1142166355-10.3862568062-4.5235658897-.01743148-.0015978857-.0348629599-.0047452362-.0523912814-.0079410075-.0189809449-.0031473506-.0380587312-.0063431219-.0586859825-.0094904724-.8980117423-.1364497514-1.570770027-.1872431472-1.89286504-.1951841547.6171712319-.6060828739,3.9872573565-3.7936710874,6.9225248977-5.072512246,0,0,.7775408475-.2284976497.971030275-.6854445284.1142730353-.2522722516.3158003118-.3760357592.5300138322-.3760357592.1745084827,0,.3569579728.0809111195.5108392042.2395860078.3427222642.3427222642,1.885020874.9361188943,2.7750916087,1.5184271664.8917170412.5712199139,5.6215554438,3.6096237116,5.5977324212,7.563567573,0,0,.0571365176,1.1535039756-.7758945411,1.1535039756-.4108987192,0-1.115421034-.0777395585-1.8627473163-.0777395585-.7742482346,0-1.5945930496.0825090051-2.1816465579.4204618227l-.0967447137.052367071"/>
      <path class="cls-6" d="M26.5126515331,34.5331227767c-.7060717797,0,1.1105789562,1.1931605925,1.5390059969,1.4755747781.422035498.2728995028.9028538201.4791720156,1.2915758231.5934208405.3997619403.1142246145,1.2787927378.422035498,1.8722377887.5600831351.1237635077.0301419341.2237039928.0428281778.3030172265.0428281778.3062129979,0,.3188992416-.1808758149.1999778117-.1808758149-.1364497514,0-.7537178249-.2617869344-1.131303049-.422035498-.3649958219-.1713611321-1.0726170665-.5363085333-1.6104750647-.6854445284-.5363085333-.1364497514-1.0963432476-.5029708278-1.3026157604-.7314442672-.1935862691-.2284734394-.9583440313-.6505331477-1.1297535842-.6505331477-.0110399373,0-.0221767162-.0015736753-.0316671886-.0015736753M25.9699514572,35.272483841c-.0554902112,0-.0253724875.1063078173.2079188192.4728288938.5378579982.8568056605,2.947953785,1.8960608113,3.4271258006,2.0674219434.2300955354.0809111195.353859043.1126509392.4379175131.1126509392.0919994775,0,.1364497514-.0365092664.2142135203-.0777637689.1364497514-.0920236879-.3427222642-.26338482-.709267551-.3998345715-.3648989804-.1380234267-1.9753740451-1.1661902193-2.1816465579-1.359752278-.193586269-.1935620587-.6743077496-.5711957036-.9932069912-.6172196527-.1110772639-.0190293656-.3300360205-.1983315053-.4030545532-.1983315053M26.1667334976,36.2498814483c-.177704254,0-.160272774.2030767415-.160272774.2030767415.93771678,1.3597764884,2.3767822918,2.2403567507,2.7766410736,2.5481676343.1538812314.1174203858.3760357592.1618464493.5537400132.1618464493.2855857466,0,.455348993-.1142488249.0397050377-.2189587566-.6743077496-.1713611321-2.889364644-2.6275050785-3.1416368956-2.6846173857-.0253724875-.0063431219-.0475492037-.0095146828-.0681764549-.0095146828M25.3892894916,36.4878695704c-1.0503435088.0571123072,3.3129496069,3.8730085316,3.758711286,4.1586184886.1840957966.1142246145.4109955607.1681895712.558582091.1681895712.2220576863,0,.2681542667-.1205919467-.2728995028-.3395507033-.9028538201-.3665210764-3.2209501294-3.1082507694-3.506535876-3.5413988358-.2855857466-.4236575941-.5378579981-.4458585206-.5378579981-.4458585206M24.6578452244,36.6782600682c-.0698227614,0-.1127235704.0380829416-.1127235704.0380829416.9013043552,2.034084238,3.66680865,4.1015061813,4.0666674318,4.1808436255.0793132338.01743148.1395486812.0237988122.1824494902.0237988122.1760579475,0,.1031362564-.1031362564.1031362564-.1031362564-1.1091263329-.4569710891-3.6556718711-3.4842865286-3.9079441227-3.8841211001-.1332539801-.2078703985-.2507227867-.2554680229-.3315854854-.2554680229M30.7505348347,43.9800407068c-1.1439892928,0-4.3203923067-3.5620260871-4.3203923067-3.5620260871l-.4125450256.3426980538c-.042900809.0333377054-.0889005478.0491955101-.1380960579.0491955101-1.055088745,0-3.403302778-7.5429403217-3.403302778-7.5429403217h.0237261811l-.0459997388-.0460239492c0-.125337183.7314442672-.2173608709,1.6342980873-.2173608709.9012075136,0,1.6326517808.0920236879,1.6326517808.2173608709l-.033313495.0460239492h.0444502739c.8345805236.4791720156,2.7766410736,1.0392551507,2.7766410736,1.0392551507,3.1986765716.4109471399,5.2089135766,1.94206055,5.8372215874,2.6385934366.5236222895.5807345968.5553863197.867918229.2332913067.867918229-.0634312187,0-.1411949876-.0111125685-.2332913067-.0333377054-.1109804224-.0285440484-.2903309828-.0380829416-.5028981967-.0380829416-.85365831,0-2.2720965705.174532693-2.2720965705.174532693.2046262064,2.2165579385-.2062725128,3.6778727977-.4236818044,5.6199333477-.033313495.3125561197-.177704254.4442606349-.3966630105.4442606349"/>
      <path class="cls-6" d="M51.0707983838,28.6736034212l.0571365176-.0459997388h.0015494649l-.0586859825.0459997388M50.4646670892,29.1083493733l.0127830853-.0111125685h.0015494649c-.0047452362.0047694466-.0094904724.0063431219-.0143325502.0111125685M49.1970111303,29.8731071355l.0681764549-.0459997388c.0016463065.0015736753.0031957713.0047452362.0047452362.0063431219-.0237261811.0126862437-.0475492037.0253966979-.0729216911.0396566169M48.8590341023,30.0492377142c-.0016463064-.0015978857-.0031957713-.0031715609-.0047452362-.0047694466h.0110399373c-.0015494649.0015978857-.0047452362.0031715609-.0062947011.0047694466M45.8284744707,31.2233689411l-.0015494649-.0015978857h.0111367789c-.0031957713.0015978857-.0063915427.0015978857-.009587314.0015978857M44.9637762234,31.4454992586c-.0015494649-.0031715609-.0031957713-.0047694466-.0047452362-.0063673323h.0348629599c-.0110399373.0015978856-.0206272513.0031957713-.0301177237.0063673323M53.7586357513,37.6937164067c-.1872915679,0-.3966630105-.0459997388-.6315037821-.155479117-.9789712825-.4664857719-2.0959417814-1.1439892928-2.9717768076-1.1439892928-.2189587566,0-.4221323396.0412545026-.6045818298.1396455227-.5457990057.2824141857-.7297979608.4204618227-.8710897899.4204618227-.0982941787,0-.1760579476-.0666512004-.3395264929-.1919883834-.3648989804-.2967225254-3.1526768329-2.87977733-4.3632931157-5.1185361951.3427222642-.055538632.6648172772-.1317045152.9869122901-.1983315053,1.8928650399,3.090795079,3.2399310742,4.2315886005,3.7873763863,4.5282869156.1903904977.1031362564.2887815179.1364497514.3347812567.1364497514.0904500127,0-.0253724875-.1364497514-.0253724875-.1364497514-2.0674703641-1.748474281-3.3589493457-3.9872573565-3.6906316726-4.6266779357.1460370654-.0444260635.3031140681-.0793132338.4585447644-.1237392973,1.885020874,2.8654932006,3.2209501294,3.8476118337,3.9175314367,4.042771778.1253129726.0365092664.2093714426.0507691854.2633121889.0507691854.253918558,0-.1491359952-.3252423635-.1491359952-.3252423635-1.6675147407-1.1090779121-3.2446763104-3.1875882136-3.723848326-3.8619201735l-.0919994776.0237988122c.1253129726-.0349113807.2506259451-.0698227614.3775852241-.1142488249,1.6104750647,1.8960608113,4.3982529172,3.7572102418,4.5695656285,3.9174588055.0554902112.0618817538.1871947264.0904258023.2999182968.0904258023.2078219777,0,.3554085079-.0983668098-.1412918292-.2840120713-.6616215058-.2522722516-3.5985353535-3.1526768329-4.3061565981-3.8618959631l-.2395860078.0809111195c.2395860078-.0809111195.4680352368-.1602485636.6854445284-.2522722516l-.0571365176.0349113807c1.5073388083,1.7706994179,4.1015303917,3.0844519572,4.9694244103,3.4604877164.4252312693.1840473758.6631709707.2332186756.7965217924.2332186756.1474896887,0,.1633717038-.0618575435.1633717038-.0618575435-2.0118833114-.6616457162-5.3691863506-3.5287368025-5.6325953811-3.7460976734.1714095529-.0682248757.3315854853-.1380476371.5029950382-.2173608709.4568984579.3998345715,3.1066770941,2.6385934365,5.3343233907,3.3129253965,0,0,.3315854854-.0571365176-.1475865303-.3427222642-.4696815432-.2744973885-3.7936710874-2.0911965452-4.7408783398-3.1764756451.1332539801-.055538632.2570174878-.122165622.3807809954-.177704254.3839767668.3490653861,2.2530187841,1.9039776084,4.6108201311,2.508486807,0,0,.4568984579-.0904258023,0-.2284734393-.4331722769-.1364497514-3.1225591092-1.2978705242-4.1999214119-2.4958005633.0983910202-.055538632.1903904977-.1110772639.2808405104-.1650180102l-.0681764549.0444260635c.2967225254.2411838935,2.0451968064,1.5993624962,3.9872573565,1.8738356743,0,0,.4347217417-.1602485636-.0222735577-.2506743659-.4457616791-.0809353298-2.6972309983-.6965570969-3.6555750296-1.8056107986l.3077624628-.1824737006c.3648989804.2506985763,1.7136113211,1.096367458,3.0385006392,1.1995037144.2538217164.019053576.4330754353.0269703731.556838943.0269703731.6315037821,0-.2506259451-.211017749-.556838943-.2776447391-.3538590431-.0920478983-1.79137509-.5585094598-2.6592691086-1.1995279248.1205677364-.0856805661.2411354727-.1649937998.3522127367-.2522722516l-.0459997388.0460239492c.193586269.0920236879,1.6564748034.777444006,2.2959195931.777444006.6743077496,0,.3427222642-.1380234267-.1714095529-.3427222642-.4902119529-.1840473758-1.0836570038-.1713369217-1.7802383111-.6981065618l.1475865303-.1142488249c.4030545532.1110772639,1.2233025266.285609957,2.0626282864.285609957.1110772639,0,.2237039928-.0047694466.3364275631-.0111125685.1839989551-.0127104541.3585074378-.0206272513.5187802118-.0206272513.9630892675,0,1.4914567932.2744973885,1.4914567932,1.3121546536,0,1.1995037144.0904500126,4.1586184886-.228449229,4.6727018849-.320545548.5140591859-.320545548,1.1185683845-.4347217417,1.6675631615-.0920963191.4347459521-.4696815432,1.2740717119-1.2645570292,1.2740717119"/>
      <path class="cls-6" d="M33.3891766921,28.8640181293c-.7060717797,0-1.5834562707-3.3589493457-1.4645348408-4.291896679.0127830853-.0920236879.0190777864-.1824737006.0206272513-.2713258276.0079410076-.8647224577-.5632304856-1.645362235-2.0546872788-3.0749372743-.6425437194-.6156217671-.8520120036-1.8833503571-.8552077749-3.2510436427-.0031957713-2.1372204944.5014455734-4.5251153546.6616215058-5.088394261.0126862437-.0428523882.0175283215-.0825090051.0175283215-.1205677364.0015494649-.764806183-2.4403103521-.4871130232-3.6271036123-.7362379242-.093645784-.0190293656-.1983315052-.0317156094-.3126045405-.0364608456-.0380587312,0-.0777637689-.0015978856-.117371965-.0015978856-1.4565938333,0-4.2951166608.9630892675-6.0023364392.9630892675-1.9071975901,0-3.3478125668,1.5771373593-3.6096721324,2.6275050785-.1141761937.4458343102-.3775852241,1.1074800264-.6743077496,1.7024745422.0016463065.0015736753.0031957713.0031715609.0047452362.0063431219-.3807809954.7679293232-.8218942798,1.4343202756-1.0899517049,1.4343202756-.0079410075,0-.0158820151,0-.0222735577-.0015736753-.0062947011-.0015978857-.0111367789-.0015978857-.01743148-.0015978857-.488662488,0-2.4846637844,2.3149247483-3.3875176045,2.7655527156-.4108987192.1951599443-1.1392440566.6505089374-1.9040018188,1.0947695723-.0888037062-.2237039927-.2237039928-.4156923761-.3522127366-.5679999322-.0031957713-.0015978857-.0047452362-.0047694466-.0079410076-.0063673323-.0047452362-.0079167972-.0111367788-.014259919-.0174314799-.0222009266-.1824494902-.2062725128-.3459180356-.3268402492-.3459180356-.3268402492-.2967225255-.2046988375-.9138937574-.1824737006-1.2914789815-.3538348327-.0555870527-.0269703731-.1174688066-.0380829416-.1825463317-.0380829416-.3775852241,0-.8456204609.3919177743-.8456204609.3919177743-.2395860078.0809111195-.0571365176.3776094345-.2967225254.9376925696-.0079410075.019053576-.0142357086.0380829416-.0206272513.0587101929-.0047452362.0111125685-.0079410076.0237988122-.0111367789.0364850559-.0030989298.0079410075-.0047452362.0142841294-.0062947011.0222251369-.0031957713.0142841294-.0063915426.0285682588-.009587314.0428281778-.0015494649.0063673323-.0030989298.0127104541-.0047452362.019053576-.0015494649.0174556903-.0047452362.033313495-.0062947011.0507691854,0,.0015978857,0,.0031715609-.0016463065.0063431219-.0047452362.0507691854-.0079410075.1031362564-.0079410075.1586748883,0,.0142841294,0,.0285440484.0016463064.0444260635v.0206272513c.0126862438.2728995028.0919994775.5727693788.1919399626.829811077-.582308272.2649827057-1.2106162828.7996691429-2.2387830755,1.4057762272-1.0392067299.6171954423-2.3069595304.8916928309-2.9464043201.993255412l-.0126862437-.0333377054s-1.5295155244-1.2455276635.548994777-2.8448659493c2.0911965452-1.5993382858,2.2959195931-2.1483330628,3.0622268202-2.2847828143.7647577622-.1364497514,2.7068183122-1.393065773,4.0205708515-2.6385934366.9187358352-.8726634652,3.201872343-4.5790803113,8.4299605475-6.7702657623,0,.0031957713.0015494649.004793657.0015494649.0063915426.228449229-.0904500127.4791720157-.193586269.7187580235-.2856341674v-.0047452362c.3030172266-.1126751496.6139754606-.2189587566.9345210087-.3204971273.0015494649.0015978856.0015494649.0031473505.0031957713.0063431219.2284492289-.0666269901.4568984579-.1411949876.6964844657-.2078703985v.0015978857l.033313495-.0110883581c-.0110399373.0031473506-.0221767162.0063431219-.033313495.0094904724v-.0063431219c.2491733218-.0698227614.5029950382-.1332539801.7647577622-.1967336196v.0079410075c-.1570770027.0380587312-.3141540054.0761658832-.4680352368.1174203858.160272774-.0349113807.3078593043-.0809595402.4680352368-.1142730353v-.0031473505c.3459180355-.0825090051.7013265435-.1586748884,1.0663223654-.2253018784.228449229-.0428523882.4600942292-.0841068908.6932886944-.1142730353v-.0047452362c.2142135203-.033313495.431622812-.0634796395.6521310334-.0919994775q0,.0031473506-.0015494649.0047452362c.1063320277-.0158820151.2157629852-.0301661445.3236444778-.0428523882.1126267288-.0126862438.2253502992-.0253724875.3395264929-.0364608456-.1110772639.0110883581-.2252534576.0221767162-.3395264929.0364608456-.1078814926.0126862437-.2157629852.0253724875-.3220950129.038107152v-.0031957713c.3491138068-.0444018531.7060717797-.0809111195,1.0726170665-.1110772639v.004793657l-.2047230479.0237746018c.2855857466-.0237746018.582308272-.0459997388.8790307975-.0698227614v-.0031473505c.3586042793-.0206272513.7235032597-.033313495,1.0963432476-.038107152v.0079410075c.1380960578,0,.2745458093-.0110883581.4109955607-.0110883581,0,0,.4125450256.0222251369,1.0852064687.0571365176l-.2570174878-.0206272513c.2237039928.0110883581.4871130232.0237746018.7838355486.0396566169v.0031473505h-.0698227614c.3665452868.0111367789.7997175637.0349113807,1.2693022654.0682248757v-.0079410075c.3141540054.0190777864.6457394908.038107152.9901080614.0587344033.2967225254.0222251369.6012892169.0428523882.9059527498.0634796395l-.0301177237-.0079410075c.3094087692.0206272513.6235627746.0428039675.9440114811.0650291044h-.0110399373c.3537622015.0238230226.7076212446.0571365176,1.072520225.0809111195l-.0062947011-.0015494649c.3997619403.0301177237.8012670286.0634312187,1.1979300391.0983425994.2665079602.0238230226.5346622268.0491955101.7964249508.0745679976l-.0396081961-.0063431219c.2839394401.0269703732.5647799505.055538632.8393257598.0841068908v.0015978857c-.0412545026-.0031957713-.0825090051-.0079410075-.1253129726-.0111367789l.1253129726.0111367789c.0285682588.0031473505.0571365176.0047452362.08405847.0079410075.3205455481.033313495.633053247.0682248757.9329715438.1046857213v.0015978857h.0094904724c.2142135203.0253724875.422035498.0539407463.6235627746.0793132338h-.0047452362c.0094904724.0015978857.01743148.0031957713.0270187939.0031957713.4695847016.0650291044.9043064434.1317045152,1.2867337453.2030767415.8917170412.1618706597,1.621515002.299869876,2.2292926031.4125450256.0348629599.0079410075.0681764549.0142841294.10148995.0222251369,0-.0015978857.0015494649-.0015978857.0015494649-.0031957713.2253502992.0412545026.4331722769.0809111195.6267585459.1174203858.4458585206.0825090051.8124038074.1475381095,1.1233620415.1983315053.6775035209.1110772639,1.1011853253.155479117,1.537456532.155479117.2697037315,0,.9916575263.0412545026,1.9960012963.1951841547.0206272513.0031473505.0397050377.0063431219.0586859825.0094904724.0175283215.0015978856.0349598015.0063431219.0523912814.0079410075,2.5862505759.4109471399,6.9495436916,1.5485933108,10.3798652635,4.5283111259l.0063915427-.0047452362c.0698227614.0634554291.1411949876.125337183.211017749.1872189368,0,0,4.4473515857,5.0233409463,11.3397587597,5.0233409463.3078593043,0,.6220133097-.0095146828.9409125513-.0317398197,0,0,.6283080108.0237988122,1.588201507.0698227614.0063915427.0555144216.009587314.1078814926.0111367789.1602485636.0031957713.3093845588-.0951952489.5505684523-.0983910202.7790418916-.0015494649.0364850559.0016463064.0745679976.0063915427.1110530535.0031957713.019053576.0047452362.0396808273.0047452362.0587101929.0094904724.282438396-.2363902365.4775983404-.4172902618.4775983404-.033313495,0-.0634312187-.0063673323-.0904500127-.019053576-.0444502739-.0222009266-.0777637689-.0634554291-.0904500126-.1285087439-.0459997388-.2221303175-.5584852494-.352236947-.971030275-.3919177743-.0951952489-.0110883581-.1839989551-.014259919-.261762724-.014259919-.0889005478,0-.160272774.0063431219-.2062725128.01743148-.2634090304.0571365176-.9837165188,1.0503677192-1.2455760843,1.838948504-.2395860078.685420318-.8678940186,1.0741665314-1.6913377633,1.1534797652.0015494649.0015978857.0031957713.0047694466.0047452362.0063431219-.1158225001.0111125685-.2348407716.0174556904-.3586042793.0174556904-.9820702123,0-1.6342012457-.4569468787-1.1772059463-.7885565744.1633717038-.1174203858.2759984326-.3839767668.3569579729-.7108170159.0047452362-.0142841294.0079410075-.0285682588.0111367789-.0444260635.0030989298-.0079410075.0047452362-.0158820151.0062947011-.0253966979.1364497514-.585479833.177704254-1.3359534658.220605063-1.7786404255,0-.0110883581.0015494649-.0222009266,0-.033313495-.0206272513-.6933613256-2.441859817-.9504030237-2.9591874054-1.0170300138-.0698227614-.0095388932-.1364497514-.0127104541-.1998809702-.0127104541-.422035498,0-.7235032597.1840473759-.7821892422.4125450256-.0682732965.2617869344-1.6454348661,1.8278117252-2.1706066206,2.1594214209-.1856452615.1158225001-.379134689.1840473758-.5505442419.1840473758-.2791942039,0-.5029950382-.177704254-.548994777-.6076807595h.0031957713l-.0126862438-.1713611321c0-.8456930921-.3300360205-3.0162270814-.4680352368-3.5413988359-.1254098141-.5251959648-1.9643341078-2.8892920128-3.1416368955-3.6096479219-.0380587312-.0222009266-.0745679976-.0428281778-.1094309575-.0602838682-.0491955101-.0253966979-.093645784-.0475976244-.1380960578-.0634554291-.0903531711-.0349113807-.1713127113-.0507933958-.2411354727-.0507933958-.0586859825,0-.1110772639.0111125685-.1570770027.0317398198-.3332317918.1586748884-.328389714.8615508967-.2427817791,1.5993382858.0238230226.2062725128.0539407463.4157165865.0857047764.6156217671.0047452362.0333377054.0094904724.0650533148.0143325502.0983910202.0428039674.2728995028.0602354474.6140238814.0617849123.9932312016.0031957713,1.3518354809-.1983315053,3.1749019698-.1983315053,3.9872573565,0,1.0519656049-.8456204609.9250305363-1.5770647281.9948290872-.0412545026.0031715609-.0825090051.0047694466-.1222140428.0047694466-.1253129726,0-.2475270154-.0158820151-.3633495155-.0428523882-.5028981967-.1158225001-.8853254986-.4537753178-.8853254986-.7504736328v-.3442959395c0-1.2169836151-.0079410075-5.0995068295-.0682732965-6.4196024906-.068176455-1.5073145979-.3997619403-2.3641202584-.5933482093-2.8210671371-.1951357339-.4569468787-1.8960608113-.3316339061-2.9480506265-.5251717544-.0951952489-.0174799007-.1903904977-.0285682588-.2855857466-.033313495-.0316671886-.0015978857-.0634312187-.0015978857-.0951952489-.0015978857-.1443907589,0-.2887815179.0142841294-.4283301991.0428523882-.6458363323.1253129726-1.2154583606.5219759831-1.4597896046,1.0313141432-.0412545026.0872542413-.0745679976.1808758149-.0951952489.2744731781-.06662699.2903551932-.1046857213.7457283966-.1046857213,1.2820127195-.0015494649,1.023397346.1285087439,2.3434930071.4363680482,3.3779787113.0776669273.2713258276.1094309575.6092786452.1094309575.9853144044-.0047452362,1.8151496918-.7726987698,4.5647961819-.7726987698,5.3787494542,0,.0285682588-.0015494649.0571365176-.0031957713.0856805661-.0015494649.0063431219-.0015494649.0127104541-.0031957713.019053576-.0015494649.0237988122-.0047452362.0444260635-.007844166.06662699-.0016463064.0063431219-.0016463064.0111125685-.0031957713.0158820151-.0047452362.0253724875-.009587314.0491712997-.0158820151.0729701119v.0031715609c-.2094682841.8012670286-1.342320798,1.1820722344-1.9309237712,1.2439539883-.0158820151.0015736753-.0317640301.0031715609-.0460965803.0031715609-.1887441913,0-.3268402491-.1301066295-.4267807342-.3347812567h.0031957713c-.2126640554-.4363438378-.2570174878-1.2026994857-.261762724-1.7770667502v-.1189940611c0-.829811077-.7298948023-5.5945366498-.7236001012-6.9717446182,0-.0444260635.0016463064-.0856805661.0031957713-.122165622.0016463065-.0174556903.0016463065-.0365092664.0016463065-.055538632-.0048420778-1.2011016-2.2372336106-3.6857895948-2.7544643575-4.0110561687-.0618817538-.038107152-.1253129726-.0698227614-.1919399626-.0935973632-.0873510829-.0301661445-.1793505604-.0475976244-.2745458093-.0539891671-.0238230226-.0015494649-.0475492037-.0015494649-.0713722263-.0015494649-.4236818045,0-.8917170412.2221061071-1.3010662955.5378579981-.2697037315.211017749-.3633495155,1.2962968489-.3648989804,2.5180257002-.0031957713,1.4724032172.1268624375,3.1431621501.2395860078,3.7191030898.0729216911.3934914496.1078814926.7885807848.1062351862,1.1646165441-.0015494649.6267101251-.1046857213,1.2074205115-.312507699,1.6564505931-.2395860078.548994777-.2681542666,1.1995037144-.2666048017,2.0451968064,0,.2824141857.0031957713.585479833.0031957713.9139179678v.1316803048c0,.0349113807-.0015494649.0682248757-.0015494649.1015625811v.0095146828c-.025469329,1.1376219605-.2380365429,1.6215634228-.9123442925,1.9848887279-.0365092664.0206272513-.0730185327.0301661445-.1110772639.0301661445"/>
      <path class="cls-3" d="M8.5945427633,22.0080718009c-.0047452362-.0079167972-.0111367788-.014259919-.0174314799-.0222009266.0062947011.0079410075.0126862437.0142841294.0174314799.0222009266M8.9515975777,22.5856348367c-.0873510829-.2253260888-.220605063-.4188881475-.3491138069-.5711957036.1285087439.1523075561.2634090304.3442959395.3522127366.5679999322-.0015494649.0015978857-.0030989298.0015978857-.0030989298.0031957713M5.5941976969,22.6554333877c.0063915427-.0206272513.0126862438-.0396566169.0206272513-.0587101929.2395860078-.5600831351.0571365176-.8567814501.2967225254-.9376925696,0,0,.4680352368-.3919177743.8456204609-.3919177743.0650775252,0,.126959279.0111125685.1825463317.0380829416.3775852241.1713611321.9947564561.1491359952,1.2914789815.3538348327-.2967225255-.2046988375-.9138937574-.1824737006-1.2914789815-.3538348327-.0555870527-.0269703731-.1174688066-.0380829416-.1825463317-.0380829416-.3775852241,0-.8456204609.3919177743-.8456204609.3919177743-.2395860078.0809111195-.0571365176.3776094345-.2967225254.9376925696-.0079410075.019053576-.0142357086.0380829416-.0206272513.0587101929M5.576766217,22.7141435805c.0015494649-.0079410075.0031957713-.0142841294.0062947011-.0222251369-.0030989298.0079410075-.0047452362.0142841294-.0062947011.0222251369M5.5624336668,22.7760253344c.0016463064-.0063431219.0031957713-.0126862437.0047452362-.019053576-.0015494649.0063673323-.0030989298.0127104541-.0047452362.019053576M5.5544926592,22.8331376416c.0016463065-.0031715609.0016463065-.0047452362.0016463065-.0063431219,0,.0015978857,0,.0031715609-.0016463065.0063431219M5.5481979582,23.0362385935c-.0016463064-.0158820151-.0016463064-.0301419341-.0016463064-.0444260635,0,.0142841294,0,.0285440484.0016463064.0444260635M5.7401379208,23.8866769218c-.0999404851-.2570416982-.1792537189-.5569115741-.1919399626-.829811077.0142357086.2713016172.0935489424.5695978179.1919399626.829811077"/>
      <path class="cls-7" d="M45.493693214,12.2342894112c-.0189809449-.0031473506-.0380587312-.0063431219-.0586859825-.0094904724.0206272513.0031473505.0397050377.0063431219.0586859825.0094904724M55.9259497589,16.7705415447c-3.4303215719-2.9797178151-7.7936146876-4.117363986-10.3798652635-4.5283111259,2.5878000408.4093492543,6.9463479203,1.5437996538,10.3862568062,4.5235658897l-.0063915427.0047452362"/>
      <path class="cls-6" d="M20.4658648201,10.5445011127v-.0031473506c.3300360205-.0650775252.6695625133-.1237635077,1.0154805489-.177704254,0,.0015978857,0,.0031473506.0015494649.0047452362-.2347439301.0365092664-.4664857719.0761658832-.6932886944.1190182715-.109527799.0190293656-.2174092917.0396566169-.3237413194.0570880968"/>
      <path class="cls-5" d="M20.998977582,23.1901440353c0,.3411243786.0777637689.444260635.220605063.444260635.2046262064,0,.5441526993-.2173850813.971030275-.2491006906.777444006-.0571365176.777444006-1.4280013641,1.0170300138-2.4339430198.0316671886-.1427928733.0459997388-.3363549319.0459997388-.5648283713-.0031957713-1.3930899834-.5331127619-4.0967367347-.582308272-4.6679324383-.0571365176-.6505331477-.6521310334-1.4851136713-1.3137525392-2.0102854257-.0999404851-.0825090051-.2348407716-.1158225002-.3902714679-.1158225002-.8647950888,0-2.3975063846,1.0646276382-2.3975063846,1.0646276382-.2728995028.1539054418-.3855262317.4204618227-.3902714679.7520715185-.0190777864,1.1852437954,1.3423207981,3.2050439039,1.7611605247,3.9999436002.5204265182.9742260464,1.0836570038,2.4513987102,1.0662255239,3.5191979093-.0015494649.0349113807-.0015494649.0698227614-.0031957713.1015625811-.0030989298.0586859825-.0047452362.1126509392-.0047452362.1602485636M32.7243594149,28.0912951491c-1.3819289942-.2284734393-2.6956815334-1.2677285901-3.0162270814-1.5311134101.160272774-.1364497514.2507227867-.2506743659.2634090304-.3316096957.0571365176-.5362843229.7187580235-1.3581786027.7758945411-1.8960366009.0570396761-.5362843229.4108987192-.707645455-1.0741665314-2.1356468191-.1714095529-.1650180102-.4348185833-.2395860078-.76959984-.2395860078-2.0641777513,0-6.7733889025,2.8004398858-8.4949412311,3.8714348563-.4108987191-.0111125685-.7314442672-.0111125685-.9360704735-.0222009265-.2174092917-.0222251369-.3315854854-.1031362564-.388722003-.2395860078.5363085333-1.0630539629.9138937574-2.3196941949,1.1534797652-2.8337775912.2967225255-.6505089374-.0571365176-1.6675631615-.3538590431-1.8389242936-.2967225255-.1824494902-1.781787776-1.3137525392-2.3196457742-1.4279771537-.4776225507-.1031362564-1.8595515449-1.7770667502-2.1880381005-2.175303436.2967225255-.5981660767.5553863197-1.2550423463.6695625134-1.7088176641.2618595656-1.0503677192,1.7024745422-2.6275050785,3.6096721324-2.6275050785,1.7072197784,0,4.5457426059-.9630892675,6.0023364392-.9630892675.0396081961,0,.0793132338.0015978856.117371965.0015978856.1142730353.0047452362.2189587565.01743148.3126045405.0364608456,1.1867932602.249124901,3.6286530772-.0285682588,3.6271036123.7362379242,0,.0380587312-.0048420778.0777153481-.0175283215.1205677364-.1601759325.5632789064-.6648172771,2.9511737667-.6616215058,5.088394261.0031957713,1.3676932855.2126640555,2.6354218756.8552077749,3.2510436427,1.4914567932,1.4295750394,2.0626282864,2.2102148167,2.0546872788,3.0749372743-.0015494649.088852127-.007844166.1793021396-.0206272513.2713258276-.0919994775.652106823.3078593043,2.4688301901.7997175637,3.5191736989"/>
      <path class="cls-2" d="M25.7748157233,11.9931539385c-.0380587312,0-.0777637689-.0015978856-.117371965-.0015978856.0396081961,0,.0793132338.0015978856.117371965.0015978856M26.0874202638,12.029614784c-.093645784-.0190293656-.1983315052-.0317156094-.3126045405-.0364608456.1142730353.0047452362.2189587565.01743148.3126045405.0364608456M15.3758726734,17.2909680629c-.0015494649-.0031715609-.0030989298-.0047694466-.0047452362-.0063431219.2967225255-.5949945158.5601315559-1.256640232.6743077496-1.7024745422-.1141761937.4537753178-.3728399879,1.1106515874-.6695625134,1.7088176641M29.0353740488,17.9748147056c-.0031957713-2.1372204944.5014455734-4.5251153546.6616215058-5.088394261.0126862437-.0428523882.0175283215-.0825090051.0175283215-.1205677364,0,.0380587312-.0048420778.0777153481-.0175283215.1205677364-.1601759325.5632789064-.6648172771,2.9511737667-.6616215058,5.088394261M31.9246418512,24.5721214502c.0127830853-.0920236879.0190777864-.1824737006.0206272513-.2713258276-.0015494649.088852127-.007844166.1793021396-.0206272513.2713258276"/>
      <path class="cls-6" d="M16.6040172777,11.713862893c-.0587828241-.6028871025-.4109955607-1.288331631-.8108543425-2.825788163-.582308272-2.2165579385-.2046262063-5.2550101569-.2046262063-5.2550101569v-.0571365176c.1285087439.1094793783.4299765056.337977028.7806397773.337977028.3014677616,0,.6377984832-.1666158959.9329715438-.7155622521-.5363085333,2.6465344441-.1159193417,6.9923476591.0221767162,8.2315322007-.2459775505.0920478983-.4871130232.1872431472-.7203074883.2839878609"/>
      <path class="cls-7" d="M16.6055667426,11.7202544356c0-.0015978857-.0015494649-.0031957713-.0015494649-.0063915426.2331944652-.0967447138.4743299379-.1919399626.7203074883-.2839878609v.0047452362c-.2395860078.0920478983-.4903087945.1951841547-.7187580235.2856341674"/>
      <path class="cls-6" d="M65.5442530316,31.5644933196c-.2157629852-.3204971273-.4331722769-.6521310334-.6616215058-1.0059416557,0,0-.2062725128-.2395860078-.6061312946-.5934208405.1697632464-.069798551.4140944905-.1745084827.7045223148-.3141540054.0015494649.0015978857.0030989298.0047694466.0047452362.0047694466.3871725381-.1935620587.8567572398-.4331480665,1.3470660343-.7425568357h-.0063915427c.2285460705-.144390759.4601910708-.299869876.6901897646-.4696573328q.0016463064,0,.0016463064.0015978857c.1697632465-.1253371829.337977028-.2586153734.5028981967-.3998345714.0158820151-.0142841294.0334103366-.0269703732.0508418165-.0428523882.0094904724-.0079167972.0189809448-.0158578047.0269219524-.0237988122.3158003119-.2713016172.6156217671-.5711957036.886971805-.896438067,0-.0015978857.0015494649-.0031715609.0031957713-.0047694466.0221767162-.0285682588.0459997388-.055538632.0681764549-.0840826804.0079410075-.0095388932.0158820151-.0206272513.0238230226-.0301661445.0158820151-.0206272513.0317640301-.0412545026.0476460452-.0602838682.01743148-.0237988122.0348629599-.0460239492.0539407463-.0713964366.0047452362-.0063431219.007844166-.0111125685.0126862438-.0174556904.3378801864-.4553732034.6124259957-.9583440313.7789934709-1.5104861588,0,0,.1538812314-.3014677616.2808405104-.3014677616.0063915426,0,.0126862437,0,.0190777864.0015736753.0047452362.0015978857.0079410075.0031715609.0110399373.0047694466.0444502739.0206272513.0825090051.0936215736.1063320277.2475270154l.01743148.1618222389c0,.0111125685.0016463064.0237988122.0016463064.0365092664.0126862437.8282131913-.9694808101,4.2776125496-4.366488887,6.1101937214"/>
      <path class="cls-5" d="M43.1978704624,30.7949661108c-.1063320277,0-.2126640554-.0031715609-.3173497767-.0079410075-1.7944740198-.1031362564-3.5873985746-1.3026399708-1.6913377633-1.3026399708s4.6837418222-1.4962020294,10.0640649517-3.1859903279c1.7009250773-.5347106476,3.3700861245-.7314442672,4.8916606414-.7314442672,3.2970675918,0,5.9086906552.9218347649,6.6575664024,1.3359534658,1.0154805489.5473968914,2.0309610978,1.6183918618,3.5239673559,2.0102854257-.4902119529.3078108835-.9598934962.552166338-1.3454197278.7377873891-.1475865303-.1697632465-.3062129979-.3506390614-.4871130232-.566426257-1.8849240324-2.1816465578-5.3803231295-2.1816465578-7.7682422001-2.8781794444-.287232053-.0841068908-.5870535082-.1221898324-.8996580488-.1221898324-2.2832333494,0-5.1327961141,2.0356821236-7.0621704204,3.0003692768-2.0658240577,1.0329120289-3.8666896201,1.7104155498-5.565968391,1.7104155498"/>
      <path class="cls-2" d="M64.9857677821,29.6557462646c-.0016463064,0-.0031957713-.0031715609-.0047452362-.0047694466.3855262317-.1856210511.8552077749-.4299765055,1.3454197278-.7377873891h.0063915427c-.4903087945.3094087692-.9598934962.548994777-1.3470660343.7425568357"/>
      <path class="cls-5" d="M63.6148787253,25.0639797096c-.7425810461-.4109471399-1.8516105374-.9250305363-2.6052315207-1.1535039756-.3220950129-.0936215736-1.0408530364-.1316803048-1.8881198037-.1316803048-.2015272766,0-.4109955607.0015736753-.625209081.0063431219.6632678123-.5949945158,1.5422986097-1.5089124836,1.5882983485-1.7024745422.0586859825-.2284976497.3601537442-.4125450256.7821892422-.4125450256.0634312188,0,.1300582088.0031715609.1998809702.0127104541.5173275884.0666269901,2.9385601541.3236686882,2.9591874054,1.0170300138.0015494649.0111125685,0,.0222251369,0,.033313495-.042900809.4458585206-.0857047765,1.1947584781-.220605063,1.7786404255-.0015494649.0095146828-.0031957713.0174556903-.0062947011.0253966979-.0031957713.0158578047-.0063915427.0301419341-.0111367789.0444260635-.0459997388.1856452615-.1031362564.352236947-.1729590178.4823435766"/>
      <path class="cls-2" d="M61.0666868806,21.6828294374c-.0698227614-.0095388932-.1364497514-.0127104541-.1998809702-.0127104541.0634312188,0,.1300582088.0031715609.1998809702.0127104541M63.805269223,24.5118133716c.1349002865-.5838819473.177704254-1.3327819049.220605063-1.7786404255,0-.0110883581.0015494649-.0222009266,0-.033313495.0015494649.0111125685,0,.0222251369,0,.033313495-.042900809.4426869597-.0841553116,1.1931605925-.220605063,1.7786404255M63.787837743,24.581636133c.0047452362-.0142841294.0079410075-.0285682588.0111367789-.0444260635-.0031957713.0158578047-.0063915427.0301419341-.0111367789.0444260635"/>
      <path class="cls-5" d="M67.0166320384,28.4435320961c-.3315854854-.6394205793-1.3200472403-1.6850188519-2.0499420427-2.3799780631.8218942799-.0856563557,1.4565938333-.4696331224,1.6865925272-1.1598228871.2618595655-.7885807848.9821670539-1.7818119864,1.2455760843-1.838948504.0459997388-.0110883581.117371965-.01743148.2062725128-.01743148.0777637689,0,.1665674751.0031715609.261762724.014259919.4125450256.0396808273.9250305362.1697874568.971030275.3919177743.0126862437.0650533148.0459997388.1063078173.0904500126.1285087439.0270187939.0126862437.0571365176.019053576.0904500127.019053576.1809000253,0,.4267807342-.1951599443.4172902618-.4775983404,0-.0190293656-.0015494649-.0396566169-.0047452362-.0587101929-.0047452362-.036485056-.0079410076-.0745679976-.0063915427-.1110530535.0031957713-.2284734394.1015867915-.4696573328.0983910202-.7790418916-.0015494649-.052367071-.0047452362-.1047341421-.0111367789-.1602485636l.2507227867.0222009266c.0094904724.1459644342.0158820151.2903551932.0174314799.4331480665.0126862438,1.0011964195-.1650180102,1.9309721919-.3950167041,2.7306413349-.0238230226-.1189940611-.0603322889-.174532693-.1000373266-.1919883834-.0030989298-.0015978857-.0062947011-.0031715609-.0110399373-.0047694466-.0063915427-.0015736753-.0143325502-.0031715609-.0222735577-.0031715609-.1253129726,0-.277644739.3030656473-.277644739.3030656473-.1682137816.5521421276-.4426627493,1.0551129554-.7789934709,1.5104861588-.0048420778.0047694466-.0079410076.0111125685-.0126862438.0174556904-.0190777864.0253724875-.0365092663.0475976244-.0539407463.0713964366-.0158820151.0190293656-.0317640301.0396566169-.0476460452.0602838682-.0079410075.0095388932-.0158820151.0206272513-.0238230226.0301661445-.0221767162.0285440484-.0459997388.0555144216-.0681764549.0840826804-.0016463064.0015978857-.0031957713.0031715609-.0031957713.0047694466-.2713500379.3252423635-.5728177996.6235385642-.886971805.896438067-.0079410075.0079410075-.0174314799.0158820151-.0269219524.0237988122-.01743148.0158820151-.0349598015.0285682588-.0508418165.0428523882-.1665674751.1396213124-.3347812567.2713258276-.5045445031.3982366858"/>
      <path class="cls-2" d="M70.0233686474,22.1746876967c-.0015494649-.052367071-.0047452362-.1047341421-.0111367789-.1602485636.0063915427.0555144216.009587314.1078814926.0111367789.1602485636M68.366893844,23.061611081c-.0951952489-.0110883581-.1839989551-.014259919-.261762724-.014259919.0777637689,0,.1665674751.0031715609.261762724.014259919M69.9361144061,23.1234928348c0-.0190293656-.0015494649-.0396566169-.0047452362-.0587101929-.0047452362-.036485056-.0079410076-.0745679976-.0063915427-.1110530535-.0015494649.0364850559.0016463064.0745679976.0063915427.1110530535.0031957713.019053576.0047452362.0396808273.0047452362.0587101929M69.5188241443,23.6010911752c-.033313495,0-.0634312187-.0063673323-.0904500127-.019053576.0270187939.0126862437.0571365176.019053576.0904500127.019053576M64.9666899957,26.063554033c-.0015494649-.0015736753-.0031957713-.0047452362-.0047452362-.0063431219.8234437447-.0793132338,1.4517517555-.4680594472,1.6913377633-1.1534797652-.2299986938.6901897646-.8646982473,1.0741665314-1.6865925272,1.1598228871"/>
      <path class="cls-2" d="M69.7853321045,25.0084410776c-.0030989298-.0015978857-.0062947011-.0031715609-.0110399373-.0047694466.0047452362.0015978857.0079410075.0031715609.0110399373.0047694466M68.6953803996,26.8140518762c.3363307216-.4553732034.6107796893-.9583440313.7789934709-1.5104861588,0,0,.1523317665-.3030656473.277644739-.3030656473.0079410075,0,.0158820151.0015978857.0222735577.0031715609-.0063915427-.0015736753-.0126862438-.0015736753-.0190777864-.0015736753-.126959279,0-.2808405104.3014677616-.2808405104.3014677616-.1665674751.5521421276-.4411132844,1.0551129554-.7789934709,1.5104861588M68.6287534095,26.9029040032c.01743148-.0237988122.0348629599-.0460239492.0539407463-.0713964366-.0190777864.0253724875-.0365092663.0475976244-.0539407463.0713964366M68.5572843417,26.9933540159c.0079410075-.0095388932.0158820151-.0206272513.0238230226-.0301661445-.0079410075.0095388932-.0158820151.0206272513-.0238230226.0301661445M68.4859121154,27.0822061429c0-.0015978857.0015494649-.0031715609.0031957713-.0047694466-.0016463064.0015978857-.0031957713.0031715609-.0031957713.0047694466M67.572018358,28.0024430221c.0094904724-.0079167972.0189809448-.0158578047.0269219524-.0237988122-.0079410075.0079410075-.0174314799.0158820151-.0269219524.0237988122M67.0182783448,28.4451299818q0-.0015978857-.0016463064-.0015978857c.1697632464-.1269108582.337977028-.2586153734.5045445031-.3982366858-.1649211687.141219198-.3331349502.2744973885-.5028981967.3998345714"/>
      <path class="cls-5" d="M34.2888347408,27.9088456589c.0776669273-.2713258276.1141761937-.618793328.1237635077-1.059882402v-.0095146828c0-.0333377054.0015494649-.0666512004.0015494649-.1015625811v-.1316803048c0-.3284381348-.0031957713-.6315037821-.0031957713-.9139179678-.0015494649-.8456930921.0270187939-1.4962020294.2666048017-2.0451968064.2078219777-.4490300815.3109582341-1.0297404679.312507699-1.6564505931.0016463064-.3760357592-.033313495-.7711250945-.1062351862-1.1646165441-.1127235704-.5759409398-.2427817791-2.2466998726-.2395860078-3.7191030898.0015494649-1.2217288513.0951952489-2.3070079512.3648989804-2.5180257002.4093492543-.3157518911.877384491-.5378579981,1.3010662955-.5378579981.0238230226,0,.0475492037,0,.0713722263.0015494649.0951952489.0063915426.1871947264.0238230226.2745458093.0539891671.06662699.0237746018.1300582088.0554902112.1919399626.0935973632.5172307469.3252665739,2.7496222797,2.8099545687,2.7544643575,4.0110561687,0,.0190293656,0,.0380829416-.0016463065.055538632-.0015494649.036485056-.0031957713.0777395585-.0031957713.122165622-.0062947011,1.3772079683.7236001012,6.1419335412.7236001012,6.9717446182v.1189940611c.0047452362.5759651502.0459997388,1.345492359.2585669527,1.7770667502-1.2201067553.1491359952-2.5211730507.3426980538-3.0813046066.3426980538-.4600942292,0-.7869344784-.2364144469-1.3787332228-.2364144469-.4204860331,0-.9757755112.1205919467-1.8072571051.5347106476l-.023726181.0111125685"/>
      <path class="cls-2" d="M36.3815807509,14.0525864535c-.0238230226-.0015494649-.0475492037-.0015494649-.0713722263-.0015494649.0238230226,0,.0475492037,0,.0713722263.0015494649M36.6561265602,14.1065756206c-.0873510829-.0301661445-.1793505604-.0475976244-.2745458093-.0539891671.0951952489.0063915426.1871947264.0238230226.2745458093.0539891671M39.5976888025,18.3889334065c0-.0444260635.0016463064-.0856805661.0031957713-.122165622.0016463065-.0174556903.0016463065-.0365092664.0016463065-.055538632,0,.0190293656,0,.0380829416-.0016463065.055538632-.0015494649.036485056-.0031957713.0777395585-.0031957713.122165622M34.9900644428,21.9906403209c.0016463064-.3760357592-.033313495-.7711250945-.1062351862-1.1646165441-.1127235704-.5759409398-.2427817791-2.2466998726-.2395860078-3.7191030898-.0031957713,1.4724032172.1268624375,3.1431621501.2395860078,3.7191030898.0729216911.3934914496.1078814926.7885807848.1062351862,1.1646165441M40.3212889037,25.4653879563v-.1047099317.1047099317M34.4141477134,26.6062056882c0-.3284381348-.0031957713-.6315037821-.0031957713-.9139179678,0,.2824141857.0031957713.585479833.0031957713.9139179678M34.4141477134,26.737885993v-.0142841294.0142841294M34.4125982485,26.8489632569v-.0095146828.0095146828M40.5798558564,27.2567388359c-.2125672139-.4315743912-.2538217165-1.2011016-.2585669527-1.7770667502.0047452362.5743672645.0490986685,1.3407229124.261762724,1.7770667502h-.0031957713"/>
      <path class="cls-5" d="M42.4457989439,27.0742651353c.2585669527-.1872189368.4616436941-.4299765055.5378579981-.7298705919v-.0031715609c.0062947011-.0237988122.0111367789-.0475976244.0158820151-.0729701119.0015494649-.0047694466.0015494649-.0095388932.0031957713-.0158820151.0030989298-.0222009266.0062947011-.0428281778.007844166-.06662699.0016463064-.0063431219.0016463064-.0127104541.0031957713-.019053576.0016463064-.0285440484.0031957713-.0571123072.0031957713-.0856805661,0-.8139532723.7679535336-3.5635997624.7726987698-5.3787494542,0-.3760357592-.0317640301-.7139885769-.1094309575-.9853144044-.3078593043-1.0344857041-.4379175131-2.3545813652-.4363680482-3.3779787113,0-.5362843229.0380587312-.9916575263.1046857213-1.2820127195.0206272513-.0935973632.0539407463-.1872189368.0951952489-.2744731781.244331244-.5093381601.8139532723-.9060011706,1.4597896046-1.0313141432.1395486812-.0285682588.2839394401-.0428523882.4283301991-.0428523882.0317640301,0,.0635280603,0,.0951952489.0015978857.0951952489.0047452362.1903904977.0158335943.2855857466.033313495,1.0519898153.1935378483,2.7529148926.0682248757,2.9480506265.5251717544.193586269.4569468787.5251717544,1.3137525392.5933482093,2.8210671371.0603322889,1.3200956611.0682732965,5.2026188755.0682732965,6.4196024906v.3442959395c0,.2966983151.3824273019.6346511327.8853254986.7504736328.1158225001.0269703732.2380365429.0428523882.3633495155.0428523882.0397050377,0,.0809595402-.0015978857.1222140428-.0047694466.7314442672-.069798551,1.5770647281.0571365176,1.5770647281-.9948290872,0-.8123553867.2015272766-2.6354218756.1983315053-3.9872573565-.0015494649-.3792073202-.0189809449-.7203316987-.0617849123-.9932312016-.0048420778-.0333377054-.009587314-.0650533148-.0143325502-.0983910202-.0317640301-.1999051805-.0618817538-.4093492543-.0857047764-.6156217671-.0856079349-.7377873891-.0904500126-1.4406633975.2427817791-1.5993382858.0459997388-.0206272513.0983910202-.0317398198.1570770027-.0317398198.0698227614,0,.1507823016.0158820151.2411354727.0507933958.0444502739.0158578047.0889005478.0380587312.1380960578.0634554291.0348629599.0174556904.0713722263.0380829416.1094309575.0602838682,1.1773027878.7203559091,3.0162270815,3.0844519572,3.1416368955,3.6096479219.1379992163.5251717544.4680352368,2.6957057438.4680352368,3.5413988359,0,.0618817538.0047452362.1189940611.0094904724.1713611321-1.1074800265.0460239492-2.0546872789.0920236879-2.3735865205.0920236879-.7997175637,0-1.7024745422.6965328865-2.8909141089.6965328865-1.199479504,0-3.7809848437.993255412-5.1740506167,1.6913861841-1.2804390442.6394205793-2.6386418573.6965328865-3.9301208388.7758703307"/>
      <path class="cls-2" d="M45.4270662239,13.7099126101c-.0316671886-.0015978857-.0634312187-.0015978857-.0951952489-.0015978857.0317640301,0,.0635280603,0,.0951952489.0015978857M43.4437511713,14.7824812558c.244331244-.5093381601.8139532723-.9060011706,1.4597896046-1.0313141432-.6458363323.1253129726-1.2154583606.5219759831-1.4597896046,1.0313141432M52.9477814087,16.3723048589c-.0903531711-.0349113807-.1713127113-.0507933958-.2411354727-.0507933958.0698227614,0,.1507823016.0158820151.2411354727.0507933958M53.1953084241,16.4960441561c-.0380587312-.0222009266-.0745679976-.0428281778-.1094309575-.0602838682.0348629599.0174556904.0713722263.0380829416.1094309575.0602838682M52.3067871542,17.9525895687c-.0856079349-.7377873891-.0904500126-1.4406633975.2427817791-1.5993382858-.3332317918.1586748884-.328389714.8615508967-.2427817791,1.5993382858M52.4686093931,19.6598335575c-.0015494649-.3792073202-.0189809449-.7203316987-.0617849123-.9932312016-.0048420778-.0333377054-.009587314-.0650533148-.0143325502-.0983910202.0047452362.0333377054.0094904724.0650533148.0143325502.0983910202.0428039674.2728995028.0602354474.6140238814.0617849123.9932312016M43.7896692069,20.7022602692c0-.3760357592-.0317640301-.7139885769-.1094309575-.9853144044-.3078593043-1.0344857041-.4379175131-2.3545813652-.4363680482-3.3779787113-.0015494649,1.023397346.1285087439,2.3434930071.4363680482,3.3779787113.0776669273.2713258276.1094309575.6092786452.1094309575.9853144044M49.3223241029,23.6820022946v-.1729348074.1729348074M56.8144710288,23.8184520461c-.0047452362-.052367071-.0094904724-.1094793783-.0094904724-.1713611321l.0126862438.1713611321h-.0031957713M49.3223241029,23.8311382898v-.1031362564.1031362564M50.5709991169,24.6466894478c-.1253129726,0-.2475270154-.0158820151-.3633495155-.0428523882.1158225001.0269703732.2380365429.0428523882.3633495155.0428523882M43.0105788945,26.1857438654c.0016463064-.0063431219.0016463064-.0127104541.0031957713-.019053576-.0015494649.0063431219-.0015494649.0127104541-.0031957713.019053576M42.9995389572,26.2682528705c.0015494649-.0047694466.0015494649-.0095388932.0031957713-.0158820151-.0016463064.0063431219-.0016463064.0111125685-.0031957713.0158820151M42.9836569421,26.3443945434v-.0031715609.0031715609"/>
      <path class="cls-6" d="M21.219582645,23.6344046702c-.142841294,0-.220605063-.1031362564-.220605063-.444260635,0-.0475976244.0016463064-.1015625811.0047452362-.1602485636.0016463064-.0317398197.0016463064-.0666512004.0031957713-.1015625811.01743148-1.0677991992-.5457990057-2.544971863-1.0662255239-3.5191979093-.4188397267-.7948996963-1.7802383111-2.8146998049-1.7611605247-3.9999436002.0047452362-.3316096957.117371965-.5981660767.3902714679-.7520715185,0,0,1.5327112958-1.0646276382,2.3975063846-1.0646276382.1554306963,0,.2903309828.033313495.3902714679.1158225002.6616215058.5251717544,1.2566160216,1.359752278,1.3137525392,2.0102854257.0491955101.5711957036.5791125007,3.2748424549.582308272,4.6679324383,0,.2284734393-.0143325502.422035498-.0459997388.5648283713-.2395860078,1.0059416557-.2395860078,2.3768065022-1.0170300138,2.4339430198-.4268775758.0317156094-.7664040687.2491006906-.971030275.2491006906"/>
      <path class="cls-2" d="M21.0069185895,22.9283328905c.01743148-1.0677991992-.5457990057-2.544971863-1.0662255239-3.5191979093-.4188397267-.7948996963-1.7802383111-2.8146998049-1.7611605247-3.9999436002-.0190777864,1.1852437954,1.3423207981,3.2050439039,1.7611605247,3.9999436002.5204265182.9742260464,1.0836570038,2.4513987102,1.0662255239,3.5191979093M21.219582645,23.6344046702c-.142841294,0-.220605063-.1031362564-.220605063-.444260635,0,.3411243786.0777637689.444260635.220605063.444260635.2046262064,0,.5441526993-.2173850813.971030275-.2491006906.777444006-.0571365176.777444006-1.4280013641,1.0170300138-2.4339430198.0316671886-.1427928733.0459997388-.3363549319.0459997388-.5648283713,0,.2284734393-.0143325502.422035498-.0459997388.5648283713-.2395860078,1.0059416557-.2395860078,2.3768065022-1.0170300138,2.4339430198-.4268775758.0317156094-.7664040687.2491006906-.971030275.2491006906"/>
      <path class="cls-6" d="M18.2588457747,11.1093779048c-1.1741070165-3.746073463-.5457990057-8.3680303729-.488662488-8.7900658709v-.1951357339c.0999404851.0570880969.3014677617.1538812314.5552894781.1538812314.3586042793,0,.8218942799-.1919883834,1.2503213205-.9535503743-.8790307975,2.8051609117-.675954056,8.2950118402-.6172680735,9.5770003493-.2379397014.06662699-.4712310081.1349002865-.6996802371.2078703985"/>
      <path class="cls-7" d="M18.9585260118,10.9094485139v-.0015978857c.0111367789-.0031473506.0222735577-.0063431219.033313495-.0094904724l-.033313495.0110883581M18.2620415461,11.1157210267c-.0016463065-.0031957713-.0016463065-.0047452362-.0031957713-.0063431219.228449229-.0729701119.4617405357-.1412434084.6996802371-.2078703985v.0063431219c-.2395860078.0666754108-.4680352368.1412434084-.6964844657.2078703985"/>
      <path class="cls-7" d="M19.2552485372,10.8301352801c.1538812314-.0412545026.3109582341-.0793616546.4680352368-.1174203858v.0031473505c-.1601759325.033313495-.3077624628.0793616546-.4680352368.1142730353"/>
      <path class="cls-6" d="M19.723283774,10.7047738867c-.650484727-5.9785134166.1142730352-9.2660421152.2174092917-9.6659008971.1142730352.033313495.2728995029.0650775252.4585447643.0650775252.3934672392,0,.9106979861-.1412434084,1.3915163082-.7156106729-.7298948023,2.3752328269-1.2106162828,8.5743028857-1.3248893181,10.1530139202-.2522722516.050744975-.4997992669.106283607-.7425810461.1634201246"/>
      <path class="cls-7" d="M20.7896061394,10.4874130158c.2268029225-.0428523882.4585447644-.0825090051.6932886944-.1190182715v.0047452362c-.2331944652.0301661445-.4648394654.071420647-.6932886944.1142730353M19.723283774,10.7127148943v-.0079410075c.2427817791-.0571365176.4903087945-.1126751496.7425810461-.1634201246v.0031473506c.1063320277-.01743148.2142135203-.0380587312.3237413194-.0570880968-.3649958219.06662699-.7204043299.1427928733-1.0663223654.2253018784"/>
      <path class="cls-6" d="M21.481345369,10.3636495082c-.5331127619-3.8285824681.7329937321-10.1117594177.7329937321-10.1117594177v-.0126862437c.2253502992.0666754108.5823082721.1412434084.9583440313.1412434084.3443685707,0,.7045223148-.0634796395.9948532976-.2554680229-1.3915163081,2.8289839343-1.9166880625,8.5266568405-2.0325105627,10.1482202633-.2205082215.0269703731-.439466978.0571365176-.6536804983.0904500126"/>
      <path class="cls-7" d="M22.4571208802,10.2382881148c.1142730353-.0142841294.228449229-.0253724875.3395264929-.0364608456-.1141761937.0110883581-.2268997641.0237746018-.3395264929.0364608456M22.1334764024,10.2811405031q.0015494649-.0015978857.0015494649-.0047452362c.1063320277-.0127346645.2142135203-.0254209083.3220950129-.038107152-.1078814926.0126862437-.2173124501.0269703731-.3236444778.0428523882M21.4828948338,10.3683947444c-.0015494649-.0015978857-.0015494649-.0031473506-.0015494649-.0047452362.2142135203-.033313495.4331722769-.0634796395.6536804983-.0904500126v.0031957713c-.2205082215.028519838-.4379175131.0586859825-.6521310334.0919994775"/>
      <path class="cls-6" d="M23.2076429338,10.1621222316c-.2507227867-4.8186421087,1.0281667926-9.3739236078,1.2233025266-10.0022316186.2030767415.2126156347.6758572145.5933966301,1.3502618056.5933966301.2697037315,0,.5711714932-.0602838682.8995612072-.2157629852-1.9055512837,4.1633637248-2.6148188347,8.2838750613-2.7988177898,9.5801961206-.228449229.0110883581-.4521532217.0269703731-.6743077496.0444018531"/>
      <path class="cls-7" d="M23.0029198859,10.1906904904l.2047230479-.0237746018v-.004793657c.2221545279-.01743148.4458585206-.033313495.6743077496-.0444018531v.0031473505c-.2967225254.0238230226-.5934450509.0460481596-.8790307975.0698227614"/>
      <path class="cls-6" d="M26.2174784726,10.1129751423c-.5219759831-.0238230226-.8281889809-.0365092664-.8281889809-.0365092664-.1380960579,0-.2745458093.0015978857-.4109955607.0031473506.1856452615-4.6695061136,1.908747055-9.0978283337,1.9658835726-9.5087754736v-.0111367789c.1871947264.215811406.6648172772.6680130485,1.3582028131.6680130485.1538812314,0,.3188992416-.0222251369.4918582594-.0745679976-1.4962020294,3.108226559-2.3767822918,7.6428808068-2.6163682996,8.956633346l.0396081961.0031957713"/>
      <path class="cls-7" d="M26.4744959604,10.1336023936c-.6726614431-.0349113807-1.0852064687-.0571365176-1.0852064687-.0571365176-.1364497514,0-.2728995028.0110883581-.4109955607.0110883581v-.0079410075c.1364497514-.0015494649.2728995028-.0031473506.4109955607-.0031473506,0,0,.3062129979.0126862438.8281889809.0365092664l.2570174878.0206272513"/>
      <path class="cls-6" d="M28.2007935252,10.2160629779c-.4379175131-.0237746018-.8425215311-.0459997388-1.199479504-.0634312187.6743077496-5.6532710531,1.94206055-8.3251779847,2.0785103014-8.9534859955.1475865303.1475381095.4617405357.3633495155.9916575263.3633495155.2125672139,0,.4600942292-.0349113807.7441305109-.1237635077-1.7437290448,3.1827945566-2.4307230381,7.4112358065-2.6148188347,8.7773312064"/>
      <path class="cls-7" d="M28.2007935252,10.2240039854c-.4695847017-.033313495-.9027569785-.0570880968-1.2693022654-.0682248757h.0698227614v-.0031473505c.3569579729.01743148.7615619909.0396566169,1.199479504.0634312187v.0079410075"/>
      <path class="cls-6" d="M30.0667366128,10.3303360131c-.2982719903-.0190293656-.5917987445-.038107152-.8758350262-.055538632-.0253724875-.0015978856-.050744975-.0031957713-.076214304-.0047452362h.0222735577c.1713127113-3.9523943966,1.6675147408-7.8936035935,2.0213737839-8.8075457717.211017749.1713611321.7488757471.5109360458,1.5724163334.5109360458.1618222389,0,.3347812567-.0126862437.5187802118-.0428523882-1.7246512584,2.7877294317-2.8670910863,7.0606209555-3.1986765716,8.3965502109l.0158820151.0031957713"/>
      <path class="cls-7" d="M30.0968543364,10.3382770207c-.304663533-.0206272513-.6092302244-.0412545026-.9059527498-.0634796395.2840362817.01743148.5775630358.0365092664.8758350262.055538632l.0301177237.0079410075"/>
      <path class="cls-6" d="M32.0659336804,10.4747267721c-.3538590431-.0285682588-.7077180862-.0539407463-1.0551855866-.0793616546h.0222735577c.6393479481-4.0887957272,2.1943328016-7.6540175857,2.5132320432-8.4536867286.1919399626.1919883834.8932665061.7632082973,2.035706334.7632082973.0808626987,0,.1650180102-.0031957713.2490764802-.0095388932-2.0785103014,2.7417296929-3.4160858633,6.5243124223-3.8159446451,7.7682422001l.0508418165.0111367789"/>
      <path class="cls-7" d="M32.0722283815,10.476276237c-.3648989804-.0237746018-.7187580234-.0570880968-1.072520225-.0809111195h.0110399373c.3474675004.0254209083.7013265435.0507933958,1.0551855866.0793616546l.0062947011.0015494649"/>
      <path class="cls-6" d="M34.0206804742,10.6412942472c-.2491733218-.0237746018-.5029950383-.0459997388-.7568167547-.0682248757-.1047825628-.0094904724-.2079188192-.0190293656-.3110550756-.0285682588h.0111367789c.8218942798-3.9412091969,2.7306413349-7.0717093136,3.0844035364-7.6651059437.1920368042.3284381348.7219537948.9583440313,1.8326295925.9583440313h.0301177237c-2.3419193319,2.6164167204-3.5413988359,5.621507023-3.9412576177,6.7972119251l.0508418165.0063431219"/>
      <path class="cls-7" d="M34.0602886703,10.6476373691c-.261762724-.0253724875-.5299169906-.050744975-.7964249508-.0745679976.2538217164.0222251369.5076434329.0444502739.7568167547.0682248757l.0396081961.0063431219"/>
      <path class="cls-6" d="M35.9230359865,10.8412236381h-.0365092663c-.0030989298,0-.0062947011-.0015978857-.0094904724-.0015978857q.0015494649-.0015494649.0031957713-.0031473505c.0126862437.0015978857.0285682588.0031473505.0428039674.0047452362"/>
      <polyline class="cls-7" points="35.8865267202 10.8412236381 35.8770362478 10.8412236381 35.8770362478 10.8396257525 35.8865267202 10.8412236381"/>
      <path class="cls-6" d="M35.8802320191,10.8364784019c-.2999182968-.0365092663-.6140723022-.071420647-.9361673151-.1015383707-.0269219524-.0031957713-.0554902112-.0063431219-.08405847-.0095388932,1.0408530364-3.7333872192,2.9369138476-6.1562176706,3.2446763104-6.7163008057.1253129726.355408508.5029950382,1.1550776509,1.4057520168,1.2693022654-1.6992787709,1.5612795546-3.1939313354,4.6028791235-3.6302025421,5.5580758042"/>
      <path class="cls-7" d="M34.860006234,10.7269990237l-.1253129726-.0111367789c.0428039674.0031957713.08405847.0079410075.1253129726.0111367789M34.944064704,10.7349400312c-.0269219524-.0031957713-.0554902112-.004793657-.08405847-.0079410075v-.0015978857c.0285682588.0031957713.0571365176.0063431219.08405847.0095388932"/>
      <path class="cls-6" d="M37.1796520082,11.0125847702c-.2093714426-.033313495-.4188397267-.06662699-.6472889556-.088852127-.0079410076-.0015978857-.0143325502-.0015978857-.0222735577-.0031957713h.0412545025c1.0393035715-3.0717172926,2.5243688221-4.8313283525,3.0495405765-5.4263228683-.0221767162.366496866.0238230226,1.1773027878.7664040687,1.5660247908-1.5771615697,1.1995279247-2.7656011363,3.1986765716-3.1876366343,3.9523459758"/>
      <path class="cls-7" d="M36.5323630525,10.9237326433c-.009587314,0-.0175283215-.0015978857-.0270187939-.0031957713h.0047452362c.0079410075.0015978857.0143325502.0015978857.0222735577.0031957713"/>
      <path class="cls-6" d="M38.7552641129,11.2981705168c-.2967225254-.0570880969-.6045818297-.1142246145-.9361673151-.1713611321l-.0571365176-.0110883581c1.1201662702-2.3768307126,2.3530561107-3.5080853408,2.6846415961-3.8048078663.0221767162.2395860078.1253129726.6743561704.6283080108,1.0392551507-1.0393035715,1.0741665314-1.9309237712,2.3546055756-2.3196457742,2.9480022057"/>
      <path class="cls-6" d="M40.1514288157,11.5583837759c-.033313495-.0063431219-.0681764549-.0126862437-.1030394149-.0190293656-.2412323143-.0491955101-.5061908096-.0999404851-.7902270913-.1491359952.7552672898-1.3946636587,1.680297826-2.4688301901,1.8960608112-2.8115524543.0238230226.3204971273.1380960579.971030275.7204043299,1.199479504-.5934450509.3776336449-1.3566533482,1.3122030743-1.723198635,1.7802383111"/>
      <path class="cls-7" d="M40.1498793508,11.5615795473c-.033313495-.0079410075-.06662699-.0142841294-.10148995-.0222251369.0348629599.0063431219.0697259198.0126862437.1030394149.0190293656,0,.0015978857-.0015494649.0015978857-.0015494649.0031957713"/>
      <path class="cls-6" d="M39.2581623096,11.3902184152l-.1935862691-.0349113807c.0650775252.0110883581.1301550503.0222251369.1935862691.0349113807"/>
      <path class="cls-6" d="M42.8566976631,11.9947034033c-.2697037315-.0190293656-.572720958-.0586859825-.9551482599-.1205677363-.3109582341-.0523428606-.6775035209-.1158225001-1.1233620415-.1983315053.3315854854-.6409942545.8330310587-1.2804390442,1.1424398279-1.5882499277l.033313495-.0459997388c-.0222735577.3078108835.0571365176.8917170412.8234437447,1.4739768925,0,0,.261762724.193586269.0793132338.4791720156"/>
      <path class="cls-7" d="M41.9015494031,11.874135667c-.3109582341-.0507933958-.6775035209-.1158225001-1.1233620415-.1983315053.4458585206.0825090051.8124038074.1459886446,1.1233620415.1983315053"/>
      <path class="cls-6" d="M74.0471352702,39.9562982944c-.1396455227,0-.3220950129-.0983910202-.5505442419-.3046393226-1.2566160216-1.1185925949-3.5874954162-1.5644511155-7.9523379968-8.0871656521,3.3970080769-1.8325811718,4.3791751308-5.2819805301,4.366488887-6.1101937214,0-.0127104541-.0016463064-.0253966979-.0016463064-.0365092664-.0047452362-.0618817538-.0094904724-.1158225001-.01743148-.1618222389l-.0062947011-.055538632c.2299986939-.7996691429.4077029478-1.7294449154.3950167041-2.7306413349-.0015494649-.1427928733-.0079410075-.2871836322-.0174314799-.4331480665,3.8492581401.2173850813,12.2013580772.971030275,10.0990247531,3.4493751479,0,0-4.2950198192,3.198700782-5.894358105,3.9650564299,0,0-2.2276462966.8329826379-1.0408530364,4.9233762508.9725797399,3.3859197188,1.2819885091,5.5818504061.6203670033,5.5818504061"/>
      <path class="cls-7" d="M69.9107419186,25.4542995982c0-.0127104541-.0016463064-.0253966979-.0016463064-.0365092664l-.01743148-.1618222389c.0079410075.0459997388.0126862437.0999404851.01743148.1618222389,0,.0111125685.0016463064.0237988122.0016463064.0365092664"/>
      <path class="cls-2" d="M70.2803861352,22.4697881261c-.0015494649-.1427928733-.0079410075-.2871836322-.0174314799-.4331480665.0094904724.1459644342.0158820151.2903551932.0174314799.4331480665"/>
      <path class="cls-1" d="M6.5843057583,21.6558348538s.2062725128-.1459644342.3537622015.0872784517c.1460370654.2364144469.2348407716.4426627493.2348407716.618793328,0,.1761063683,0,.2649584953-.2649584953.2649584953s-.4109955607,0-.5886998147-.2348165612c-.1760579475-.2364144469-.2935267541-.7647577622.2650553369-.7362137138"/>
      <path class="cls-1" d="M34.344324952,36.9448164491c-.6235627746-.6949350009-2.6369955509-2.2229010604-5.8309268863-2.6369955509,0,0-1.9437068565-.5569357845-2.7750916087-1.042450922h-.0554902112l.0365092663-.0459997388c0-.1189940611-.7314442672-.2173850813-1.631102316-.2173850813-.9012075136,0-1.631102316.0983910202-1.631102316.2173850813l.0380587312.0459997388h-.0206272513s2.568819096,8.2601246699,3.539849371,7.4969405829l.4172902618-.3474675004s4.5124291109,5.0677670098,4.7202510885,3.1241085741c.2079188192-1.94206055.625209081-3.4017775235.4157407969-5.6231049086,0,0,2.2213515955-.277644739,2.7766410736-.1380234267.5552894781.1380234267.6251122395-.1396213124,0-.8330068483"/>
      <path class="cls-1" d="M53.677676211,28.7862543603c-.9472072524.0634796395-1.9388647787-.1491359952-2.4006053144-.2681300562-1.3279882479,1.040828826-3.7285935622,2.5021436851-7.3049521996,3.1257064597,1.2185572904,2.245101987,4.0015899067,4.8265831163,4.3712341232,5.1169383095.4014082467.3141540054.287232053.2570416982,1.2043215817-.2284734394.9186389936-.4871130232,2.3514098043.4284028303,3.5842028033,1.00434377,1.2344393054.5727935892,1.7802383111-.5759409398,1.8944145048-1.1185925949.1142730352-.5473968914.1142730352-1.1471366433.4300733471-1.6643916006.3157034703-.5156570716.2299986939-3.4700023992.2299986939-4.6742755602,0-1.2058468362-.717111717-1.3772079683-2.0086875401-1.293125288"/>
      <path class="cls-1" d="M55.9291455302,16.7689678694l.1015867915-.055538632c1.1470882226-.6600478305,3.2129122803-.3442959395,4.0442970325-.3442959395.8314815938,0,.7743450762-1.1471608537.7743450762-1.1471608537.0285682588-3.958713308-4.704465915-6.9987149913-5.5929871849-7.5714843702-.8900707348-.5743672645-2.4386640456-1.1773027878-2.7829357747-1.5216229377-.3443685707-.3427222642-.8314815938-.3157518911-1.031362564.144390759-.2015272766.4585447644-.9757755112.688591879-.9757755112.688591879-2.9337180763,1.270900151-6.3100989019,4.4664293721-6.9273669754,5.0646196592,1.2518707854.033313495,7.6889289663.6648172772,12.39019911,4.7425004359"/>
      <path class="cls-1" d="M68.4272261329,21.9509594936c-7.4271662424.4855151375-12.2870628537-4.9963705731-12.2870628537-4.9963705731-4.8583471464-4.3759793594-11.731676534-4.9297193727-12.7011573441-4.9297193727-.9725797399,0-1.87543356-.2094198634-5.6246543735-.9028053993-3.7476713486-.693385536-12.4235126051-1.0408530364-12.4235126051-1.0408530364-11.731676534,0-15.8966381444,7.1494730825-17.2151359199,8.3981480966-1.3184977754,1.2502971101-3.2622046319,2.5005700099-4.0253160877,2.6386176469-.7648546038.1380234267-.9726765815.6949592112-3.0559321191,2.2911259361-2.0817060728,1.5977404002-.5537400132,2.8464396246-.5537400132,2.8464396246l.0681764549.1380476371c-.8329342171.6235627746.2079188192,1.1106515874.2079188192,1.1106515874.2791942039.6933613256,6.2482171481,3.0543100231,6.2482171481,3.0543100231,3.81749411,2.3593508118,7.2890701845,2.6385934366,10.6210007362,2.9146887107,1.5739657984.1316803048,3.3193411496.1856210511,4.9202289003.2062483024-.0825090051-.2602132591-.1317045152-.4141187008-.1317045152-.4141187008h.0206272513l-.0380587312-.0459997388c0-.1189940611.7298948023-.2173850813,1.631102316-.2173850813.8996580488,0,1.631102316.0983910202,1.631102316.2173850813l-.0365092663.0459997388h.0554902112c.2363902365.1396455227.5648767921.2808405104.9107948276.4157165865h.3378801864c1.8738840951,0,8.1903745397-.6917876503,9.3707762573-1.0408530364,1.1804985591-.3458938252,4.0269623941-.6933613256,4.0269623941-.6933613256,8.3299232209,0,12.1474173309-4.5822518722,12.1474173309-4.5822518722,7.1494246618-2.7068183123,12.3552393086,3.1939313354,12.3552393086,3.1939313354,4.7900738499,7.496940583,7.2890701845,7.9126329591,8.6075679599,9.0931073079,1.3184977754,1.1804743487,1.1106757978-1.1804743488-.0698227614-5.2756131978-1.1804017176-4.0951630595,1.0408530364-4.9281456974,1.0408530364-4.9281456974,1.596239356-.7631840869,5.9007496477-3.9571154224,5.9007496477-3.9571154224,2.7068183122-3.1923334498-11.9394985117-3.5398251606-11.9394985117-3.5398251606"/>
      <path class="cls-1" d="M69.2728465938,21.9826993134c.1206645779.0047452362.253918558.0111125685.3951135456.0158578047-.1411949876-.0047452362-.2744489677-.0111125685-.3951135456-.0158578047"/>
      <path class="cls-1" d="M19.7597930404,26.2317436042s8.4315100124-5.4612584593,9.916575263-4.0364286562c1.4835157857,1.4264034784,1.1281072777,1.6025098468,1.0678718303,2.1372204944-.0586859825.5346864372-.7124633224,1.3645217246-.7711493049,1.8992081618-.0602354474.5362843229-3.8602980775,2.6735048172-9.2041119406,2.8512090712,0,0-1.0694212952-.5331127619.0602354474-.7726987697,1.1281072777-.2348165612,1.1867932602-.7108170159.8901675763-1.1867932602-.2967225254-.4760004547.4156439554-1.1281314881.0586859825-1.2471255492-.355408508-.1173961754-1.0090890062-.3569821832-2.018274854.355408508"/>
      <path class="cls-1" d="M11.0903433266,29.0258403682s5.1661096092-1.4866873466,5.7008686775-2.7337886854c.5346622268-1.2455276635.7710524633-2.7306413349,1.4850652506-3.3256358506.7108170159-.5918229549,1.4851620921-.9488051381,1.1281072777-1.2439297779-.3569579728-.2982962007-.6536804983-.8932907165-1.4850652505-1.3089830926-.8313847523-.4157165865-2.2562145554-1.8389242936-2.7909736238-2.6132209491"/>
      <path class="cls-1" d="M15.306049912,17.2084590577s1.7231017935,2.1372204944,2.2562145555,2.2546408802c.5347590684.1205677364,2.0198243189,1.2486992245,2.3165468444,1.4264034784s.6521310334,1.1883911459.3570548144,1.8404979689c-.2983688319.6521310334-.8314815938,2.494226888-1.6041803636,3.6223341657-.7710524633,1.1281072777-2.9685810362,4.5727371894-6.1165126329,4.6314473823"/>
      <path class="cls-1" d="M13.5639671736,31.4772148679s2.2958227516-.6283080108,3.7096126174-2.4497766141c1.4136930243-1.8262380499,1.1629702376-2.3609486975,1.1629702376-2.3609486975"/>
      <path class="cls-1" d="M18.3413547798,27.3281352726s-.6917392295,2.7655285052-3.2367353029,4.276014664"/>
      <polyline class="cls-1" points="28.2055387614 10.2208566349 28.2166755402 10.2224545205 28.2055387614 10.2208566349"/>
      <path class="cls-1" d="M40.754364339,11.6710589255c-.1554306963-.0285682588-.3236444778-.0602838682-.4997992669-.093645784.1761547891.0333619158.3443685706.0650775252.4997992669.093645784"/>
      <path class="cls-1" d="M.6088912715,26.3935900535c-.2078219777.74095895.5236222895.8345805236,1.8262380499.8345805236,1.3058115317,0,2.518074121-.0475976244,3.328831622.3141540054.8092080361.3585800689,1.664415811.8091838257,2.069019829,1.2582139073.4046040181.4506037568.5410537695.4506037568.988461755-.0904258023.4506037568-.5394800942-.5838577369-.9424862266-.988461755-.9424862266s-.988461755-.5870535082-.988461755-.5870535082c-2.069019829-1.4835157857-6.2895684922-.8948643918-6.2895684922-.8948643918"/>
      <path class="cls-1" d="M.6184785855,26.2952232437s1.2613612578.1523075561,1.6897882985.2015030662c.4283301991.0507691854,1.6135739945.2284734393,2.3703907491.3792073202.7569135963.1523075561,1.562925861.3538106223,1.8659430876.5791367111.3030172265.2268755537.5601315559.2697279419,1.2883800517.3125561197"/>
      <path class="cls-1" d="M5.9083517023,21.6558348538s.6457394908-.5283433154,1.0297162575-.352236947c.3824273019.177704254.9995985338.1475623199,1.2931252879.352236947,0,0,1.2058710466.882178148.7060717797,1.9706288088-.5013487318,1.0852790999-1.1169704989.9694565997-1.4121435594.9694565997-.2935267541,0-1.2343424639.1475623199-1.4691832355-.1190182715-.2348407716-.26338482-.675954056-1.3200714507-.4411132844-1.8801787962.2348407716-.5569115742.0586859825-.8536098892.2935267541-.9408883409"/>
      <path class="cls-1" d="M8.3042117805,21.7256576152c.2887815179.3601779546.5679757218.9202610897.2791942039,1.5469954252-.4997992669,1.0884264504-1.1169704989.9694323894-1.410497253.9694323894-.2348407716,0-.8837760337.0951952489-1.2550665567-.0031715609"/>
      <path class="cls-1" d="M8.0709204738,21.5701784982c.203173583.3458696148.3284865556.796497582.1015867915,1.2915274023-.4997992669,1.0884506608-1.1169704988.971030275-1.410497253.971030275-.1935862691,0-.6617183474.0618817538-1.0281667927.0301419341"/>
      <path class="cls-1" d="M7.8155492925,21.5003557368c.0903531711.2808405104.1031362564.6045091986-.0539407463.9504030237-.5014455734,1.0868527752-1.1186168053.9694323894-1.4121435594.9694323894-.1460370654,0-.455348993.0365092664-.7552672898.0412545026"/>
      <path class="cls-1" d="M70.2645041201,22.1572320064h-.0062947011c-.971030275-.0539407463-1.6517295672-.0729943223-1.7976697911-.0793374442h-.033313495c-7.4271662424.4871130232-12.2870628537-4.9979442484-12.2870628537-4.9979442484l-.211017749-.1808758149.1015867915-.0587101929c1.1470882226-.6616457162,3.2129122803-.3458938251,4.0442970325-.3458938251.8314815938,0,.7743450762-1.1471608537.7743450762-1.1471608537.0285682588-3.957091212-4.704465915-6.997141316-5.5929871849-7.5699106949-.8900707348-.5759651502-2.4386640456-1.1757049021-2.7829357747-1.5215745169-.3443685707-.3427222642-.8314815938-.3142024262-1.031362564.1427928733-.2015272766.4600942292-.9757755112.688591879-.9757755112.688591879-2.9337180763,1.270900151-6.3100989019,4.4680272578-6.9273669754,5.0661691241l-.0999404851-.0015978857c-.6409942546,0-1.0709707601-.0682248757-.5806619656-.0253724875.177704254-.2919288684-.0794100754-.4759762443-.0794100754-.4759762443-.7726987698-.5965924014-.8472667673-1.1773027878-.8186985085-1.4787705495l-.0412545026.0428523882c.3443685707-.3443201499.0571365176-.3728884087.0571365176-.3728884087l-.1078814926.0634796395c-.5711714932-.2316450003-.6965813073-.8790307975-.7187580235-1.1995279247l.0221767162-.0396566169c.1729590178-.3157518911-.0554902112-.228449229-.0554902112-.228449229l-.0365092664.0364608456c-.5029950382-.3585558585-.6139754606-.7901302497-.6298574757-1.0376572651l-.0523912814.0459997388.0872542413-.0793132338c.2855857466-.2586153734-.0571365176-.2586153734-.0571365176-.2586153734l-.0554902112.0444018531c-.7505220536-.3919177743-.793326021-1.1995279247-.7695029984-1.570770027l-.0872542413.0983425994c.15068546-.1713611321.2522722516-.2792426247.2807436688-.3204971273.1428412941-.2014788558-.1141761937-.1427928733-.1141761937-.1427928733l-.1729590178.1586748884c-.8996580488-.1237635077-1.2819885091-.9186874144-1.4089477881-1.275693808l.0317640301-.0586859825c.201430435-.46014265-.1142730353-.2300471146-.1142730353-.2300471146l-.1031362564.1174203858v-.0015978857c-1.1344988203.0126862437-1.6659652758-.6267585459-1.8642967811-.9567461456l-.0777637689.1301066295.1237635077-.2062725128c.2015272766-.3459180355-.1713127113-.2300955354-.1713127113-.2300955354l-.0968415553.126959279.0031957713-.0047452362c-1.2915758231.0951952489-2.0737650652-.5473968914-2.2847828142-.7505220536l.0554902112-.1459402238c.0857047764-.3157518911-.1729590178-.144390759-.1729590178-.144390759l-.1808031838.2855857466.0047452362-.0079410075c-1.1249115064.1856452615-1.8436695299-.2697037315-2.0991375527-.4712310081l-.0222735577.0618817538c.0444502739-.122165622.0777637689-.2046746271.0889005478-.2411838935.1142730352-.3442717291-.2586637942-.0872542413-.2586637942-.0872542413l-.1395486812.2506743659c-1.0059900765.3062614186-1.5327112958-.0459997388-1.7374343437-.2459291297l.0126862438-.088852127c0-.4315743912-.1998809701-.172910597-.1998809701-.172910597l-.1031362564.211017749v-.0015978857c-.9630892675.2951246398-1.6216118435-.3252423635-1.8468653012-.5870535082l-.0016463064.0047452362c.0587828241-.4299765055-.1713127113-.228449229-.1713127113-.228449229l-.093645784.206224092c-1.1597744663.5473968914-1.9642372662-.0919994775-2.2530187841-.3871241173l-.0206272513.0698227614.0444502739-.1475865303c.0571365176-.3157034703-.1729590178-.1713611321-.1729590178-.1713611321l-.1110772639.2205566422c-.6092302244.4030061324-1.5136335094.233242886-1.9531973289.1158225001v.0079410075c0-.4315743912-.3442717291-.1174203858-.3442717291-.1174203858l-.0857047765.2634090304.0031957713-.0095388932c-.7060717797.8536098892-1.4962020294.7536694041-1.8500610725.6505331477l.0111367789-.0428523882c.2015272766-.6600236202-.1142730353-.3728399879-.1142730353-.3728399879-.0999404851.2078219777-.1856452615.444260635-.2665079602.6996802371h.0015494649c-.7297979608,1.3074094174-1.5612795546.9440599019-1.7944740198.8060606856-.0238230226-.1570770027-.1491359951-.0127346645-.1491359951-.0127346645-.1349002866.3094087692-.2395860078.6806992922-.3220950129,1.0884506608-.6394447897,1.1804985591-1.4787705495.5759651502-1.7104155498.3744862944.0348629599-.4522016425-.1761547891-.0587344033-.1761547891-.0587344033-.4585447644,1.3486639199-.1443907589,4.9900516616-.0872542413,5.421577632.0586859825.4315743912.4601910708,3.0971866217.4601910708,3.0971866217l.0126862438.0396566169c.1618222389-.0777637689.134803445-.0618817538-.0412545026.0222251369-4.6330936888,2.2133621672-6.7210944626,5.5627726197-7.58579271,6.3798974529-1.3184977754,1.2502971101-3.2622046319,2.5005700099-4.0253160877,2.6401913222-.7648546038.1380476371-.9726765815.6933613256-3.0559321191,2.2895522609-2.0817060728,1.5945688392-.5537400132,2.8464396246-.5537400132,2.8464396246l.0142357086.0301419341.0539407463.107905703c-.8329342171.6251364499.2079188192,1.1106515874.2079188192,1.1106515874.2791942039.6933613256,6.2482171481,3.0543100231,6.2482171481,3.0543100231,3.81749411,2.3593508118,7.2890701845,2.6385934366,10.6210007362,2.9146645003,1.5739657984.1317045152,3.3193411496.1856452615,4.9202289003.2062725128l-.0031957713-.0126862438c.5283675257,1.6374212274,2.568819096,7.7587275173,3.4113406271,7.0955081258l.4172902618-.3474917108s4.5124291109,5.0677670098,4.7202510885,3.1225348988c.2079188192-1.94206055.625209081-3.3986059626.4157407969-5.621507023,0,0,2.2213515955-.2760710638,2.7766410736-.1364497514.5552894781.1364497514.6251122395-.1396213124,0-.8361541989-.6235627746-.693385536-2.6369955509-2.2213273851-5.8309268863-2.6370197613,0,0-.9933038327-.2840120713-1.8642967811-.6251364499h.3378801864c1.8738840951,0,8.1903745397-.693385536,9.3707762573-1.0408530364,1.1804985591-.3458938252,4.0269623941-.6933613256,4.0269623941-.6933613256,1.3200472403,0,2.5243688221-.1142488249,3.6207120697-.3094087692l-.033313495.0063431219c1.2185572904,2.2451261974,4.0015899067,4.825009441,4.3712341232,5.1185604055.4014082467.3157276807.287232053.2570174878,1.2043215817-.2316692107.9186389936-.4870888128,2.3514098043.4315743912,3.5842028033,1.0043679804,1.2344393054.5743672645,1.7802383111-.5727935892,1.8944145048-1.1185925949.1142730352-.5458232161.1142730352-1.1455629681.4300733471-1.6628179253.3157034703-.5156570716.2299986939-3.4716002849.2299986939-4.6758734458,0-1.2042489506-.717111717-1.3772079684-2.0086875401-1.2883558414-.9472072524.0618817538-1.9388647787-.1539054418-2.4006053144-.2697279419l-.0062947011.0031715609c.8472667674-.6632193915,1.2613612578-1.1582492118,1.2613612578-1.1582492118,5.7135549213-2.1641908675,10.1830832232,1.1677638946,11.749108014,2.5957652587.3935640807.3585800689.6061312946.5981660767.6061312946.5981660767.1205677364.1888168225.2380365429.3680947517.3538590431.5442253304.1031362564.1602485636.2046262064.3125561197.3062129979.4632900006l.0031957713.0031715609c4.3584510379,6.522738747,6.6876841261,6.9574846992,7.9443001477,8.0824204159,1.3184977754,1.1804501384,1.1106757978-1.1789006735-.0698227614-5.2756374082-1.1804017176-4.0967367348,1.0408530364-4.9297193727,1.0408530364-4.9297193727,1.596239356-.7615862013,5.9007496477-3.9555175367,5.9007496477-3.9555175367,2.102333324-2.4799427586-6.259353927-3.2415289599-10.1022205245-3.4604877164"/>
      <path class="cls-1" d="M21.9573216133,25.9778976774s4.5996833522-2.9971977158,7.957083233-3.4938254218"/>
      <path class="cls-1" d="M21.7097945979,26.9473300667s4.7345836387-2.8178955762,8.8361140305-3.7397303411"/>
      <path class="cls-1" d="M21.9128713394,27.7136857146s4.6505251687-2.2704986848,8.7884679852-3.4478014727"/>
      <path class="cls-1" d="M20.4246103175,28.7957690432s6.1736491506-2.1610193066,9.6706945541-3.0527121374"/>
    </g>
  </g>
</svg>