<?xml version="1.0" encoding="UTF-8"?>
<svg id="Layer_2" data-name="Layer 2" xmlns="http://www.w3.org/2000/svg" viewBox="0 0 90.1737951919 29.3341561385">
  <defs>
    <style>
      .cls-1 {
        fill: #a8a800;
        fill-rule: evenodd;
      }
    </style>
  </defs>
  <g id="Layer_1-2" data-name="Layer 1">
    <path class="cls-1" d="M89.8960460738,13.0079411366c-8.559953143-.8412351273-16.9418130485-2.8727777585-25.3360607232-4.6786968597-5.7925656409-1.1636641935-12.1754727994-1.4708146591-17.4537990021-2.8073940543-8.6977424739-3.2376020363-17.9515519588.8002635857-25.5235504765,3.3690339598-6.3628044778,2.4724742403-6.5346054675-6.5003725768-12.7619872244-7.4868224927-2.6315667939-1.8026327726-6.2802110819-1.9402250765-8.8206486476-.0001221207.269527336,3.1920268734,4.6598828694,2.0230786639,6.7560582585,2.9950330174,2.8576151349.7293905948,3.6885211788,3.5316647136,5.0672582051,5.8017133701,1.1817458088,1.2663407884,2.012183494,2.7153774668,3.378257961,3.7429411928.7889886548.9586433528,2.3612514549,1.292655633,2.81531059,2.4331996067,1.5656934926,1.4396083549,2.2677475932,4.1096280857,4.8793935687,3.7433058157-.1296596274,1.2215421244.2045810861,4.0684367306-1.5014258566,4.1174626341-.7642402545,1.1945113749-2.867860246,2.9969128567-2.0645245495,4.6791471198.7095075835.1151637895.4687065254-.9570371152,1.3140203884-1.1227141022.6643181823-1.4207447971.9184368933-2.2659939148,1.3137643713-.1873377504.6688952424-.0008121152.2979823439-1.4918289017.9385452884-1.8711661725.6529826929-1.1625512632,1.7240783548-2.1182610791,2.6268889711-2.9953341501,2.0893019686,6.0708786342-.3794703494,2.6692117274-1.8767985685,5.2407539369,2.760586108.1954582151,1.4548777653,1.8041034355,3.7537153684.1872803275,2.5997634358-1.9610815735.3809132193-5.6702218118.7510128962-8.60964247,3.7686474867.5675139586,9.149458275-1.181434049,5.4421064146,4.1177399155-.7074766574,1.5229499485-2.1946491546,2.5506040595-2.8150722107,4.117546115-.4793768249.0779459703-2.4910643911,1.2984285968-1.1260800166,1.3104621051,2.5944928915.9731293679,4.8454135362-1.3699055689,6.7563221656-2.8076114846,1.083118007-1.759301392,1.7267648744-3.7685610062,2.8152977177-5.6150620046.9186070672-1.1691525738,2.9055452981-2.7093576371,4.1288500505-1.8718525194.7108849361.4952947974.9009596682,1.6202468729,1.6887608664,1.8720260513,1.4209279251,1.0748678021,4.1655377025.5244605932,5.8179346159,1.1236087423,1.4916725253.5910079433,3.8242554051,1.5085163774,4.5046815743,3.1808613081.2404053634.6545921297.6630987399,4.9018061085,1.3142297689,2.8078135942,1.0988264535.2959839643.9718761752-.7498841193.9373471816-1.4977044455.1943577194-.2449536271.6265356448-.2312126381.1877785007-.5612841803-.7109944962-1.4938042112,1.1181918341.8913979211.3751374699-1.871787032-1.4899575867-4.456703376-9.0348619902-4.1307141436-9.9470094308-8.0475800444,8.4454045528-2.5420637605,19.0621326576-2.5164474984,28.339220134-2.6209538414,2.026655687.4461694802,15.7084015619,1.8312690204,13.3250643792-.1868630875Z"/>
  </g>
</svg>