<?xml version="1.0" encoding="UTF-8"?>
<svg id="Layer_2" data-name="Layer 2" xmlns="http://www.w3.org/2000/svg" viewBox="0 0 90.4565235584 50.6679406234">
  <defs>
    <style>
      .cls-1 {
        fill: #82ff82;
      }
    </style>
  </defs>
  <g id="Layer_1-2" data-name="Layer 1">
    <path class="cls-1" d="M89.9723492282,0c-8.6257885431,2.0969729637-17.0009215043,4.7234087647-25.3359778781,8.0721010371-6.9781267959,3.3429870007-13.1695431065,7.1282324293-20.8318639936,9.0109454557-3.5223481419-.8253973432-7.4020985353.0744150912-10.8851115363.1878397005-2.0259966771-.6119041924-4.7088736326-.9504653552-6.7562380449-.9386986077-2.7577901254-.4553672608-6.9219685945,2.7844163377-7.6946175259-.563074346-.2496040869-.7032560823,1.0265547411-.7453701716.1875623572-1.3143260366.3231313809-1.0865600282-.0448385211-2.1963180791.5627017972-3.1915605812.5888258398-.9733408863-.4883417295-1.7913241387-.3752071728-2.8157561247.0924751489-.8821983326-1.4795146471-2.3337489411-2.4394143296-2.6281114315-.9037081576-.7522548694-2.2098452481-.8115088396-3.1907932244-1.3141089878-.9448980346-.0547952822-1.5423848075-1.3894420811-2.6273088615-1.1260685448-1.8252016674,1.2995282025-4.1101335445.0523134286-6.1931897118.5632451982-1.3320081082.4036829841-4.9484548235,2.0376295172-2.0644998999,3.0037084665,1.2349377232,1.6561487822,10.0998841941,2.0070320704,4.8795939064,2.8150394604-1.5096212547.6881651023-3.6551640764-.4375630667-4.8795993223,1.1270054003-2.2033303949,3.9735139287,6.9313206741.0536481324,7.8817918653,2.4398290128.4604877135.3159970768,2.6233322829.7635212448,1.8774829293,1.5017874648-.2415972099,1.8164885189-1.6112176883,3.8460441415-.3755380955,5.4442335323-.1467090202,2.2598699504.8460315944,4.624311795,2.6273741033,5.6317663863.0168058146.2675268271-1.548950899,1.1043582854-1.8765142365,1.8774075452-.5333946261-.2237883023.1489772533,2.6260675854-.5633012478,1.3139655631-1.4511858916-.992370046-3.0847786162-1.8039778343-4.3162700508-3.003704674.1188935923-.9826629541-1.0079615044-1.3647493688-1.6892848223-1.8772155837-.5918948891-.3483249689-.2819173673-1.3451502027-1.1259649708-1.1261535669-.0000356667-.0000688828-.3752798073-.1878130234-.3752798073-.1878130234-1.9663140713-.7839500963-4.6719001277.8247786618-3.7536080601,3.0038615704-.9470712047.2120961426-.6943293642,1.7906606651-.1878212313,2.2522359627,1.1045957227,1.2931995657-.4207028494-1.0434431696,1.3138886738-.750727682.5175410755-1.8262614582,1.9572324466-.9152505638,3.0029209298.0001497618.9149380033.4889015336,2.1030070127.2886682583,2.8150923867,1.1260042827,3.5451464435,3.881187987,5.1170260202,5.1896086829,8.8203973445.5627294679,1.1392079888-1.024089541.3933350583,1.6062612321-.3753203095,1.8774670537-1.0397184724.6626242813-2.4116478887.6680028709-3.3780936525,1.5019160169-1.2760389243.5243404532-2.2051985933,1.5225781838-3.5658748904,1.8770481515-.6839134337.7012809613-.5362039769,1.7793398401-1.3135705243,2.4408071467-2.695665044,1.1478860383,2.4242978259,5.6797774738,3.5657130806,2.4398905666-.5302106707-.101994909-2.8057192456.3389624241-1.8761672066-.9382585562-.4700938552.0595049541-1.6278322435-.1276290933-.9387568617-.7509625548.3395760063.2676673111,1.479538253,1.0600684322,2.2518438539.5635252221.5646008852.89799125,1.8425677439.4144734691,2.6275630391.000023731-.4888890122-.8479319282-1.6677998447-.2491669807-2.2520372885-.9388725984.6473633956-1.2751446516-1.3401022347-1.7772233123,1.5015902326-2.8158149586,2.1600425985-1.6689183225,6.3541173161-.632203619,6.9435776812-4.1302181181,1.835901324.7020797252,4.336969907.6160289425,4.6920024641,2.8161581911,1.1238697638,2.0910804269,3.3885882981,3.7442480422,5.0673740638,5.4438382304,2.0139869643.9788090191,1.3281034027,3.2563086228.7505507502,4.8809233963-.8669371,1.6481805774-1.0668177003,2.3576242027-1.8765177784.1875380259-.3943292856-.4085131237-1.2660419544.160134667-1.876719454-.9389552735-2.1785214853-.1517347949-2.664872646,1.5311139838-2.8147400346,3.1918634787-1.1982548509.5095655672-.2657235894.8269114463.5624878704.5626520037,1.2228461383.3645703989.9207709966.8924869137,1.3131737501,1.5025268193.4826339102-1.5970895104,4.8060242585.2703914875,1.6898485585.1875732984-1.040991921.6257521399-3.2629917212.1977056075-3.0030150296,2.0649577957.3846688275-.3689840273,1.2165659196-1.1641063099,1.6889185392-.7512309543-1.5000280828.6107769192-1.4026761504,2.2355355987.1879285165.5630820381,2.0552817693.950382653,4.6984472561-.1087712826,6.7562096962.3751704479,1.9152488308-.1642994542,2.3653535961-1.4131208484,1.6888657612-3.0032636076-.4365320234-1.7267434818.029206072-4.6021781765.0002329633-6.3824493677.6126628773-.6930397302-.3649443552-1.6006012195-.5629502444-2.2525186033-.4587679332-1.3724601964-.8233545293-2.8491619108-.7510030076-4.5053997601,5.0068451216,1.0991435944,5.8720779792-5.2599538073,9.3835347854-7.1338675878,2.6203957372-2.2749203068,5.642503291-4.1932901058,8.4458877365-5.8186552984,4.2826128515-3.6065287192,9.1767350993-6.5410656786,14.2633874893-9.0105657446,6.1155925004-3.0041474981,12.2541318698-5.7065470598,18.0167164761-8.6351210501,1.3672187318-.4448802875,2.7915467616-1.1683558256,4.1285933556-1.6897467392.8851991791-.3025952933,4.3779444921-.9602181648,2.6273633483-1.8775969197ZM2.7036114352,24.7795410156c.2872578856-.373731327,2.1317668439-.2419788664.7510787232.1874515225-.4789518587.4297596458-1.9592388117-.1193699646-.7510787232-.1874515225ZM24.2863751071,45.2412719727c-.0267840862-.5269890332,1.1491039461-1.0046728942,1.6889069911-.563305341-.5363092829.0217164621-.9578326827.7208724647-1.6889069911.563305341Z"/>
  </g>
</svg>