<?xml version="1.0" encoding="UTF-8"?>
<svg id="Layer_2" data-name="Layer 2" xmlns="http://www.w3.org/2000/svg" viewBox="0 0 90.8416772391 40.7364601376">
  <defs>
    <style>
      .cls-1 {
        fill: #d2b3a6;
        fill-rule: evenodd;
      }
    </style>
  </defs>
  <g id="Layer_1-2" data-name="Layer 1">
    <path class="cls-1" d="M90.6693930923,19.9575256001c-1.3879951142-.0048971242-2.720233399.2390078232-3.9412447523.7480760327,2.7703618501-1.8662630434,2.9244940342-3.0625000859-.5632454522-1.1225525977-3.2380027505,2.7521941533-2.2323342574-.5125361698-1.8762193985-2.619287925-2.2749419694.5703495208-1.4041862169,4.0812208643-1.8771827747,5.8001380611-.8138655237.6722711106-.9360689701-2.1760651691-1.6888781849-2.6190479422-.428768794-.9347865508-.3389614395-2.3705836971-.9379290596-3.1812288551-1.4704820727.4776786138.0427276296,4.0051266311-.0006359217,5.425993333,1.2050980954,1.7393910007-1.1916051879,1.8561882448-1.3140377842,1.3100148669,1.4732647664-.8897593448-.4313773542-3.2903829692-.7496998743-4.3034090549-5.6913429646,2.9464857694-.5886193432,4.9257926338-5.0673065214,3.554830562-.2364181129-.3836149691-1.2881298839-.1502393758-1.314130881-.5611949168.4518985166-.1383184477,1.2533649389-.2472346881,1.1261663431-.9355382448.7323726115-.8197252943.0416316075-2.1370003715.1877817688-3.1808245577.483154356-.7246067919,1.4342086447-1.8637996123,1.1263325286-2.6193923875-.4080281181-.3955544997-1.8594273436.590193448-2.4402184636.7479459671-1.2340676338.4314161418-2.6067179963.6747323194-3.7536247986,1.3100237781-2.2531864457.9980809653.1164502696,3.6480684396-3.5659135854,1.3094053735,1.3284314504-.5472533132,2.2613662947-1.1252264485,2.4394984009-2.6192594787.3355155195-1.8691077768,1.3241843275-3.7833946859,3.0031965251-4.8645002968,1.7808009679-2.031710215-3.9449020782-.0421562731-4.6912868381.1872225188-1.6326733956.3722103398-3.6261294879.238266067-5.0677188197.935110129-3.0483431707,1.3058891603-.6567391989,3.7147196704-3.1901977962,2.4326610238-2.6378082583-.9412801782,1.2886285781-1.0003576523,2.0641700148-3.1809134315.0023276048-1.1471103337.2681774713-2.6385650429.3753854762-3.7417454656,1.0766641454-.8550357106,1.3877275776-3.0617692522-.5632449972-2.0582660089-1.2770476649.1716541002-2.5613643742.5522728391-3.7533388725.9354586883-1.4944537224-.0487997178-2.9717418501.0446927368-3.9410301497,1.1229436115-.3514415193,1.0190165314-.4380651254-1.3790570281-.7505611493-1.6841198205-.1787409885-1.5633640591,1.1300764701-5.2596228524-1.5015609948-4.490484581-2.3027846956.9086133935-4.4350920301,2.5485941988-6.5687990839,3.9291439962-.9307904214-1.8498882842-2.4994682185-3.7311841409-3.3779299052-5.6129257542-2.5223500833-2.2278828099-3.1966644233,8.4404377989-6.7561116655,1.8708435776-2.7473035466-2.939835241-2.3921951691-1.2642995671-3.7534789102,1.4971457209-.2545354324,1.1224196111-1.0509138091,2.0766235957-1.313853425,3.1805442451-.656679855,1.3279103342.0362629472,1.5934172952-1.5016498832,1.3093895523-6.1505269146-1.869558966-6.5955080451-2.8936493878-5.2544506038,4.3039881537-5.3657622743-.4281689559-5.5983720685-2.9213046387-3.9410125571,3.5548074583.4564371189.4819042268-.7512092461-.365207192-.7510742324.374047866-.5547006114.5288142751.5576907899,1.226448646.3752453678,1.8709413477-.2644210781-.9748018855-.8634049277.1612397492-1.3134858806.1871582268.13111496-.3097841712-.0044678002-.6916601603-.375097238-.5612204396-.0106947968.5237968235-.6267632816-.0550276535-.5634757006-.374403326-.8524602807.5375269026-1.1344793773.5343386807-1.5011653578-.5615861932-.2294587602-.0921350091-.5478933469.1998024762-.7507870804.1876676273.079230726-.2083175513-.1850900276-.427262789-.3753705824-.3742981485-.5909194167.5782702594-1.1990048235.7135471648-1.1258799787-.3744736656-.8744940298.0114356872-1.5884307605.8827465177-1.5017038235,1.6840910076-.6272329157.062414651-1.0307417014-.5561029676-1.6889594454-.3740060985-1.0380458444-.4866438726-2.7920901793-.0525694304-3.565938887.5606909388-.8265960257-.0442371744-2.3809223161-.1067070529-2.6268511387.9361114108-.903158271,2.0527834564,1.3917552662-.1609079492,1.3136253956,1.3096702971-3.1184810822,2.0373779513,4.3744497476.2533109346,5.0667041434.9353486582.5294265987.5951657517,1.3463058963.1103732802,1.8766099973.9356766845.5291667559.6853513586,1.5359300775.3164525693,2.0647386948.9350944947,2.4128009091,1.3469109823,2.8024959066,1.7211963542,4.503771168,3.9298946674,2.1258839666,2.0431605822,5.2088234927,1.4794642117,7.5074821346,2.8058863958,4.8733098623-.5228946108-3.2493660224,4.3151447383-.5629417819,6.5486217117.1350975978.6666039357-.4195924118,4.7980191083.9378968232,2.8066493131.8120337898-.3112091364,1.853133557-.6956330541,2.2521252225-1.6839427997.8171777643-.5249427061-1.1385904999-2.2139459142.9390577385-3.7418840077.7599989033-1.5440447718.8203831426,2.6348767987,1.3135822153,3.3675389695-.2412491534,1.0563848434-.8402057609,1.7542790048-1.5021179817,2.4322742336-.6348560087,1.5559788008,3.0761702489.7739351259,3.941247753.5613867702,1.7299301916-.9500593431-.2595145659-9.3165461909.1878402841-10.1035333062,2.0424369121-.927924188,4.8435734517-.8054685091,7.1316610067-.9356668373.3572740588,1.5102967353.5132939004,4.1306148697.938554852,5.8005491488-.4678018711,2.1271803941-.5002608923,3.5274448652-2.4404454454,4.8641513875.0245784686,1.1158941043,3.6741171603.5437884336,4.3167878316.5625654355.47993451-.5414434995.4400866696-1.5474288478.5636491871-2.2459410675.9054005771-.5925608253.4825789868-1.8791924517,1.1257485231-2.6196072243.2473683536-2.426313988.7437313132-2.2947031491,2.2519309375-.5608868522,4.4518599416,3.500963606.7532691574,4.4749250371,2.2515079956,5.426022223.9490114145-.5709890249,5.0651963868-.9297621128,3.3791997571-2.6197718824-.7619106736-2.1332175572-2.0684756941-3.9178718484-2.6273953676-5.9875211902-.798505413-1.6230620735-3.5507650759-2.9016142172-1.3141620822-4.4902191732,1.9995266354-.7467974869,4.1902795203.5011731846,6.0056259005-.9358055461,2.6451645156-2.5286411846,8.9754699384-2.7668947917,12.1990844385-1.3097043531,5.6885853693,1.3458054032,9.9809650408,2.4604864674,15.9519259445.9347630885,2.0366082489-.8469935817,5.8013936991-1.2656271267,5.4422835323-3.1798989583.9272721235-.8666446748,2.1450063664-1.1059136949,3.1907410602-1.6836424609.6812843967-.4153166359,3.0819607926-.1810037483,2.2521861458-1.3097837049Z"/>
  </g>
</svg>