<?xml version="1.0" encoding="UTF-8"?>
<svg id="Layer_2" data-name="Layer 2" xmlns="http://www.w3.org/2000/svg" viewBox="0 0 55.2272820511 28.7987043934">
  <defs>
    <style>
      .cls-1 {
        fill: #28b402;
      }
    </style>
  </defs>
  <g id="Layer_1-2" data-name="Layer 1">
    <path class="cls-1" d="M0,14.3035961425s.9315395869-.413127999,1.9479465533.557642735c1.0232123696.9575602457,4.4339202681,3.1613098914,9.7793642316,1.8558734528,0,0,4.427114865-1.6853380578,7.0503975949-3.698936735,2.6172779625-2.0071935919,7.3918687026-3.7517786884,7.8578386549-3.8106254092.4719747198-.0656521239,2.4395368467-.8394664863,2.7609920629-.9971917107.3214552163-.1441144182,4.2501743848-1.2197684233,7.509962462-.2558030924,3.2597880772.9579605635,5.4110960874,1.8038321351,6.5848279604,2.2762071727,0,0,2.6501040244.6949517502,2.8991017137-2.0204040803.2690135807-2.7021453421-.6361050294-4.2697899584.6429104325-6.4471186274,1.2854205472-2.1905391574,4.4927669889-2.1905391574,5.948722931-.8198509127,0,0,.833061401.865887463.6689310914,1.5083975777,0,0,0,.4983956964.5772583086.7541987888,0,0,1.4231298802.6100843706.8722925482,1.8694842589,0,0-.0588467208.8134458275-1.8362578792.3474758751,0,0-2.7942184427-1.3118415239-3.4303234721.5508373319,0,0-.4919906112,1.0168072843.7870248508,3.7846047503,0,0,.9051186102,3.1088682558-.2626084955,4.3486525706,0,0-1.3706882446,1.7902213289-1.6921434609,2.7874130396,0,0-.8722925482.9575602457-1.2525944852,1.0164069665-.3803019371.0592470386-1.2525944853.170535395-1.2525944853.170535395,0,0-.5248166731,2.0135986772-1.97436753,3.082847597,0,0,.170535395,3.9022981919.4919906112,4.5452086244s.7541987888.8134458274,1.9543516386.7477937036c0,0,.9247341837.3014393248,1.2265738264.4719747198,0,0,1.1873426793.2297824336,1.2133633381.6164894559,0,0-.7541987888-.2293821157-.9247341838-.0260206589,0,0,1.0428279432.4655696345.7541987888,1.0164069665,0,0-.3146498132-.5244163553-.9115236954-.3474758751,0,0,.3542812782.3474758751.2690135807.6100843706,0,0-.3807022549,0-.6693314092-.1180937594,0,0-1.0428279432-.380301937-1.481976601-.4067229137,0,0-.557642735-.1769404802-.6757364944-.0852676975-.104883271.0852676975.0328260619.2622081777.0328260619.2622081777l-.9051186102-.3803019371-.0788626122.2297824336s-.6493155178-.5248166731-.9903863076-.8987135249c0,0-.8786976335.1180937594-1.3706882446-.6689310913,0,0-.9639653309-1.1609217026-1.2197684234-1.4035143066-.2690135807-.2361875188-.413127999-1.0756540051-.3807022548-1.3382625006,0,0,.1381096508-3.7842044325.3082447279-4.1320806254,0,0-8.165683065.347876193-9.2737628142.0852676975,0,0-.347876193,3.811025727.0852676975,4.4799568184,0,0,.6096840527,1.9543516386,2.5972620711,2.1184819482,0,0,2.1184819482,0,2.1445026071,1.1148851523,0,0-.2293821157.1180937594-.3738968518.0588467208l-.1441144182-.0588467208s-.2033614569-.137709333-.3478761929-.137709333c0,0-.065251806.2293821157-.2097665421.3214552163,0,0-1.4559559422.2558030924-1.8034318173-.21016686,0,0-.4067229137-.3146498131-.6625260061-.2882288365,0,0-.1509198213.202961139,0,.4983956965,0,0-.4723750376.3738968518-.8462718894.0784622943,0,0-.6164894558-.2622081776-.9379446721-.7606038741,0,0-.8983132071-1.8562737706-1.5148026629-2.0332142507,0,0-.7477937036-.315050131-.6036792853-1.3054364386l-.098077868-1.7181641198s-1.6465072285,1.3903038183-1.8562737706,1.4231298802c0,0-.6689310914.4655696345-.2622081777,1.659317399,0,0-.0460365502,1.4627613452,1.7509901817,1.5480290427,0,0,1.4823769188.2293821157,1.5083975777,1.0428279432,0,0-.3803019371.0852676975-.5836633939.0656521239l-.1180937594.1965560537s-1.1280956406.21016686-1.3642831594,0c0,0,.0592470386.21016686.0200158914.3410707898,0,0-.3610866813-.0132104883-.5380271615-.1637299918l-.1769404802-.1445147361s-1.0232123696.1445147361-1.3118415239.0264209767c0,0-1.6661228021-.8070407422-1.279015462-2.3350538935,0,0-.4723750376-.2033614569-.2361875188-.7213727269,0,0-.4395489757-.1445147361-.1112883563-.7017571533,0,0,.1705353949-1.2529948031.0260206588-1.4823769188-.1509198213-.2361875188.3214552162-.4919906112.5248166731-.6429104325,0,0,1.4427454538-1.7377796934,1.6332967401-2.1577130954.1705353949-.3871073401.1705353949-.6032789675.1705353949-.6032789675,0,0-1.0232123695.0260206588-1.4039146244-.2558030924-.3803019371-.2954345574-1.1280956406-.5248166731-1.6853380578-.4395489757-.5512376498.0788626122-2.2105550488-.0852676975-2.532010265.0260206588-.3146498132.1180937594-1.8626788559.4395489757-2.3610745523.695352068-.4851852081.2690135807-9.3986619767,1.6857383757-13.9702915778-1.626491337,0,0-3.9219137654-2.387495529-4.6829179574-3.5484172315"/>
  </g>
</svg>