<?xml version="1.0" encoding="UTF-8"?>
<svg id="Layer_2" data-name="Layer 2" xmlns="http://www.w3.org/2000/svg" viewBox="0 0 91.241165707 40.5180494529">
  <defs>
    <style>
      .cls-1 {
        fill: #82ff82;
        fill-rule: evenodd;
      }
    </style>
  </defs>
  <g id="Layer_1-2" data-name="Layer 1">
    <path class="cls-1" d="M90.8977251059,9.2520528297c-6.768888518-.9234298782-12.4000971328,4.7878682589-19.5180385604,4.1233290011-9.1073134536-1.0590653401-18.3113401559-1.6123611613-27.4004387701-.5606170262-2.6545600121-1.5777258602-6.6827864204-.5791128466-9.9468541965-.7510254332-2.6031601161-.4445109214-5.1798038343-1.0559375014-7.6944039529-1.8747521311-2.7446369447-.8513766989-5.2890944631-2.1713922608-8.0700534912-2.8115177434-.716086456-3.0512624411-3.4131342444-5.4379449966-6.1933131102-6.5593465704-3.1756364272-1.6793927451-3.9778438418-.3374427581-6.9439119345.1876331827-3.0608389933.3959419488-8.1226448951,3.8435344127-2.8151994688,5.6226167571,5.8488517068,1.7159804614,10.1392496681-1.3422566306,12.1985233664,6.7476870128.5287890748,1.8933001765,2.9967549925,2.0465923254,3.3783295619,3.9354363925.2887029109,3.2823442919-6.9860671284,3.3362545006-4.8791518573,7.6847887244.1502326151,1.1434217964,1.4825412481,1.9395756984,1.8762219169,2.9986050393-.0050940674,2.0524488188,2.3366017574,5.6913560629,2.4402092028,1.3117169616,1.421837893-1.0116677528-.6588565388-2.6128885006,3.3786773874-6.1843593133,1.5055796194-1.5287530514.5508006027-4.4096842562,3.0020829929-2.0620684184,2.3316172191,1.1802416854,4.7124528602,2.1728834144,7.3193113505,2.8113325979,1.5382610109.9558286538,4.5478608908.2743699591,4.879527811,2.4363264005.7319161556.7220419757,1.0301427895,1.8167947526,2.064471348,2.2491631632.0291922862.6615718689-4.4909442056,1.2578358998-4.6912412265,2.624471506-1.1537540521,1.9239428603-.1750896115,4.1846959404-.0004771842,6.1848305468.6766979207.1976710687,1.8955685567-1.297260373,2.4396723275-1.8738286073,2.0778811678-1.7356278814,4.5521061587-5.8008299435,7.319230977-4.6867196077-.7137881561,1.1797277635-.7641425079,1.5189037384.0003276116,2.6245301749.8983413657,2.6209011565-2.7182489145,4.0927763496-3.7536797652,5.9975490447-.1318858722,2.2314020664,4.4496912623.5195064497,5.2543224221-.5621892341,3.4309506543-2.966868108,5.4794461367-10.7919201615-.5629226554-12.1828568276-1.0740394053-.8950553372-.8213551177-2.5049462435-1.8765188991-3.1862214149-.6876962734-.5919409607.8729307365-.6385969744,1.5014964702-1.3121773218,2.1602423947-.8643870745,3.8926380701-2.8221210827,6.00542997-3.1861451733,4.6686534799-.8382828676,9.908681913-1.8249696462,14.8263275359-2.2488380163,7.6817012648-.3360309518,15.6076911859-.4958324505,22.7084696318-3.7486183699,1.0783152973-.9265191565,5.3206220635-2.4608201498,3.7535731884-3.7487352965Z"/>
  </g>
</svg>