<?xml version="1.0" encoding="UTF-8"?>
<svg id="Layer_2" data-name="Layer 2" xmlns="http://www.w3.org/2000/svg" viewBox="0 0 133.6900809202 33.8845796915">
  <defs>
    <style>
      .cls-1 {
        fill: #fd7e08;
      }
    </style>
  </defs>
  <g id="Layer_1-2" data-name="Layer 1">
    <path class="cls-1" d="M44.5919612909,29.0605689024c6.0180924406.1978462606,11.2799236563.0156322971,15.2772485866-.2578352009,1.1420370076-.0780637838,2.180949705-.1635529088,3.1046719129-.2499213505,2.7712643256-.2587145176,4.5066935622-.5237796559,4.8861675752-.6130791533,0,0,.1908117269-.0378106187.4506009649-.084121299.1658489024-.0233507438.3141603215-.0359542834.4414169904-.0347818611.1540269777.0012701241.2854848264.0174886324.4086380173.0416209911.1846565099.0359542834.3504077105.0896903048.5444924496.1367825999,4.5980936495,1.1160483136,8.5432457881,1.4033894753,11.7131336907,1.3078370591,1.5849195258-.0476785063,2.976096269-.1913002362,4.1580933361-.3747843238.3939827387-.0611613625.7647612864-.1268170105,1.111700581-.194817503.4617878276-.0904719197.8650033918-.1848519136,1.2411066907-.2788411001.0186122038.0037126706.0267214579.0168047194.049192885.0168047194l-.0168047194-.0252070791c.457391244-.1150927877.8667620252-.2295993642,1.1911810417-.3334564383.5971048996-.1912025343.964708137-.3481117168,1.0874705204-.4151351908.0707361445-.0385922336.1303831283-.073178691.1862685906-.1065927261.125791141-.0518796861.2149440856-.1006329128.2535363192-.1770357651.0782103366-.069075213.1149462349-.1275009235.1077651484-.1796737152-.0071322356-.0520750898-.0557389095-.1000467017-.1294061097-.1506562636-.1287221967-.2045876888-.5479120146-.2093750798-1.1919626566-.1598402382-.7737498573.0595981328-2.4403969865.0595981328-2.8570465561,0-.0735206475-.0105518006-.1481648663-.0238392531-.2246654204-.0386899354-.0079627014-.0033218631-.0120661793-.0060575151-.0196380733-.0093793783.0362962399-.0170001231.0826557711-.0384945317.1451849596-.0662418591.0024913974-.0011724223.0044454345-.0019540371.0070345337-.0031264594.0344399046-.0152414897.0730321382-.0320462091.1146042784-.0497302453.0023448446-.0010747204.0043965836-.0018563353.0067902791-.0029310557.0418163948-.0178794398.0873943112-.0368336001.1359521341-.056764779.0031264594-.0012701241.0059598133-.0024425464.0091351236-.0037126706.0482647174-.0197357751.099802447-.040350867.1541735305-.0617475737.0045919873-.0017586334.0089397199-.0035172669.0135805581-.0052759003.0537848723-.0211036011.1104030985-.0425980097.1696592748-.0647763313.0063994716-.0024425464.0125546886-.0046896891.0190518621-.0071322356.0596469838-.0220806197.1218830667-.0445520468.1865616961-.0674142814.0064971735-.0023448446.0128477942-.0045919873.0193938186-.00683913.0650694368-.0228622346.1323371654-.045822171.2020474405-.0689775111.0076207449-.0025402483.0151437878-.0050804966.0228622346-.007523043.0698568278-.0230576383.1416676928-.0459198728.2157257005-.0688798093.008206956-.0024425464.0163650611-.0049827947.024620868-.0074253411.0747419207-.0229599364.151095922-.0455290654.229697066-.0679027907.0078649995-.0022471427.0158765518-.0043965836.0238392531-.0067414281.0795293117-.0224714271.1604264494-.0443566431.2434730279-.0658510517.0076695958-.0019540371.0155834462-.0039080743.0233507438-.0058621114.0838281934-.0214944086.1688288091-.0423049041.2557834619-.0623337848.0073276393-.0017586334.0148018313-.0033218631.0221783216-.0048850929.0879316714-.0201265826.1769869141-.0394715503.2677030884-.0576440957.0060575151-.0011724223.0121638812-.0023448446.0182702473-.0035172669.0927679133-.0183679491.1864639943-.0357588797.2817233049-.0518796861.0000977019,0,.0002931056-.0000977019.0004885093-.0000977019-.0178794398-.0003908074-.0401066123-.0021494409-.0605263005-.0032241613.0201754335-.0035172669.0397646558-.0076207449.0600377912-.0110403099.0000977019,0,.0002931056,0,.0004885093-.0000977019-.0329743768-.000683913-.0705407408-.0026379501-.1116732227-.0059598133-.0105029496-.0007816149-.0228133836-.0023448446-.0338536935-.0033218631-.0324370166-.0030287576-.066339561-.0065460244-.103905925-.0114311173-.017097825-.0022471427-.0360031343-.0051781984-.0541756798-.0077184467-.0357100288-.0052759003-.0727878835-.0110403099-.1129433468-.0179771417-.0216409613-.0037126706-.0446497487-.0080115523-.0677562379-.0124081359.1573488409-.0339025444.3163586133-.0671211758.4812304971-.0942822921.0007327639-.0001954037.0014166769-.0001954037.0021005899-.0003908074h-.0001954037.0001954037c-.0124569868.0001954037-.0289686006-.0008793167-.0427934134-.0010747204,2.5406879428-.3742958145,5.0326715099.0495348415,5.6892279896.3184103523.7365743006.3013125273,1.512962108.5357969843,2.2968729585.7184994571.5740472614.1337538424,1.1511232803.2378063202,1.7206762562.3222207247.0122127321.0105518006.0159742536.0199311788.0299456192.0306783831l.0092328255-.025304781c.503848477.0737649021.9998808055.1316044015,1.4811113026.1759610446-.0005373602,0-.0046896891.0007816149-.0046896891.0007816149.0747907716.00683913.1458200217.0111380117.2198291785.0173909306.1260842466.0107472043.2542202322.0230576383.3777642305.0320462091.046457233.0035172669.0901788141.005471304.1362452397.0087931671.0721039705.0048850929.1417165437.0090862727.2127946448.0134828563.205125049.0130920489.405413856.024620868.6010129739.0340979481.0125546886.0005862111.0248651226.0010747204.0373709603.0016609316,1.4652836018.0692706167,2.6411743029.0493394378,3.179120728.0982880682h.0023448446c.5341360527.053345214,1.3922514636-.1115755208,2.3248645405-.3650141381.5892887511-.0816787525,1.5064649346-.4068305329,2.3369307199-.7436088344.1284779421-.0455290654.2562719712-.0908627271.3783992925-.1353170721.2226136814-.072494778.4420032015-.1445987485.6374557666-.2114268188.6876256702-.2355591775,1.1781378438-.4253938858,1.2628453539-.4902679189.0155345953-.0119196266.0284800913-.0230576383.043037668-.0346841593.0344887556-.0274542218.062187232-.0532475121.0908138762-.0792362061.2244211657-.1422539039.2555880582-.2923239564.1866105471-.4866529502-.0973599006-.2742491129-.487434565-.5317912082-.9148801898-.8186438606-.0811413923-.0680981944-.1738604547-.1354147739-.2833842365-.200288807-.0554458039-.0490463323-.1105496513-.0981903664-.1810903921-.1466504875-.4806931369-.3301345751-1.272371285-.6371138101-1.8373811245-.8044770913-.2259843955-.0669257721-.4157214019-.1116732227-.5347711148-.1265239049-.059500431-.0074253411-.1398113575-.0183679491-.2362430905-.0323393147-.3857269318-.0557877604-1.0294844682-.1599379401-1.6333796469-.2799158206-.4529458095-.0898857085-.8834690428-.1887599879-1.1659739626-.2829445781-.1522683443-.0508049657-.3194850727-.0894949011-.4923196579-.1231043399-.0278450293-.0052759003-.0554458039-.0105518006-.0837793425-.0154368934-.3111315639-.0551038474-.645369617-.0886155844-.9938232904-.1004375091-.4324772704-.0146552786-.8816615584-.0005862111-1.3178026485.0309714887-.4360922391.0315576998-.8591901313.0804086284-1.2392992063.1353170721-.1267193087.0183679491-.2487000772.0373221094-.3647698835.0565693753-.4643280758.0768913615-.8346669652.1577884992-1.0404270762.2156279986-.0514400278.0144598749-.0926213605.0274542218-.122371576.0385922336-.0604285986.0226668308-.1167537192.0401554633-.1751794298.0604774495l-.003419565-.0009770186c0,.0007816149.0002442546.0012701241.0002442546.002051739-.0555435058.0192472658-.1132364524.0413278856-.1666793682.0575463938-.1460642764.0441612394-.2800623734.067023474-.4078075515.0767936597l-.0209570483-.0172932287s-.005471304.0096724839-.0101121422.0180748436c-.1499723506.0072299374-.2896860063-.0074253411-.4065374274-.0775752745-.0666815175-.0400577614-.0883224788-.0812879451-.0836327897-.1244721659l.0241323587.0053736021c-.0078161486-.008890869-.0169024213-.0135805581-.0249139736-.0220806197.0068879809-.0237415513.0219829178-.0481670155.0451871089-.0736672003.1191962657-.1308227867.4347732641-.2869503543.7534767219-.4994518935.2231998925-.1487999284.4891931985-.2669214736.7851809745-.3590543248.7109275632-.22149011,1.5949828171-.2915423416,2.4748368912-.2799158206l1.087030862.0529544065c.369215318.0305806813.7234334009.0709315483,1.0479989701.1173399304-.0245231661.0132874526-.0507072638.0220806197-.0763051504.0327301221-.0319973582.0133851544-.0639947164.0251093773-.0974087515.0331209296-.02051739.0050804966-.0415721402.00683913-.0625780395.0094770801.0258421412.0043965836.038983041.0063506207.046506084.0073276393-.0154368934.002735652-.0309226378.0050804966-.046506084.0070345337.0321927619.0055690059.0579372013.0091839746.0579372013.0091839746.0404974198.0052759003.0789919515.0107472043.1189031601.0160231046.0919374475.012310434.1824582181.024620868.2706341442.0371267057.0894949011.0127989433.1778662308.0255978866.2625737409.0386899354.0913023855.0139713656.1793806096.0281381348.2640881197.0422072023.2672634301.0117242229.5101990978.0324370166.7263156056.0602820458.0166093157.0050804966.0263306505.0092816764.0414744383.0141667693-.0883224788-.0050804966-.180504181-.010258695-.2640392688-.0152414897-.064238971-.007523043-.1313601469-.0142644711-.2013146765-.0200288807.0203219863.0038103724.0381525752.007523043.0578394994.0114311173.0284312404.005471304.0472876988.0105518006.0743999642.0160231046-.0435261773-.0044942854-.0862707398-.0092816764-.1322394636-.0130920489.0203219863.0039080743.0381525752.0076207449.0578394994.0114311173.2910538323.0561785678.5147422341.1106962041.6282229411.1581793066.5699926343.2374155127,1.9725516438.4744402181,3.0004240314.560613256.2602288964.021885216.4975467073.0345864574.6899705148.0345864574.3312092956,0,.8435578342.0436727301,1.4045130467.1074720428.179136355.02051739.3622296352.0426957116.5472281016.0666326665.901788141.1162652099,1.8233120571.2649674364,2.2743038295.3615945731.682300919.1462596801,1.9150541009.2496282449,2.669117034.1852427211.166825921-.0141667693.3181660976-.0339025444.4260289479-.0662418591.079285057-.0237415513.1636506106-.0561785678.2504098597-.0940868884.0967248385-.0420117986.1965272855-.0934029754.2972090493-.1492884376.0789431005-.0439658357.1575442446-.0904719197.235852283-.1406906742.0087931671-.0056667077.0172932287-.0118219247.0260863958-.0175863343.0777706782-.050609562.1537338721-.1030754592.2277918798-.1580816048.0626757413-.046506084.1250583771-.0932075717.1832886839-.1416676928.0401554633-.0333163333.0754746846-.0673165795.1128944959-.1011214221.0234484457-.021201303.048557823-.0421095004.0706872936-.0633108034.0110891608-.0106495024.0223248743-.0210058993.0330720786-.0315576998.0075718939-.0074253411.0132874526-.0147529804.0206639428-.0222760234.0391784447-.0394715503.0755723865-.0787476968.1093283781-.1176330359.0630665488-.0728855854.1190008619-.1445987485.1588632196-.212599241.088224777-.1506562636.1742512621-.294668801.2613036168-.4416123941.1317021034-.2225648305.2622806354-.4413192885.3912959377-.6553840574.133998097-.2225648305.2670191754-.4420032015.3980373658-.6555794611.1366360471-.2225648305.2722462248-.4421986052.4056092597-.6553840574.1400556121-.2238349546.2784014418-.4429802201.4148420852-.6565564797.1434751771-.2247142713.2848009134-.4433710275.4242703144-.657044989.1467970403-.2250073769.2914446397-.4440549405.4337473946-.657044989.1509493692-.2258866936.299456192-.4454227665.4452273628-.6581197094.1560298658-.227645327.3082982101-.4459112758.4583682626-.6589013243.1609149586-.22832924.3177264393-.4469859962.4718022679-.6589990261.1601333438-.2205130915.3167982716-.4329169288.4694574233-.6363321953.177084616-.2360476867.349381841-.4615435729.5162566129-.6754129381.1782570383-.2285246437.3506519651-.4447388535.5171359296-.6491311385.1888088388-.2318465069.3694107217-.4475722074.5427826671-.6499127534.2019008877-.2355591775.3934453785-.4522618965.5740961123-.650205859.2224671286-.2438638353.4286180471-.4601757469.6182573517-.6513782813.2613524677-.2634042067.4919777014-.4804000313.6895308564-.6548955481.4483538222-.3958879249.7310052948-.5801536274.8367187042-.6253895873.0150949369-.0064483226.0361008362-.0183679491.052661301-.0261840977.2465017855-.1163629118.6477633125-.3748820257,1.0390103993-.6541139333.3097637379-.2210016007.6102457994-.4517733872.8130260038-.6291999597.0118707756-.0103563969.0222760234-.017097825.0340490972-.0271611163.3594451323-.3086401666.669306572-.4885092855.9672483852-.6602691502.0833396841-.0480693137.166142008-.0955524162.2486512263-.1458688726.3939827387-.2398580592.7213328109-.4750264292,1.0021767992-.7037464767.4000402539-.3257379916.6934877817-.6356482823.9014461845-.9205468976.1939381863-.2657490513.3155769984-.5085381662.3795228639-.7206488979.0436238792-.1447941522.0604774495-.2737606036.0580349031-.3865085467-.0004396584-.0742534114-.0200288807-.1298457681-.0365404946-.1887599879-.0055690059-.1135295579-.0306295322-.2102543965-.0723482252-.2839215967-.038983041-.0689775111-.0910092799-.1191962657-.1511447729-.1483114191-.0300433211-.0146552786-.062187232-.023936955-.0956501181-.0276496256-.2678496412-.0297990664-.8791701611-.0545176363-1.5716809242-.0669257721-.3463042325-.006155217-.7128327494-.0092816764-1.0669531304-.0084023597-.354120381.0009770186-.6957837753.0058621114-.9922112097.0158277009-1.1160483136.0371267057-2.4360981048.2031221609-3.8747579505.4586125172-4.3160283881.7662756652-9.699449565,2.338200844-13.8440600448,3.6565897036-.5526017037.1756679391-1.0831716387.3470369964-1.5862873518.5111761163-.5030668622.1643345236-.9787283535.3215368117-1.421366617.4691643178-.4426382636.1477252079-.8523510013.2858756339-1.2236180583.4121064332-.1030266083.0349772648-.1957456707.0666326665-.2927147639.0997535961-.4388767421.1420585002-.7434622816.2435707297-.8517159392.2851917209-.2391741462.0920351494-.7694509756.274835324-1.4690451233.4310605935-.0260863958-.0048850929-.0482158665-.0105518006-.0785034422-.014362173l-.0261840977.036247389c-.4140604704.0887132862-.8807822417.1665816663-1.3819439177.2108406076-.0720551196-.0401554633-.139469401-.0089885709-.139469401-.0089885709l-.0165604648.0189541603c-.5808375404.042402606-1.1984598301.0353680723-1.8222373367-.050609562-.0231553401-.0086954653-.0415721402-.0197357751-.0658999026-.0279427311l-.0140202165.0175863343c-.025988694-.0039080743-.0518308352-.0058621114-.0778195292-.0101609931-.0337559916-.0053736021-.0681470453-.0105518006-.1011214221-.0161208064-.6975912597-.1220296195-1.3922514636-.3568071821-2.0397705215-.7414593935-.0589630708-.0937937828-.0111380117-.1743001131.2685335542-.2021451423.1487999284-.0149483841.3044389867-.0383968298.4639372684-.0693683185.3189477125-.0618452755.6531857656-.1528057045.978386397-.2617432752.4878253725-.1635529088.9553776096-.3673589827,1.3207337042-.5737053049.2435707297-.1375642148.4417100959-.27620315.5701391871-.4046810921.7031114146-.7030625637,1.3057364691-1.3873663708,1.8201367468-2.042164217.1714667592-.2182659488.3331633327-.4332100344.485431677-.6446368531.0189541603-.0263795014.0348307121-.0513911768.0534917668-.0775752745.007523043-.0059598133.0172932287-.0107472043.0246697189-.0168047194.1051271982-.086173038.2003865089-.1755702372.2735163489-.2671168773.0566182262-.0707361445.2361453886-.3372668107.461494722-.7142005754.1451361087-.242691413.3081516573-.531204997.4729746902-.8478567159.1336072896-.2566627786.2657979022-.529153258.388999944-.8097529916.1109404587-.2527547043.2145532782-.5098082903.3009217199-.7648101373.0808482867-.2388810406.1436217299-.4734631995.1899812611-.7007177191.0447474505-.2195360729.0686844055-.4288134508.069710275-.6254872891,0-.0033218631-.0005373602-.0062529189-.0005373602-.009574782,0-.0015632297.0005373602-.0033218631.0005373602-.004787391.0003908074-.074546517-.0053736021-.1452826615-.0117242229-.2156279986.0007816149-.021885216.0039080743-.0477762081.004103478-.0687821074.0009281676-.0832419822-.0025890992-.1585701141-.0100144404-.2254958862-.0148995332-.1340469479-.0503164564-.2512891764-.1020007388-.3538761264-.0517331333-.1027823537-.1196847749-.1907140251-.1998491487-.265944455-.2403954194-.225593588-.5897772604-.3364851958-.9344694122-.3845545095s-.6846946145-.0332186314-.9064778301-.007523043c-.1968203911.0227645327-.390416621.0487532267-.5853806768.0733740947.1319952089-.031459998.2511914746-.0573509901.347281251-.0733740947,0,0-3.5712959824.3571002877-5.0593441169.7737010063-1.3617196333.3813303482-8.547446968,2.0116812376-13.2256072894,4.5202741204-.8660292613.4191409669-1.3806249426.7089246751-1.4763239116.7773159751-.1562252695.1115755208-.4966185396.1729322871-.8830782354.2029267572-.0419629476.0032241613-.0863684417.0040057761-.129210706.0065460244-.6982751727-.0166093157-1.7190641756-.1236905511-1.9237495662-.1457711708-.0178794398-.0148506823-.0339025444-.0304829794-.0400577614-.0488509285-.0074253411-.0223737253-.0055690059-.0474831025.0074741921-.0758166411.012994347-.0283335386.0371755566-.0599889403.0743999642-.0953570125.0481181646-.0457244691.1276963272-.1002421054.2233464453-.1594494308.0300433211.010942608.051928537.0180748436.051928537.0180748436l-.0188076075-.037615215c.0446008978-.0267703088.082704622-.0517819843.1378573204-.0814833488.2252516315-.1212480047.5814237516-.3743935164.9766277635-.6729703917.0441123885.002735652.087492013.0056667077.1330210784.0056667077.2380994257,0,2.2023464117-1.7855991403,2.2023464117-1.7855991403,0,0-.0142156202.0019540371-.0189541603.002735652.0106983534-.0097701857.0189541603-.0171955268.0189541603-.0171955268,0,0-.0528078538.0076207449-.1274520726.0158277008.1160698062-.097799559.2111825641-.1784035911.2677030884-.2268637122.1041501797-.0892994974.193498528-.1787943985.2558811637-.2667260699.0624314867-.0877362677.0978484099-.1737139019.0941845902-.2558811637-.0073276393-.1642368218-.1709782499-.313134452-.5881651797-.4297904694-.093012168-.025988694-.197602006-.050609562-.3120597316-.073862604-.2289643021-.0466037858-.4974490054-.0876385658-.792362061-.1236905511-.2949130556-.0359542834-.6161567618-.0668280703-.9504436658-.093012168-.1671678775-.0130920488-.3376087672-.0250116754-.5096128866-.0358565816-.3954482666-.0247185698-.797833365-.043086519-1.1900574704-.0563739715-.3149419363-.0384945317-1.0271396236-.098483472-2.0135864238-.0211036011-.3758590442.0078161486-.6568495853.0237415513-.7792700122.0467991895-.3605687036.0679027907-.7149333393.1472366986-1.0653410498.2322373143-.3634997593.0808971377-.7427783686.1798691189-1.136956511.3034619681-.0592073254.0185633528-.1177795887.0400577614-.1768892123.0591096235-.1172422285.0358565816-.2374643637.0692706167-.3528991078.1063973224-.866224665.2793296094-1.6814489606.5944180986-2.4260836645.9163457177-.248211568.1072766391-.4886069873.215334893-.7203557924.3231000414-.9271417729.4308651898-1.7170612875.8567475849-2.3233013108,1.2086696741-.3031200116.1759610446-.5603201504.3334564383-.7658360068.4637907156-.3082005082.1955991179-.5000381046.3301345751-.555825865.3747843238-.0715177594.0572532883-.1540758286.1318975071-.249530543.2094727816-.1426935623.0918397457-.2266683085.1477252079-.2266683085.1477252079,0,0,.0155345953-.0007816149.0276007746-.001367826-.0442100903.0295059608-.0906184725.0580349031-.1397625066.0849029138-3.8054384829-.2169958246-10.8034316992-.2469902947-11.792223344-.3216345136-14.1662319186-1.0713985649-28.3324149863-.2380994257-29.5228632641.1190985638-.8882075829.2664329643-2.041480304.4660378583-3.1631464744.5504522629-.0672677286.0011724223-.1386389352.0080115523-.2048319434.0080115523-.0053247512,0-.0130920489.0010747204-.018465651.0011724223-.1464550838.0048850929-.2978441114.0170001231-.4400980153.0170001231-.0105518006,0-.0257932903.0021494409-.0365893455.0021494409-.1402998668.0042988817-.2859244848.016413912-.4224628301.016413912-1.0926975698,0-3.2957278945.4879230743-5.072289613,1.0369098094-.3744423673.1073743409-.7467841447.2189498618-1.1145827857.3328702271-.0010747204,0-.0023448446-.0007816149-.003419565-.0007816149l.0022959936.0011724223c-.1027335027.0317531036-.2073721917.0630176978-.3088844212.095063907-.1149462349.0363450908-.2246654204.0727878835-.3377064691.1093283781-.7481519707.208495763-3.5372957361,1.1372496166-4.1769497945,1.5800344329-.0226179799.0156322971-.0510980713.0317531036-.0743022623.0474831025-.0908627271.047189997-.1720529703.0922305531-.2295016623.1320929108-.0206150918.0142644711-.0457244691.0301898738-.0671700268.0447474505-.0944776958.0483624193-.1788432494.0944776958-.2371224072.1348285628-.0220317688.0152414897-.0509026675.0338048426-.0744488151.0498279471-.0918397457.0467014877-.1736162001.0912535345-.2297947679.1301388737-.0122127321.0084023597-.0298967683.0199311788-.0427445625.028724346-.6577777529.3212437061-1.3406160321.6352574748-1.8636140732.8650522427-.9304147851.2950596084-3.5221030974,1.1943075011-8.2523873596,6.3644943749-.1892484972.2067371296-.399942552.3955948194-.7039418804.522998041-.0531009593.0100632913-.1079117012.023936955-.1581793066.0313622961-.1013656767.0148506823-.1943778447.025988694-.2687778089.0408393763-.0626268904.0125058377-.1057622603.0484601211-.156567226.07523043-.2690709144.058816518-.47927646.205760111-.4386813384.936667704.0078649995.1417653946.0194915205.2785479946.0347330102.4108363091.0394715503.3986235769.1339492461.7731147952.2033664155.9582598144.1785989948.4761988515.639898313.6547001444,1.0565478826.7142005754.2605220019.0372244076.4919288505.0275519237.6375046175.0153391916.0432819227.0029310557.096431733.0059598133.1505585618.0090862727-.1527080026,1.231336505.8470262501,1.6054369158.9361303438,1.6359198952l.0168047194.1848519136c.0081092541-.0407416744.0063994716-.0828511748.0086466144-.1246675697.0093305274.1291618551.0271611163.2493351393.0568624808.356220971.0053247512.0513911768.02051739.1107939059.0535406177.1850473173.0171955268.0386899354.0469945933.072494778.0721039705.1080582539.2514357292.4458135739.7215770656.6281252393,1.2485320318.6360390897.2492374375.0037126706.5096617375-.0297990664.7626118456-.0892994974.0575463938-.0134828563.1264262031-.0203219863.1891996463-.0308737868.095063907-.0087931671.1883203296-.0152414897.2869503543-.028724346.1383946806-.0188564584.2743956657-.028724346.4093219303-.0363450908h.0005862111c.5437108347-.010942608,1.1336834988.0446497487,1.6215577222.1328745256.3957413722.0851960194.7098528427.1891507953.8851299744.2606685547.1636994616.0967248385.3524594495.1748863242.5575356475.2375132146.5126904951.1566160769,1.1270886235.2166050172,1.7051905119.2291108549.2312114448.0048850929.4566096291.0023448446.6674013858-.0048850929.2107429058-.0070345337.4068793839-.0186610547.5795185654-.0316554017.4315979537-.0322416128.7163988672-.0729832873.7163988672-.0729832873,0,.1190985638.0520750898.2232487435.1395182519.3143068743.2185590543.2278407307.6579731566.3743935164,1.0567432863.4685781066.0797735663.0187587566.1578862011.035563476.2322861652.0504141583.1487999284.0297013646.2901256646.0557877604.4268594137.0818741562.4101035452.0781614857.7784883973.1562252695,1.1802384337.3347265624.1339492461.0595981328.2566627786.093012168.3784969944.1061042168.3655026474.0390807428.722651786-.1061042168,1.3476017149-.2846055097.8333479901-.2380994257,2.6189959813-.2380994257,2.6189959813-.2380994257.1190497129.0744488151.2802089261.1278917309.4630579517.1639437162.5484982257.1084490614,1.2922536129.0607705551,1.6797391781-.0449428543.3273500722-.0892994974.6398494621-.0445520468.9746737264.1190985638.0837304915.0409370781.1687311072.0892017955.2558323128.1448918541.1741535603.1110870115.356220971.2510937727.5508430703.4179685447.0973110497.0835350878.1977485588.1737139019.3018987384.2704387404.8332991392.7737987082,2.916595838,2.0832966988,3.4522462695,2.4403969865.2678496412.1785989948.6398494621.4316468046,1.0193234751.7366720025.1496303941.1202709861.2978441114.254317934.4438595368.3894396024l.0248651226.064287822c.0093793783-.0070345337.0131897507-.0160231046.0218363651-.023253042.2073233408.1952083105.4055115579.4002845085.5734121993.6185504573.0147529804.0192472658.0425980097.0378106187.059500431.0569601827v.0025402483c.0007816149,0,.0014655279-.0003908074.0022471427-.0003908074.5814237516.65499325,2.3718591338,1.2697333348,3.2883025533,1.5211202131.1348774137.0370290038.2505564125.0661441573.3402955683.0863684417,1.6555579685.3731233922,3.276236374.6361367915,4.8204142254.8213795126.0707849955.0617475737.143572879.1222250232.2177285885.1778173799.1572022881.0183679491.3095194833.0323393147.4649631379.0490463323.3537295736.0379083206.7027694581.072494778,1.0466311441.1025869499.5029203094.0440635376.9939209922.0801155228,1.4725135392.1090352725.7084361658.0427934134,1.3869267124.0706384427,2.0318566711.0859776342.905891619.0212990048,1.7412424972.019833477,2.4931559894.0030287576,1.0249413319-.0228622346,1.8923384191-.0712246538,2.557688066-.1239836567.8401871201-.0664372628,1.3668489808-.1377596185,1.4804273896-.1660931571.3939338878-.098483472.5819611118-.1980416643.6359413878-.3639394177.0112357136-.0346841593.0188076075-.071126952.0188076075-.1122594338,0-.0908627271.0254513338-.1641391199.021201303-.2237372527.0000488509-.0365404946-.0123592849-.0680004925-.0424514569-.0952593107.0001954037-.0012701241.0004396584-.0028333539.0006350621-.0042011799.0032730122-.0226668308.0053247512-.0438681338.0042988817-.0635062071-.0010258695-.0196380733-.0052270494-.0378106187-.0145087258-.0545176363-.0371755566-.067023474-.1562252695-.1115755208-.4836241926-.1413745872-.3273500722-.0297990664-.7886982414-.1041501797-1.3094979906-.2455247669-.2604243001-.0707361445-.5356504315-.1580816048-.8165432707-.2650651383-.2808439882-.1069835335-.5673058332-.2335074385-.8500550077-.3823073668-.5654494979-.2975998567-1.3690472725-.6547001444-2.09072204-.9523000011-.7217236184-.2975998567-1.3615730805-.5356992825-1.5996725062-.5951997134-.3571002877-.0892994974-.5654494979-.2083003593-.7291489595-.3348242643-.0818253053-.0632131015-.1525125989-.1283802402-.2250562278-.1924726585-.0362962399-.032143911-.0729832872-.0639947164-.1118197754-.0952593107s-.0797247154-.0620406793-.1243744641-.0917420438c-.0892994974-.059500431-.1711248027-.1152881914-.2436684316-.1655069459-.0811413923-.0562762697-.1469435931-.1028800555-.2022428442-.1424493076l.0292617062.0103563969s-.0212990048-.0195403714-.0533940649-.036931302h-.0001954037.0001954037c-.0069856828-.0048850929-.0159742536-.010942608-.0230087873-.0158277008-.0297990664-.0209081974-.0645809275-.0443566431-.0955035653-.0659487535.8867909059.044454345,1.7597081481.0804086284,2.6172861988.1086444651Z"/>
  </g>
</svg>