<?xml version="1.0" encoding="UTF-8"?>
<svg id="Layer_2" data-name="Layer 2" xmlns="http://www.w3.org/2000/svg" viewBox="0 0 81.5203687391 18.8935519337">
  <defs>
    <style>
      .cls-1 {
        fill: #aad7ab;
      }
    </style>
  </defs>
  <g id="Layer_1-2" data-name="Layer 1">
    <path class="cls-1" d="M1.3740606178,7.499804007c3.4430320261-.7949239067,6.959034164-1.0471961583,10.3941493929-1.8548063087,3.3113517212-.7790418916,6.6115666636-1.7373859229,9.9562318799-2.3196457742,3.2367837237-.5632789064,6.381519549-1.8564041944,9.6960428312-1.8706883238.5933966301-.0015978857,1.7548416132.3744378736,1.9706288089-.2379881222.2253018784-.6425921402,1.4422612831-.7425810461,2.0927702205-.9202853,1.1963563638-.3284381348,1.4597411838-.4743783587,2.5624517637.0460481595.618793328.2919288685,1.4359181613,1.4359181612,1.9626878013,1.5231724026,1.0027700948.1650180102,3.639789856.0047452362,4.0475412247,1.0836570038-.4870888128.0127346645-.9773733969.0254209083-1.4644622097.038107152.474402569.3696926374,1.293125288.5235738687,1.592995164.9741776256.3680947517.5505926627,1.0820833286.2126156347,1.6675631615.3760357592.5331127619.1491844159.8932907165.4617405357,1.4502022906.5426516551.9266042115.1333024009,1.8516347478.266556381,2.7782389593.3998587818,2.8115282439.4030061324,5.3470096345-.004793657,8.17918934-.3268886699-.5204265182-.1951357339-1.0376814754-.388722003-1.556510108-.5822598513.7441305109-.4903087945,1.7706994179-1.7437290448,2.6592206878-1.8056107986-.0174556903.1919883834.1158225001.4030061324.088852127.5949945158.5235980791-.3522611574,1.1852437953-.8298352874,1.8008655624-.4204860331-.088852127.515681282-.5093139497.5172307469-.9393146657.6457879115,2.1134216821.4616921149,3.8666896201.9170895287,6.029282602.4807214805,1.8294096108-.366496866,4.0380265418-.4267807342,5.8912349649-.2538217165,1.9817413773.1855968407,3.8936599933-.6616699266,5.8928328506-.2871836322,1.0741665314.1998809701,1.9753740451.4014082467,2.8337533809,1.0963432476,1.2518707854,1.0122847776.1666158959,1.1582734222-.9361188943,1.3803795293.1237635077.2554680229.2475270154.5109360458.371290523.7663556479-.7520957289.3395749137-1.61204874.6489352621-2.3022385046,1.1027347902-.385550442.2538701372-.5664504673.510887625-1.0122847776.6425921402-.4204618227.1253613933-.793326021-.0301177237-1.1979300391.0650775252-.7552430794.1761063683-1.5675984661.5521421276-2.1689603141,1.0535392801-.704473894.5838577369-1.4771726638.6869939933-2.2070190453,1.2946747528.7504736328.5537400132,1.5104861588.9615398026,2.4085221115,1.2280961836.9853144044.2935267541,1.6406169988-.5410537695,2.4133157685-1.0726170665-.0761658832.2856341674-.1507338808.5712199139-.2253018784.8568056605.4014082467-.1078814926.8012428182-.2173608709,1.2010773896-.3252423635-.2697279419.6409942546-.9012075136.9472072524-1.4422612831,1.3311840192,1.1630186584-.5426516551,1.7373859229-.8678940186,3.0019429521-.7504736328-.6092786452.6679646277-1.7849835473.9075506355-2.6068536168,1.2249004122.6171954423.2046746271,1.2344150951.4093492543,1.8500368621.6124259957-.9869122901.3347812567-1.4946283541.4490542919-2.5259667077.3522611574-.8028407038-.0745679976-1.5326870854-.4363196274-2.3514098043-.5109360458-.6917876503-.0634312187-1.4628885344.0460481595-2.13881838-.0554902112-.8520120036-.126959279-1.3994088949-.7917765562-2.1023091137-1.2264982979-.6346511327-.3950651249-1.2359887703-.8456688817-1.8674925524-1.237586656-.9678587141-.6029355233-1.3105567679-.4680836576-2.4037768753-.1824494902-1.6501074712.4315259704-3.2335879523,1.0027458844-4.9011511139,1.393065773-3.2304406018.755218869-6.874975694.6996802371-10.1879010905.6552783839-1.9325458672-.0253724875-3.3986059626-.0412545026-5.229613459-.6013376376-1.6929598594-.5172307469-3.2589846502-1.0218236708-4.6663345527-2.1150195678-1.3661196103-1.0614802877-2.6275050785-1.4914567932-4.1935298693-2.1165690327-.7060475693-.2840362817-1.6104508543-.7949239067-2.383149624-.5632789064-.9091485212.2744973885-1.5644269051.9424620162-2.2578124411,1.5739657983-.5553136885.5077402745-.918663204,1.4533496412-1.500971476,1.8436695298-.7155622521.4791720156-1.4660600953.9313736581-2.153078299,1.4502022907-.7219295844.5426516551-1.4470307297.9170895287-1.7484984914,1.7802383111-.2570174878.7346400385.0031715609,1.4708295419-.3093845588,2.2609597917-.2015030662-.4140944905-.4030061324-.8313847523-.6029355233-1.2470771284-.1951599443,1.6628179253-.299869876,2.6338482003-1.7484984914,3.6080258259-.2094198633-.7647577622-.3204971273-.9520009094.0888763374-1.6295044303.366496866-.6076807595.6774793105-1.0662255239.9567461456-1.7389353878-.4934561451.5061423888-1.13447461,1.4136930243-1.8262380499,1.5834562707-.7457283966.1809000253-1.8674925524.8456688817-2.6052799415.5981902871.5378579981-.3617516298,1.0630539629-.7156106729,1.6358233418-1.0186278994.6235627746-.3316339061.9297757725-.8250900512,1.4565454125-1.2883800517-.9376925696.5045445031-3.8269845824,2.1166174535-4.7409025502.8980601631.5315148763-.6695625134,1.767527857-.6394447897,2.5307119439-.9107464068.8044143791-.2840362817,1.4184624709-.7203559091,2.0420252455-1.293125288-.7727229801.2014788558-1.1328767243.2982719903-1.8992323722.0983910202.8155269476-.5473968914,1.5977646105-.8266879368,2.4212325657-1.2852327012.6045091986-.3347812567,2.1863917941-.7203074883,2.6147946243-1.1629702376.6806750818-.704473894,1.5438238643-1.3947120795,1.8214928137-2.3720854764.2395617975-.8393257598.7473020719-2.1943328016,1.4533496412-2.7147593198-2.3656939337.5775630358-4.8091274259.1729590178-7.2224189841.4791720156-2.2990669437.2919772892-4.6536483089.4490542919-6.966999382.5886513939-2.3847475097.1427928733-4.8424651313.7473262823-7.2192716335.7108170159-2.0594567255-.0301177237-5.71035915,1.1074800264-7.3763486362-.172910597.4569710891-.2538701372.9155158534-.5077402745,1.3740606178-.7632082973"/>
  </g>
</svg>