<?xml version="1.0" encoding="UTF-8"?>
<svg id="Layer_2" data-name="Layer 2" xmlns="http://www.w3.org/2000/svg" viewBox="0 0 90.0901943035 64.708787072">
  <defs>
    <style>
      .cls-1 {
        fill: #bfbfbf;
      }
    </style>
  </defs>
  <g id="Layer_1-2" data-name="Layer 1">
    <path class="cls-1" d="M90.0901943035,21.4499040829c-13.661986887-1.7998648842-30.3821509387,2.2961986522-43.3528245648-1.6860050748-2.9151539422-.6145828197-5.8748816537-1.1988604343-8.8207608629-1.6873716183-2.7423239021-.2879733482-6.99447017-.4444571802-9.19580535.9374260303-1.9490905399.0376242199-3.6811479386-.7881808499-5.6303632095-.7502762086-3.0191688298.0286581432-6.6538443376,1.8000662925-9.1959390607-1.687603125-2.5101036303-4.605629116-1.1443823223-10.6213699059-3.5660552352-15.1809425128-1.7467597799-1.9173880618-5.6749375558-1.8617116377-7.3191363916.1874212059C1.5122205228,2.1093153403-.1148236981,3.5367574826.006382976,5.331054243c1.1130027188.7417674145,2.1889973945,1.9749525785,3.7535369328,1.6866932086-.8207009408,1.1926806926.9904209603,1.5072349206,1.8767978561,1.4996204823,1.2981384175,1.0856745174-.539572006,2.028513602,2.2523179296,1.6864214249.2541602563,6.6123098847,3.8186498153,12.9656312139,9.3833732654,16.6813811273,2.2152855662,1.1301155806-.2867811735.5877300335-1.3136745843,1.1251736093-4.8577997122,2.5321274233-2.1695469615,3.7022989163,1.3139016959,4.8724627459,1.0833970164.2219127817,1.2769523843,1.446717156,1.8764338239,2.0619289467.9752454273,1.0251218946,2.1234694517,1.8008678556,3.3783037713,2.249324422.9265090669.9198337815,3.5200905835-.5076337935,3.002691853.9364485604-1.4818264125,4.3815559674-2.3389842219,9.1222492543-4.8794214696,13.1204320878-1.7879949448,3.6829164132-3.6782992989,7.5531563287-7.1317514924,10.1209755302-2.1285383371,1.2049122934-5.0732783535.830196479-6.9440072683,2.8113944024,1.2113060264.3703753523,5.1855426984.8683264138,7.1317130067.187657565,1.4196207484-.1846671516,2.1698166075-1.4996004424,3.002805176-2.4368664816,2.132762127-.5529895029,3.1191565973-2.5266052887,4.1286002354-4.3109419467.253181107-.8716091962,1.4943612876-1.4576991861,2.2521970689-2.061704547.8133574807-1.1659427027,1.7515532917-2.3457114635,2.0646411421-3.7481963938,1.527982883-3.4156265087,1.8751771366-7.9110439253,5.6302365543-10.1210589118,1.0368396489-2.0791936481.4140222857-3.8844165793,3.1908018474-5.435357625,7.4392321809-3.2659472592,7.5983684202,5.5063084542,14.6382812382,4.6855889962,6.1467308321-1.1218398662,12.4928563024-5.4747897704,17.6410207827.7501871234,2.5174336249,2.8180893856,4.8626142072,6.0949882789,8.4455515326,7.496471344,1.3816268172.5732890655,7.6793314462.2569759462,4.1292172294-1.3123409592-2.359587679-.5804894192.5490686255-.7196139281-1.3141359555-1.8736007686-2.1528702568-1.3687192943-4.9489977632-1.2660728266-6.9437355664-3.186713354-2.1259199341-2.436034225-3.7574438812-5.5145678089-6.1929514938-7.6846381075-1.168887468-1.6333060623-3.2278103783.2857771278-4.8799207251-.1874920539-2.7235854901.2941541332-5.6670609204-.9282850933-8.4452732867-1.1242037732-.8168315427-.7145905664-6.3792491589.2296622764-3.1905978124-1.3119820053,2.4157455619.591965835,3.7722385549-1.5277383926,5.6303100068-2.6242457163,2.6426506587-1.7978783413,5.8375597852-3.1206863864,9.0082240237-3.5611701687,5.0603733329-1.9093192979,27.2047792615-1.322232824,27.5883240098-4.8727989243Z"/>
  </g>
</svg>