<?xml version="1.0" encoding="UTF-8"?>
<svg id="Layer_2" data-name="Layer 2" xmlns="http://www.w3.org/2000/svg" viewBox="0 0 45.959018644 54.6655366781">
  <defs>
    <style>
      .cls-1 {
        fill: #f2cc0d;
      }
    </style>
  </defs>
  <g id="Layer_1-2" data-name="Layer 1">
    <path class="cls-1" d="M45.959018644,10.1089447957c-5.1397015362-.0383055069-10.4582135913,2.3970449122-13.7130609222,6.3648286493-3.7114946528,3.3808820055.5322752902-9.1415163052,1.6905323348-10.4827278956.8494046597-2.212363342,2.9714557665-4.0346305433,4.1328489857-5.9910455494-1.2793388133.40200977-2.7008232129,1.3696686684-3.7568119539,2.2461396943-3.9688568458,3.7127636856-6.7207532147,9.1437321747-6.9509549513,14.6020138685-5.0726346647,3.1968883522-1.1369985536-9.2691320472-12.0318471688-14.4187070914-6.9813949381-3.5441830572,4.7548888115,3.7556920357,5.6443338061,12.557075867.7969635214,6.1829607251-4.3355165092.1612247723-6.9579526018-.5769990809-1.5665337545-1.7679569133-13.4760750229-3.0093062032-8.4356749549-1.1140350278,3.8833830577,1.3144874972,7.3902948265,3.6297177645,10.2923357466,6.17982851-2.925119923.8422258654-6.1338657719.5356374766-8.9860514002,1.4914392747.0875943311.6408395146,3.6897156942.594435401,2.6220038713,1.1308069466-2.1603360965,2.5808981828-4.3781241738,5.060448551-5.6309109349,8.051696291-1.7651967545,4.8648362749-.7009692293,10.2820369846-1.4172877354,15.0949630607-.8521438067,1.6096788558-.0909397433,3.6857363194-.4746465569,5.1464443345-.5393887528,1.4722054742-3.7227869795,4.5518745466-.7003976835,4.0741437388,1.7319302238-.3421958279,3.5267844852.2174493595,5.2536394501-.1752645734.2734471613.0981364597.0757612052-.3654681159.3462285584-.1576476114-.004471211.2613776716.2591078404.2258574068.2286483612.3454155255,1.1204875106.0071095141,1.7796066238-.1616600258,2.6192964225-.0007278463.8323083763.5318421539,1.6211074991-.2327015857,2.4205826924-.1872950353.4712326731.305024662,3.5189101718.3569687059,3.1690871466-.5937316552-.4835420278-1.1414550489-1.4109803591-1.5379744058-1.6906262358-2.6214089444-.2551445517-.2525062815-.4912235828-4.7767400227.220050521-3.3050213878,1.9791105233,1.9135345875,4.5275363892,4.0769119808,7.2937477227,4.1189374907-.1807290273.9412767333-1.5817436434,2.508016637.0544405589,2.20435685,1.8138744155-.1499545872,2.8880104459-.0989317204,4.3230429352-.1778250079,4.251910047.3403840761-2.0323712743-2.1201554894,1.6743540916-8.4003420608,1.1528370703.6061672944.9055949508,2.28870927,1.8782933415,2.9953436961,1.9391314839,1.5717084311,1.5928443107,3.91752035,1.3312901889,5.5924191417,1.7267852573-.388728792,8.0202286224.7201777104,7.6621000217-.7483456745-2.9830871519-2.92693183-3.0961128863-3.4636358727-4.1513651009-7.706564047-.5312696382-.7051677801,1.6628557082-2.7505512741,1.52058329-4.1263039007.1119431907-1.7463992456-.6184480722-3.6279495657-1.0880369471-4.828821592,1.8333688383.2922532399,2.236194064-1.1548913297,1.072113928-1.9048313592-.7387103063-.6142415099-.3814747969-1.5842903365.4281408859-1.0905605065.8550128249-.0612668323,1.1265103158-.7903809272,2.2182886107-.561084649-1.2301466448-1.0718539844-.9932869815-2.3584328599-.5268404609-3.7445394797.6358523967-.0131166634,1.8471735201.0282096806,1.2455132521-.5777655776-.4875568928-.5622517302-1.2725317115-.3325078344-1.2725317115-.3325078344-.3260803223-.7176361084,1.7118835449-1.3737030029,1.049407959-1.5573348999-1.9266967773-.5340652466-.9735222086-1.0995498431.256058849-1.3354128153-.5844772836-.9065513898-2.6735044546-.7969311389-.485093336-1.6452324311,2.9274694103-.4792932413.0253283653-1.2052464091-.8301449867-1.3687495497-.1366812572-2.5946812829-.6712548024-.1972361651-.7510977595.1959278262-1.7533488271-2.0296492152,3.7444483372-4.0326221658,5.1521141964-5.0178750205,3.3157609003-1.115061385,1.0739600396-.9035536813-.525818889-.8920891244-2.4116902687.2305842481-4.6161346716,1.5375652801-6.5736717095,2.6094507098.0899437962-3.3534409788,7.5636040294-7.4752827744,11.1517462725-9.3604342463ZM8.2010230385,44.1802338582c-1.1157669603,2.44812489,1.1181442699,5.7783069906-.1878378101,8.0497070821-2.4189388107,1.4671130405.3311437227-12.0601356859.1878378101-8.0497070821ZM20.599277433,46.2394379597c-.1618784519-3.3584716881,1.6536288043-1.9881976155.5630859463.5625758955.6971928599,3.914590962.0796253517,1.4084251236-.5630859463-.5625758955Z"/>
  </g>
</svg>