<?xml version="1.0" encoding="UTF-8"?>
<svg id="Layer_2" data-name="Layer 2" xmlns="http://www.w3.org/2000/svg" viewBox="0 0 128.6073249191 43.5280544716">
  <defs>
    <style>
      .cls-1 {
        fill: #a1938f;
      }
    </style>
  </defs>
  <g id="Layer_1-2" data-name="Layer 1">
    <path class="cls-1" d="M121.3674697442,37.670828514c-.1223765857-.3718218172-.4141939918-.7248753943-.7138394777-.7436436344-.1647248213-.0110119776-.3482896999.0595604353-.5224465193.1662329834-.2494452315-.1097367506-.503606462-.2242613175-.7609037123-.331029622-.0344962167-.4377021701-.2541372915-.8518482837-.6573432448-.8785642989-.2635692897-.0172361388-.5977349313.1036083457-.856612161.2950252431-.1741328804-.0643482517-.3545617393-.1286965033-.5318306394-.1914168974.0015560403-.4597261253-.0831643699-.8848842165-.4597021862-.9099723741-.2823854079-.0188639964-.6385271266.2008010174-.8785642989.4910384441-.1725768401-.0501763153-.3482896999-.0894364093-.5240025597-.1380806233.0188400573-.5004225642-.1004005087-.9068124154-.5679307746-.936592633-.3828098557-.0250881576-.8691562398.2039609762-1.095069354.5553866958-.1459087031-.0266202589-.2933734464-.048644214-.4392821495-.0737323717-.0219521379-.4957305042-.1882569386-.936592633-.6526511848-.9663728507-.428294111-.0282481164-.9648646885.3043136068-1.2064579012.7310037993-.1521807425-.0125440788-.3043614849-.0313123189-.4534062077-.0391643377-.0423482356-.4016020348-.2039609762-.6949994203-.5569427361-.7170233755-.379673836-.0234603001-.8424881028.2746291454-1.0307450414.7060113979-.1286486251.00469206-.26043327-.00469206-.3890818951.0063199176h-.0407921953c-.0580522732-.3420415995-.2588772297-.5946467898-.6589232242-.6212670487-.4659742256-.029875974-1.0135089026.2666813703-1.1578376262.6871474015-.0690403117.0015321012-.1349206646,0-.1992449771,0-.0768683914-.3231776032-.3012254652-.5600787558-.6573671839-.5836348122-.3780938566-.0250881576-.7655957723.207120935-.9224925139.5443747182-.1380566843-.0078520188-.2823854079-.00938412-.4188860518-.0203960976-.0611882929-.3953778736-.2902374267-.7468035932-.7546316729-.7749559533-.4094779927-.0267160152-.8785642989.2117172387-1.1342815698.5271385794-.1270925848-.0235560564-.2588772297-.039260094-.3843898351-.0675082104.0157040376-.5004225642-.1694168813-.9115044754-.6698873236-.9429125506-.374981776-.0250881576-.8158199658.1757128598-1.0511650781.4895063429-.1176605866-.0376322365-.2369011526-.0690403117-.3561177796-.1113646081.0015560403-.0314080752.0141240582-.0628161504.0125440788-.0972884281-.0439282149-.4487141477-.0407921952-.8800964002-.5051864414-.8236959236-.2478652521.0314080752-.5836108731.197736815-.8299200849.4157739712-.0423721746-.0172361388-.0831643699-.0376322365-.1239326261-.0533362741.0062720394-.0564962328.0235321173-.1098325069.0188161182-.167860841-.043928215-.4487141477-.0392122159-.8785642989-.5051864414-.8205359649-.2400371724.0267160152-.5553627567.1835648786-.8016959075.3875258548-.1286246861-.0643482516-.2619893103-.1302286045-.3937739551-.1961089574.0015560403-.00938412.0078520188-.0188639964.0078520188-.0282481164.0282241773-.4502462489.101956549-.8754043402-.3639937375-.9051845578-.2541612306-.0157040376-.6102790102.0909685105-.8911083778.2619893103-.0392361549-.0235560564-.0721763314-.0407921952-.1113885472-.0643482517.0156800985-.0564962328.0454842553-.1129924657.0502002544-.1788728186.0282481164-.4517783501.1004005087-.8754043402-.3639697984-.9051845578-.2855453667-.0188639964-.6997154195.1160566682-.993112805.3231776032-.0721523923-.043952154-.1506007631-.0957563269-.2259131141-.1396127246.3059414643-.5444704745.6699112627-1.2488540149-.0360761962-1.2018376584-.4204660312.0267160152-1.0103489438.0737323717-1.4904232885.2667771266-.0235321173-.0141719364-.043928215-.029875974-.065904292-.043952154.3388816408-.596178891.6495151651-1.2739421725-.0298041567-1.2189780409-.4141939918.0281523601-.9868168264.0799565329-1.4810152294.2729055316-.065904292-.0407921952-.1302286045-.0815843905-.1945529171-.1207487282.2682852888-.6338111275.5193104996-1.3696027431-.1160806072-1.3037223902-.4016259739.0423242965-.9601486894.1035125893-1.4135548971.335721682-.0502002544-.0267160152-.0988444684-.0580283341-.1506247021-.0909685105.4032059533-.5883268722.7844358296-1.2551739325.1443526627-1.3178943266-.5083224611-.048644214-1.2692261734-.1176845257-1.8497010269.1929489986-.0753123511-.0517084165-.1521807425-.1003526305-.2274930935-.1536889046.4078980133-.5600787558.8675762604-1.2582381349.2008249565-1.3272784466-.4926303931-.0518041728-1.2268659684-.1223765857-1.7822526641.1506247021-.1051045383-.0815843905-.2070850264-.167860841-.3090655145-.2526051903.3263255924-.630746925.7828678198-1.528079464.0533482436-1.4810631075-.417318042.0267160152-1.013496933.0658803529-1.4920032679.2933973855-.0580403036-.0501763153-.1176605866-.1019804881-.1741448499-.1521568034.4392821495-.542842617.9680007082-1.2393741385.3059294948-1.3351304654-.4737903358-.0690403117-1.1782217543-.1615409234-1.7367325003.0753602292-.0251120967-.0235560564-.0486442141-.043952154-.0753123511-.0675082104.4785063348-.5585466546,1.0856612949-1.306882349.379673836-1.4103949383-.450270188-.0643482516-1.0997853531-.1444005409-1.6598760784.0266202589-.0517682642-.1693929422-.0878564299-.340413742-.1662928311-.508274583.3420056909-.5490667782.6244030684-1.139021508.070596352-1.2002098009-.4847783743-.0501763153-1.2299900185-.1302286045-1.761844597.2290491338-.0470642347-.043952154-.0925604595-.0862764505-.141192704-.128600747.4267261011-.6542072251,1.0370170808-1.5845756969.3325976318-1.6551481098-.5145945005-.0533362741-1.3084383893-.1255365445-1.8700971245.2902374267-.0454962248-.0407921952-.0925604594-.083212248-.1396246941-.1223765857.4330101101-.591486831,1.0166209832-1.4041707771.287101407-1.4810631075-.5114584809-.0533362741-1.2880422917-.1302286045-1.859109086.167860841-.1004124782-.0831164917-.2070969959-.1583809646-.309077484-.2399653551.335745621-.6526751239.8346480535-1.6065996521.0721763314-1.5594875392-.4690982757.0297802177-1.1421455582.0799565329-1.6551600793.3671297572-.0611882929-.0424200528-.1208085759-.083212248-.1819968687-.1270686457.3828098557-.7656675896.8707242497-1.7838446131.1019804881-1.7022602226-.5114465113.0548683753-1.2723502236.1412405821-1.8387129884.5443747182-.1019804881-.0627203941-.2118010255-.1302286045-.3169175333-.1929489986.2902374267-.7985120097.6542191947-1.859109086-.0439282149-1.7586606991-.5130145211.0767965741-1.2958823409.1944810999-1.7791046749.7184597204-.064312343-.0344722777-.1270686457-.0690403117-.1929609682-.1003526306.3106335243-.8550082425.7357916156-2.0473660246-.0094200287-1.9313093564-.5851908525.0957563269-1.5045473467.2494452315-1.989325721.975852727-.0517682642-.0219281989-.1004124782-.0454842553-.1553167622-.0675082104.331029622-.7875000321.8926883572-2.0300341294.0533362741-1.9014333825-.6651952636.1019804881-1.7351644904.2636171678-2.2136708253,1.0589692187-.0627563027-.0203960976-.1239445956-.048644214-.189836918-.0690403117.3278936022-.8534761413.6683432528-1.8700253072.026668137-1.705324425-.5443986573.1427726833-1.3962948192.374981776-1.8951972517,1.1295416316-.0203960976-.0062241612-.0392241854-.0140761801-.0549042839-.0172361388.1992449771-.8613281601.5130145211-2.1399623927-.1710088302-1.8622690448-.5302865686.2149729538-1.3649226526.5617066134-1.7226204116,1.3696984994-.0423602051-.0110119776-.0847204102-.0188639964-.1223765857-.0282481164.2447412019-.9240485542.6149950093-2.273350956-.1866889288-1.9846456305-.6354030764.2322090926-1.6504560498.6071908686-2.0693421016,1.5013634488-.0125560484-.00469206-.0266801066-.00469206-.0407921953-.0077562625.1521807425-.9366883893.4157500322-2.3863434217-.3765378163-2.0834661598-.6510712054.2478173739-1.7006563041.6572714276-1.9595215642,1.6849283274-.0219641075-.0031599588-.0423482356-.00469206-.0627443332-.00938412.1584527819-1.0355089187.3529937294-2.4318276769-.4141820223-2.1117142762-.6557872045.2730012879-1.717916382.7216196792-2.022277867,1.8136248307-.0925604594-.0125440788-.1851328884-.0250881576-.2776933479-.0329401764.1961089574-.9256764118.4690982757-2.2309309032-.3655497778-1.9077533-.7059874588.2760654903-1.8575410761.729471698-2.1822986587,1.739892459-.0721643618-.0016278576-.1443406932-.0063199176-.216505055-.0063199176.1788488795-1.0134849635.3655497778-2.2638710796-.3090655145-1.9218294801-.6008829206.3090056668-1.5688716593.8016719685-1.8967652615,1.8825693861-.1129565571-.0030642025-.2243451043-.0030642025-.3310296219-.0030642025-.0094200286-.8551039989-.0721763314-1.8795051836-.6699112627-1.5046191639-.4894824038.3028772619-1.2362740275.7765838108-1.4778792097,1.5516355204-.0894244397.00469206-.189836918.00469206-.2823973775.0063199176-.0156800985-.9021203553-.0800044111-1.9610895741-.6369591167-1.5845756969-.4643822767.3121656256-1.1766537444.807991886-1.3900227798,1.6379119709-.0486322445.0015321012-.1019685186.0031599588-.1474767129.0031599588.0345201558-.7123313155.0611882929-1.6536160085-.5616467657-1.2724100713-.4267380706.2588293515-1.057425148.6526751239-1.3821827305,1.1955177408-.0831524003-.0125440788-.1615888016-.029875974-.2447412019-.0424200528.0313721666-.5318306394-.0313721666-1.0495850987-.6040189403-.9506688131-.4722223259.0799565329-.8048319273.2243570738-1.0448690996.4141461137-.0643243126-.039260094-.1380566842-.0658803529-.1992449771-.1082046494-.1098205374-.0706681692-.2070850264-.1286965033-.3122015342-.1992689162,0-.0172361388.0094080591-.029875974.010976069-.0471121128.0360881657-.5694628758-.0423602051-1.0354131623-.5647947549-1.0683533388-.2729773488-.0188639964-.6087110003.0894364093-.8754282792.2760654903-.1506127326-.0799565329-.2933734464-.1474647434-.4345781199-.216505055-.0580403036-.4738023053-.4000579641-.8565403438-.8566001915-.8864163177-.2635692897-.0156082813-.5067424817.0847443493-.6918753702.2636171678-.1317846448-.0423242965-.2588652601-.0753602292-.3812298763-.1066725481-.1349206645-.3420415995-.4314421002-.596178891-.7954238681-.6182028462-.3090655145-.0203960976-.5789068436.1302286045-.7687437616.3624376972-.8754282792-.0548683753-1.4668911712.0125440788-1.9814856717-.3137934831-1.0385970602-.6495151651-4.2061445355-1.435483096-5.1239330198-1.6583080686-.6385271266-.4439263313-1.8277369194-1.0746732563-3.5707534286-1.1875699657-1.3194264278-.083212248-.9899528462-.8738722389-3.3730764613-.9052803141C20.2238799657.5434194132,19.1852829055.0508488679,18.4385032514.0037367551c-1.0558571381-.0674124541-2.4082237424.7891278897-2.5321563684,1.6112917121-1.377478701.3153255843-1.6567280892.4109861549-2.3486034594.3655018996-1.0527091489-.0674124541-3.4703409503-1.0808974176-6.7320288645-.4313822525-1.8402929678.3686618584-2.8867300772-.710703458-3.8060865714-.9696285658-.1066845177-.5114345418-.4910504137-.5067424817-.9554446599-.5380548006C1.4805724548.0037367551.9989301002.1371253184.9550018853.8305926375c-.0078520188.1128967094.0156800985.2133450962.0329401764.3168576856C.0732895971,1.897413875-.5322973531,3.0394995855.6741725177,3.2026683665c-.1129685266.8173760061.0235321173,1.9313093564.3937859247,1.9721015517.3812298763.0407921952.3043614849-1.0762053576.6542191947-1.7947608343.3624017885.0878085517.7248155466.2023331187,1.0840813155.3372537832-.1741448499.6824553415-.167860841,1.47474319.1647367908,1.5061512652.3027934751.0297802177.4204540617-.5883268722.6918753702-1.1625775644.2651372995.1098325069.5334106188.2181329126.8048319273.3248054607.0878564299.6212670487.2682733192,1.1420857105.5161505409,1.1311694892.2055289861-.0125440788.2510252109-.374981776.2918174061-.8456241225.3592657688.1192166269.7279515663.2227292163,1.1201694811.2902374267.1694408204.0313123189.3482896999.0517084165.5240025597.0721045141-.0156800985.4000699336.0643243126.7138634167.26043327.7875957884.2243570738.0879043081.2714213085-.2682134715.3969219444-.7075434992.3388816408.0297802177.6887393505.0658803529,1.0511531086.0972884281.0329401764.6542072251.1662928311,1.277006375.4785063348,1.2895504538.4141820223.0173318952.2635692897-.5804748534.4628142668-1.1891978233.3859458754.0471121128.7844358296.1051404469,1.1986178519.1835648786l-.5820548328.0016278576c-.0753003815.5945510335-.0784364012.9302727154.3922179148,1.0401052223.4392821495.0988205293.1961089574-.5208186618.5255705695-.9695328095.3953539345.0878085517.807967947.1992689162,1.2315699979.3341895807l-.6714792726-.0815843905c.1239445956.8016719685-.536558608,2.0238099682-.1804168894,2.1226304975.34672169.0972884281.9821127969-1.1248495716,1.1593936665-1.9390656189.3153375539.1082046494.6385271266.2384332539.9679887387.384365896-.1207966063.8158439048.0094200287,1.9642495329.3843778656,2.0081059306.3482896999.0377279928.313769544-.8847884602.5694987845-1.5954919181.3875138853.163168781.764039732.2949294867,1.1170334614.384365896-.1145245669.6102550711-.0753003815,1.2315221197.2196410747,1.2597702362.2949534258.029875974.4141820223-.5506946358.666775243-1.1107733916.2745573282.029875974.5412626376.043952154.8001278977.0407921952.0690283421.7185554768.2651372995,1.3759226606.5412626376,1.3618464806.2918054366-.0141719364.2651372995-.7076392555.3529937294-1.4182469571.2384691625-.0282481164.4675182964-.0643482516.6950113899-.1019804881.0251001272.3294017644.1286486251.522350763.4314421002.5365226994.2902374267.0110119776.298077476-.2887053255.3404376811-.6714433639.26043327-.043952154.5145945005-.0800522893.7687437616-.1098325069.0407921952.0329401764.0815843905.0642524953.1208085759.0988205293-.0392241854.5977109923-.1553167622,1.1624818081.0909924496,1.1703338269.1443406932.0031599588.3027934751-.2023331187.4424181692-.503582523.0941404388.167860841.1694408204.3467336596.216505055.5413105157-.7969799085.5756870371-1.3005863705,1.4511871336-1.9265694183,2.2465391845-.1537487523-.2494452315-.2996574554-.4188381737-.4910623832-.3827380385-.2949414563.0595604353-.3059294948.5600787558-.1647248213,1.0872173352-.1725768401.1615409234-.3577097285.3184855431-.5694987845.4517783501-.1616007711.1036083457-.3624137581.2008967738-.5506826662.3028772619-.3969219444-.6683791615-.4471221987-1.6410719297-.8471801628-1.5563275805-.4267380706.0925006117-.4424301387,1.262930195-.2039609762,2.0505259834-.3388696712.1411448258-.6965793997.2839175091-1.0746732563.4219981325-.2980894455-.7735196084-1.1233174704-1.849724966-1.4967072974-1.7148043014-.390649905.1365485221.4879263635,1.2567060337.4330101101,2.0552180434l.313769544-.0674124541c-.3153375539.1098325069-.6306751078.2180371563-.9601486894.331029622-.3467097205-.4032298924-.1898249485-.975852727-.6526511848-.8299200849-.5130145211.1630730246-.4737903358.4925705454-.3278936023,1.06519338l.3765378163-.0391643377c-.3498577097.1128967094-.6997154194.2274212763-1.0527211184.3419458432-.3184735736-.5820069547-.1725768401-1.2236701009-.644799166-1.153097688-.379673836.0549641316-.4424301387.7860636872-.3843778656,1.4872872688-.3561297491.1113646081-.7012834293.2258891751-1.0464371095.3388816408-.2918054366-.5256064781-.3655497778-1.06050132-.6636272538-.922516453-.276125338.1318564621-.2698532986.6322790263-.1004124782,1.1845057633-.2102330156.0737323717-.4314421002.1459326421-.6353911069.2211971151-.3529937294.1270686457-.7624717222.2275170326-1.1970498421.3201134007-.1412046735-.6134150299-.2070969959-1.1688017256-.503606462-1.1500334856-.2996574554.0220239552-.4518381978.6369710863-.4628142668,1.3194264278-.3106454939.048644214-.6275510576.0909685105-.9476046106.1333885633-.3122015342-.4895063429-.5051744719-.980544787-.8158079962-.9161965354-.2855333972.0548683753-.3043614849.5302027818-.1772808696,1.0385731211-.483222334.0580283341-.95387665.1160566682-1.3868867601.1788728186-.1819848992-.5162223581-.2886694169-.9931846222-.5710667943-.9335284306-.2682852888.0549641316-.3671177876.5490667782-.3545737088,1.099761414-.9130724852.1961089574-1.4825832392.4675781441-1.3194144583.9350605318.8911203473,2.579196664,2.4945001929.6181070899,5.9052328297.1506247021,3.3887565599-.4691102453,7.7298337294.4800264666,11.6441608588-1.5123754264,3.2130556696.3012494043,5.8801327026,1.095069354,7.9667348821,2.0787740998,2.2560310304,1.0621291775,4.4493177275-.1741807586,5.2180614891,1.0213369823.3937859247.6102550711.8063999371,1.1358615492,1.2315699979,1.6001839782.1192285965.3734496748.2384691625.7468035932.3639817679,1.1060813316-.1992569467,1.2754742738-.293385416,1.8167847895-1.1484175976,3.5127250945-.7452116442,1.4731153324-1.3680586723,4.0272238387-1.6222199029,4.9450482317l-.1145245669-.0674124541c-.9554446599,2.5180083711-1.3413785657,2.1665826515-2.969870508,1.700632365-.7734597607-.221197115-2.4474359582,1.2174459397-2.4474359582,1.2174459397l1.7116323731.4534062077-1.3178464484.7750517096s1.8418490081.9789169295,3.6538938594.2337411939c1.1907778027-.4879742417,2.1368024339.3090056668,2.9259542626-.4988904629.790707869-.807991886.5632147755-1.8560448835,1.035449071-2.3407634101l-.0878564299-.0518041728c.4581102372-.8236959236.9476046106-1.9908697917,1.7147803623-3.1110273034.9271965434-1.350834503,1.5469075518-2.2561148171,1.9438294962-2.9228661211.6730472824-.4691102453,1.0213369823-1.143713568,1.1782217543-2.0191179082,1.3837507404.3781417348,2.4411639188.4000699336,2.7031651986.6134150299,1.0433010898.8628602613,2.2168188145,1.5406235428,3.4656369208,2.0960102386.5820548328,1.1233174704,1.4857192589,2.6639410132,1.8183288603,4.4885778216.2588532906,1.4433351148.5506706967,2.5855165815.8848363383,3.4405248241.2416051822,1.4684232724-.1851209189,2.6764850921-1.4057028783,2.204214888-1.5829957175-.6181070899-2.1273943748,1.0684490951-2.1273943748,1.0684490951l2.0395379449.2996215467-1.1719497149.9569887306s1.6080958447.6244270075,3.0200707624-.1489968446c-.1992449771.6792953827-.4016259739,1.3476745442-.4016259739,1.3476745442,0,0,2.1524945019-.0424200528,2.8506419115-2.9401022599.3278936022-.3074735656.6055869501-.6369710863.7358035851-1.1295416316.2102210461-.7718917508-.0878564299-1.7179642602-.3169175333-2.6796450508-.0941284693-.9601486894-.2949414563-2.1023301562-.3529937294-3.3417042948-.0345201558-.773423852-.0847204102-1.4025429195-.145908703-1.9610895741,4.5073700007.8126839461,9.2877173502.6903073603,12.9855513941.7232475368-.0674603323,1.0024729859-.1961089574,2.1964586255-.6808873317,3.5284291321-.3357456211.936592633-.6259830478,1.7775246955-.8440561126,2.5242325324h-.0031360197c-.6636272538,2.1337382314-1.4872872688,2.2466349408-3.6115456238,1.716432159-1.8544050564-.4644181853-3.1361753087,1.4025429195-3.1361753087,1.4025429195,0,0,1.8308729391.2322090926,1.8246008997.3467336596-.7561996827.2949294867-1.371194692.8299200849-1.371194692.8299200849,0,0,1.7665486265.4549383089,4.1104480563.1474647434,1.5892677569-.2086530362,2.7941576482.8675523213,4.243800711-.2996215467.7389276353-.5978067486.7891398592-1.1610454632,1.2033218815-1.7069522826,1.441791044-1.1547255456,2.6906091503-3.1549794574,3.1189152308-4.7803473495.4408501593-1.6536160085-.08628842-2.450595917.1270806153-3.3291602159,2.0677740917.3828337948,4.2469367307,1.0448930387,6.7759570794,2.0552180434.4016259739.4580982677.9538646805.9946209671,1.7335964805,1.7116443426.6448111355.5977109923,1.7132123525,1.2550781762,1.7132123525,1.2550781762.2714093389.7060113979-.6149950093,2.1571985315-2.7455254037,1.6598401698-1.8559730663-.4313822525-2.6592369837,1.0872173352-2.6592369837,1.0872173352,0,0,1.5249434443.1129924657,1.5186714049.2134408526-.7561996827.2666813703-1.057425148.8550082425-1.057425148.8550082425,0,0,1.7571405674.1850969798,4.1073120366.1616366797,1.7430165092-.0203960976,4.4242176004-1.7022602226,4.9513561797-3.0389227892.0533362741-.1427726833.0502002544-.2745333891.0219641075-.4047619936,2.1226783757,1.0730453988,4.4650097956,2.3093553349,7.1038387121,3.741678472,11.0244737895,5.9805571504,20.6259606838,4.5293700168,26.1546676668,3.9661313022,5.528706983-.5600787558,13.7872353321,2.4882281535,13.6774267643.8785642989-.0580522732-.8613281601-3.0844070445-3.338544336-7.2387713462-5.3827504018"/>
  </g>
</svg>