<?xml version="1.0" encoding="UTF-8"?>
<svg id="Layer_2" data-name="Layer 2" xmlns="http://www.w3.org/2000/svg" viewBox="0 0 90.1118724344 41.2246938036">
  <defs>
    <style>
      .cls-1 {
        fill: #66ffab;
        fill-rule: evenodd;
      }
    </style>
  </defs>
  <g id="Layer_1-2" data-name="Layer 1">
    <path class="cls-1" d="M89.9709446123,5.2539030287c-.2183913397-1.0877271571-1.5241884341-1.5996298105-2.0642936951-2.4393123758-.7786475781-.3458602478-1.941347164-.0905621057-2.6277234224-.750337527-1.1200321325-.5307534644-1.9807077645-1.8688710064-3.190340456-2.0642531259-.1123213916.4526011134-.4313281131.4227504173-.7506544081.0001324348-8.1244635487.1088180773-6.7393905833-.6590420773-10.6973998783,6.5676475749-3.4998787061,1.3857707195-7.9040679473-.0292961864-11.448282945.7505608954-2.7208337497.8766899736-5.0670142094,2.7132974298-8.0700079396,2.4387168759-2.9892652441,1.2121738159-6.1836718215,1.8531496001-9.3837066153,2.4398674242-11.8857942769,5.1843893763-28.0698027136,1.1669673454-41.1005862004,3.377072097-3.8967546313,2.2668880732,11.2787446804,1.2829500076,12.5736742929,2.2527770999,7.5434502209,2.1911120644,16.0094815397,2.9988130082,24.2104174737,3.3759563673,1.9673921661.0105691616,8.7002020828-.4693457711,9.9462847118,1.3143621037,6.5791280382-.8442431761,5.9605939306,1.9628078763.1879045272,2.6267345052-2.4190935904,1.0577766936.8904010037,4.845137484-3.378208217,5.8162368391-.5610836338.8361036011-1.5231260932.0646673295-2.2518173028.0002822968.8445456179,1.4052284415.3490553627.2006055372-.0004439165,1.5012837701,1.3438456106,1.0985169318,2.8629599378.6576649424,4.504694262.5625530014,2.957262212-1.0311514062,2.9409586866-2.1704055454,3.189984625-5.0663587273,3.2092226224-3.3592153628,1.747817928,3.2564141862.0007329374,4.1287110542.3701504213,2.1480008829.7850270464,4.2527359964.5622583242,6.5672232633.0799461445.6646756954.9167247727.119796704,1.314429785.1876504651.0608972482.4411022199.5013037663.9093056852.9380523213.9380564909.8730852595.9068565095,2.6439499884.0636161091,3.3782182635,1.313432819.8228195588.7422160974-.2523263258-1.9554472327,1.6891528251-.5622574292,1.7252684837,1.2381807789,1.0684702783-.8961043331-.000327017-1.3137588316-1.2953046083-.4967252552-3.2187697756-.6971151099-3.5654979788-2.2519193255-1.3330235204-2.3854094051-.5368112139-5.279823879.7507272404-7.5055345324,1.4440392041-1.2205223195,1.8887069159-2.8081887347,2.626972388-4.3159513583.5239250743-.4252752033,1.1368226617-.4646978408,1.6895383597-.1870534759.9541414172-.8980664572,1.9282856777-1.3869774873,2.6271315222-2.439877425.9279353966-.7010547967,3.4301113451-1.1511930004,4.6919913668-1.8764302808.6970644484.2393849487,2.9955910183-.822019632,1.6893969926.3754878966-2.2959739174-1.1210136906-1.3785008366,2.1296155732.1876416346,1.1258839731,1.9461082943.0208176816,1.7229421375-1.6360319138,2.2515095837-2.8148113583.843205918-1.208436729,1.5622448198.721405161.938821695,1.3138324417.1143583846.5331943922-1.4762275162.1413700901-.7507067912.750374321,1.1596672761.2577845826.8448406127.527647335-.0002254403,1.3136758941.5170549944.3656528216,1.2621688842.1196963845,1.6892608734-.1878205562,1.7183051315-1.254992307.5818931091-3.3266877001.3749511079-4.8785516043,3.1833558052-1.967647652,1.440748792-3.5143415512,2.8147975431-5.4418673313,1.7526961018-.9428641764,3.8637601138-2.7635979698,5.8188146883-1.5008610532,1.1100836626.2270310176,2.4809215684-.369497278,3.7533223593-.18738628,1.1205604591.5777026201,4.2799057216.8203821726,3.5656424622-1.126265857-1.3423851475-.8457525219-6.1200621-.733601749-5.6302012624-2.6262355114,2.0048079406-.1429004892,8.082999593,2.6625700448,6.9440993198-1.5016679386Z"/>
  </g>
</svg>