<?xml version="1.0" encoding="UTF-8"?>
<svg id="Layer_2" data-name="Layer 2" xmlns="http://www.w3.org/2000/svg" viewBox="0 0 52.053511396 32.2129502937">
  <defs>
    <style>
      .cls-1 {
        fill: #cabb91;
      }
    </style>
  </defs>
  <g id="Layer_1-2" data-name="Layer 1">
    <g>
      <path class="cls-1" d="M12.958549478,17.1901448185l.3754882812-.1878051758c-.1425420156-.0465948972-.2958662654.0848599555-.3754882812.1878051758Z"/>
      <path class="cls-1" d="M13.3340377593,17.0023396427c.1424602202.0465406124.2959025899-.0847894492.3754810124-.1877957749-.1507478949.0229020426-.4671654838-.0901913883-.3754810124.1877957749Z"/>
      <path class="cls-1" d="M13.146049478,16.6268513615c-.3331051541-.0333172913.0142167263.0676443293-.187786605.1877688276.2312902997.0700826665.3322880745-.2578869125.5635207943-.1877596425.4470544917-.3178695197-.2664754509-.2279339909-.3757341892-.0000091851Z"/>
      <path class="cls-1" d="M19.1560592437,20.5703938419c.1268944733-.0741554461.4698740659-.1616791238.375417128-.3755324642-.0924815218.0925426403-.2829099249.2829662486-.375417128.3755324642Z"/>
      <path class="cls-1" d="M19.7192916655,21.5093586857l-.1877441406.1877441406c.1658306899.0256533353.2133083357-.0221820269.1877441406-.1877441406Z"/>
      <path class="cls-1" d="M50.7070235991.1018879826c-7.574884127.5035592472-15.1635542938,2.891750877-21.5974353134,6.9480845785-.3491767374.165451707-1.0974541246.9522226475-.563479937.0000673832.5049467715-.5269091427.3249119492-.2321473738-.1878176655-.1878069701-.029238631.2158936408-.1351590174.8177964311-.3753857528.7511648982.1129556116-.4818479426.3395151429-1.1504182964-.1882376003-.375719802-.4010324871,1.0455621201-.0304194762.0792997283.0002359478-.375294273-.2294263258.1969515144-.4554701162.4248401991-.3758198909.7510146853-.7396841674,2.5420490226-3.5314061386,4.7453253419-5.6343779313,6.3840661875-.7024542903.9424355807-2.1318510361.8268092631-3.1921927388,1.1271833931-1.1821193221-.0285360589-2.4767937256,1.310167539-3.5681914656.7514940554-.4687357278-.0150446735-1.6008389047-.0690214685-1.8781366382.3752776889.3466020139.0985902902,1.6125284501-.4666680796.7511918373-.0000240945.3193920161.7473608846-4.6876436071,3.6230695002-6.7612624584,6.1973909115-2.6578922646,2.9718560252-5.4880788184,6.1071164264-7.136113992,9.7641636692.7058474414-1.3643587328,2.6745957044-2.7670362519,3.3802879108-4.1313379632,3.8906566027-4.0909856618,8.6555513758-7.5548172117,13.8978034198-9.5763136271.7819517317-.3400527699-.773504032,1.7310126184-.7511349497,2.2528434249.2918521477-.2078089054.4097858114-.6192488281.37534868-.0001900808.1657150466-.2707697871.3892596647-1.1908758423.3755446977-.3757053924.4726422674-1.1325289985.297847546.3806430071.3823023927-.7572508901.426953469-.5153550312.6075416522.4181422043.5568467055-.5568405782.2832263697.4826248759.1587907454-.6028855182.5633892265-.4338087204.031858225.7098308478.2591103114.1795496693.1943780623-.1332791801.4781665381-.0134732844.8803576249,3.4511396217.7448414442,3.7885303161.8780609417,1.390426529.8229517186-4.0014212517,1.7138556267-5.1226939287,1.0121514881-1.1573358279,2.5252255186-1.0297811167,3.7600013479-1.3186376882,1.7323747642-1.2159120745,1.7323987836,1.8714165873,2.0377124124,2.685902872.1351718089.6738383724.9596213759.6489027241.187974687.1291761283-.0830347765-.4495102141.3514901768.3269174865.408362948.2170018959.5577135106.0412913158.1459431857-.0959911677.1878981913-.1878304961.5066640974-.0024482828.1037023715-.1112236463.5307865702-.4045937805.087992663-.2316552233-.7198319862.2743011711-.7184539532-.1588575726.7295222678.0006541448.1314651637-.2405441341-.0608154617-.2153553237-1.2800675168-.7196372882-.0308768162-4.2169614993,1.1638597213-3.8796896401.3631508186,1.8824011769,1.0445857464,3.1935874143,1.8690775095,3.1268119176-.4527320827-.8002933277-.2625245088-.4289748056.1876507077-.1880505621-.2017909244-.4372996561.0453253372-.247749524-.0290598133-.5336718324-.6974412377-.1373252349.0448780052-.2116178629.2407719449-.2112568784.4058115541-.2982931781-.1866094403-.1152942196-.2449167781-.1645429621-1.3011646177-.1417727854-1.6732794533-1.0587949247-1.656792359-2.2826736484,1.1483460094-1.2047817189,4.8368305127-.1405546388,6.4174744997-1.680633895,1.9244936812-.1139279119,2.0913279654-1.1563924939.5073694291-1.8344511333-.4073028746,2.8465550844-4.2965949937,2.5853283228-6.4024622308,2.2241968459-4.2856155843-.6075036938,8.5327672397-7.5043403206,10.0320525585-8.2722663304C42.6034635502,2.4723101707,56.3502683011-.5977101508,50.7070235991.1018879826ZM27.4190597319,8.1768391544c.0002441406-.0002441406,0,0,0,0-.0000249213-.0002527293-.000033048-.0006826073,0,0ZM39.8145065093,2.1676228458l.3342895508-.0743408203c-.0716933739.0107103807-1.1067324724.3215248744-.3342895508.0743408203ZM27.4193038726,7.4253743107c-.0002429984.0004907577.0004662104.1881401513-.0002435074.1884752836.0002433768-.0002446369-.0004682491-.1884510446.0002435074-.1884752836Z"/>
      <path class="cls-1" d="M30.7997970366,17.3781330997c-.079979826-.1031271509-.2328241171-.2342149127-.3754976808-.1876894109.0799892256.1030724212.2328335167.234160183.3754976808.1876894109Z"/>
    </g>
  </g>
</svg>