<?xml version="1.0" encoding="UTF-8"?>
<svg id="Layer_2" data-name="Layer 2" xmlns="http://www.w3.org/2000/svg" viewBox="0 0 90.7162902391 57.1496032737">
  <defs>
    <style>
      .cls-1 {
        fill: #8058c0;
        fill-rule: evenodd;
      }
    </style>
  </defs>
  <g id="Layer_1-2" data-name="Layer 1">
    <path class="cls-1" d="M90.7043368317,18.5675668966c-3.5334784562-3.6607004446-11.6103443564-3.6383479203-16.702789156-3.3762641581-7.5073571219,1.1050405965-14.3885341962,4.9932176944-22.1459256712,4.876731317-10.0115672661-1.9938126339-10.5950124625-4.3421423719-21.7701010531-3.562460555-3.6166020039.0014782271-8.9305971726-.7206285-12.1989185206.561557807-2.1624072692.466493745-5.1609058017-.9240420273-6.9441057993-2.8127377375-3.2560006142-3.8089405463-.6531720204-9.0605055393-2.251601671-13.3158882178C7.7475184673-.6534162453,1.9284163397.5345675246.4328546519,0-.0010042704,1.6527908595,2.6329181282,1.0428138632,2.3100534751,1.8761907265c-1.6481411071-.2244014981-3.6211960258-.182805903-1.1264249776,1.3134142675,1.891474238-.3157213564,3.4561049491.6959729889,4.5040780523,2.2504218414.1681578349,5.0364179025.904063322,10.1008737495,4.5041838959,13.6900901842.8102333798,1.1394120849,2.2188610386,1.6287089884,3.0029216588,2.8131735631.6432634307.8872440251.5989448709,2.0508620977,1.5012608738,2.8130654496,1.7652967973,1.9027922778,4.0492162721,2.6792723152,5.2548179416,5.063892171-.7670082674.4062879595-1.5762447932.7665528533-2.2517394581,1.3126813592-1.7084579184,1.1290643839-3.1912971509,2.8059564089-3.9412719447,4.6884225965.4392727696,1.858672796-.4208981161,4.0826030152,1.5014688989,5.2511054705.0764598376-1.9661027759.4911101681-.7279506393,1.8768572249-.7501445449.2042279347-.6799260623-.7604038103-.9403815441-.187974379-1.5002497148.6812336106-.6525825455,2.4935481699.633855136,3.3780578007-.1877530705.7847746523.2147077706,1.9113603196-2.1260216868.938724479-2.0627552179-1.0560722036.6860139069-1.4622513812,1.2539868581-2.6276282449.5621796971-1.9787948981-.6071400801-1.4277338164-3.350262905.3752844217-3.5629960036,1.2332096153-.6408331076,2.6883329141-1.1284355686,3.9410443191-1.8756703033,1.0950082814-.8318736821,1.5762568832-2.6283016376,2.815258974-1.124791951,6.4500391188,4.711403657,8.3120169349.77504466,12.1988694597,5.6258159704,3.6552676723,3.8621113358,4.8290541484,1.4037199396.7504503548,6.0017865695-4.0584807877,2.3379543535-1.812143226,4.3781860038-1.3130924819,7.8769159796-.0111889134.6217367723,1.4297575029,2.5880043833,1.5015174375,1.8753579123-.5422893677-1.7579714755-.0351559373-1.2816661837.7503991752-2.0628575859-.3391998856-1.1014921975,1.4028401562-.0211241985.5629052779-.9381151595-.6467641705-1.1584739258-.6082174977-2.3711607727-.9383054233-3.7507246578-1.336113256-.8130597629,5.6108207074-5.3457812428,5.8171662208-5.6271046649,2.4375390358.5307458997,5.0793244981.6802089938,7.1320838642,2.2517354467.8278135355,1.5671081442,2.3554463885,2.2429489146,3.3782889184,3.562788372,1.2728065718,1.4657639066,1.9298168713,3.2352540243,2.8151747988,4.8761847343,2.6494998924,3.9421843762,1.3273493481,2.932638877-1.6893927856,5.6262660786-.9588236607,1.2757821845-.4680030425,1.6878831289.7509865734.7500568686,1.3557722381.375994273,2.5569027203-.2969550114,3.3779548573-1.5005389943.9895092106-1.4584858057,1.6807940103,1.245786534,3.0028877032.7502621997.8100727396-.3495172941.0604294108-.4633001564-.0003361465-.9375962766-.378516616.1150570472-.0232245613-.6551934366-.3750125632-.7498391232.0685685684-1.0115354696-.803130897-1.6531024582-.9384706819-2.6258322628-.2035764147-.8726589649-.677430822-1.2335708379-1.1263227165-2.0628805049-2.2528530425-2.3474608008-3.8745899598-5.7280903112-5.6301427572-8.2516684638-1.5295549782-1.9378595968-.0307234195-2.1773753904-3.190517185-2.6254004045-2.8386119155-.3994012629-4.5022521875-3.0279555386-6.3805335261-4.8769225257-.7931614644-1.495809223-3.2888890257-1.0028616986-2.2519562127-3.0000988824.2873429381-1.1141172865,1.6335996296-.5704072724,2.439546017-1.3131738941,1.2027576876-.5597492041,2.0175560883-1.8800217507,3.0027984763-2.8127286373.972875255-1.3018009444,2.6423713686-.8479831101,3.7534473673-1.6880498665,2.7532696934-1.4172201331,5.6231323376-2.0143393782,8.4455439024-3.0004775591,4.1570237202-.7036122971,7.4191275248-3.378836005,11.6356215868-4.5012649567,3.9461765123-.631834311,8.8700698391-.5018154083,12.5743010706.7501113626,1.2826064274-.4689215204,5.1330584663,2.3602815148,4.8795032382.3752833016Z"/>
  </g>
</svg>