<?xml version="1.0" encoding="UTF-8"?>
<svg id="Layer_2" data-name="Layer 2" xmlns="http://www.w3.org/2000/svg" viewBox="0 0 91.0767864272 34.3633750378">
  <defs>
    <style>
      .cls-1 {
        fill: #66ffab;
        fill-rule: evenodd;
      }
    </style>
  </defs>
  <g id="Layer_1-2" data-name="Layer 1">
    <path class="cls-1" d="M90.8345030417,29.9970496585c.0454373536-3.0661587173-9.8313340651-8.9502030499-12.761474894-10.5024741733-6.1338591635-3.692884049-12.2689947892-6.4389636694-18.5801434515-8.4386655607-2.3374339833-.7341624426-4.612167276-2.0043925465-6.5684512202-3.7509439155-4.6558456391-1.7402907755-11.1166530292-1.2143458719-15.9524012168-.3752700838-1.3955941912.4366358917-2.8276305118.5381030445-4.128767605,1.1254620419-1.0588224397.5770213372-2.0242056554,1.4351368951-3.3783222299,1.3124955969-1.0667983468.8452070031-2.5131909361,1.1321895736-3.7532626816.3750777727-4.3140608881-.8971644336-7.5212068881-5.4878533304-11.260340832-7.6890011738C11.0619310405.5726667864,1.2943452138-2.220704011,0,3.17869309c1.201600135,1.6445241741,5.6547994178-.141948091,7.3193946185.7504730487,3.9903142284.2556430133,7.244702048,3.4092243288,9.7590555325,6.5638853707,1.9196112456,2.6243007494,3.9239855076,5.3822272541,6.7567174282,6.9387888677.6228960489-.152876324.5962324301.5620576874.7504266246.9377256455.3943217446.4495676776.866734856.914340061,1.3135996129,1.3130272986-.1845492282.9337853532.3430612354,1.0220023631.9389403308,1.5000399755.0777522773.5421768081.2294897617,1.2327984443.5624579692,1.6879547743.6572063975.4209491662.8530531033.3962798775.1876022232.9377040452-.3792219482.3637956487-.5363501425.8779179976-.7507254326,1.3126655007-1.6996793561,1.1672902517-2.5302673759,2.7458353473-2.2516388503,4.8762869133.2866326368.7504168591.6165087839,1.5154930438.9385047483,2.2501624561,1.0980788386.0889008544,1.8706399164.5841439201,1.1254562083-.5624388194,1.2394813075-.484216445-1.3881943512-3.1612761652.3757181455-3.9383376558.7941171456-.8898921889,2.0066137503-1.3271069884,3.19016036-1.312949796-.5302771322.3305141886.2183043934,2.9881831478-.5629626931,3.0008398626-.7569308682,1.2267271672-1.9544274273,1.4625242426-2.4395195816,2.8131117671.0927253548.9297082773.4422089923.3204451729.9383689255.1871161734.3202837729.3649689463.1864126353.8763944735.7505367478.5626236602,1.5304927445-1.3724871683,3.4043760009-1.6295774706,3.5654454894-3.9383661734,2.8352171924-4.5043831556-.4097236512-7.6242937263,6.9444320549-5.8128468401,1.1185507465-.1832672075.8242816337,2.3890145838,1.5017487527,3.1874192002,2.0453768245,2.9480153254,1.1804397158,5.3710493446-1.6898253289,6.9388757322-.7964140949,1.0153599818,1.094193916.3972348075,1.5017833518.5633073917.4672176439,1.1702926138,2.7655856514-.3718457142,3.5656220572-.9378494935,1.4852398771-1.5867860293-.4209110282-10.3462743931,2.4396199707-7.1266576575,1.4356549115,1.3191529889,3.1065289807,2.5222777802,3.7536549292,4.3134176739.5474014839,1.5232344738-1.3423848537,2.030557175-1.5016931422,3.3755142244.3752741036,1.1028952092,1.6457207282-.8947509058,2.440129068.0002574516,1.3384731151-.5964122843,2.3884351472-2.3097914951,2.0645398252-3.7508574737-1.0847437602-2.4398072607-2.3889018658-4.9776180536-3.3781689109-7.5016011537.1299719778-.8109241412,2.0048517112-.466286874,2.6272446455-1.1254279254.7590676635-1.4183881518,8.0501285942.1784146332,9.3841488975.1877313831,7.7155073904.2819995345,14.807122121,1.9925210798,21.3944556607,5.4387571055,1.9346336826.4888961355,7.4334835527,2.500100042,5.2556515573,5.2509831506-2.7208719323,1.1724228605-6.3910565139-.1534548582-9.1966680399.9376450895-2.9121911136,2.0609985798,1.2126910691.61955257,2.6270607115.7498928888,3.1132303228.7337822241,10.2790797557,1.3750434696,8.6332285745-3.750517094Z"/>
  </g>
</svg>