<?xml version="1.0" encoding="UTF-8"?>
<svg id="Layer_2" data-name="Layer 2" xmlns="http://www.w3.org/2000/svg" viewBox="0 0 90.2330028462 40.0467137584">
  <defs>
    <style>
      .cls-1 {
        fill: #f2cc0d;
        fill-rule: evenodd;
      }
    </style>
  </defs>
  <g id="Layer_1-2" data-name="Layer 1">
    <path class="cls-1" d="M89.8958920445,5.6706838469c-.6144486967-.6704102327-1.0849370517-1.8883003014-1.8766858947-2.2544494092-.1072836422-.8169469035.8623457625-3.9159626198-.7509118687-2.4419880106-2.2781081817.4720061285-2.2054784097,1.0686770962-4.1287425616-.9395748713-1.0145390626-.3418302949-.3683994668,1.9818265826-1.6890449558.9395072947-1.521341964-.6293578939-2.6547394958.362458241-4.3167410051,1.3151743152-1.09024332.3179359515-1.1803114242,1.8873512279-2.064046261,1.8789871638-.1628730312,2.2831709623-1.1244161233,1.4429575292-.9390293835,2.6291650566-.5100644348.7870299841-1.4665499333.3406801366-2.0641604204,1.1271132578-1.2500388299,2.1282172904-4.9702895098,1.4715106728-7.3193434993.9393455587-4.4364657152.0020388101-9.2746815762.6319185991-13.3247992789,1.5019905621-3.3803975117,1.3762888689-7.306569485,1.4700560572-11.0726562717,1.8792056459-1.9462286055.5018586622-3.8790563999,1.2193389333-6.0056080244,1.6907390448-9.5788532685,1.3195754638-19.7351056075,1.4165942478-29.0895338305,3.1939857979-1.7785612221-.0743740287-3.6822150706.3693976883-5.2545887891.9386434463.0610173291,2.4234913041,11.1615723676-.2945283664,13.5115203183,1.1282319377,8.236321498.3072763763,16.3189932409,1.6688157194,24.2107780288,2.2530159325,2.9195399509.3312746671,6.4255561824.3996981715,9.0082229588,1.5035298704,4.3372144249-.1643980192.4759298974,1.1443514434-.7506693204,2.4410581604-1.2790331482,1.385678101-2.1678382805,3.0620174943-3.0030325528,4.5083963765-.9685032632.2656007455-1.9291675903,1.0018982411-2.4395504013,1.8786141798.3288837959.8572976601-.8213718791,1.1535675964-.7509324129,1.8784903824-.4777321975,1.120214583-.2796013571,4.240663973.9380090895,4.5086564284.0616297626.6960823229-.3581492958,1.8788953535.5636389459,1.8781914766-.054084703-1.6999652702.8262512695-2.3257808911,2.0645981477-1.126838451,1.0967001458.2541188195,3.5592234947,1.4015710439,1.8768895781-.5638878292-3.3580032752-1.2601538182-3.6213447895-4.3513778346-.7509081978-6.5747357565.7829532226-.9501816584,1.3908666397-1.7673729729,2.4398774197-2.2539230621,1.1021445046.1978354913,2.1303891449-1.1586267227,2.8147338427.3758036126.404241634,1.2552283888,1.723916362,1.2574235757,2.0647867718,2.2538179597.0947051117,1.2684597037.2803079799,3.0527642858.3753046778,4.3207401316.9987233558-.4104620787.8337814262,3.1150085497,1.3139288354.7513165708.7270517003-.696694378.5894202138.9098207481,1.1258615813,1.1270401992.7086033794-1.2647417316.7420310568-3.1444982973.1874830016-4.5083802939.2037786988-.7614506863.6598766199-2.0017534787.187461705-2.8177067037-.8849876804-1.3070328446-5.0726063172-2.6847347436-3.1905740579-4.3205106169,3.0468006629-.609656087,6.2689432951-.8111621785,8.8210501524-3.1935934186.7549100811-.7472948681,2.3137055074-.187496214,3.3779732566-.3757777033,1.3686937466-.487412835,2.7981991007-.6179745217,3.9414913195-1.5023389465,1.3515088225-.6796371906,1.6885950405-.6627078211,2.8150648392.3761436021,1.140319963,1.0226280474,2.3161699531,2.3385669063-.0001017402,1.5022692305-.5240086915.8526293685-.3304488461.3129788007-.7506078837-.1881208004-1.1581791972,2.0052322717,1.3531207699,3.0093879324,3.0028630381,2.254265921.601490585.0013414778.6983128545-.3501849419.9378657354-.7512862351.4232242148.5301979387,2.3924337245.6851369967,2.4401473139-.1876900764.9277612731-2.7859368816-.3893470399-3.4713077408-2.8154364047-4.1323037983-.7133287716-.414324746-.1340568154-3.1045481869,1.1259784521-2.8180804564.9079119254-.8226410018,1.0409233891-1.659200608,1.5015859408-2.6301847899,1.6978152237-1.3474991719,3.0517787845-3.3025000678,3.9412591365-4.8838864388,1.078782338.2671862962,2.1664621554.2680826782,3.3782216477.5637348207,1.0828962537.3432442997,1.9652514611,1.1472044284,3.1904167903,1.1271632094,4.1220830475.7919852283,2.9272262414-2.0934496138-.1879749189-2.8173404049-1.6808185623-1.804968042,5.2982223248.5031494613,3.3786674102-3.3817390731ZM73.7557553258,22.3888845305c.60401955.0721951676,1.3168213052.3985034605,1.1258392856,1.1273276975-.6427250815.2821118522-.9032492286-.7471417449-1.1258392856-1.1273276975Z"/>
  </g>
</svg>