<?xml version="1.0" encoding="UTF-8" standalone="no"?>
<!DOCTYPE svg PUBLIC "-//W3C//DTD SVG 1.1//EN" "http://www.w3.org/Graphics/SVG/1.1/DTD/svg11.dtd">
<svg width="100%" height="100%" viewBox="0 0 135 51" version="1.1" xmlns="http://www.w3.org/2000/svg" xmlns:xlink="http://www.w3.org/1999/xlink" xml:space="preserve" xmlns:serif="http://www.serif.com/" style="fill-rule:evenodd;clip-rule:evenodd;stroke-linejoin:round;stroke-miterlimit:2;">
    <g id="Artboard1" transform="matrix(1,0,0,0.888579,-2.03502,-24.0848)">
        <rect x="2.035" y="27.105" width="134.955" height="56.336" style="fill:none;"/>
        <g id="Layer1" transform="matrix(1,0,0,1.12539,-0.787716,-10.067)">
            <g>
                <g transform="matrix(-0.921339,0,0,0.921339,141.131,-37.8018)">
                    <path d="M120.77,95.22C121.984,95.09 124.516,96.432 125.013,96.781C123.548,95.072 121.915,93.188 120.524,91.914C119.684,91.148 118.956,90.602 118.416,90.519C118.127,90.475 117.586,90.54 116.929,90.658C115.535,90.906 113.65,91.406 112.418,91.805C112.292,91.846 112.173,91.886 112.062,91.924L112.065,92.445C112.073,93.383 112.087,94.285 112.109,95.149L112.132,95.928C112.15,96.484 112.171,97.022 112.197,97.541C112.988,97.335 113.931,97.035 114.922,96.721C116.913,96.083 119.057,95.402 120.77,95.22Z" style="fill:rgb(116,87,53);"/>
                </g>
                <g transform="matrix(-0.921339,0,0,0.921339,141.131,-37.8018)">
                    <path d="M91.944,87.021C91.371,87.688 90.756,88.317 89.904,88.963L89.039,90.007C88.806,90.298 88.581,90.579 88.352,90.853C88.234,91.139 88.155,91.435 88.117,91.738C88.078,92.051 88.048,92.364 88.072,92.658C88.103,93.026 88.22,93.361 88.558,93.592C88.689,93.682 88.746,93.847 88.697,93.999C88.649,94.15 88.506,94.252 88.347,94.248C87.568,94.232 86.348,94.175 85.047,94.072C84.717,94.531 84.509,95.034 84.447,95.553C84.419,95.787 84.4,96.003 84.4,96.19C84.4,96.657 84.508,96.969 84.917,97.137L84.921,97.139C85.189,97.253 85.527,97.336 85.93,97.387C85.946,97.357 85.962,97.327 85.981,97.296C86.229,96.876 86.795,96.382 87.58,95.89C89.269,94.831 91.996,93.731 94.432,93.222C95.137,92.437 98.979,88.291 101.454,86.97L101.43,86.946L101.344,86.893L101.281,86.847L100.923,86.663L100.917,86.66L100.581,86.507L100.574,86.504C98.819,85.66 96.331,84.999 94.884,84.824C94.621,85.02 94.072,85.421 94.072,85.421C93.4,85.91 92.646,86.46 91.944,87.021Z" style="fill:rgb(116,87,53);"/>
                </g>
                <g transform="matrix(-0.921339,0,0,0.921339,141.131,-37.8018)">
                    <path d="M81.082,89.455C82.523,87.4 84.278,84.931 84.906,84.124L84.907,84.122C85.056,83.931 85.249,83.794 85.478,83.707L85.494,83.66C85.552,83.477 85.59,83.331 85.553,83.228C85.192,82.246 83.732,80.671 82.575,79.388C82.166,78.939 81.777,78.509 81.467,78.144C81.253,78.228 81.008,78.401 80.667,78.677C80.164,79.079 79.128,79.824 77.921,80.688C75.948,82.113 73.497,83.872 72.654,84.665L72.578,84.758L72.526,84.792C71.85,85.491 70.801,86.924 69.861,88.199C69.083,89.261 68.354,90.261 67.869,90.797C67.26,91.483 66.257,92.089 65.297,92.564L65.93,92.597L65.933,92.597C68.429,92.747 71.481,92.933 73.945,92.825C75.525,92.755 76.857,92.575 77.608,92.161C78.7,91.564 79.925,90.574 81.082,89.455Z" style="fill:rgb(116,87,53);"/>
                </g>
                <g transform="matrix(-0.921339,0,0,0.921339,141.131,-37.8018)">
                    <path d="M54.097,93.186C54.011,92.972 53.942,92.766 53.861,92.577C53.793,92.418 53.751,92.164 53.733,91.837C52.524,92.383 51.464,92.824 50.514,93.171C51.607,93.376 52.563,93.398 53.521,93.273C53.718,93.248 53.909,93.219 54.097,93.186Z" style="fill:rgb(116,87,53);"/>
                </g>
                <g transform="matrix(-0.921339,0,0,0.921339,141.131,-37.8018)">
                    <path d="M49.442,85.752C50.781,86.792 52.32,88.056 53.876,89.361C54.059,87.816 54.373,85.971 54.668,84.42C53.944,84.161 53.21,83.918 52.516,83.716C51.953,83.925 50.928,84.612 49.442,85.752Z" style="fill:rgb(116,87,53);"/>
                </g>
                <g transform="matrix(-0.921339,0,0,0.921339,141.131,-37.8018)">
                    <path d="M111.361,90.141L111.361,89.683C111.361,89.532 111.456,89.397 111.598,89.345C113.695,88.583 115.337,88.036 116.649,87.673C116.451,87.002 116.114,86.158 115.82,85.413L115.819,85.411L115.358,84.22C113.357,84.062 110.149,84.373 108.181,84.56L107.268,84.647C106.859,86.308 106.526,87.717 106.312,88.822C107.401,88.599 108.265,88.623 108.99,88.799C109.959,89.036 110.683,89.548 111.361,90.141Z" style="fill:rgb(116,87,53);"/>
                </g>
                <g transform="matrix(-0.921339,0,0,0.921339,131.188,-43.0937)">
                    <path d="M32.439,112.607L32.382,112.607C31.829,112.676 31.247,112.667 30.675,112.637C30.036,112.617 29.388,112.595 28.816,112.718C28.104,112.876 27.487,113.475 26.885,114.039L26.879,114.045L26.219,114.635L26.208,114.644L25.748,115.024L25.745,115.027C25.208,115.46 24.659,115.897 24.319,116.317C24.154,116.522 24.031,116.709 24.047,116.895L24.048,116.896C24.057,117.003 24.118,117.105 24.212,117.21C24.344,117.359 24.537,117.503 24.787,117.645L24.789,117.646C25.692,118.166 27.451,118.822 28.345,119.127C29.345,119.466 29.923,119.269 30.794,119.003L30.796,119.003L31.566,118.773L31.575,118.77C33.474,118.257 35.218,118.484 37.065,118.731L38.651,118.93C39.617,119.031 40.594,119.192 41.53,119.353C42.746,119.56 44.011,119.779 45.286,119.838L45.301,119.839L47.111,119.999L47.115,119.999C48.083,120.095 49.151,120.209 50.14,120.227C49.926,120.052 49.654,119.865 49.337,119.67C47.764,118.697 45.13,117.598 42.689,117.11L42.759,117.117L42.638,117.1L42.541,117.06L42.454,117.001L42.361,116.903C41.67,116.117 39.411,113.712 37.38,112.061C36.628,111.451 35.912,110.942 35.323,110.673C34.642,111.389 33.535,112.16 32.584,112.577C32.538,112.596 32.489,112.607 32.439,112.607Z" style="fill:rgb(159,122,80);"/>
                </g>
                <g transform="matrix(-0.921339,0,0,0.921339,131.188,-43.0937)">
                    <path d="M44.699,89.701L44.561,90.415C44.243,92.09 43.909,94.087 43.747,95.661C43.731,95.81 43.717,95.955 43.705,96.096L43.689,96.296C43.674,96.495 43.661,96.684 43.653,96.859C43.646,97.002 43.642,97.136 43.641,97.26C43.639,97.612 43.664,97.882 43.731,98.039C43.827,98.265 43.898,98.523 44.015,98.788C44.064,98.897 44.12,99.008 44.19,99.117C44.257,99.222 44.336,99.327 44.431,99.429C44.501,99.504 44.58,99.578 44.67,99.65C45.334,100.183 46.55,100.608 48.937,100.757L49.347,100.325C50.231,99.357 51,98.54 51.863,98.214C52.675,97.904 55.178,96.98 56.242,95.79L56.243,95.789C56.708,95.275 57.419,94.305 58.17,93.277C58.988,92.166 59.831,91.017 60.498,90.234C59.737,89.84 58.482,89.231 57.815,89.147L57.807,89.146C57.459,89.094 56.962,89.265 56.371,89.586C55.502,90.055 54.468,90.838 53.385,91.844L53.379,91.849L53.29,91.914L53.19,91.962L53.083,91.989L52.974,91.994L52.867,91.979L52.767,91.944L52.676,91.891L52.596,91.824L52.521,91.731L52.469,91.626L52.441,91.517L52.436,91.408L52.451,91.302L52.485,91.202L52.536,91.109L52.606,91.026L52.614,91.018C53.474,90.211 54.312,89.541 55.072,89.045C54.102,88.336 52.714,87.268 51.707,86.428C50.296,86.363 49.038,87.041 47.588,87.808C46.741,88.254 45.84,88.729 44.812,89.139L44.699,89.701Z" style="fill:rgb(159,122,80);"/>
                </g>
                <g transform="matrix(-0.921339,0,0,0.921339,131.188,-43.0937)">
                    <path d="M33.529,99.164C33.5,98.831 33.328,98.3 33.086,97.653C33.032,97.51 32.975,97.361 32.914,97.208C32.851,97.05 32.785,96.887 32.715,96.72C32.629,96.515 32.539,96.304 32.445,96.089L32.294,95.746C31.608,94.208 30.765,92.514 30.1,91.236L30.022,91.088C29.893,91.075 29.764,91.061 29.637,91.046C29.41,91.018 29.186,90.987 28.967,90.953C28.271,90.845 27.615,90.709 26.986,90.579C25.38,90.245 23.984,89.942 22.646,90.396C21.91,91.482 20.873,92.893 20.139,93.843C20.611,93.988 21.121,94.176 21.656,94.404C21.677,94.405 21.699,94.407 21.72,94.411C22.275,94.525 22.951,94.749 23.662,95.023L24.039,95.172L24.41,95.324C25.481,95.77 26.56,96.281 27.363,96.662L28.12,97.021C28.295,97.047 28.429,97.199 28.426,97.381L28.425,97.471L28.414,98.269C28.386,100.011 28.348,101.453 28.274,102.523C28.268,102.604 28.235,102.68 28.182,102.739C28.373,102.852 28.568,102.971 28.767,103.093L29.28,103.395C31.533,102.589 32.583,101.844 33.073,101.148C33.393,100.694 33.461,100.269 33.489,99.885C33.498,99.76 33.504,99.64 33.512,99.525C33.516,99.461 33.521,99.399 33.529,99.339C33.535,99.289 33.535,99.231 33.529,99.164Z" style="fill:rgb(159,122,80);"/>
                </g>
                <g transform="matrix(-0.921339,0,0,0.921339,131.188,-43.0937)">
                    <path d="M80.573,92.311C79.403,91.655 77.832,90.734 76.523,90.296C76.074,90.145 75.66,90.052 75.31,90.06L75.214,90.065C75.008,90.082 74.834,90.142 74.71,90.276L74.682,90.308C74.259,90.857 73.323,92.159 72.318,93.577C71.835,94.259 71.335,94.968 70.869,95.633C70.092,96.739 69.408,97.722 69.044,98.253L69.174,98.305C69.507,98.431 69.966,98.542 70.501,98.641C71.489,98.825 72.728,98.966 73.931,99.068L74.384,99.105L74.865,99.141C75.56,99.19 76.216,99.225 76.77,99.247C76.55,98.788 76.53,98.239 76.581,97.675C76.59,97.581 76.6,97.487 76.612,97.393C76.625,97.285 76.643,97.178 76.665,97.071C76.726,96.78 76.818,96.494 76.94,96.217C77.276,95.46 77.839,94.767 78.602,94.19L78.613,94.183C79.442,93.563 80.036,92.959 80.587,92.319L80.573,92.311Z" style="fill:rgb(159,122,80);"/>
                </g>
                <g transform="matrix(-0.921339,0,0,0.921339,131.188,-43.0937)">
                    <path d="M27.65,103.256L27.555,103.186L27.553,103.185C26.805,102.622 26.221,102.368 25.705,102.336C25.467,102.321 25.246,102.352 25.033,102.418C24.554,102.566 24.115,102.886 23.614,103.233L23.608,103.237L23.103,103.57L23.059,103.609L23.009,103.632C22.372,104.047 21.693,104.526 21.001,105.03C20.573,105.343 20.139,105.665 19.709,105.987L19.405,106.215L19.402,106.217L17.25,107.791L17.241,107.797L17.151,107.853L17.043,107.892L16.93,107.908L16.818,107.9L16.708,107.87L16.605,107.815L16.514,107.738L16.453,107.659L16.404,107.578L16.364,107.47L16.349,107.358L16.356,107.246L16.385,107.138L16.436,107.037L16.506,106.947L16.593,106.873L18.736,105.308C19.761,104.545 20.805,103.77 21.783,103.101C21.578,102.913 21.359,102.693 21.137,102.455C20.714,102.002 20.278,101.483 19.9,100.996C19.815,100.887 19.732,100.779 19.654,100.674C19.443,100.391 19.258,100.128 19.117,99.908L19.016,99.747C18.936,99.614 18.878,99.503 18.845,99.42C18.809,99.329 18.786,99.226 18.778,99.111C18.762,98.863 18.815,98.561 18.946,98.203C19.18,97.567 19.66,96.708 20.297,95.599L20.47,95.292C20.144,95.574 19.651,96.052 19.068,96.607C18.608,97.052 18.075,97.566 17.487,98.118L17.221,98.367L17.201,98.386L16.954,98.615L16.934,98.633L16.666,98.879C16.162,99.34 15.628,99.815 15.074,100.287C15.497,101.146 15.878,101.958 16.086,102.715C16.409,103.895 16.334,104.95 15.447,105.855C15.355,105.949 15.254,106.042 15.143,106.133C15.089,106.178 15.033,106.222 14.975,106.265L14.809,106.391C13.097,107.692 9.916,110.352 8.464,112.056C8.34,112.202 8.229,112.34 8.133,112.469C8.009,112.638 7.911,112.79 7.847,112.922C7.826,112.967 7.808,113.024 7.796,113.064C9.258,113.875 22.326,120.698 24.79,121.412C25.636,121.658 26.431,121.774 27.215,121.775C29.317,121.774 31.334,120.949 34.011,119.605C33.306,119.605 32.596,119.676 31.867,119.873L31.124,120.091C30.06,120.424 29.285,120.649 27.984,120.208C26.814,119.811 25.127,119.158 24.231,118.639C23.374,118.151 22.978,117.589 22.931,117.006C22.896,116.572 23.058,116.149 23.365,115.736C23.753,115.213 24.386,114.695 25.041,114.159L25.044,114.157L25.497,113.793L26.128,113.231C26.832,112.58 27.651,111.85 28.579,111.637L28.582,111.636C29.25,111.49 30,111.507 30.72,111.528L30.723,111.528C31.223,111.546 31.742,111.557 32.21,111.498C33.138,111.085 34.213,110.298 34.725,109.637L34.899,109.992L34.904,109.986L34.738,109.622L34.786,109.565L34.795,109.555C34.92,109.395 35.019,109.27 35.104,109.168C34.082,107.809 32.797,106.773 31.809,106.058L30.837,106.459L30.827,106.463C29.447,106.989 28.133,107.471 27.466,108.918C26.519,110.991 25.349,111.699 23.075,112.468C21.247,113.087 19.774,113.382 17.662,113.575L17.66,113.575C16.935,113.638 16.2,113.557 15.506,113.474C14.434,113.345 13.415,113.198 12.499,113.756L12.393,113.811L12.282,113.841L12.171,113.847L12.063,113.832L11.96,113.796L11.865,113.74L11.781,113.665L11.711,113.572L11.663,113.472L11.636,113.365L11.629,113.254L11.645,113.145L11.683,113.041L11.74,112.946L11.815,112.865L11.904,112.799C13.085,112.075 14.384,112.201 15.642,112.35C16.277,112.427 16.922,112.507 17.567,112.449C19.585,112.262 20.983,111.977 22.725,111.396C24.696,110.727 25.66,110.183 26.452,108.448C27.276,106.653 28.799,106.037 30.436,105.403L30.691,105.298L29.542,104.528C28.855,104.089 28.213,103.668 27.65,103.256Z" style="fill:rgb(116,87,53);"/>
                </g>
                <g transform="matrix(-0.921339,0,0,0.921339,131.188,-43.0937)">
                    <path d="M16.906,97.677C17.527,97.096 18.088,96.554 18.569,96.089L18.571,96.087C19.052,95.63 19.477,95.224 19.805,94.927C19.536,94.844 19.281,94.776 19.04,94.724C18.384,94.579 17.858,94.552 17.539,94.698L17.531,94.702C16.914,94.967 15.877,95.901 15.255,96.49C15.738,96.81 16.306,97.225 16.906,97.677Z" style="fill:rgb(159,122,80);"/>
                </g>
                <g transform="matrix(-0.921339,0,0,0.921339,131.188,-43.0937)">
                    <path d="M96.013,101.954C96.495,101.793 96.972,101.643 97.43,101.511C97.496,101.493 97.566,101.493 97.632,101.513C97.86,101.581 98.18,101.737 98.588,101.982C99.135,101.791 99.899,101.508 100.607,101.209C100.575,100.072 100.557,98.865 100.551,97.597L100.52,97.571L100.509,97.562L99.849,96.972L99.842,96.966C99.241,96.402 98.624,95.803 97.912,95.645C97.34,95.521 96.692,95.544 96.053,95.563C95.48,95.594 92.086,94.315 91.405,93.6C90.816,93.869 90.1,94.377 89.348,94.988C87.317,96.638 85.057,99.043 84.367,99.83L84.274,99.927L84.187,99.987L84.09,100.026L83.969,100.043L84.039,100.036C81.598,100.525 78.964,101.623 77.391,102.596C77.074,102.792 76.802,102.979 76.588,103.153C77.577,103.136 78.645,103.022 79.613,102.926L79.617,102.925L81.427,102.765L81.442,102.764C82.717,102.705 83.982,102.487 85.198,102.279C86.134,102.118 87.111,101.957 88.077,101.856L89.662,101.657C91.509,101.411 93.254,101.183 95.152,101.697L95.161,101.699L95.931,101.929L96.013,101.954Z" style="fill:rgb(159,122,80);"/>
                </g>
                <g transform="matrix(-0.921339,0,0,0.921339,131.188,-43.0937)">
                    <path d="M9.926,101.193L10.312,101.24C10.87,101.305 11.439,101.376 11.979,101.409C12.106,101.417 12.217,101.49 12.275,101.599L12.464,101.459C13.121,100.969 13.767,100.45 14.389,99.926L14.396,99.92C14.986,99.422 15.555,98.918 16.092,98.429C15.638,98.076 15.267,97.791 15.026,97.614C14.84,97.481 14.61,97.482 14.354,97.55C14.015,97.639 13.643,97.843 13.253,98.112C12.113,98.899 10.854,100.228 9.91,101.183L9.926,101.193Z" style="fill:rgb(159,122,80);"/>
                </g>
                <g transform="matrix(-0.921339,0,0,0.921339,131.188,-43.0937)">
                    <path d="M92.708,111.956C91.68,111.546 90.778,111.071 89.932,110.625C88.481,109.858 87.224,109.18 85.813,109.246C84.805,110.085 83.417,111.153 82.448,111.862C83.208,112.358 84.045,113.028 84.905,113.835L84.914,113.843L84.983,113.926L85.035,114.019L85.069,114.12L85.084,114.225L85.078,114.334L85.05,114.443L84.999,114.548L84.924,114.641L84.844,114.709L84.753,114.761L84.652,114.796L84.546,114.811L84.436,114.806L84.329,114.779L84.229,114.731L84.14,114.666L84.135,114.661C83.051,113.655 82.017,112.872 81.148,112.403C80.557,112.082 80.06,111.911 79.713,111.963L79.704,111.964C79.038,112.048 77.782,112.657 77.021,113.051C77.688,113.835 78.532,114.983 79.349,116.095C80.1,117.122 80.812,118.092 81.276,118.606L81.277,118.607C82.341,119.797 84.845,120.722 85.657,121.031C86.519,121.357 87.289,122.174 88.173,123.142L88.582,123.574C90.97,123.425 92.186,123 92.849,122.467C93.5,121.945 93.586,121.328 93.789,120.856C93.908,120.575 93.894,119.938 93.83,119.113C93.674,117.08 93.124,113.997 92.708,111.956Z" style="fill:rgb(159,122,80);"/>
                </g>
                <g transform="matrix(-0.921339,0,0,0.921339,131.188,-43.0937)">
                    <path d="M111.83,102.177C111.347,101.988 110.653,102.007 109.851,102.116C108.242,102.336 106.23,102.98 104.468,103.54C103.714,103.777 102.99,104.01 102.334,104.2C104.035,105.551 106.006,107.203 107.911,108.813L109.342,110.023L110.762,111.223C110.1,108.976 109.71,106.294 109.71,105.707C109.71,105.493 109.777,105.26 109.91,105.005C110.07,104.697 110.332,104.342 110.652,103.921C111.013,103.44 111.44,102.861 111.83,102.177Z" style="fill:rgb(159,122,80);"/>
                </g>
                <g transform="matrix(-0.921339,0,0,0.921339,131.188,-43.0937)">
                    <path d="M61.764,119.092C60.727,117.579 57.092,112.4 56.126,111.148C55.984,110.969 55.762,110.906 55.498,110.9C55.148,110.892 54.734,110.985 54.284,111.135C52.971,111.575 51.392,112.502 50.221,113.159C50.773,113.801 51.37,114.407 52.204,115.029L52.206,115.03C53.351,115.894 54.045,117.023 54.196,118.233C54.279,118.893 54.295,119.551 54.038,120.087C55.763,120.017 58.469,119.823 60.307,119.481C60.842,119.381 61.301,119.272 61.634,119.144L61.764,119.092Z" style="fill:rgb(159,122,80);"/>
                </g>
                <g transform="matrix(0.921339,0,0,0.921339,4.41897,-22.2736)">
                    <path d="M30.803,71.116L31.153,71.206L31.509,71.303C32.747,71.647 34.285,72.158 36.23,72.862L36.23,74.059C35.594,73.85 34.771,73.61 33.925,73.39C33.482,73.275 33.033,73.166 32.601,73.07C32.22,72.985 31.853,72.91 31.515,72.85C30.756,72.716 30.133,72.662 29.801,72.715C29.174,72.815 28.287,73.408 27.301,74.31C25.35,76.09 22.917,79.069 21.139,81.112C20.191,81.698 19.2,82.28 18.298,82.81L18.296,82.811L16.166,84.081L16.151,84.091C15.961,84.217 15.619,84.639 15.242,85.194C14.451,86.358 13.437,88.118 13.262,88.435L13.212,88.541L13.186,88.655L13.184,88.769L13.206,88.878L13.247,88.979L13.305,89.069L13.379,89.146L13.465,89.208L13.489,89.222L13.587,89.26L13.689,89.28L13.892,89.266L13.989,89.233L14.079,89.182L14.161,89.114L14.229,89.029L14.242,89.009C14.819,88.001 15.697,86.532 16.297,85.659C16.511,85.349 16.671,85.118 16.766,85.048L18.883,83.789C20.875,82.615 23.306,81.189 24.792,80.025C25.189,80.705 25.616,81.283 25.971,81.763L25.973,81.767C26.22,82.094 26.444,82.394 26.583,82.638C26.641,82.738 26.69,82.816 26.69,82.88C26.69,83.575 26.023,87.781 25.029,89.866C23.539,91.119 21.73,92.601 20.723,93.259L20.721,93.261L20.633,93.333L20.564,93.418L20.514,93.512L20.483,93.612L20.469,93.716L20.477,93.825L20.506,93.934L20.561,94.039L20.633,94.127L20.718,94.196L20.812,94.246L20.912,94.277L21.016,94.291L21.125,94.283L21.234,94.254L21.339,94.199C22.172,93.657 23.564,92.56 25.862,90.635L28.903,88.064L30.047,87.088C35.637,89.729 38.37,90.446 41.145,90.097C42.201,89.961 43.138,89.728 43.989,89.442C43.582,91.487 43.089,94.33 42.942,96.246C42.866,97.231 42.897,97.988 43.039,98.322C43.28,98.887 43.418,99.599 44.195,100.218C44.869,100.757 49.031,101.686 49.031,101.686C49.663,101.778 50.025,101.272 49.903,101.359C49.903,101.359 51.495,99.607 52.132,99.315L55.08,99.469C57.774,99.632 60.863,99.819 63.35,99.696C65.067,99.611 66.505,99.37 67.363,98.895C69.727,97.599 73.23,94.069 74.898,91.459C75.343,90.762 75.658,90.127 75.799,89.613C75.912,89.201 75.914,88.853 75.818,88.588C75.431,87.517 74.042,85.94 72.763,84.529C73.976,85.076 75.815,85.719 77.213,86.011C77.865,86.148 78.428,86.205 78.804,86.157C79.348,86.094 80.061,85.817 80.751,85.545C81.142,85.393 81.56,85.227 81.898,85.131C82.061,85.085 82.195,85.046 82.282,85.063C82.327,85.072 82.409,85.118 82.522,85.178C82.889,85.373 83.471,85.73 84.073,86.097C85.509,86.975 87.385,88.107 88.724,88.614L88.163,89.29L88.16,89.294L87.769,89.778C86.334,88.972 84.217,87.718 82.71,87.426C81.877,87.264 81.208,87.399 80.826,87.889C79.774,89.242 75.556,95.263 74.951,96.181L74.95,96.182C74.855,96.325 74.876,96.514 74.996,96.634C75.123,96.761 75.338,96.889 75.63,97C75.995,97.138 76.496,97.262 77.08,97.371C79.229,97.771 82.543,97.973 84.167,98.012C84.26,98.07 84.365,98.123 84.481,98.172C84.961,98.374 85.567,98.495 86.345,98.549L86.348,98.549C87.645,98.63 89.166,98.48 90.515,98.338L92.295,98.179C93.617,98.118 94.92,97.896 96.182,97.674C97.094,97.516 98.046,97.357 98.988,97.258L98.994,97.257L100.604,97.057L100.609,97.056C101.104,96.989 101.591,96.922 102.075,96.871C105.454,98.609 107.827,99.678 110.305,99.677C111.156,99.677 112.021,99.553 112.941,99.285C115.471,98.542 129.093,91.441 130.157,90.833L130.287,90.736L130.389,90.603L130.448,90.451L130.466,90.301C130.469,90.103 130.376,89.827 130.171,89.504C129.121,87.844 124.931,84.321 122.986,82.862L122.894,82.792C122.789,82.707 122.694,82.621 122.609,82.533C122.509,82.429 122.423,82.324 122.35,82.216C121.922,81.584 121.922,80.87 122.136,80.087C122.32,79.419 122.649,78.706 123.019,77.952C123.542,78.385 124.08,78.812 124.625,79.218C124.809,79.356 124.992,79.489 125.173,79.617L125.527,79.866C125.647,79.949 125.766,80.03 125.884,80.108C126.965,80.829 127.978,81.39 128.9,81.781L128.906,81.784L129.01,81.814L129.115,81.825L129.22,81.816L129.323,81.787L129.419,81.739L129.507,81.672L129.581,81.587L129.637,81.489L129.644,81.474L129.674,81.37L129.685,81.265L129.676,81.16L129.647,81.057L129.599,80.961L129.532,80.873L129.447,80.799L129.349,80.743L129.34,80.739C128.633,80.44 127.876,80.036 127.072,79.532C126.958,79.461 126.843,79.387 126.726,79.311L126.585,79.218L126.976,79.174L127.293,79.137L127.844,79.071C128.284,79.02 128.707,78.978 129.063,78.975C129.335,78.972 129.56,78.982 129.699,79.052C130.154,79.279 131.891,80.517 133.422,81.603C134.587,82.427 135.682,83.2 136.144,83.501L136.155,83.508L136.344,83.581L136.445,83.59L136.546,83.582L136.571,83.575C137.943,84.577 138.859,85.441 139.414,86.199C139.934,86.909 140.125,87.504 140.047,88.023C139.953,88.64 139.484,89.123 138.855,89.543C137.79,90.252 136.265,90.759 134.948,91.232C133.718,91.674 133.016,92.237 132.646,92.851C132.201,93.592 132.22,94.427 132.458,95.301C132.673,96.088 133.066,96.91 133.386,97.714C133.413,97.781 133.392,97.851 133.352,97.924C133.303,98.016 133.226,98.109 133.128,98.205C132.669,98.654 131.794,99.131 130.663,99.62C126.098,101.593 117.455,103.633 114.008,103.841C112.463,103.934 111.439,104.133 110.799,104.39C110.286,104.595 109.992,104.852 109.842,105.115C109.667,105.423 109.664,105.756 109.801,106.102C109.958,106.498 110.323,106.921 110.772,107.321C110.908,107.465 110.984,107.601 110.965,107.743C110.943,107.908 110.816,108.058 110.628,108.217C110.109,108.654 109.154,109.063 107.879,109.458C101.666,111.384 88.078,112.787 78.53,113.311C65.019,114.051 65.322,112.881 62.647,111.253C61.522,110.568 59.776,110.313 57.564,110.296C54.363,110.27 50.155,110.72 45.456,110.901C40.812,111.079 36.274,110.728 32.938,109.61C30.791,108.891 29.147,107.862 28.344,106.425C27.028,104.068 25.15,103.173 23.073,102.604C21.75,102.242 20.345,102.015 18.964,101.596L18.943,101.59C15.694,100.824 13.553,99.994 12.242,99.105C11.336,98.49 10.844,97.861 10.685,97.199C10.529,96.548 10.698,95.881 11.058,95.198C11.309,94.725 11.314,94.201 11.107,93.646C10.925,93.16 10.573,92.643 10.092,92.117C7.995,89.823 3.383,87.278 1.148,85.998C0.65,85.714 0.384,85.436 0.343,85.129C0.304,84.834 0.481,84.548 0.755,84.26C1.802,83.161 4.289,82.2 6.03,81.853L6.033,81.852C10.407,80.943 19.34,79.294 25.917,71.811C26.81,70.92 27.628,70.508 29.711,70.88C30.043,70.939 30.406,71.018 30.803,71.116Z" style="fill:rgb(216,167,109);"/>
                </g>
                <g transform="matrix(0.921339,0,0,0.921339,4.41897,-22.2736)">
                    <path d="M39.012,79.952C39.163,79.855 39.304,79.769 39.432,79.695C39.655,79.567 39.843,79.474 39.997,79.417C40.284,79.5 40.577,79.591 40.875,79.686C41.08,79.752 41.287,79.821 41.494,79.892C43.843,80.691 46.248,81.744 46.983,82.264C47.246,82.449 47.734,82.9 48.398,83.506C48.962,84.02 49.674,84.672 50.497,85.392C49.347,85.613 48.256,86.177 47.052,86.812C47.035,86.821 47.019,86.831 47.004,86.842C45.391,87.688 43.562,88.644 41.004,88.973C38.489,89.301 35.998,88.619 30.995,86.283C33,84.59 35.04,82.9 36.72,81.61L36.784,81.576L36.832,81.524C37.719,80.841 38.446,80.315 39.012,79.952Z" style="fill:rgb(216,167,109);"/>
                </g>
                <g transform="matrix(0.921339,0,0,0.921339,4.41897,-22.2736)">
                    <path d="M113.479,73.128C113.684,73.043 113.888,72.961 114.089,72.884L114.176,72.85L114.472,72.739L114.524,72.721C114.94,72.57 115.335,72.444 115.691,72.356L116.247,73.337L116.248,73.339C116.728,74.175 117.296,75.153 117.535,75.804C117.592,75.957 117.627,76.163 117.631,76.189C117.506,76.483 116.958,77.243 116.328,78.002C116.16,78.204 115.986,78.407 115.812,78.6C115.648,78.783 115.484,78.958 115.326,79.118C115.127,79.319 114.938,79.495 114.769,79.631L114.553,79.483L114.342,79.339C114.198,79.242 114.053,79.146 113.908,79.056C113.742,78.954 113.575,78.859 113.404,78.774C112.929,78.537 112.428,78.383 111.861,78.397C111.298,78.412 110.665,78.59 109.926,79.035C109.872,77.981 109.842,76.649 109.82,75.09L109.816,74.802L110.464,74.495C111.282,74.107 112.392,73.578 113.479,73.128Z" style="fill:rgb(216,167,109);"/>
                </g>
                <g transform="matrix(0.921339,0,0,0.921339,4.41897,-22.2736)">
                    <path d="M101.281,86.847L101.344,86.893L101.43,86.946L101.454,86.97C98.979,88.292 95.135,92.438 94.43,93.223C91.996,93.732 89.269,94.831 87.58,95.89C86.795,96.382 86.229,96.876 85.981,97.296C85.962,97.327 85.946,97.357 85.93,97.387C85.527,97.336 85.189,97.253 84.921,97.139L84.917,97.137C84.508,96.969 84.4,96.657 84.4,96.19C84.4,96.003 84.419,95.787 84.447,95.553C84.556,94.642 85.113,93.782 85.996,93.117C87.363,92.098 88.141,91.13 89.039,90.007L90.144,88.673C91.07,87.611 92.734,86.394 94.072,85.421C94.072,85.421 94.621,85.02 94.884,84.823C96.331,84.999 98.819,85.66 100.574,86.504L100.73,86.54L100.581,86.507L100.917,86.66L100.928,86.666L101.281,86.847Z" style="fill:rgb(216,167,109);"/>
                </g>
                <g transform="matrix(0.921339,0,0,0.921339,4.41897,-22.2736)">
                    <path d="M61.862,90.409C62.706,89.616 65.156,87.857 67.13,86.432C68.337,85.567 69.373,84.823 69.875,84.42C70.217,84.145 70.462,83.972 70.675,83.888C70.985,84.253 71.375,84.683 71.784,85.132C72.94,86.415 74.401,87.99 74.762,88.972C74.798,89.075 74.761,89.221 74.702,89.404C74.576,89.801 74.304,90.31 73.93,90.886C72.423,93.211 69.28,96.557 66.817,97.905C66.066,98.319 64.734,98.499 63.153,98.568C60.69,98.676 57.638,98.49 55.141,98.341L55.139,98.341L54.505,98.308C55.467,97.832 56.471,97.226 57.079,96.538C57.562,96.005 58.291,95.005 59.07,93.943C60.008,92.669 61.056,91.237 61.732,90.537L61.786,90.501L61.862,90.409Z" style="fill:rgb(216,167,109);"/>
                </g>
                <g transform="matrix(-0.921339,0,0,0.921339,141.131,-37.8018)">
                    <path d="M49.216,92.861C50.471,92.464 51.931,91.871 53.731,91.048C53.738,90.874 53.748,90.69 53.763,90.497L53.786,90.224C52.054,88.767 50.325,87.343 48.854,86.206L48.673,86.067L48.609,86.032L48.56,85.98L48.265,85.754C46.888,84.706 45.931,84.072 45.396,83.873C44.151,84.236 42.773,84.729 41.558,85.218C42.197,86.447 42.991,88.042 43.657,89.521L43.809,89.862L43.96,90.206C44.067,90.454 44.17,90.696 44.265,90.93C44.333,91.095 44.397,91.256 44.457,91.412L44.551,91.658L44.634,91.884C44.877,92.566 45.021,93.13 45.039,93.491C45.946,93.545 46.878,93.461 47.952,93.211C48.16,93.163 48.374,93.108 48.594,93.047C48.796,92.991 49.003,92.929 49.216,92.861Z" style="fill:rgb(116,87,53);"/>
                </g>
            </g>
        </g>
    </g>
</svg>
