<?xml version="1.0" encoding="UTF-8"?>
<svg id="Layer_2" data-name="Layer 2" xmlns="http://www.w3.org/2000/svg" viewBox="0 0 95.4714237517 49.6451370468">
  <defs>
    <style>
      .cls-1 {
        fill: #915151;
        fill-rule: evenodd;
      }
    </style>
  </defs>
  <g id="Layer_1-2" data-name="Layer 1">
    <g>
      <path class="cls-1" d="M95.3747382454,7.6860640874l-.1450489099-.0966855063-.2416931152-.1450076089-.3867007241-.1450076089-.4833862303-.1450489099-.6284351402-.2416931152-1.2568289794-.3383786214-1.5565912197-.2223642741-.0869797848-.0193288411h-.0483221027l-.6981098301-.0681052541-1.2355176931-.2702733673-1.5952076009-.2900565188-1.5952076009-.2416931152-1.6435710045-.1450076089-1.6435710045-.1933710125-1.6435297035-.0966855063-1.6918931071-.0966442053h-1.6435710045l-1.6918931071-.0483634036-1.6435710045.0483634036-1.6435710045.0483221027-1.6435297035.0483221027-1.5952489018.0966855063-1.5468441973.1450489099-1.5468854982.1450076089-1.4985633955.1450076089.1863911532.1118429521-.8631483961.0331646568h-1.1118213705l-1.4316145679-.1022611335-.7436647696-.1394319817-1.4985220946-.2416931152-1.5952489018-.1450076089-1.5468441973-.0966855063-1.5468854982-.0966855063h-1.5468854982l-1.5468854982.0483634036-1.5468854982.0966442053-1.5468854982.0966855063-1.4985220946.1450489099-1.4985220946.1933297116-1.4501999919.2416931152-1.450199992.1933710125-1.3535144857.2900565188-1.4018778893.2416931152-1.305192383.2900152178-1.2568289794.3384199224-.0856994556.0205678693-.5910577873.1244397396-.4604229063.1279090187-.0713267276.0170985902-1.1601434732.2900565188-.2499946046.0795456151-.4267626382.1137840964-.6284351402.1933710125-.2900152178.0966855063-.5317496339.1450076089-.9668137616.2900565188-.8700869544.2900565188-.8218061527.2416931152-.7250793455.2900152178-.6767572428.1933710125-.5317496339.1933710125-.4833862303.1933297116-.386742025.1450489099-.2416931152.0966855063-.1389776713.0694681852,1.5408555606-.4078468066.1297262602-.0305213965-.0814041576.0305213965-.8217648518.2416931152-.7734427491.2416931152-.6284351402.1933710125-.4833862303.1450076089-.1450489099.0483221027-.755600742-.167888331.1272069027-.0254413805-1.6918931071-.918491659-.6767572428-.531708333-.6284351402-.5317496339-.6284351402-.5800717366-.5800717366-.6284351402-.6283938392-.6767572428-.5801130375-.6284351402-.5800717366-.6767572428-.5800717366-.6283938392-.6284351402-.6767572428-.6283938392-.5800717366-.6284351402-.5801130375-.6767572428-.531708333-.6767572428-.4834275313-.7250793455-.4350641277-.7734427491-.3383786214-.8218061527-.2416931152.4846252586.3461844995-.3395763488-.152813487-.7251206464-.2416931152-.4833862303-.0966855063-.1450076089-.0483634036v-.1450076089l-.2417344161.0483634036h-.0482395008l-.5801543385-.1933710125-.7734427491-.1450076089h-.0483634036l-.7734014482-.1933710125-.7251206464-.0483634036-.6767572428.0483634036-.6284351402.1933710125-.5800717366.2900152178-.5800717366.386742025-.5317496339.4350641277-.4833862303.531708333-.4833862303.5317496339-.4834275313.5317496339-.9667724607,1.1601434732-1.0634992679,1.0634992679-.5317496339.4350641277-.5800717366.3867007241-.0966855063.0966855063-.1450076089.2900565188-.1450076089.3867007241-.0483634036.5800717366.0966855063.1450076089.1450489099.1933710125.1933297116.1450076089.1933710125.1933710125h.1450076089l.4834275313.2900565188.3383786214.1933297116.2416931152.0966855063.1450076089.0966855063.1450076089.0483634036h.5801130375l.531708333-.1450489099.5317496339-.0966855063.4833862303-.1450076089.5317496339-.1933710125.5317496339-.1450076089.4833862303-.1450076089.5317496339-.1450076089.5317496339-.1450489099.4833862303-.1450076089.5317496339-.1450076089.5317496339-.0966855063.4833862303-.0966855063.5317496339-.0966855063.531708333-.0483221027.5317496339-.0483634036h.5317496339l.3867007241-.0966855063.2707276777-.1353431884.2126998536.1353431884.8217648518.6284351402,1.0151358643.8701282554,1.0634992679,1.0151358643.7104175109.6765507381.739782481.8219713565.8700869544,1.0151358643.8218061527,1.0151358643.7734427491,1.0151358643.6767572428,1.0151771652.531708333.2900152178.5317496339.3383786214.5800717366.2900565188.5317496339.2416931152.5800717366.1933710125.5800717366.0483221027.5801130375-.0966855063.1903973447-.073226571.0996178732.0249044683.6767572428,1.1601434732.4667419505.6334738552.0166855807.0916467913.1450076089.4350228267.1450076089.386742025.2416931152.3867007241.2416931152.2900565188.3383786214.3383786214.386742025.3383786214.4833862303.1933710125.2900565188.0483221027.0664532164.0110686526-2.1111389738,2.4630643044-3.6111066014,3.5200380234-.1933297116.5800717366-.2900565188.6284351402-.0966855063.6283938392.1856477363.2475165481-.0406401274.2842330859v.1450076089l-.0172637939.3630352841-.127743815-.0729787653-.1933710125,1.6918931071.1450489099.3867007241.2416931152.3383786214.2900152178.2417344161.3383786214.2416931152.2900565188.1933297116.3383786214.1450489099.3383786214.1933297116.2900565188.2417344161v-.2417344161l.0483221027-.0966442053.0966855063-.0966855063.1933710125.1450076089.2900152178.2416931152.386742025.0966855063.3867007241-.1450076089.2900565188-.3383786214v-.4834275313l-.0483634036-.2416931152-.05521936-.110480021.05521936-.0828496905.0752090162-.2005160756.1181619963-.1378625459-.0276303305-.110521322.0276303305-.0828496905-.4833862303-.4834275313-.386742025-.918450358-.1933297116-.918450358-.0966855063-.3867007241,2.2155477563-2.1824657014-.1369539251.152152672.5317496339-.2900152178.5317496339-.386742025.4350641277-.3867007241.4833862303-.3867007241.4350641277-.4350641277.4350641277-.4834275313.4350641277-.3867007241.4833862303-.4350641277.101146008-.640742821.5272891322-.5194006521.3383786214-.0483634036.3383786214-.0966855063.2416931152-.0483221027.2132367658-.0426638735.076778452.1876714825-.3867007241.4350641277-.369560833.596963822-.5972529286.8532361699-1.3535144857,2.0302717285-.5800717366,1.0151358643-.5800717366,1.0634992679-.5317496339,1.0634579669-.4350641277,1.1118213705-.2900152178.6284351402-.0966855063.6767572428.0966855063.5800717366.1933297116.6284351402.5801130375,1.1601434732.2900152178.5317496339.0725244549.1450076089.072483154.1933710125.0966855063.1450076089.386742025.2416931152.4350641277.1450489099.4350641277.0966442053h1.3535144857l.4350641277.0483634036.4833862303.0966855063.3383786214-.1933710125.1933710125-.2900565188v-.2900152178l-.2417344161-.2900565188v-.3383786214l-.1450076089-.2900152178-.2900152178-.1933710125-.386742025-.0966855063-.3383786214-.0966855063-.3383786214-.0483221027h-.3383786214l-.3383786214-.1933710125-.0966855063-.2416931152v-.3383786214l.3383786214-1.0634992679.0966855063-1.2568289794v-1.450199992l5.4624213464-5.8974854741v-.9188633674l.143520775-.1790808864.0498502375.0344862869.6767572428.2900152178.2743208597.0731439691.6441294983.2652346524.7734427491.1933710125.7734427491.0966855063h1.4018365883l.6767572428-.0966855063.6284351402-.1450076089.5800717366-.1450076089.5317496339-.1933710125.4350641277-.1933710125.3867007241-.1933710125.1933710125-.0966855063v.1933710125l-.1450076089,1.7402565107-.1933710125,1.7885786134-.1450076089,1.7402152098-.0483634036,1.7402565107.2416931152,1.6918931071.4834275313,1.5468854982.918450358,1.4985220946-.5800717366,1.4018778893-.5801130375,1.4018365884-.6767572428,1.3535144857-.6767572428,1.3535557866-.6767572428,1.4018365884-.7250793455,1.305192383-.6767572428,1.3535144857-.6811351427,1.2713669112-.6258331808.4338250994-.0465461621-.0132989035-.2900565188-.0966855063-.1450076089-.2416931152-.1450489099.3867007241-.3383786214.1450489099-.4833862303.0966855063h-.4350641277l-.1450076089.2900152178-.2416931152.2416931152-.3383786214.0966855063-.2900565188-.1933710125-.2900152178.386742025-.3383786214.3867007241-.7251206464.7251206464-.2900565188.3867007241-.2416931152.4350641277-.1450076089.4350641277.0483221027.4350641277,1.0634992679-1.0634992679-.0483221027.2417344161-.0657511004.1972120002-.2345067512.3370982922-.0381207699.0457614442-.1453793174.2180276751-.0605884826.0871036876-.2290963277.2749403738-.1933710125.2416931152-.0966855063.1933710125.0483221027.1450076089,1.0251719933-.8928850746.3283837934-.2189362959.4833862303-.2416931152.4350641277-.2416931152.3383786214-.1933710125.2416931152-.1450076089.0966855063-.0483634036-.0341145785.1308413857-.0625709278.0625296269-.2416931152.2900565188-.1933710125.3383786214-.0966855063.3383786214v.3383786214l.0966855063.2900152178.0966855063-.2900152178.1933710125-.2900565188.2416931152-.2416931152.2900152178-.2416931152.2417344161-.2416931152.1933297116-.2900565188.0483221027-.1450076089.1450489099-.0966855063.4833862303-.2900565188.4350641277-.2416931152.4350641277-.1933710125.386742025-.1450076089.3867007241-.1933710125.3867007241-.2416931152.386742025-.2900152178.3867007241-.3383786214.3383786214-.3383786214.2417344161-.2416931152.1933297116-.1933710125.0483634036-.0483634036.1933297116-.4833862303.2889826943-.6140211113-.0956116818.4206500988.6284351402-.7250793455.5317496339-.8218061527.531708333-.8700869544.4350641277-.8701282554.4834275313-.918450358.4833862303-.8701282554.5800717366-.8701282554.6767572428-.7734427491.0966855063-.6767572428.1450076089-.6283938392.0483634036-.6767572429-.1450489099-.2900978197v-.8217235508l.0942900516-.8266796639.0507588583.4399376389.3867007241-1.4985220946.386742025-1.0151358643.2900152178-1.0151358643.1933710125-1.5952489018.6284351402-.4350641277.2608980534-.2319047918.077480568-.058110426.8700869544-.7734427491.7734427491-.7251206464.7734427491-.7250793455.6767572428-.7734427491.5800717366-.7250793455.5801130375-.7251206464.531708333-.7734427491.0966029044-.1448424051.1934536144-.2418583189.1450076089-.1450076089,1.5952076009,1.0634579669,1.1601847741.7734427491.1261330782.0840887188.7439951771.592668524.4350641277.1933710125.3867007241.3383786214,1.0634579669,1.0634579669.386742025.2900565188.412555114.1833761844-.1135362908,3.1221860448-.1056478108.4649247091-.2416931152,1.0151771652-.2900565188,1.0634579669-.2900565188,1.0151358643-.2416931152,1.0151358643-.0096644205.0676509437-.2320286946.6091062991-.2900565188.7251206464-.0966442053.2416931152-.3383786214.0483221027-.4834275313.1450489099-.1898604324.0690138748-.3418892015.0759937341-.4350228267.1450076089-.4350641277.1450489099-.4350641277.1933297116-.3383786214.2416931152-.3383786214.2900565188.3383786214.2900565188.4350641277-.0966855063.2022094142-.0606710844-.1497159164.556075889-.1975424077.084666932-.2900152178.1933710125-.2416931152.1933297116-.2417344161.2417344161-.1450076089.2416931152h.3383786214l.2900565188-.0966855063.2900152178-.1933710125.2900565188-.1933710125.2416931152-.1933297116.2416931152-.2417344161.4350641277-.1450076089.4833862303-.1933710125.8701282554-.2900152178.386742025-.1450076089.2900152178-.1450489099.2416931152-.1450076089.3383786214-.1933710125.386742025-.1933297116.6767572428-.386742025.2900565188-.1933710125.1933297116-.0966855063.0483634036-.0483221027.0483221027-.6767572428.0904490639-.5426530827.1996074548-.4241606789.3383786214-.7734427491.2900152178-.8217648518.2900565188-.8701282554.2900565188-.8217648518.2416931152-.8217648518.4833862303-1.7402565107-.3383786214-.3383786214-.3867007241.7734427491-.1338976554.4016516652.2497880999-1.1553938648.2225294779-.8900353096.0153639506-.0563344855.0329168511.0082188875.3383786214-.1450076089.1933710125-.2900565188.0966855063-.3383786214v-.386742025l-.5317496339-.4833862303-.5800717366-.5317496339-.5800717366-.531708333-.5801130375-.4834275313-.5800717366-.531708333-.5800717366-.5801130375-1.0634992679-1.1601434732-.1450076089-.6284351402-.0966855063-.6283938392-.1450076089-.5800717366-.3273925707-.4502215736.0068972574-.1311717932.1271243008-.0953638761.1933710125-.0966855063.1450076089-.0966855063.386742025-.1933710125.1933297116-.0483221027h.1933710125l.1933710125-.0483634036,1.2085068768-.918450358,1.2085068768-.8701282554,1.2568289794-.8217648518,1.2085068768-.7734427491,1.3051510821-.7250793455,1.2568289794-.7251206464,1.3535557866-.6284351402,1.3051510821-.6283938392,1.3535144857-.5800717366,1.3535144857-.5317496339,1.3535557866-.5317496339,1.3535144857-.4350641277.0412596415-.0142488251.4904486915-.1307587838,1.450199992-.386742025,1.4018778893-.3383786214,1.4018365884-.3383786214,1.3535144857-.2900152178,1.305192383-.2416931152,1.2568289794-.2416931152,1.2085068768-.1933710125,1.1601847741-.1933710125,1.0634579669-.1933710125,1.0151358643-.0966855063.918450358-.1450076089.8701282554-.0966855063.7734427491-.0966855063.6284351402-.0483221027.5800717366-.0483221027.4350641277-.0483634036.2900152178-.0483221027h.386742025l.1933297116.0483221027.2900565188.0483634036.386742025.0483221027.3383786214.0483221027h.918450358l.0966855063-.0483221027v-.0483221027l-.0966855063-.0483634036ZM44.231079104,33.9346715514l-.0483634036-.2900565188.2416931152-.2416931152-.1597520454.7668345983-.0335776662-.2350849644ZM.9375726944,7.4099259863l.124109332.0684356616-.1431903674.014331427.0190810354-.0827670887ZM44.208817896,34.4377583313l-.0261021956.1253070594-.086071164.2294680362.0377490614-.1811046326.0744242983-.173670463ZM62.4068804556,25.9585509452v.1519461672l-.2334742276-.3335464112.2334742276.1816002439Z"/>
      <polygon class="cls-1" points="26.3936150729 10.2964075526 26.4480084141 10.2692315324 26.3452929703 10.2964075526 26.3936150729 10.2964075526"/>
    </g>
  </g>
</svg>