<?xml version="1.0" encoding="UTF-8"?>
<svg id="Layer_2" data-name="Layer 2" xmlns="http://www.w3.org/2000/svg" viewBox="0 0 90.5027905463 62.0989998497">
  <defs>
    <style>
      .cls-1 {
        fill: #fb649f;
        fill-rule: evenodd;
      }
    </style>
  </defs>
  <g id="Layer_1-2" data-name="Layer 1">
    <path class="cls-1" d="M90.4916475592,51.7887595074c.2904429163-1.5733468098-5.2076970429-4.199225607-3.5660959555-1.8767058877,6.3236574021,5.9641871473-7.6874255355,4.0182848885-10.696912228,3.3785012029-3.7868613708-.6621577669-7.5842848886-1.9974358958-11.2607724678-3.3784089619-4.3483782869-1.5221753642-7.2058607746-5.7502728756-10.1344348798-9.1961269288-2.8120645063-3.5293737728-4.4190508687-7.9052148992-6.9433234799-11.6362762187-5.0724196605-8.2902363836-14.0893315205-12.066756842-21.2079506198-17.8289741074-2.5965311411-1.8319552431-4.4884808708-4.8765826671-5.8177933847-7.5071604816C17.133358335-.9729545929,10.0170065805-.0636773175,4.3491329023.3651825888c-1.8109592714.4853880638-1.4401505188,1.6705611643-.1874964166,2.8155678455,2.3066761449.8634644875,4.939561337,1.3205270891,7.3192784898,1.8765114655,3.1716422267,1.3870759814,5.2879550033,4.2891222966,6.56865815,7.1315991536,2.9454184041,7.795621291.6770069177,4.6983015938-3.5658236644,1.1259047828-2.9248200757-1.0124656679-5.5854033228-2.5436292086-8.6330808616-3.3779955342-1.7049126239.0279829186-2.9357474999,2.0144342829-.3754190237,2.0641080609-.7039948318.2206917995-1.4841775851.8331293028-1.3137639123,1.689686606-.0397101206.1635566365,3.8865262063-.0865847145,3.0028619461.3750209808-.8705531435-.2588268887-2.6207315938,1.6949055101-1.126197329,1.313930926,2.3729577212-.5875124809,2.6754717714,1.0333888997,5.63008673-.5637443128,1.5200415504,1.206093841,5.0704765846,3.1353662225.9388630271,2.6278012004-1.572764882-.3209843222-3.876253202-.895094015-5.4430352362-.3755111825-.9551973981.1094377362-1.6606643627.7677918903-2.6271541063.3757182436-1.1740532828-.7606557748-2.698146475-.5603770086-3.9412024841.0004061811-.647639771.223266333-.9285765427,2.0354175969-.0000298482,1.1258537817.1785419766-.3270805222,3.4705751185-.2095898052,2.2519224542.1879102577-.4557146394.3295998244-1.299169931.2006646718-1.501162823.9382156141-.3197498814.2311945011-.607439169.8374097605-.1876922526,1.1259145172.4439326205-.2028019491,1.8378176803-.7376920025.9385708127.1879492116-.9933488365,2.6337483896,2.750122762-1.5607018932,3.5654334262-1.5012665191,2.7915887597-1.0451980361,5.888641296.3582321637,8.4454104429,1.3131307548,1.5771923767.6926897168,4.1008066079.0570759409,5.4428727354,1.1256532652.9021162898.6004065242,1.1015143513-.5322777595,2.0641566345-.3748935761.6693430603,1.3602386716,1.4632297677,2.2797222962,1.6889745085,3.7536321425.5826796532.9243444758,1.5943158723,1.7555650729,1.8768904335,2.8151468712,2.4463062269,2.2080520859-.8902211217,3.6536385614.750766426,6.5690160484,1.0706855056,3.1551240543,2.6372569185,2.3929427583,1.3132672379,6.1930465728-.3743205664,2.3023639096,1.6525855417,6.0963521434-.1868454517,7.5070458651-2.642849393,3.2665072411-4.9166852311,6.8409212458-7.8827161913,9.7593380471-.4643098241.8138816253-1.9438977169.8523416929-2.8150156285,1.126206053-1.8114430907,1.7813915718-.8428118896,1.7063926507.9383231073,1.6882094929-.25550371.9940559274.0801371556,1.6264732599.9386320072.5634675672.7990635469.0587260921,1.7388682498-.1252212029,2.4394464073-.3753275893,2.0629723512-1.0795502608,3.340539542-3.2294933334,4.5039159471-5.254703889.6533560745-.6964399988,1.3030261126,2.2943612125,1.5014697846-.9385885584-.5906174801-.7821542652-.0762593163-1.3867108666.375645961-1.8765594454.4560612355-.4150158731.4785008599-1.2656526466,1.1258715013-1.5016101931.5658131702-1.6129391709,2.4642437822-1.9344171741,3.1904922956-3.3777948077,1.1780645134-1.5768412225-1.211527516-9.2940526142,1.6891122856-4.8801403694,1.3856304614,1.6583345455,2.3607222149,3.8193979063,1.1258192685,5.8181415383-.6484785874,1.8941228467-1.4834216683,4.3350932149-3.3780016293,5.6307119922-.8371982845.8866206314-2.1661398708.5200288026-3.0029174436,1.3132986129-.6834203459-.0090506052-1.160242418,2.1987544917-.3751774948,1.5017746758,1.37782196-.4231208417-.125095809,1.3447095009.9383071607,1.5015227911,1.9043064225-2.1237577736,5.3207801817-1.2047545008,7.131557286-3.5663766129.0286791704-.5167671504.4402826604-.9579979584.562842144-1.5011697304-.0329330982-.6522272393.0314189256-.6907172272.3754369-.1876786135.1874302893,2.4163960826,1.4533088995-.5272970552.7502368597-1.501374047-1.1140291976-.8535323628.1110837107-2.5162348343.1878422759-3.7536432431-.0178877797-2.201481821,1.0103997005-4.3015227691.7515586167-6.3809405431-2.3399507294-2.0972602854-4.5854370209-4.4230236652.1874925358-2.2521845282,8.4524166562,2.447724147,14.5322365012,10.060687591,22.5205468628,13.3254109599,5.4072112259,2.7091517998,29.4378931366,7.1485636649,29.652683792-1.5017718652Z"/>
  </g>
</svg>