<?xml version="1.0" encoding="UTF-8"?>
<svg id="Layer_2" data-name="Layer 2" xmlns="http://www.w3.org/2000/svg" viewBox="0 0 90.707457921 31.9415081588">
  <defs>
    <style>
      .cls-1 {
        fill: #bcfba6;
      }
    </style>
  </defs>
  <g id="Layer_1-2" data-name="Layer 1">
    <path class="cls-1" d="M90.5174987542,4.8849004597c-1.4349863808-2.2153119736-2.7779282427-4.3659628901-5.4429845683-4.8849004597-1.8728702888.4853061819-4.6772654487.7263638047-5.4423966021,2.8179617437-1.7725467712,6.0312202712-3.720594451,3.6730510998-8.6331279887,3.1938205835-4.2436407376-.7626930314-9.9470625586-.2070777243-14.0752762815.5633318638-2.5093127542.3777299055-4.5859443991,1.9616532012-6.9439610859,2.6311939767-3.0662739148.5830343218-6.0589031206,1.5112370772-9.0082268141,2.4427841193-1.9355651606,1.1885294017-4.2634419626,2.1139592088-6.3811003815,2.8181117854-7.5102255059,1.6698379332-16.2389421541.8213847511-23.8346626305-.5636808584-2.7133961088-.2986526704-5.6262273566-.4222632209-8.2574771496.0003915678-.9270673658.1822475483-4.0895525966,1.6889777749-1.5015848961,1.6912138581,6.856216749-.9558336349,14.7372209014.6392174147,21.395096261,2.066528265,8.2140402413,1.5366191562,18.6592904873-.6497678389,26.8372507598.5625573777,4.9241020045.7525258573-1.5580560685,2.5153319503-2.8150946157,3.9464402063-1.5257508374.9228752848-.9383297967,3.2748809471-1.8769093329,4.5096516076-.2310436222.6097401245-.8422730442.9967626592-1.3135814769,1.3153002318.5513640839.603595635.0641064373,1.8761314554-.3749366561,2.6306579843-.1873548858.4675366254-1.0454305409.9057059488-1.689525984.7512344706-.0274804811.5309300445.9148319908.559354765,1.3136867986.5640093757,6.5166275647-1.546164759.824114275-9.0971985619,10.8855148414-9.7702014739,2.4651404075-.2950979566,3.9247437401-3.315108958,4.5036036687-2.631390132.8010844829,5.7040673636-2.7361228569,5.8631394424,2.2528456244,10.5222589133,1.0775044172,1.3197881106,2.7256673509,1.8856676068,4.3161386077,1.3152350885.0826360015-.2599980045,2.8177858739.4016828037,1.8769107478-.3754007893-1.2561911295-.8142068984-3.0756358343-.4757183888-4.3167285607-1.3152496532-1.5146378923-1.2867704077-2.1482653067-3.6446474978-2.0646391482-5.6366927115.6335247618-2.3395896126,3.3715757726-3.5019221658,3.1908074499-6.2005717128,1.785190734-.7692170418,3.4610275471-1.5970343559,5.2545594129-2.4426686744.2282467169,2.2911055673,1.5937338374,4.6609205385-.7503807218,6.2004168093-.7193675916,1.0258412851.9153831205.5090176397-.1878376037,1.315288564-1.3560650296,1.3679308393,4.2636449923.5907452209,3.1899335004-3.9456905182.3976396241-1.6717998408,4.1836171056,1.2803149733,3.0031047057,3.3818682392-.8405380087.855713376.1976253643.4897400429.5631215856.0001972001.4032751108-1.2240508965.0956891631,1.0691183125.1879933692,1.1271307002-1.2219516136,3.3463523885,3.4987428731-1.3570317036.3747766831-4.3212552348-3.4368938205-3.3986499847-3.2365376657-4.0286939483.9390801928-5.636970678.4215194973-.3756993655.9869479978-.690621583,1.5009817664-.9394427662-.1971144778-.6344291543.363959047-.8579399974.7508865437-1.1271029687,1.6084278266-.6167930081,3.4263105107-1.2185214273,4.1285020915-3.1944917659,1.0795113343-1.9044983106,3.3191278532-1.6299871979,5.0676697959-1.1270495525,1.3112352622-.4269108069,4.3548005744-.2029946112,3.3779680918-2.2548245821Z"/>
  </g>
</svg>