<?xml version="1.0" encoding="UTF-8"?>
<svg id="Layer_2" data-name="Layer 2" xmlns="http://www.w3.org/2000/svg" viewBox="0 0 47.1997024804 38.1462759999">
  <defs>
    <style>
      .cls-1 {
        fill: #ffed9f;
        fill-rule: evenodd;
      }
    </style>
  </defs>
  <g id="Layer_1-2" data-name="Layer 1">
    <path class="cls-1" d="M41.4576277211.5838577369l.6822487571-.3902714679.6806508715-.1935862691.7282969167.0967447138.3411243786.1951357339.777444006.2919772892.7282969167.2427817791.5870535082-.0476460452.6315037821.2427817791.4379175131.388722003.1475381095.4379175131-.1475381095.5363085333-.3887704238.4854667167-.7314442672.4379175131c-4.9693759896,2.5577307379-5.321637147,1.5740142191-9.4389527122,5.6945255557l-.971030275.5839061577-.5363085333.1951357339.1459886446.8250900512-.0491955101.6806508714-.0491955101.8282374017.244331244.1951357339.2443796648-.1459402238v-.2935267541l.2427333584-.2887815179.0459997388.3395264929.0983910202.193586269.633053247.0491955101.4871130232-.0491955101.4379175131-.244331244.3395264929.1951357339-.0951952489.244331244h-.4410648636l-.3395264929.2411838935-.5839061577.0491955101-.0951952489.1951357339h.4855151375l.6822487571-.1459402238.4855151375-.2903794036.2919288684.0951952489.1935862691.2919772892-.2919288685-.0967931345-.4871130232.4379175131-.3871241173.1459402238h-1.4137414451l.3903198887.1951841547.5855040433.0491955101.2427333584.2427333584.0983910202.4395153987-.2935267541-.2459291297c-2.7988662106-.3284381348-3.3986059626-1.0582845163-3.5509377291-4.0380507522l-.0507933958-.4363196274-.1443907589.4855151375-.7282484959.1951841547-1.1186168053.388722003-.9757755112.2411838935-.8250416304.1967336196.144390759-.2919772892-.3903198887.5363085333-.3395749137.6791014066-.7790418916.6346511327-.5600831351.3744378736-1.3359292554.8901191556-.4379175131.4379175131.9234326506-.2427333584.2427333584-.0983910202.4379175131-.5363085333.3903198887-.2887330971.2903309828.1919399626-.2903309828.4379175131-.2919288685.3887704238.9234326506.0491470893.4870646024.1951841547.4855151375-.0491955101.6822971779-.0475976244.2919288685.388722003.2919288685.244331244.6346511327.144390759.4363680482.1459886446.4363196274.0967931345.6822487571.050744975.5839061577.0475976244.388722003.4855151375v.5363085333l-.1951841547.2427817791-.2411354727-.582308272-.2443796648-.2935267541h-.633053247l-1.2645570291-.1459886446-1.2661549148-.2903794036-.633053247-.2459291297-.9234326506-.0475976244-1.0694212952.1459886446-.7314442672.3411243785-.4855151375-.0475976244.6806508714.4363196274.0983910202.4871130232.2887815179.3395264929-.1919883834.3411727993-.2919288685.1951357339.0967447138-.3411243786-.3411243786-.5347106476-.2903309828-.3395264929-.4411132844-.2443796648-.8726392548-.0491470893-.6822487571-.4363680482-.2411838935-.7314442672v-.5822598513l.388722003-.9234326506.582308272-.8298352874.3411243786-.4379175131-1.2645570291.1475381095-.9742260463-.1967336196-.582308272-.2919288685-1.2185088696.3411243786-3.6969263737,1.1185683845-2.6766521678.8282374017-2.9194823677.6806992922-1.4580948774.5838577369-1.5580837833.2427817791-1.2170078255.3411243786-1.3628996285.4395153987-1.5565343184.633053247-1.3121546536.582308272-1.2661549148.9234326506-.5362601125.8774329118-.2919772892.6314553613v1.0710191809l.3903198886.9726281607.6822971779,1.3137041185,1.0693728744,1.9452563214.4855151375,1.3644975142.3919177743,1.7040724279.3871241173,1.5549364327.1475865303,1.1693617803.2427333584,1.5549364327.388722003,1.8008171416.2919772892,1.3629480493.388722003,1.5564858976v1.1186168053l-.2919288684-.8742371405-.4363680482-1.4137414451-.2459291297-1.3105567679-.388722003-1.8008655624-.4379175131-1.4580948774-.2411838935-1.4597411839-.3918693535-1.4136930243-.7774924267-2.2847828143c-1.143940872-3.201872343-1.9309237712-2.4180852151-2.9194339469-5.5977324211l-.0491470893-1.410497253.5362601125-1.0710191809c3.0384522184-4.3791751308,8.805947886-4.7647013624,13.3310632406-6.7638984301l.9741776256-.4855151375.1443907589-.1951357339-.2427333583-.3887704238-.4379175131-.1951357339h-.6315037821l-.4379175131.244331244-.2919288685.8742371405-.0491955101-.9725797399.3411243786-.4363680482.6315037821-.1459402238h.9250305363l.1459402238.1459402238.1475865303-.3411243786-.0999889059-.5362601125-.388722003-.6331016678-.193586269-.4855151375v-.6822487571l.3887704238-.3411243786.1459402238.1475381095-.0475976244.2427817791v.2919288685l.1951841547.2919772892.2411354727.4378690923.1951841547.2935751749.3411243785-.2459291297.4871130232-.1459886446h.2427333584l.3395749137-.4839172518c1.4247813824-2.1769013216,1.9531489081-1.6390433235,4.2823335755-.6822971779l.4395153987.4871130232,1.3121546536-.4395153987,1.8500610725-.6806508714c2.9480022057-.8932665061,4.6631629917-1.4581432982,7.7349287051-1.9452563214l1.1201662702-.1475381095,1.6056814077-.5347106476c2.779836845-.6521310334,2.4038010857-1.7072197784,4.6711039992-2.8210913475l.5363085333-.0967447138.582308272-.0491955101"/>
  </g>
</svg>