<?xml version="1.0" encoding="UTF-8"?>
<svg id="Layer_2" data-name="Layer 2" xmlns="http://www.w3.org/2000/svg" viewBox="0 0 91.1373047012 26.4483884945">
  <defs>
    <style>
      .cls-1 {
        fill: #a8ffa8;
        fill-rule: evenodd;
      }
    </style>
  </defs>
  <g id="Layer_1-2" data-name="Layer 1">
    <path class="cls-1" d="M91.1373047012,13.3554932662c-5.1680479161-2.4619101475-11.2835627718-2.9692070443-17.0785631156-3.9268239114-6.4784249238-.4319356488-12.7192736397-2.0327750826-19.3302437644-1.8698858286-7.769244698-.6611376412-15.1243761078-3.5473024985-23.271844774-2.8048012177-2.7528324397.6739108119-5.6721319904.9547379923-8.0698689784,2.6178258301-3.2083431579,2.3532847242-7.6101105968,4.4397453789-11.8237123229,2.8049055632-3.0431930863-1.5418252431-1.2989762645-5.7552904757-2.6273667613-8.2275042183-3.1186842291-5.3881707625-16.1329543835,2.2220945823-3.5657568832,1.1215017065,3.0045241221,1.1173396394.692300047,6.254999196,2.6278729307,8.4145016279,2.1572642096,2.8714150174,5.3582070998,2.5426893572,8.2575472718,3.739791675,2.1777753646,1.0808052592,1.5876844153,3.3998979193-.0003701571,4.674919608-.6510138522,1.463227906-1.4018544485,2.661749295-2.4395337953,3.9267743366-.6854953625.5181795756-1.1901065382-.0697342707-2.0645942307-.0001322687-.4610514403.2209756371-1.3527168841.5180175713-.7507149176,1.1222626548-.5128424801.0812172094-1.2007207519.7430268228-.7507495898,1.3088737276.5824482807-.6254371385,1.2696708129.252999408,1.8769262958.1871281166.6637363442-.8175001318.521394769-.2375979566,1.1260319547-.1868047164,1.4759087005-1.6953768465,3.8405721709-2.176370538,5.0670914764-4.1140074035,1.0573027831-.391048949,2.0544456907-3.7963143624,2.2520642209-2.9920661307.1795003728,3.9353335991.955937288,4.3110971225-2.4399745169,6.3574948997-.1332603248.9516847349.5842468931.0325133011.9387071433.5612677807.3795310304-.139100954,1.3433721224-.0275660776,1.3138500307-.1865772914,2.7706897931.7199943646,1.7240134732-2.4140048107,2.8150010814-3.927289413-.10135493-6.4575205503,1.0409483823-3.8478315133,6.7567508366-4.4880047739,4.2602128951.480570056,2.1388514986.7381380019,3.18956718,3.9275422953-.376990854,2.8564837287-3.7501838351,2.9510544488-5.6300038943,3.9260018314-1.1450743677,1.402423343,2.1261775715.7881725021,3.1906549797.935595787.6894094547-1.1237764114,2.2782913093-1.1619644332,3.1903384604-2.0572455151,1.0996892858-.4749856091,1.7710747968-1.1771172174,1.5013092515-2.4308422761.2910954742-.8190073328.7911563983-1.7112760506.9388696882-2.6175504501.4525300622-.5487311921-.2051489222-1.7420581045.7503472667-.9349988551.9715817733.3141882264,1.9401682681.9138691494,2.8150596219,1.4956119519.7127719231.3410916172,1.438146981.7593727101,2.0644984983,1.3088880032.9348200751.0890834576,1.2233933369.7160640724.5625843075,1.4962383758-1.0579265406,1.1839812113-2.5004233102,1.8217110919-3.9406044576,2.0567457877-.747293559.0988038973-2.3142959704,2.007680201-.7505973755,1.3092987717,1.9759767478.8174319989,7.0642733847-1.7183599885,8.070208814-4.4882402153-1.8374457408-1.2077824395-1.9168359706-3.6298903004-3.5658480843-4.6749567682.5050040523-1.3247604958,3.9921171433-.8227486652,4.8793664702-.5614544607,1.3045950668-1.3900253033,3.4302029098-.9394950393,4.8791966295-2.0562204199,11.0723513687-1.9692853912,29.6539941189.2597498476,39.0365032086-.7477641966Z"/>
  </g>
</svg>