<?xml version="1.0" encoding="UTF-8"?>
<svg id="Layer_2" data-name="Layer 2" xmlns="http://www.w3.org/2000/svg" viewBox="0 0 90.7851550791 51.8822817984">
  <defs>
    <style>
      .cls-1 {
        fill: #856741;
        fill-rule: evenodd;
      }
    </style>
  </defs>
  <g id="Layer_1-2" data-name="Layer 1">
    <path class="cls-1" d="M90.4738204476,1.6275798393c-1.1065079903-.7464292569-3.3379500804-.7213307792-4.879432328-.9368829205-.7774777425-.7304377999-3.037167713-1.0937697888-3.9411962051.0002202529-4.6234453102,3.68523741,1.5673015014,10.9568851484-3.1908608705,14.6077763323-3.3267164953,1.7312420074-7.299434428-.1570658541-10.5095831946-1.1233630505-3.1411831544-1.1691412625-6.9041695447-.8679223051-10.1341993472-1.6855475699-4.9621531355-.5220851928-10.1227800282.4728357955-14.6387764301,1.6851181965-7.0888204714.4831039108-14.4051361174.1498818498-20.6437924778-2.2478384281-5.9746135153-1.754109437-14.3924955726-.9591013185-20.2690574487.562611583-.7338865145.3854854337-1.5815867628.5770783763-2.2520390037,1.1237419896-.1302514071.574013727.6235105601,1.3088772248,1.1259022904.7489844575,2.2390058672-.8082601057,4.6249589228-.7625096247,6.9440276396-1.498413475,7.5409266819-1.4878956451,13.3324227832,2.0717942924,19.7058098479,4.4951492661,4.3603309476,2.1014848158,10.2707009734,1.2055326955,13.7002553512,5.4305009757,2.0653094642,1.5816208017,4.1486974088,3.1864643802,6.0055114553,5.0566350138-2.5706235762.6838070163-4.6698575607,2.7614655622-6.5685427361,4.3073418632-2.061089693,1.2901181725-3.863515977,2.3831130551-5.818092427,3.7453635369-1.0403071244.5481023553-1.1636760348,1.9012377418-1.6892479003,2.8091631927-.6785597964,1.0570878032-1.3511774588,2.1410681497-2.0641457233,3.1836801727-2.2265992983,2.3997634453-3.4503997135,5.3870206353-4.5035873603,8.4276663393-1.3395541277,3.0419152132,1.6839144453-1.1149608657,1.8760734397-.0003783482.7310427571.4842793738,2.2131671187.6645059661,3.1907541436.5617489549-.1713288876.5377426523.8863824285,1.2145298019,1.1258729071.9370378617-.3506546576-.8727823821,1.1155509057-1.7225796522-.1874580208-1.873130751-.5041512874-.2374199677-1.1063981008-.3804591971-1.50167657-.7489879389-.2001752852-.1153552989-1.311700368.22935342-1.1257868896-.3748641817.7894531269-1.9932614758,1.9028451552-3.8634012491,2.815113685-5.8053034482,3.2851286231-5.4106856536,5.7627531704-6.4075291566,11.2607236973-8.8017209628,1.3636491055.6199276044,2.6008815799,1.857097925,3.9409299495,2.6212816115,1.2719487094.6753348763,2.8292278414,1.1361452688,3.7533103787,2.4347424058.8750431803,1.1724345444.082117898,2.4252031812-.5633324571,3.3710276446.20056436.5596607953-1.3085144873,2.1414055827-.0000859081,2.2474543184,1.2817202051-2.0462917155.6349472575-.5615510877,1.1268558205.936451934-.7971171471.4824726939-.7490303968,1.6192608883.1873840688.7488355288.3744646292-1.045301551.9913899755-1.9724758267,1.3137363937-2.9963452408,4.8940826427-7.5338007053-9.4551332538-8.2813205136-1.8771347127-11.9852750712,1.6097220918-.7343749756,3.7064071196-.5519803615,5.2549433947-1.4985891503.8417988452-.5987438821,10.4490776988-4.5789458433,9.0088730878-2.0599216835-1.6275000088,4.1000470092,8.6751771824,2.0364026136,4.8790822017,6.9293206975-.4292896041.4965559948-.9963678644.0127954409-1.3136044527-.3748601761-.6911852029.3450102816-2.6705023243-1.04608522-1.8768935884-.0000911394-.0135245695.474747508,1.1046711238.7295952746.0000298031.7495045503-.5503349436-.940790336-.4561063.7534582518.1880537106.9359004249.7440725689.6831723501,2.0311066578.33173456,2.8149044966.7491445911,1.3644295512-.318821486,1.3880286785-.8333533618,2.2518830046-1.6855427305,1.9896737282-.459192087,1.3808578284-3.4623604711.7508849639-4.869009979-.6945308671-1.5668479378-3.2099896166-1.6138271622-3.7539580846-3.1833133647.8196753929-.7026906925.9909542734-1.9280361811,2.2524527701-1.6858093694,1.1128579314-.405012158,2.0874084517-.8707996667,3.1904776908-1.6857926177.9723740447-1.730184412,2.1929177216-2.9905624179,3.3781588825-4.6814100261,1.3533528902-.780153871,2.5320215576-1.7927209046,3.1902927955-3.1839217854,2.0891503838-2.8725177858-1.7075732383-12.7327923461,4.8792910318-10.2999770097.5450413838.501506232,2.6563328118-.3365808138,2.0653986158-.749183827-.4591514922-.3810825088-4.7131390096-1.6819368805-3.7541658121-2.2469923226.2471216302-.1571801506,6.6582155926.3888157662,4.8796624314-1.1239371274Z"/>
  </g>
</svg>