<?xml version="1.0" encoding="UTF-8"?>
<svg id="Layer_2" data-name="Layer 2" xmlns="http://www.w3.org/2000/svg" viewBox="0 0 90.4393296183 42.4078634776">
  <defs>
    <style>
      .cls-1 {
        fill: #1ad1ba;
        fill-rule: evenodd;
      }
    </style>
  </defs>
  <g id="Layer_1-2" data-name="Layer 1">
    <path class="cls-1" d="M90.2804360667,14.2593769651c-.4326517823-1.4398975478-2.3672160217-1.5729489445-3.5657225736-2.0656596023-1.6916932756-.1133064018-2.592512846.6189512747-3.5655494382-.3759123113-1.1034634449-1.5242181135-.7618899625,1.391921439-.9390951475.9395540617-.6103395387-.8822651078-1.5900302029-.8299869413-2.4394624998-1.1269814827-.1414423147.7892427087,1.6379712562,1.1131554421.5631174769,1.6899757291-.8705366735-.0263298283-1.7631194019.9287797662-.3754178424.7512818341.7936351594.383001008,1.6210421477.8860735338,2.6277085364.7509491432,1.235936177-.5258532611,2.7549635012-.8687813239,4.1285459528-.9392371454.9409431338.4058339037,3.002175156.92306662,1.1259562646,1.6906436072-6.7266269845,2.6632132318-15.2129034408,1.2994237876-22.5205738146.9387825664-6.0608990949-1.0863476478-12.5791688154-.8131855891-18.5797379384-2.0655802539-6.6123404739-1.2723108208-14.1591562118-3.047059806-20.8320085785-.9391209927-2.6511755615,1.9001189943-5.9716881677,1.0480360258-8.4455377231,2.6283596-5.8075168784-1.7100906287-6.2047647989-8.104141232-7.8819046557-12.7683773378-.8347894532-1.2126590625-1.3203140771-2.5655157163-2.8155052434-3.004220652C4.5849323785.5977018289,1.5772361606-1.0086778192.1969030989,1.1148426338c-.9491295157,1.1297705803,1.8928342821,1.8575505218.9384878734,2.4410490323-.5757969264-.5323947207-1.4468724139.0255971487-.9381231126.7512066874,2.6792118234,1.8204445093,1.8623441409-1.4242477619,5.8172406187,3.1925609775.0863441363,3.7282651016,1.4727039121,7.1237375261,3.3782011697,10.1397931162,1.1946881751,1.6346937794,2.3796278009,3.4179870484,4.1289315558,4.5067062543,1.0662358595,1.1684838872,2.5664680075,1.4937642247,3.1906252562,2.8164622329,1.0893261496,1.7339756772-.4525587261,4.1900134217.1877843435,6.0089321295-1.4301129657,2.082071899-1.2892280776,4.5586715638-2.2524147281,6.7600197483-.3238638446.9865585819-.9071854146,1.8027099265-1.5012713954,2.8167918922-.8579420289.9369916339.1973529193.2581522267.5631750048.7510423924,1.8136226139-.0803078723,3.5822433655.6793298702,3.3776357263-1.6903501168.6592016862-1.1045013253,1.1711509707-2.5581799135,1.8772765566-3.7551289489,1.2158406253-1.5316852116,1.7888406288-3.3498562395,2.627113851-4.8824260493.5657649705-1.897622126.9310233327-1.9035619807,2.4400945005-.5630166067.3981822164,2.3462714096-1.1495129479,6.3807012652.5623948545,8.2621941559,1.7546489892,1.5165965314,4.4200429649,3.9052314856,4.8799442068.1873856208.4541455534-.6272151624-.8591836929-1.5789713991-1.5011619358-1.5019272066.0587553657-.9813287839-.7376190624-2.4719120508-.1881464272-3.380039637-.1891984239-5.0598452553,1.2778370595-4.1508172576,5.4430763095-3.9429392516,1.6879146335-.037681589.3815406404,3.1667747427.7508603318,4.8821657099.4119915661,2.0280790805-.5941139805,4.421294497-1.8774587567,6.1961108275-1.7295604712,1.9782953681,5.4890156236,1.5643729047,4.8796327083-.3748132716-.0491864455-3.7603876144,2.075992855-5.6398824098,2.816051796-8.8258790641,1.1688070882.5558733195,2.569382937,3.0163488338,3.5649861881,4.5062787931,1.7996821552,1.2870651164,2.3306507949,2.1305122729.9382472615,4.1315122415-1.3170688991,2.0678556075,6.1479826222,1.3068347634,4.5040519152-.938816447-.9515607296-1.26365035-.900093764-3.0164803088-1.3135587477-4.5068012668-1.1924543574-2.3284677647-2.5220249179-4.7290257532-2.0641972831-7.3235295503.35545222-.3359016299-.3607290946-.9625046154-.1875268624-1.502219631.9549733593-.612859325,1.5003288439-1.6049097965,2.4396722968-2.2532072582,2.6069950702-.7146665422,5.6418517076-.9707868704,8.4450904167-1.3150514086,6.7235168414-2.8557754975,36.7550564903,1.3142420499,34.1568174752-8.4495317655Z"/>
  </g>
</svg>