<?xml version="1.0" encoding="UTF-8"?>
<svg id="Layer_2" data-name="Layer 2" xmlns="http://www.w3.org/2000/svg" viewBox="0 0 90.7329168724 35.3701758667">
  <defs>
    <style>
      .cls-1 {
        fill: #a6ffce;
        fill-rule: evenodd;
      }
    </style>
  </defs>
  <g id="Layer_1-2" data-name="Layer 1">
    <path class="cls-1" d="M90.4848469137.1311801048c-2.5939170362-.6315105867-5.1083998057,1.1751069202-7.3192434027,2.0580629274-2.9086844876,1.4131146914-6.0595720457,2.5022381939-9.1960803348,3.3677780929-7.1791793854,1.8466921752-14.7339697655,2.4916710655-22.3331841678,1.4963328656-6.1212849739-.7599303755-12.9488707954-1.3030275678-19.1426758523-1.1225152521-2.637703026.6316948873-5.1729217767,1.6600136827-7.8824346341,2.0590412601-5.1776336448,2.2633258914-8.5589312026-2.6102152808-12.9496025162-1.4978702442-1.8082767035.0231471425-3.2602130574.909311162-4.8794940368.9363182164-.9059838023.3238152317-2.1149667112.1459796993-2.8145577405.9360455663-1.5353387833.9206811009-4.2624021029.8772472371-3.9415942979,3.3672974362,2.7573220251,1.1204808839,7.2184685341.26692097,10.1344088002-.1865404928,1.1571235787-1.0199052619,2.620207236-2.3423446929,3.7535827664-.7490474856,2.3444381396,1.5273979581,5.0493066389,2.4200533757,6.9438410881,3.7414588388,2.781060328,1.2758616157,3.7021131023,1.9859592357.562660306,3.5548952169-1.2902590327.4539973257-1.6658777813,3.4169869375-1.3136175702,4.4905657238.4218706858.8128021109,2.8389202078,1.9421596507,2.0647597933.1869883905-1.751461288-2.671670731,2.3993389888-3.2344921833,3.9410321353-4.4903554273,3.2368251071-3.4009558245,1.815047853-1.8535842167,1.3136705257,1.3099512593-1.1841705586,4.3286527334-2.2604267704,8.7699021932-5.8180993465,12.1612662753-1.5757985899,1.7435267796-4.1421459473,1.2168636463-6.0053981035,2.2448801339-.9245690258.1249879825-1.286778265,2.0502602889.0001379436,1.1227551204,3.2727930063-.0692975684,6.5732054695-.3738045574,8.8206607079-2.9935689034,1.1310402982-1.0713738855,1.8151994302-2.8201772608,3.1901619401-3.5548365911.5992275711-.5509911203.7569162492-1.8361437712,1.1268366506-2.6188591286.5896373855-.8142006145,1.4555016301-1.6800523716,1.6888382932-2.6195936363,1.1299654326-1.1106216022.5636007958-3.0328961852,1.6886615155-4.1164129079,2.1344901498-3.8787607082,2.7348917508,1.7104523185,8.6331573902,1.4966587374,5.0416413466.9615475733,5.3351480355,2.385370648,8.6325116246,6.1750391849,1.8613104144,2.6710935983,8.9015412158,2.4910831301,8.2583364273-1.3100748548-.4351304188-.5155434443-.3691457192.0714336288-.3755969099.3740971821-.3133259654.1295963536-1.6299383107.2435045694-2.064274907.1869121458-1.0587266246-.6963051914-2.7308279281-.3704923588-3.7537661792-1.1220671001-1.0383098432-1.4031164839-1.0201304419-3.4986853945-2.6272985695-4.4909626551-2.119430995-.5841898338-4.2942382117-1.5238692404-6.0054935431-3.1808647012-.7346699161-.0377053934-1.3055464539-.7888489291-2.0647021807-.9347625128-1.4346570946-.1274377898-.5037533287-.7642687332.3756975561-1.1230708931,1.9431477078-.8136775722,4.142638132-.9576475679,5.6301589487-2.8064480746,6.1136123163-1.8871391698,13.6169111959-.3948055172,19.8933144189-2.0575804339,5.906568601-1.0881208073,11.4774235773-3.6118168086,17.0784271283-5.9877445554,1.0455396646-1.1017677555,8.4392534805-3.1921022716,6.7562583328-4.3031687238Z"/>
  </g>
</svg>