<?xml version="1.0" encoding="UTF-8"?>
<svg id="Layer_2" data-name="Layer 2" xmlns="http://www.w3.org/2000/svg" viewBox="0 0 59.880209509 34.3526049124">
  <defs>
    <style>
      .cls-1 {
        fill: #c0d4ed;
      }
    </style>
  </defs>
  <g id="Layer_1-2" data-name="Layer 1">
    <path class="cls-1" d="M59.5438303667,3.2383816093c-.6790529858-.815551158-2.3879190706-1.5898478134-3.0765109496-1.9896581745l-.7251011453-.3966630105-.7235032597-.39351566-.4585447644-.2633606096-.3300360205-.1951841547h-.4600942292c-.3776336449.6346995534-2.3863696058.2728995028-3.2018723429.4776225508-.882178148.2189587565-1.5469954252.9567461456-2.157871956,1.6072792934-1.4200361462,1.5104861588-1.0344614937,3.4096943207-1.7088176641,5.2042167612-.3030656473.8091596153-.7695029984,2.02611902-1.608877179,2.4259778019-.9853144044.4680352368-2.2435283117-.4982013813-3.1685104272-.7647577622-.6917876503-.2015272766-1.453398062-.3236928986-2.1689603141-.4379175131-1.4628885344-.2411838935-3.0051387234-.182497911-4.4251748695.2506743659-2.9305707258.899609628-5.837318429,2.1642150779-8.839261381,2.8052093324-4.717103738,1.00434377-9.6055686081.0904500127-14.329015468,1.2455276635-2.8290323551.6917876503-5.7373779439,1.6215634228-8.3490010073,2.935315962-.8186985085.4124966048-1.6739062834.7409347396-2.4799185482,1.1804501384-.3586042793.1951357339-.9678829245.4395153987-1.1947342678.8060122648-.1904389185.2967225254-.2728995028.7616104117.3585558585.5918471652l1.4470549401-.3966630105s1.5532901263-.6441900259,1.5755152632-.6537289191c1.85800208-.7726987698,3.9983941353-1.4105456738,5.9896017747-1.8817766819,1.7564637093-.4188397267,3.6873874805-.5568873638,5.4882530429-.5362601125,1.8262380499.0190293656,3.8095531025.0475976244,5.6008797717.4156923761,1.870639903.3839767668,3.7809848437.8234437447,5.5945366498,1.4216340318,1.7262975648.571219914,3.4493993583,1.3835753006,5.0534828804,2.2720965705,1.0297162575.5696220283.8901191556,3.7492692343-.4522016425,4.0443454533-1.3518112705.2951246398-2.5386529515.5505926627-3.479517082,1.6564748035-.4030061324.4744267794-.7584146404.9853144044-1.1503324146,1.4692316563-.3696926374.4553974138-.9678345037.6124744165-1.2772432729,1.0773623027-.3347812567.5029466175-.3760357592,1.1122252626-.7473262823,1.6485337959-.3315854854.47757413-.7251011453.9980006482-1.1281072777,1.4073499024-1.0011479987,1.0138826632-2.4164873295,1.0725686457-2.8734342082,2.5719664465.2205566422-.2015272766.5045445031-.3188992416.7901786705-.3966630105,0,.0095388932-.0793616546.0349113807-.0666754108.055538632.4791720156.0904500127.9678829245-.1856452615,1.3137525392-.5140833963-.4855151375.4617405357-.7996691429,1.1376461709-.7235032597,1.8405221793.2840362817-.337977028.4537995282-.5918471652.8266395161-.7616104117.6204154241-.2855857466.6648172772-.0650291044.9472556732-.8837760337.3998103611.5331611827.3411243785,1.524818709.6568762696,2.1689603141.5426032344-.6869939933,1.1836459097-1.1582250014.9202368793-2.1006870176.4569468787.0412060818.7298463815.4584963436.4522016425.8615508967.5791125007-.1888410328.8552077749-.7187580235.9757755112-1.2772916937.1174203858-.5378579981-.1824494902-1.0836570038-.0491470893-1.5517406614.0126862437-.0523428606-.4522016425-.1301066295-.4807699013-.1586748884-.282438396-.2570174878-.1237635077-.3903198887-.0222251369-.7345916178.2586153734-.8694919043.7409831604-1.8564041944,1.6120245295-2.2546650906.9662850388-.444260635,2.0055401895-.7108170159,2.9543453276-1.1963321534.5839061577-.3014677617,1.0107353127-.8377278741,1.6279065446-1.0852548895.5743672645-.2300471146,1.2455276635-.1634201246,1.6913861841-.6727582847.2887815179-.3284381348.4109471399-.8551593541.7108170159-1.2074205115.7028760084-.8202963942,1.5311134101-1.5216229377,2.2879785856-2.2863806999.577514615,1.3359776762,2.2958711723,2.2308420679,2.2990185229,3.7445239981,0,.0380587312-1.8230422786.7821892422-2.02611902.971030275-.5426516551.5077402745-.9694808101,1.148734529-1.6327002016,1.515231395-.3807809954.2142135203-.8123553866.3411243786-1.2042247402.5363085333l-.1951841547.5917987445c.3982608962.904403285,1.0138826632,1.7231017935,1.2455276635,2.6925826036l.2649584953.3934672392s.515681282.3252907843.5251717544.3284381348c.3475159212.2173608709.9964511833.0491955101,1.3804279501.0491955101.3760357592,0,.9075506355.1951357339,1.2454792427.1491359952l.4617405357-.0650291044.3934672392-.2634090304h.5236222895l.3966630105.3284381348-.1333024009-.3966630105-.3268402491-.3903198886-.3950651249-.266556381.1967336196-.0650291044.6584741553.3315854854.5235738688.5236222895-.1301066296-.5918471652c-1.0360593794-.8980601631-1.7849835473-1.270900151-3.024168089-.4585447644l-.4584963436.1301066296s-.5204265182-.2602132591-.5252201752-.2633606096c.3760357592.1887926121.5648767921-.6346995535.6568762696-.8060606856.2395860078-.4490058712.2332428859-.6013376376.7885807848-.5045445031l.1983315053.4585447644s.1269108582-.2506743659.1332539801-.2633606096c.4379175131-.8710897899-1.1725091308-1.059882402-1.6405927884-.7251011453-.2839878609.2141650995-.6568762696-.3347812567-.7980712573.3744378736-.2173608709-.0872542413-.4410648636-.3680947517-.3173497767-.6188175384.160272774-.3204971273.8282374017-.4506037568,1.1217641558-.5743672645.6267585459-.2601648383,1.2867821661-.4331238561,1.9008544683-.7251011453.3062129978-.1427928733,1.0471477375-.9233842298,1.3058115317-.9472072524l.7235032597-.0682248757.1983315053-.1301066295s.1903904977-.7663556479.1951357339-.7885807848c.1142730352-.4585447644-.0713722263-4.6250558397.1333024009-4.6647608774,0,0,.5664262569-.1237635077.5886513939-.1301066295.4759762443-.1015383707.9964027625-.2046746271,1.3819774149-.5235738687,0,0,.1887926121-.0618817538.1951357339-.0650775252.211017749-.0682248757,2.5211730508,2.4640849539,2.4973984489,2.6893868323l-.0650775252.5918471652-.1316560944.3934672392-.1317045152.2618111448h-.1999293909l-.193586269-.1935862691-.0682248757.3919177743.3300360205.1951357339.3950651248.0650775252.2618111448-.1301066296.0682248757.7251011453-.0682248757.4585447644c-.0618817539.4030061324-.7885807848.9218347649-1.1852437954.9218347649l-.1301066295-.1983315053v.3252423635l.3284381348.1333024009h.3951135456l.8552077749-.3284381348-.39351566.5267696401h-.5267696401l.3284381348.2633606096.4585447644.0650775252s.3268402491-.1301066295.3284381348-.1301066295c.3586042793-.1427928733,1.2629591435-1.8817766819.9869122901-2.3006648293-.4172902618-.6314553613-.46014265-1.2185088696-.46014265-1.9690309232,0-.3030172265-.8092080361-.9789712826-.9805691682-1.2851842804-.2253018784-.3998103611-.3093603484-.7695029984-.3982124754-1.2122141685l-.2634090304-.5267696401-.1983315053-.5235738687.4617405357.1983315053.4616921149.4616921149.6537289191.4553974138.6568762696.3284381348s.3236444778.1951357339.3284381348.1983315053c-.0031957713,0,.1919399626.8583551254.2728995028.9853144044.1126267288.1824494902.3157034703.3474675004.4490058711.5235738687l-.0650775251.4617405357-.0650291044.2633606096.0650291044.3284381348v.3284381348l-.1951357339.1935862691-.1983315053-.0650775252-.1983315053-.3268402491-.1301066295.3919177743.1967336196.3284381348.46014265.0650291044.3284381348-.1951357339.2618111448-.1333024009.0666269901-.4569468787v-.3284381348l.2633606096.5902492796s-.0570880968.4490058712-.0650291044.5172307469c-.0459997388.3602021649-.4744267794.5363085333-.4617405357.9885101757.004793657.1427928733-.5473968913-.0491955101-.5727693788-.0618817538-.0380587312.0682248757-.050744975.1253129726-.0809111195.1951357339.1269108582.1094793783.2538701372.2364386573.4140944905.2887815179.1237635077.0412545026.4585447644-.1491359952.4903087945-.1174203858.122165622.1078814926.0935973632.6600720409-.1317045152.7282969167.0745679976-.0222251369,1.1297051634-.5981902871,1.1297051634-.6331016678v-.5267696401l-.0682248757-.5267696401.0682248757-.5235738687.0666269901-.5902492796v-.2633606096l-.3300360205-.3284381348c-.5331127619-.709267551-.8234437447-1.5580837833-1.1804501384-2.3641444688l-.3966630105-.3934672392s-.388722003-.3903198886-.3934672392-.39351566c-.4363680482-.4347217418-.909196942-.8964138567-1.1804985592-1.4470065193-.0729701119-.1491359952,1.0725686457-1.2185572904,1.2439297779-1.4406633975.404604018-.5061423888.604533409-1.2122141685.9599419169-1.7516700523.6425921402-.9630892675,1.5009472656-1.7976697911,1.7611605247-2.968629457.249124901-1.1122252627,1.220155176-2.6751027029,2.4371145807-3.0400501041.3696926373-.1078814926.7837871278-.1142246145,1.1344503996-.2474785946.4632900006-.1745569034.8012670286-.5981902871,1.3121546536-.6632193915.531563297-.071420647,1.0710191809.2316450003,1.5708184478.3585558585.8504141179.211017749,1.7706994179.0523428606,1.3375271411-1.0186278995l-.1983315052-.3284381348-.1951357339.1333024009-.1983315053-.2634090304-.1967820404.2634090304-.1967336196-.3966630105-.3284381348.1983315053-.0650291044-.3966630105-.3284381348.266556381-.1951841547-.4617405357-.2014788558.266556381-.0650775252-.3966630105-.2618111448.1983315053-.1316560944-.4616921149-.3284381348.3934672392-.0666754108-.5235738687-.1983315053.3252423635.1317045152-.8536098892.1983315053.1332539801.3300360205-.3934672392.2633606097.4585447644.1951841547-.3284381348.1983315052.46014265.2618111448-.3951135456.1332539801.46014265.1951841547-.3950651249.2633606096.4632900006.2634090304-.3966630105.0650291044.5267696401.1951841547-.3284381348.2014788558.39351566.1919883834-.46014265.2015272766.5251717544.1951357339-.4585447644.1301066295.5236222895.1983315053-.5902492796.1301066295.5251717544.1983315053-.3934672392.3268402492-.0650775252.1317045152-.5251717544.06662699-.7251011453-.06662699-.3284381348c-.0349113807-.1666158959-.1301066296-.337977028-.2697521523-.5045445031"/>
  </g>
</svg>