<?xml version="1.0" encoding="UTF-8"?>
<svg id="Layer_2" data-name="Layer 2" xmlns="http://www.w3.org/2000/svg" viewBox="0 0 90.6468636822 27.0997169928">
  <defs>
    <style>
      .cls-1 {
        fill: #d1a3ff;
        fill-rule: evenodd;
      }
    </style>
  </defs>
  <g id="Layer_1-2" data-name="Layer 1">
    <path class="cls-1" d="M90.6468636822,14.0969017718c-9.198498428-2.109476026-20.8157969354,1.1465033052-29.4650578927-2.4320174732-4.1255122638-1.0725222207-8.3248472615-3.032053031-12.5740156223-4.1152388938-1.0326335072-.8213900198-2.5105103007-.3343281861-3.3779175968-1.4970688693-2.6552917219-.1114013554-5.3757154239-2.0863404204-8.0703266111-1.1219916943-2.0272310309.0149545689-4.2955751727.355490207-6.0053717113,1.1225340591-1.0727474374.9980660154-1.2222982148,1.2037712073-2.6277632888,1.121690888-4.4393623809,3.2546021025-10.9726537474.7800665856-15.3889337045-1.4960917662-1.4055129715-.8308311616-2.9337180407-1.6694427325-4.3167719635-2.6187388307C7.0260415564,1.0075618666,4.4267737173-.6530150176,1.6889884113.2537833109,1.0260132362.9244475582.4333864476,1.477037344,0,2.3113323765c.3959349306.8085264077.582907978,1.5553752193,1.689102331,1.3093753865,1.7726252623-1.0476425027,3.4972024551-.2612022963,4.879517268,1.1229558624,3.2347106414,3.7204079843,7.2172512592,6.4541406472,11.4484552363,8.7917404736,2.3641910095.5889784599,5.0784473546.6237155014,7.1312860541,2.0578411592,1.22994579,1.0037381734,2.0523397579,2.8332263045,1.8768984054,4.1156946034-.6069867001.9970994323-1.8260057297,1.364756846-2.4397520806,2.4321183133.266442388,1.0492519788-.904984063,2.1397648373-.3756927404,2.9928660972.9523762528.0302302863,3.2448573159.0501524801,2.8152292273-1.6831765213-.4730221662-.4610252379.7815761472-.8645782235,1.1262328372-.9358345468,1.1161475301-.5466806769,1.3337705575,2.2957701362,1.6889005705,2.9930780274-1.5297479055,1.9858533643.9403939187,1.7987971047,2.2525341896,1.123001655.512456787-.8214134864-.287483565-1.1563867808-.5633643962-1.871188629.0288928357-.7958253345.4833654363-2.5830509943-.0000081416-3.3671008475-.4686664437-.3282732723-.3283031225-.5159582398-.1874420179-.9355541677,3.8780683116-1.4267548276,9.6803689222-1.3966206134,7.1306135624,4.4898711545-3.9547157531,1.56414214,1.307627994,2.9762578819,2.4407682028,1.1226107311.3262657732-1.5095181082.4787539392-3.1225182503,1.3137277538-4.4898851467.4543996044-1.1625124371.5577912332-.6120079203,1.5012745501-.7481454057.339111644.3507890892.6004652525.9866912278.9380835022,1.4964593254.4482790172.2699643017.9111735967.4041921339,1.1260139643.9355634522.7014868841,1.1759938684-.2406522945,2.4368125093.5625639803,3.3671813202.6070934058-.0500684777,2.5735443637-2.1743999428,1.877782622-2.806175123-.5647560526-.9309537633-.6742602996-1.9917853223-.9388211751-2.9931860856-.9688542458-1.0190006868-2.0832493093-2.3486733165-1.5011574338-3.7414350468-.0278400377-1.1792504943.2505724602-.7784827488,1.3138718463-1.1222029089.5863324949-.3269271298.7092352764-1.3610993168,1.3133488019-1.3097762213,3.0023623551-.3007645238,8.7362428971.875054585,12.0111410948.9341797421,5.8091551193.1349812981,12.3552951246.4556787423,17.6414490217-1.1214856505,3.3042392211-.800032976,10.8389257782,1.7780533727,12.5743066458-.3738216077Z"/>
  </g>
</svg>