<?xml version="1.0" encoding="UTF-8"?>
<svg id="Layer_2" data-name="Layer 2" xmlns="http://www.w3.org/2000/svg" viewBox="0 0 49.5357680761 80.5509846921">
  <defs>
    <style>
      .cls-1 {
        fill: #bf9380;
        fill-rule: evenodd;
      }
    </style>
  </defs>
  <g id="Layer_1-2" data-name="Layer 1">
    <path class="cls-1" d="M49.5195560174,4.4211686482c-.5535152433-.6292546422-.8271690389-1.8801106265-1.5055833948-2.6006884513-1.7899844608-.5717867435-3.9051039367-.755429947-5.8842000262-.821802318-1.6203823135-.614448331-5.0970334448.2153814667-6.7057690681-.6841532025-1.4248427912-.5245088964-2.9811962358-.3334619687-4.3792473295.1369648573-.5900082127.4819967475-1.8553469726.6495038404-2.6000663423,1.3688596951-1.4444834662,1.4433267866-2.7917345267,2.9745233158-3.4213705733,4.7910268204-.6130882924,3.5747934113-1.2915265903,7.2450477661-1.368656656,10.9514005603-.6501218521,1.3751713692.9784836106,12.8561052986-1.2316100364,7.1184385957-1.2690350666-4.0209623395-4.6045209957-6.9271963712-8.2110015064-8.4873059946-3.1406254431-.6041934645-6.4199867324-1.4673086378-9.7161859837-1.9169210009-1.3291163547-.8610921714-2.3824891029-2.3135587796-2.7372642186-4.1063371565-.2691942036-.1146521982-.2603410829-.4937454867-.4106438907-.8213401886-.1809224126-.35488256-.5334243653-.6791407-.5473254569-1.095128663-1.1891490977-.2075887165-.7608307279,1.4228712874-.5473857142,2.0533660317,1.1123814907,5.0408046102,3.4776931489,6.6688834066,8.2113322102,7.6657893687,1.8249812992.3056005912,3.7807454867.3846691897,5.3370103926,1.3692003238,1.0666999486.8201789492,2.5316371634,1.5083229384,3.2845725214,2.7375217375,1.0865022473.6190615301.9247625762,1.9015870345,1.7789386261,2.7378576422,1.1006639662,2.2171119888,1.3583523375,3.5338876118-.8214297761,5.201818813-2.2899052688,2.7455794679-2.935453669,6.2702160345-3.420746508,9.8564459992-.4442249909,6.3097766297,2.143283601,11.6284543437,4.5159040171,16.8373972823.6034550549,1.6501792316.6678508898,3.6071068884.9577115467,5.3388667497.5378876728,1.3655275411,1.2971133467,2.6386860817,1.9161797468,3.9698032679.5890873824,2.0540207106,1.4945101674,3.4216687541-1.2319563945,4.9280479383-.8357833373,1.2885792479-1.2273663621,4.4270233595.136881356,5.3389954078.8067500169.4880719691.4847918746,2.3612878068.684603393,3.2852375598.3518838427.4677634223.7189977962.8530712857.9579147123-.0002149136.5856614154.0348663358.9471172888-.5915761879,1.3684619259-.958072492.7056579806-.6264843793.9043385845.8282513245,1.5053734565.2739331347.220739224-.0927175327-.0196008732-.4170313313-.1368605954-.5476335525-.1359873037-.0758588874-.025746652-1.1062827588-.2734837873-1.095180518.1143317251-.820754835.0594914407-1.9107952104.6839547152-.684275105.6958433462.9431324864.6251025059,5.1160395209,2.1894259535,3.6960186869.2016899446-.1653005616.3303412829-.4899326494.5475662081-.5477598499.0566832299-.0787060699-.144730845-.8420720052.1368595829-.6844076117-.3998644076-.4860317913-.0630332138-2.6282649478.5474471042-1.6427291261.1974078305-.1469487392.1240463354.2221034108.1368494187.2736729477.2846378266.0792342826.5810364639.2254923096.8211305263.4107274278.2983164413.540562799.8598650753.8964860876,1.3683151505,1.5059760432,2.3468023364,1.2855596027.6736156215-1.2320233501.2738125884-2.3272427376-.0887994275-1.52792423-1.9236332967-2.6062229708-2.0528021771-4.2435774032-.7073952049-2.0466602072.1619707984-4.7805033337-.0000382317-6.9814786229-.4289750043-1.195564101-.1371998393-2.5797337644.2736681461-3.6961049033.1403455954-1.3957656016,1.0028661495-3.0869719153.5478004687-4.5173968355-.1443500979-1.4700795793,1.5847420534-3.7719903744,2.189319829-5.0649708812,1.3504805195.5753349712,2.4063304832-.6478217308,3.8317805361-.5475788901-.1827648999.7695978695-.9662242542,1.1552990252-1.6421228489,1.2321523084-2.1563770245,1.670916436,2.1297241126.6795397157,3.010637736.4106107913.5827717015-.5935173002,1.0620910956-1.4863354404,1.6422153542-2.1903688705.3730655586-.4937630117,1.2415468755-.3613813053,1.0947443097-1.0950248501.4845997661-.7904535068-.5102062175-1.4958267302-.5473846678-2.1903030936-3.4561086016-3.6725879771-3.0504930297-5.1785760272-3.9684036069-9.8563685283-.6407096677-.8186821033-1.2295648089-2.3423613013-.5477342379-3.2852954791-.3951290132-.94477868-.245969978-2.1986479971-.9577909892-3.0115735693-.3682484995-1.6185378401-1.6855877623-2.8744649039-2.3265214058-4.3804068758-.2649746259-.635495926-1.2153398009-.9237967869-1.5054721661-1.6425866248-1.1323279966-3.0400364483-2.4074839611-7.8044168664.5474296374-10.4039474666,2.2714800477-1.9144598566,5.1609001249-3.0104467085,8.3480736306-2.737578167,2.2423496284.459433506,8.8658341812,3.2402767553,9.0321890257-.6845012186-.1900318747.1938232562-1.3248110533.0842429146-1.6422823158.2736633704-.2328399171-.6143974384-1.3125841956-.7070842779-1.915815695-.821663028-.2658668568-1.3317810922-.9043088407.4167326904-1.0948258372-1.2318162148-.3242564094-.0611296065-.4741787841.2148215696-.6843810446.4108211868-.5207549307-.0527166405-.3617352875-1.0690339963-.9578901425-1.0952341566-.6424769036-.4055788812-1.9522862493-1.3891099318-2.6002144006-.8215713607-1.0274492291.2967238158-.5301679976-2.1127953742-.1369399694-2.4639157404,1.0070402532.6067045973.7436065495.6334255187,1.9161283458-.0000865503.6166543517-.4483543384.8409433532.6405213874,1.094523759-.1367074927.3129966018-.7287800216.925486588.4463985055,1.505467757.2738667605.1913275295-.1327953829.270080935-.2203008303.4104607068-.4107251793.2678335931.0025686089.8858021555.679650514.8214060178-.0000934725.3751963456-.516805259.9687583361-.0176824206,1.5052539974-.2735345195-.0464577402-.3399634381.2862771319-.2373565038.4104042906.0000111909.5308715685.0133903414,1.2864819439-.314278552,1.6422463099-.0000645918-.0754861942.6349052415.7285468607-.8559138611.2738160959-1.0953342301-.3777810028.0466084664.4107076662-.3762203595.2735958882-.5474908011ZM28.7183640544,48.3632636465c-.0897003043,1.3740806712-.8956236539,2.592859409-.6841384525,4.1067542914.4068365592,1.5967489414.429541236,5.1500478729-.9579677577,5.612838016-.7597243316-1.590005587-2.8572673413-.6448982407-3.5582829718-2.1904518787-.8293458168-.5013343701-.784262441-1.943111431-.958075614-2.8746602029-.4180011061-.8935102967-1.2019067428-1.4650496233-.9576027984-2.7379839167-.2889397759-.9523826475-.0844115287-4.5285790234.1359858179-4.9283597461.6832884445.9602206683,1.4294436504,1.9507889065,1.9165121308,3.0118582014,1.3684922821,1.9568810045,2.7791403856,1.2883356765,3.421329936-.6844743215,1.0265954398-2.2872573562,2.1727002833-1.3537886059,1.6422397096.6844795572ZM25.8444631124,59.5883317767c.4810188606-.0299662808.8116394708-.0490716026.6841035544.5477048422.0001474935-.0000513533-.6841035544-.5477048422-.6841035544-.5477048422ZM24.3391639967,65.4747590733c-.7659619217-.8449570071.0793756073-3.305545385-.4106503195-4.3805908891.8430949732.2475487503,1.7125063436.8550549262,2.7370452243.6843754249.1922453403.9877749611-.5993751995,1.3819340699-.8213595194,2.1902612604-.3800357977.0974975564-1.0802204645,2.6501454856-1.5050353855,1.5059542038ZM36.3818893574,49.7322643948c-.4158670416.3155595696-1.0776520664.3648710009-.9578521152,1.0951004124-.3411452041.2190940269-2.955185263,2.3068923231-2.3265236853,1.2319912862.1195614606-.3089071128.231486355-.6755599243.4104266398-.958304342.4118404959-1.9952327385.3002856194-4.4671764633.8209626542-6.2969592254.3107126924,1.1020542364.7458417421,2.1477800226,1.3690530209,3.1483577739.3014521439.5391990664,2.1690896696,1.8763541437.6839334856,1.7798140949Z"/>
  </g>
</svg>