<?xml version="1.0" encoding="UTF-8"?>
<svg id="Layer_2" data-name="Layer 2" xmlns="http://www.w3.org/2000/svg" viewBox="0 0 75.298997288 20.4241696361">
  <defs>
    <style>
      .cls-1 {
        fill: #c9d0d6;
      }
    </style>
  </defs>
  <g id="Layer_1-2" data-name="Layer 1">
    <path class="cls-1" d="M75.298997288,6.4834107723c-2.6179782905-2.1435878266-5.8626909164-3.0559321191-9.0486812444-3.9904531278-.7441426161-.2173608709-1.3867347564-.0761658832-2.0927944309-.2538701372-.9345331139-.2348407716-1.8579657645-.4331722769-2.8051972273-.6092786452-1.4914567932-.2760468534-3.2685114382-.2649584953-4.7742402556-.1761063683-3.3446652163.1983315053-6.727401269.0666269901-10.0784096071.0666269901-3.4589019359,0-6.9685851624.0412545026-10.4179603103-.1951357339-.7314442672-.0507933958-1.6167939762-.122165622-2.3355519996-.2919772892-.9583440313-.2253018784-1.421646137-.6901897646-2.4418598169-.6235143538-.8504383283.0570880968-1.5866520421-.2570659086-2.4244041266-.3490653861-.7600004208-.0825090051-1.543811759.0444018531-2.306995846-.0126862438-1.9103207303-.1412434084-3.4985585528.0554902112-5.3866783566.2538217165-1.5549243275.1634201246-3.3399078748-.0349113807-4.825009441.46014265-1.5691963517.5251717544-3.136806923.7298463815-4.7583703458,1.0376572651-1.8452795207.3506632718-3.4747718458,1.0551371658-5.3581222029,1.2534686711-.7013023331.0745679976-1.3423086929.4426627493-2.0420252455.5505926627-.786970794.1205677364-1.7151728912.2141650995-2.4339188094.5743672645-.1507338808.0761174625-2.0991375528.971030275-1.7199302326,1.2962726385.7330300477.6299058965,1.4771726638.8790307975,2.3847354045,1.2058710466,1.8214807085.6520826126,3.2589846502,2.086451309,4.9122757875,3.0431974546,1.823066489,1.0566866307,3.7444997877,1.9578941443,5.7436847502,2.6227114215,1.9134922912.6362490183,3.6508782141,1.1598713079,5.6706904279,1.3391250267.9789591774.0873026621,2.034084238.1888410328,3.0178128619.0983910202.4045919129-.0380587312,1.1011369046-.1047341421,1.458131193-.2935267541.6790893014-.3586042793.3554085079-.5839061577,1.2645570291-.5839061577-.6362369131.5728177996-1.1455629681.831433173-1.8484389764,1.2645570291-.4157044813.2554680229-1.7500842719,1.0694212952-2.0055401895,1.4549959476-.441089074.6616215058-1.0709828653,1.1645681233-1.8325811718,1.4136930243-.3506511666.1158225001-.8139532723.3934672392-.4426748545.7314442672.1586627832.1459886446,1.1233499363.0095388932,1.3613501637,0,1.632663886-.0650291044,3.3129253965-.2570174878,4.8662639436-.777444006.7219295844-.2411838935,1.41529091-.493456145,2.1451493967-.7124149016.9186753092-.2744973885,1.3740485126-.8314331731,2.1927591263-1.270900151.7124027964-.3855746524,1.2042610558-.9869122901,1.889693479-1.3248893181.8218942798-.4045555973,1.5406401981-.1935378483,2.3847475097-.0919994775,1.9150901769.2300471146,3.7698843804.3220950129,5.700832362.3728399879,3.2272569357.0841068908,6.4211882711-.3998103611,9.6262200698-.3775852241,3.1955171159.0206272513,7.3747628558,1.02177525,10.1212498901-.9742260463-.5029587227.815551158-.7330300477,1.2391845417-1.5644390103,1.7008766566-.8996217332.4997992669-1.0154563385.9980006482-1.4295629342,1.9436584357-.2998819812.6870424141-1.0122847776,1.3169483106-1.3851489759,1.9991970677-.3776215397.6901897646-.6981307722,1.4057520168-.974201836,2.141989941.6140238814.1475381095.8901070504-.4157407969,1.3629238389-.6822971779.4585447644-.2586153734,1.0122847776-.3696926374,1.4914567932-.5933966301,1.0947937827-.5092897393,2.0880370895-1.0821075389,3.0495405765-1.8182970424,1.0202257851-.782237663,2.083279748-1.5993382858,2.8543927373-2.6481323297.7013023331-.9520009094,1.013870558-2.1245100402,1.6532911373-3.1145696809.5822961669.9472072524,4.4584883646-1.1217641558,5.3041814567-1.4502022907,1.7802141007-.693385536,4.0554822322-1.0218236708,5.4993292958-2.3450666824-.2602132591-.0650775252-.5188286325-.1301066296-.7774561112-.1935862691.8488525478-.2538701372,1.026568907-.3633495155,1.5549243275-1.0709707601"/>
  </g>
</svg>