<?xml version="1.0" encoding="UTF-8"?>
<svg id="Layer_2" data-name="Layer 2" xmlns="http://www.w3.org/2000/svg" viewBox="0 0 90.7989448369 38.9369756223">
  <defs>
    <style>
      .cls-1 {
        fill: #9ff980;
        fill-rule: evenodd;
      }
    </style>
  </defs>
  <g id="Layer_1-2" data-name="Layer 1">
    <path class="cls-1" d="M90.5894826665,3.0065559238c-.2566944078-1.0126695518-1.4667998357-1.036850866-2.0645684777-1.1231530822-.7866612876-.2402451207-1.4960812047-.8676910905-2.4395777927-.7490329939-1.7056249838-.729097496-3.8960779428-.8409086347-5.8180796645-.5616916019-1.0611682118-.6536051108-2.9856609722-.7023216786-4.1286860426-.3744393721-2.7561036736,1.4027543232-3.5874805355,4.4694463857-5.8180192231,6.5530880143-3.6158484842.9412524267-8.1286951191.9092479596-11.8235188228,2.0598392886-2.0104591556,1.6892263472-5.3412866868.7484843359-7.506701288,2.0591911399-13.2026247522,7.7923412932-30.6099610461,3.4798916291-45.417456575,7.4890148492-1.9043257594.0654368701-9.1603102056,2.483562451-3.3782048566,2.0598951206,8.9265453806-1.2156539577,18.6143574439-1.0851031192,27.776155039.0005296582,7.0510881905.5421475356,14.7459609418.905252869,21.5824583016,2.0594895047,1.5416142243.9171571257.1885238924,1.4641207257-.0003194675,2.6211007107-.6373322165,1.6029836352-.6675007751,3.146521845-2.064388967,4.3060680293-1.063979003,2.229705774-.6190997245,5.3732258899-1.1259184765,7.8640879122.5647851541.7946716463.962313787,1.8748553099,2.0647584992,1.3102296309.3757403404-.132725658.8113027825.700882523,1.6888561264.1871537333.9003971388-1.205658767,2.1011890002.896316,1.8767313667-.560858282-1.0202941472-1.4395187824-4.7499996395-.695107127-3.1903094106-3.1834122351-.5294471147-2.4481279068,1.0147889569-4.2677778064,2.0643770416-6.1786232476,1.1435036509-1.2073640202,2.7705359503-1.5788105436,3.9408540543-2.8085403665,2.6960043644-1.4762510771.976043582-3.7759010004,2.8150731724-4.3064804172.9347430346.0141115861-.2116046449,1.8818972774-.3747561833,2.6213376859-.0002240101,1.720659439-1.7786041615,2.6274001333-2.0652265018,4.1189602552,1.4230266145,1.701598623,1.9196131229,4.8355407954.3754132377,6.3663886652-.321622386.7307512227,1.1110863591.0824455016.5634518275.5613269589-1.110615212,1.5484009829.5755470985.3667596921,1.1258135492-.3742987419,4.3532216948-2.6640753642-.8591065684-5.341388325,1.8764566834-8.0513346272,1.953349809-1.3848707553,3.275085292-3.4926196235,4.5046639816-5.4295434406-.3415234482-1.4263174622.7937845832-1.8214735906,1.8768582791-2.2468011835.6336470842-1.0234723778.1288197213.7422599569.5627663126.9359749995.2718937747.2178609096,1.253342167.1659370229,1.6890161494.3745561178.4929045095.3853086242.4590326112,1.4390369935-.3753317939,1.3107596058-.7431177295.7614287188,1.8128243559,1.3053731416,1.8765182653-1.1235799234-.5271844155-.3945039947-.63905025-1.096123098-1.3134420507-1.3104418576-.3945421165-.2850834032.342824435-.6733531918.1877702034-1.1234924466.6757706667-1.5253756512,2.0981493341-2.3271266596,3.0026164115-3.932214768.3792758401-.700963362.3942870354-1.3461083326.1877856393-2.0592618375.778085328-.6951281712,1.4953698868-1.3663582219,2.0644252996-2.246835434.7832068404-2.1534722532,1.5982715559-1.4984977319,3.1908644442-2.6207713643,1.1635431774.6334487194,2.1947307801,1.6252025264,3.3779238482,2.0589381174,2.6915438008-.1592322128,4.3081804757,3.0646796067,6.9436373357,1.8726059887.2249354837-.5938711964-.7843157786-1.0286262022-.1875403601-1.4979978522-.4676840435-.0424895193-.9295063394.2063989544-.563165254-.3742302922-1.206884271.1893052517-.7792419186-.5820948297-1.8765149039-.7493106185-.2194474232-.2757718915-.0414329786-.6387667795-.563028859-.1871822956-.2901031282-.32605564.1320597053-.4369915718-.5631318229-.3744059737-.2702114288-.4681876135-.3762528863-.1104801946-.9384680875-.1873624808-.5240953761-.2359921173-.9776504968-.6999105552-1.5013402175-.935977109-.7405686281-1.3666198666.416150275-2.7633950433,1.876722548-2.246519794-.1283383709.3712605096.0593879412.8297066108.3754018521.3741003039.3274649355-.41983136.7111375125-.1166147743.5629473219.3745323621.12518286.0510632398,1.0370361633-.8148733256.7505082024-.0001191474.4796274513-.0493771527.600531755-.8229996454.5634406728.1873478363.660704687-.9367265407,1.3219059498.1789179994,1.3138076963-.9361463275.5623500764-.3032017108.2912215198,1.0454358166.5630559406.3744865985.3120240326-.6946530384.4198285831-.7431643125.7504059697.0001493487-.1651310545-.9524058665,2.0025611909-1.2363981935,1.1261598268-2.2470933219Z"/>
  </g>
</svg>