<?xml version="1.0" encoding="UTF-8"?>
<svg id="Layer_2" data-name="Layer 2" xmlns="http://www.w3.org/2000/svg" viewBox="0 0 128.6072881786 43.5281709038">
  <defs>
    <style>
      .cls-1 {
        fill: #3bc7a7;
      }
    </style>
  </defs>
  <g id="Layer_1-2" data-name="Layer 1">
    <path class="cls-1" d="M121.367433746,37.6709693018c-.1223754883-.3718261719-.4141845703-.7248535156-.7138061523-.7436523438-.1647338867-.0109863281-.3483276367.0595703125-.5224609375.1662597656-.2494506836-.1098632812-.5036010742-.2243652344-.760925293-.3310546875-.0344848633-.4377441406-.2540893555-.8518066406-.6573486328-.8786621094-.2635498047-.0172119141-.5977172852.1036376953-.8565673828.2950439453-.1741333008-.0643310547-.3545532227-.1286621094-.5318603516-.19140625.0015869141-.4597167969-.0831298828-.8848876953-.4597167969-.9100341797-.2823486328-.0187988281-.6384887695.2009277344-.8785400391.4910888672-.1725463867-.0501708984-.3482666016-.0894775391-.5239868164-.1380615234.0188598633-.5004882812-.100402832-.9067382812-.5679321289-.9365234375-.3828125-.0251464844-.869140625.2038574219-1.0950927734.5554199219-.1458740234-.0267333984-.2933349609-.0487060547-.4392700195-.0738525391-.0219726562-.4957275391-.1882324219-.9366455078-.6526489258-.9664306641-.4282836914-.0280761719-.96484375.3044433594-1.2064819336.7310791016-.1521606445-.0125732422-.3043212891-.0313720703-.4533691406-.0391845703-.0423583984-.4016113281-.2039794922-.6949462891-.5569458008-.7170410156-.379699707-.0234375-.8424682617.2746582031-1.0307617188.7060546875-.1286621094.0046386719-.2604370117-.0046386719-.3890991211.0063476562h-.0407714844c-.0580444336-.3420410156-.2588500977-.5947265625-.6589355469-.6213378906-.4659423828-.0297851562-1.0134887695.2667236328-1.1578369141.6872558594-.0690307617.0014648438-.1348876953,0-.19921875,0-.0769042969-.3232421875-.3012084961-.5600585938-.6573486328-.5837402344-.378112793-.0250244141-.765625.2071533203-.9225463867.5444335938-.1380615234-.0078125-.2823486328-.0093994141-.4188842773-.0203857422-.0611572266-.3953857422-.290222168-.7468261719-.7546386719-.7750244141-.4094238281-.0266113281-.8785400391.2117919922-1.1342773438.5270996094-.1270751953-.0234375-.2588500977-.0391845703-.3843383789-.0673828125.0156860352-.5004882812-.1694335938-.9116210938-.669921875-.9428710938-.375-.0251464844-.8157958984.1756591797-1.0511474609.4895019531-.1176757812-.0377197266-.2369384766-.0690917969-.3561401367-.1114501953.0015869141-.0313720703.0141601562-.0628662109.0125732422-.0972900391-.0439453125-.4487304688-.0408325195-.8801269531-.5051879883-.8237304688-.2478637695.0314941406-.5836181641.1977539062-.8299560547.4157714844-.0423583984-.0172119141-.0831298828-.0375976562-.1239013672-.0532226562.0062866211-.056640625.0234985352-.1098632812.0187988281-.16796875-.0439453125-.4487304688-.0391845703-.8785400391-.5051879883-.8205566406-.2400512695.0268554688-.5553588867.18359375-.8016967773.3875732422-.1286010742-.0643310547-.2619628906-.1302490234-.393737793-.1961669922.0015258789-.0092773438.0078125-.0187988281.0078125-.0281982422.0282592773-.4501953125.1019897461-.8753662109-.3639526367-.9051513672-.2542114258-.015625-.6102905273.0909423828-.8911132812.2619628906-.0392456055-.0235595703-.0722045898-.0407714844-.1113891602-.0643310547.0156860352-.0565185547.0454711914-.1129150391.0501708984-.1788330078.0282592773-.4519042969.100402832-.8754882812-.3639526367-.9052734375-.2855834961-.0187988281-.6997070312.1160888672-.9931030273.3232421875-.0721435547-.0439453125-.1506347656-.095703125-.2259521484-.1396484375.3059692383-.5444335938.669921875-1.2487792969-.0360717773-1.2019042969-.4204711914.0268554688-1.0103149414.0737304688-1.4904174805.2668457031-.0234985352-.0141601562-.0439453125-.0297851562-.0659179688-.0439453125.3389282227-.5961914062.6495361328-1.2739257812-.0297851562-1.2189941406-.4141845703.0281982422-.9868164062.0799560547-1.4810180664.2729492188-.0659179688-.0407714844-.1302490234-.0815429688-.194519043-.1208496094.2682495117-.6337890625.5192871094-1.3695068359-.1160888672-1.3037109375-.4016723633.0424804688-.960144043.103515625-1.4135742188.3358154297-.0501708984-.0267333984-.098815918-.0579833984-.1506347656-.0909423828.4031982422-.5883789062.7844238281-1.2552490234.1443481445-1.3178710938-.5083007812-.0487060547-1.2692260742-.1176757812-1.8496704102.1928710938-.0753173828-.0517578125-.1522216797-.1003417969-.2275390625-.1536865234.4078979492-.5600585938.8676147461-1.2581787109.2008666992-1.3272705078-.4926147461-.0517578125-1.2268676758-.1223144531-1.7822875977.1506347656-.1051025391-.0815429688-.20703125-.1678466797-.3090209961-.2526855469.3262939453-.6306152344.7828369141-1.5280761719.0533447266-1.4809570312-.4173583984.0266113281-1.0134887695.0659179688-1.4920043945.2933349609-.0580444336-.0501708984-.1176757812-.1019287109-.1741333008-.1522216797.4392700195-.5427246094.967956543-1.2392578125.3059082031-1.3349609375-.473815918-.0690917969-1.1782226562-.1616210938-1.7367553711.0751953125-.0250854492-.0234375-.0486450195-.0439453125-.0753173828-.0673828125.478515625-.55859375,1.0856933594-1.3068847656.379699707-1.4104003906-.4502563477-.064453125-1.0997924805-.1444091797-1.6598510742.0266113281-.0518188477-.1694335938-.087890625-.3404541016-.1663208008-.5083007812.3419799805-.5490722656.6243896484-1.1390380859.0706176758-1.2001953125-.4848022461-.0501708984-1.2300415039-.1302490234-1.7618408203.2290039062-.0471191406-.0439453125-.092590332-.0861816406-.1412353516-.1286621094.4267578125-.6540527344,1.0370483398-1.5844726562.3326416016-1.6550292969-.5146484375-.0533447266-1.3084716797-.1254882812-1.8701171875.2902832031-.0455322266-.0408935547-.092590332-.0832519531-.1396484375-.1224365234.4330444336-.5914306641,1.0166625977-1.4041748047.287109375-1.4810791016-.5114746094-.0533447266-1.2880249023-.1302490234-1.8591308594.1678466797-.100402832-.0831298828-.2070922852-.1583251953-.3090209961-.2398681641.3356933594-.6528320312.8345947266-1.6066894531.0721435547-1.5595703125-.4691162109.0297851562-1.1421508789.0799560547-1.6551513672.3671875-.0612182617-.0424804688-.1207885742-.0832519531-.1820068359-.1271972656.3828125-.765625.8707275391-1.7836914062.1019897461-1.7021484375-.5114746094.0548095703-1.2723388672.1411132812-1.8387451172.5443115234-.1019287109-.0626220703-.2117919922-.1302490234-.3168945312-.1929931641.290222168-.7984619141.6542358398-1.8591308594-.0439453125-1.7585449219-.5130004883.0766601562-1.2958374023.1944580078-1.7790527344.7183837891-.0643310547-.0344238281-.1270751953-.0689697266-.1929931641-.1003417969.3106079102-.8549804688.7357788086-2.0473632812-.0093994141-1.9312744141-.5852050781.095703125-1.5045776367.2495117188-1.9893188477.9758300781-.0518188477-.0219726562-.1004638672-.0454101562-.1553344727-.0675048828.3309936523-.7874755859.8927001953-2.0300292969.0533447266-1.9014892578-.665222168.1020507812-1.735168457.263671875-2.213684082,1.0590820312-.0627441406-.0205078125-.1239624023-.0487060547-.1898193359-.0690917969.3278808594-.853515625.6683349609-1.8701171875.0266723633-1.7053222656-.5444335938.1428222656-1.3963012695.375-1.8952026367,1.1295166016-.0203857422-.0062255859-.0392456055-.0140380859-.0549316406-.0172119141.1992797852-.861328125.5130004883-2.1398925781-.1710205078-1.8623046875-.5302734375.2150878906-1.3649291992.5617675781-1.7225952148,1.3697509766-.0423583984-.0111083984-.0847167969-.0189208984-.1223754883-.0281982422.2447509766-.9240722656.6149902344-2.2734375-.186706543-1.9847412109-.6353759766.2322998047-1.6504516602.6072998047-2.0693359375,1.5013427734-.0125732422-.0046386719-.0266723633-.0046386719-.0407714844-.0076904297.1521606445-.9366455078.4157104492-2.3863525391-.3765258789-2.0834960938-.6511230469.2478027344-1.7006835938.6573486328-1.9595336914,1.6849365234-.0219726562-.0031738281-.0423583984-.0046386719-.0627441406-.0093994141.1584472656-1.0355224609.3529663086-2.4317626953-.4141845703-2.1116943359-.6558227539.2729492188-1.717956543.7216796875-2.022277832,1.8135986328-.092590332-.0125732422-.1851196289-.0250244141-.2777099609-.0328369141.196105957-.92578125.4691162109-2.2309570312-.3655395508-1.9078369141-.7059936523.2760009766-1.8575439453.7294921875-2.1823120117,1.7398681641-.0721435547-.0015869141-.1443481445-.0063476562-.2164916992-.0063476562.1788330078-1.0134277344.3655395508-2.2637939453-.3090820312-1.9217529297-.6008911133.3089599609-1.5688476562.8016357422-1.8967285156,1.8825683594-.1129760742-.0030517578-.2243652344-.0030517578-.3310546875-.0030517578-.0093994141-.8552246094-.0722045898-1.8795166016-.669921875-1.5046386719-.4895019531.3028564453-1.2362670898.7766113281-1.4778442383,1.5516357422-.0894775391.0047607422-.1898803711.0047607422-.282409668.0062255859-.0156860352-.9020996094-.0800170898-1.9609375-.6369628906-1.5844726562-.4644165039.3121337891-1.1766357422.8079833984-1.3900146484,1.6379394531-.0486450195.0014648438-.1019897461.0031738281-.1475219727.0031738281.0345458984-.7124023438.0612182617-1.6536865234-.5616455078-1.2724609375-.4266967773.2587890625-1.0573730469.6525878906-1.3821411133,1.1955566406-.083190918-.0125732422-.1616210938-.0299072266-.2447509766-.0424804688.0313720703-.5317382812-.0313720703-1.0495605469-.6040039062-.9506835938-.4722290039.0799560547-.8048706055.2243652344-1.0448608398.4141845703-.0643310547-.0393066406-.1380615234-.0659179688-.1992797852-.1082763672-.1098022461-.0705566406-.2070922852-.1286621094-.3121948242-.19921875,0-.0172119141.0093994141-.0297851562.0109863281-.0471191406.0360717773-.5694580078-.0423583984-1.0354003906-.5648193359-1.068359375-.2729492188-.0187988281-.6087036133.0894775391-.8754272461.2761230469-.1505737305-.080078125-.2933349609-.1474609375-.4345703125-.2165527344-.0580444336-.4738769531-.4000244141-.8564453125-.8565673828-.8864746094-.2636108398-.015625-.5067749023.0848388672-.6918945312.263671875-.1317749023-.0422363281-.2588500977-.0754394531-.3812255859-.1066894531-.1349487305-.3420410156-.4314575195-.5961914062-.7954101562-.6181640625-.3090820312-.0203857422-.578918457.1302490234-.7687988281.3624267578-.8754272461-.0548095703-1.4668579102.0125732422-1.9814453125-.3138427734-1.0386352539-.6494140625-4.2061767578-1.4354248047-5.1239624023-1.658203125-.6384887695-.4439697266-1.8276977539-1.0747070312-3.5707397461-1.1876220703-1.3193969727-.0831298828-.9899291992-.8739013672-3.373046875-.9052734375C20.2238790585.5435278955,19.1852438046.0508521143,18.4384786679.0037329737c-1.055847168-.0673828125-2.408203125.7893066406-2.5321655273,1.611328125-1.3774414062.3154296875-1.6567382812.4110107422-2.3485717773.3654785156-1.052734375-.0673828125-3.4703369141-1.0808105469-6.7320556641-.4313964844-1.8402709961.3687744141-2.88671875-.7106933594-3.8060913086-.9694824219-.1066894531-.5114746094-.491027832-.5068359375-.9554443359-.5380859375C1.4805318906.0037329737.9989034726.1372778955.9549581601.8306372705c-.0078125.1129150391.0156860352.2133789062.0329589844.3168945312C.0733053281,1.8975318018-.5322854922,3.0396216455.6741354062,3.202707583c-.1129150391.8173828125.0235595703,1.9313964844.3937988281,1.9721679688.3812255859.0407714844.3043823242-1.076171875.6542358398-1.7947998047.3623657227.0877685547.7247924805.2022705078,1.0840454102.3372802734-.1741333008.6823730469-.1678466797,1.4747314453.1647949219,1.5061035156.3027954102.0297851562.4204101562-.5883789062.6918334961-1.1625976562.2651367188.1098632812.5334472656.2182617188.8048706055.3249511719.0878295898.62109375.2682495117,1.1420898438.5161132812,1.1311035156.2055664062-.0125732422.2510375977-.375.291809082-.845703125.3593139648.1192626953.7279663086.2227783203,1.1201782227.2902832031.1694335938.03125.3483276367.0517578125.5239868164.0721435547-.015625.4000244141.0643310547.7138671875.2604370117.7875976562.2243652344.087890625.2714233398-.2681884766.3969726562-.7076416016.3388671875.0297851562.6887207031.0659179688,1.0511474609.0974121094.0328979492.6541748047.1662597656,1.2769775391.4784545898,1.2895507812.4141845703.0173339844.2636108398-.5805664062.4628295898-1.1892089844.3859863281.0471191406.7844238281.1051025391,1.1986083984.18359375l-.58203125.0014648438c-.0753173828.5947265625-.0784301758.9304199219.3922119141,1.0402832031.4392700195.0987548828.196105957-.5209960938.5255737305-.9696044922.3953857422.0877685547.8079833984.1993408203,1.2315673828.3341064453l-.6714477539-.0815429688c.1239013672.8017578125-.5365600586,2.0239257812-.1804199219,2.1226806641.3466796875.0972900391.9821166992-1.1248779297,1.159362793-1.9390869141.3153686523.1081542969.6385498047.2384033203.9680175781.3842773438-.1207885742.8159179688.0093994141,1.9643554688.3843383789,2.0081787109.3483276367.0377197266.3137817383-.884765625.569519043-1.5954589844.387512207.1632080078.7640380859.294921875,1.1170043945.3843994141-.1145019531.6102294922-.0752563477,1.2314453125.2196655273,1.259765625.2949829102.0297851562.4141845703-.55078125.666809082-1.1108398438.2745361328.0299072266.5412597656.0439453125.8001098633.0407714844.0690307617.7185058594.2651367188,1.3759765625.5412597656,1.3618164062.291809082-.0141601562.2651367188-.7075195312.3529663086-1.4182128906.2384643555-.0281982422.4675292969-.0643310547.6950073242-.1019287109.0251464844.3294677734.1286621094.5223388672.4314575195.5364990234.290222168.0109863281.2980957031-.2886962891.3404541016-.6713867188.2604370117-.0439453125.5145874023-.080078125.768737793-.1098632812.0407714844.0329589844.0816040039.0642089844.1207885742.0988769531-.0391845703.59765625-.1552734375,1.1623535156.091003418,1.1702880859.1443481445.0030517578.3027954102-.2023925781.4424438477-.5035400391.0941162109.1677246094.1694335938.3466796875.2164916992.5412597656-.7969970703.5756835938-1.3005981445,1.451171875-1.926574707,2.2465820312-.1537475586-.2495117188-.2996826172-.4189453125-.4910888672-.3828125-.294921875.0595703125-.3059082031.5600585938-.1646728516,1.0871582031-.1726074219.1616210938-.3577270508.3186035156-.569519043.4519042969-.1616210938.103515625-.3624267578.2009277344-.5506591797.302734375-.3969726562-.6682128906-.4471435547-1.6409912109-.8472290039-1.5561523438-.4266967773.0924072266-.4423828125,1.2628173828-.203918457,2.0504150391-.3388671875.1412353516-.6965942383.2839355469-1.0747070312.4219970703-.2980957031-.7734375-1.1232910156-1.8497314453-1.4967041016-1.71484375-.390625.1365966797.4879150391,1.2568359375.4330444336,2.0552978516l.3137207031-.0675048828c-.3153076172.1098632812-.6306762695.2181396484-.960144043.3310546875-.3466796875-.4031982422-.1898193359-.9758300781-.6526489258-.8298339844-.5130004883.1630859375-.4737548828.4925537109-.3278808594,1.0651855469l.3765258789-.0391845703c-.3498535156.1129150391-.6997070312.2274169922-1.052734375.3419189453-.3184204102-.58203125-.1725463867-1.2236328125-.6447753906-1.1530761719-.379699707.0549316406-.4424438477.7861328125-.3843994141,1.4873046875-.3560791016.111328125-.7012329102.2258300781-1.0463867188.3388671875-.291809082-.5256347656-.3656005859-1.060546875-.6636352539-.9226074219-.2761230469.1319580078-.2698974609.6323242188-.100402832,1.1845703125-.2102661133.0737304688-.4314575195.1459960938-.6354370117.2211914062-.3529663086.1270751953-.7624511719.2275390625-1.1970214844.3200683594-.1412353516-.61328125-.2070922852-1.1687011719-.5036010742-1.1499023438-.2996826172.0219726562-.4518432617.6369628906-.4628295898,1.3193359375-.3106689453.0485839844-.6275634766.0910644531-.9476318359.1334228516-.3121948242-.4895019531-.5051269531-.9805908203-.8157958984-.9161376953-.2855224609.0548095703-.3043212891.5301513672-.1772460938,1.0385742188-.483215332.0579833984-.953918457.1159667969-1.3869018555.1788330078-.1820068359-.5162353516-.2886962891-.9932861328-.5710449219-.9334716797-.2683105469.0549316406-.3671264648.5490722656-.3546142578,1.099609375-.9130859375.1961669922-1.4825439453.4676513672-1.3193969727.9350585938.8911132812,2.5793457031,2.4945068359.6181640625,5.9052124023.1506347656,3.3887939453-.4689941406,7.7298583984.4801025391,11.6441650391-1.5123291016,3.2130737305.3012695312,5.8801269531,1.0950927734,7.9667358398,2.0787353516,2.2560424805,1.0622558594,4.4493408203-.1740722656,5.2180786133,1.0213623047.3937988281.6102294922.8063964844,1.1358642578,1.2315673828,1.6002197266.1192016602.3735351562.2384643555.7468261719.3639526367,1.1060791016-.19921875,1.2755126953-.2933349609,1.8167724609-1.1483764648,3.5126953125-.7452392578,1.4731445312-1.3681030273,4.0272216797-1.622253418,4.9450683594l-.1145019531-.0673828125c-.9554443359,2.5179443359-1.3413696289,2.1666259766-2.9698486328,1.7005615234-.7734985352-.2211914062-2.4474487305,1.2175292969-2.4474487305,1.2175292969l1.7116088867.4533691406-1.3178100586.7750244141s1.841796875.9788818359,3.6538696289.2337646484c1.1907958984-.4880371094,2.1367797852.3090820312,2.9259643555-.4989013672.7907104492-.8079833984.5632324219-1.8560791016,1.0354614258-2.3406982422l-.087890625-.0518798828c.4581298828-.8236083984.9476318359-1.9908447266,1.7147827148-3.1109619141.9271850586-1.3508300781,1.5469360352-2.2561035156,1.9438476562-2.9228515625.673034668-.4692382812,1.0213012695-1.1437988281,1.1782226562-2.0191650391,1.3837280273.3780517578,2.4411621094.4000244141,2.703125.6134033203,1.0433349609.8627929688,2.2168579102,1.5406494141,3.465637207,2.0959472656.5820922852,1.1234130859,1.4857177734,2.6640625,1.818359375,4.4886474609.2588500977,1.443359375.5506591797,2.5855712891.8848266602,3.4405517578.2416381836,1.4683837891-.1851196289,2.6765136719-1.4057006836,2.2041015625-1.5830078125-.6180419922-2.1273803711,1.0686035156-2.1273803711,1.0686035156l2.0395507812.2995605469-1.1719970703.95703125s1.6080932617.6243896484,3.0200805664-.1490478516c-.19921875.6793212891-.4016113281,1.34765625-.4016113281,1.34765625,0,0,2.1524658203-.0423583984,2.8506469727-2.9400634766.3278808594-.3074951172.6055908203-.6369628906.7357788086-1.1296386719.2102661133-.7717285156-.0878295898-1.7178955078-.3168945312-2.6795654297-.0941162109-.9600830078-.294921875-2.1024169922-.3529663086-3.3416748047-.0345458984-.7734375-.084777832-1.4025878906-.1459350586-1.9611816406,4.5073852539.8127441406,9.2877197266.6904296875,12.985534668.7233886719-.0674438477,1.0024414062-.196105957,2.1962890625-.680847168,3.5283203125-.3357543945.9366455078-.6260375977,1.7775878906-.8440551758,2.5241699219h-.0031738281c-.6636352539,2.1337890625-1.4873046875,2.2467041016-3.6115112305,1.7165527344-1.8544311523-.4644775391-3.1361694336,1.4025878906-3.1361694336,1.4025878906,0,0,1.830871582.2321777344,1.8245849609.3466796875-.7562255859.294921875-1.3712158203.8298339844-1.3712158203.8298339844,0,0,1.7665405273.455078125,4.1104736328.1474609375,1.5892333984-.2084960938,2.794128418.8676757812,4.2437744141-.2995605469.7389526367-.5977783203.7891235352-1.1610107422,1.2033081055-1.70703125,1.4418334961-1.1546630859,2.690612793-3.1549072266,3.1189575195-4.7802734375.4408569336-1.6535644531-.0863037109-2.4505615234.1270751953-3.3291015625,2.0677490234.3828125,4.2469482422,1.044921875,6.7759399414,2.0551757812.4016113281.4580078125.9538574219.9946289062,1.733581543,1.7116699219.6448364258.59765625,1.7132568359,1.2551269531,1.7132568359,1.2551269531.2713623047.7059326172-.6150512695,2.1571044922-2.7455444336,1.6597900391-1.8559570312-.4313964844-2.6592407227,1.0872802734-2.6592407227,1.0872802734,0,0,1.5249633789.1129150391,1.5186767578.2133789062-.7562255859.2666015625-1.057434082.8549804688-1.057434082.8549804688,0,0,1.7571411133.1850585938,4.1072998047.1616210938,1.7430419922-.0203857422,4.4242553711-1.7022705078,4.9513549805-3.0388183594.0533447266-.1428222656.0502319336-.2746582031.0219726562-.4047851562,2.1226806641,1.0729980469,4.4650268555,2.3093261719,7.1038208008,3.7416992188,11.0244750977,5.98046875,20.6259765625,4.529296875,26.1546630859,3.9660644531,5.5287475586-.5600585938,13.7872924805,2.48828125,13.6774291992.8785400391-.0580444336-.861328125-3.0844116211-3.3385009766-7.2387695312-5.3826904297Z"/>
  </g>
</svg>