<?xml version="1.0" encoding="UTF-8"?>
<svg id="Layer_2" data-name="Layer 2" xmlns="http://www.w3.org/2000/svg" viewBox="0 0 67.0772984147 22.8747450906">
  <defs>
    <style>
      .cls-1 {
        fill: #6a7c69;
      }
    </style>
  </defs>
  <g id="Layer_1-2" data-name="Layer 1">
    <path class="cls-1" d="M65.1447680662,5.8500741097c-1.2947231736-.6886402998-2.7813863098-1.5469954252-4.2680978669-1.7056703135-1.6532790321-.177704254-3.0542858127.971030275-4.3379206282,1.8389242936-.6140238814.4156923761-1.1804501384.637846904-1.8976102762.8218942798-.3268886699.0809111195-1.4962504502-1.0011964195-1.7628068312-1.2677528005-1.1614207727-1.1566271158-2.5767116827-2.015030662-3.8952094582-2.9701789219C46.5666356762.8108753588,42.8411894645.2206260792,39.9391869975.0302355815c-3.1827945566-.211017749-6.6861346612.6822487571-9.1549648513,2.6877889466-5.0233167359,4.0824526053-8.3203843277,10.1640538575-14.2846378253,13.1691925809-2.9384633125,1.4819179-5.9324894674,2.6005347053-9.1613079732,3.2462741961-1.5231966129.304663533-3.1273043454.7314442672-4.6631872021.9075990563-.7235032597.08405847-1.4216340318.0221767162-2.1165932431.3125561197-1.2629591435.5251717544-.0967689241.8694919043.6822729675.9678345037,6.5528564707.831433173,13.42940584-.355408508,19.7125827896-2.1578235352,2.9511495563-.8472667673,6.0721107798-2.3609486975,8.5900880592-4.1141682147.3189476624-.2221545279,1.2836348155-1.1106757978,1.6406412092-1.1186168053.8853254986-.0206272513.5267696401,1.326438783.4236333837,1.8325811718-.3126045405,1.5565343184-.9186874144,2.9892567083-.7172085586,4.6155653673.088852127.7156106729.0476460452,1.5025935721.6870424141,1.9626878013.6346511327.4569468787,1.5358586463.3141540054,2.2562145554.2681542666.7409831604-.0444018531,1.5549364327.0079410075,2.2720965705-.1697632464,1.0947937827-.2713016172.3791831098-.6679646277-.3506632718-.9964027625-.7187580234-.320545548-1.3168998898-.3268886699-1.9134922912-.8615508967-.5061423888-.4490542919.160272774-1.7786404255.3823788811-2.2197537099.3855746524-.7695029984,1.2963210593-3.5445946072,2.1499309485-3.4779191964.7235032597.0570880969,1.5660247908-.0126862437,2.2879301648-.1158225001,1.1027347902-.1570770027.9885101757.1078814926,1.2280961836,1.0741665314.1855968407.7457283966-.3792315306,1.3851247655-.2808405104,2.0832555377.1142246145.8012670286.4077513686,1.4549475269.7679051128,2.1737055503.1634201246.3300360205.3459180355.6759056352.5299654114.9916575263.0904500127.160272774.5235738687.7409831604.5235738687.8552077749,0,.6235627746,1.3106051887.7314442672,1.7516700523.8329826379,1.2804390442.2919772892,2.9971977158-.155479117,4.2252454786-.4379175131-.0570880968-.6409942545-1.5834562707-1.1851953746-2.1610193066-1.1851953746-1.1058821408,0-1.6453380246-.6362490183-2.0911965452-1.6215634228-.4410648636-.9726281607-.155479117-2.0325105627.1158225001-2.9765704646.1427928733-.4966034956.3474675004-.9742260463.5093381601-1.4660843057.228449229-.6822487571.5759651502-.2586153734,1.1931363821-.2173608709.4363196274.0301661445,2.6846415961.033313495,2.7306413349.2697521523.088852127.439466978-.0761658832.882178148.033313495,1.4136930243.1237635077.5949945158.2173608709.9202368793.46014265,1.5120840445.1824494902.4395153987,1.3343797905,2.5449960733,1.1503324147,2.6909362972-.2380365429.1919883834-.6362490184,1.0281667927-.3649474012,1.3169483106.2633606096.2776447391.8393257598-.2538701372,1.1867932602-.3284381348.0158820151.5648283713-.1697632464.7187580234.4569952995.7869828992.1824494902.0190293656.1745084827-.4712310081.4315743912-.3427222642.2363902365.1189698507.3299875997.1507338808.5917987445.1697632464.9393146656.071420647,1.7453269304-.0222251369,2.6560733373-.0222251369-.1015867915-.6393963689-1.2947231736-.7504736328-1.8325811718-1.0170300138-.7663556479-.3807809954-1.2836348155-1.0630781733-1.3946636587-1.9531489081-.1047341421-.8218942799-.1174203858-1.6152203009-.3173497767-2.4196831008-.2602132591-1.0392551507-.1348518657-1.3248408973.655278384-2.1006870176.2792426247-.2760952742,1.5485933108.7457283966,1.6675631615,1.1281072777.304663533.9789228618.6838466428,1.4850652506,1.4089477881,2.2117642816.5188286325.5204265182,1.2264982979.8361784093,1.7516700523,1.3582028131.5188286325.5172307469.1919883834,1.3470660343.426829155,2.0689714083.5870535082-.7584146403,1.2407340065.5759651502,1.9706288089.46014265-.104734142-.1158225001-.1539296522-.282438396-.2634090304-.3950651249,1.2074689323.2395860078,2.1403920553.2681058459,3.3494104525.3299875997-.615621767-1.00434377-1.9944034107-1.232792999-2.6766521678-2.3101553017-.6917876503-1.0963916684-1.4771726638-2.1070785603-2.2387830755-3.1542747185-.7711008841-1.0646276382-1.6961314203-1.7929245549-2.1102259108-3.0765109496-.4839656726-1.5057409226,1.0757159963-1.6548769178,2.1800486722-2.208616931.988461755-.493456145,2.2879301648-1.537456532,3.3636945819-1.537456532,1.148734529,0,2.2530672049-.6108765309,3.3875176045-.6568762696,1.4057520168-.055538632,2.4894574414,1.1201662702,3.2875286986-.3443201499.6648172771-1.2185572904-.9678345037-2.297469058-1.7770425398-2.874983673"/>
  </g>
</svg>