<?xml version="1.0" encoding="UTF-8"?>
<svg id="Layer_2" data-name="Layer 2" xmlns="http://www.w3.org/2000/svg" viewBox="0 0 48.6076684489 21.3137004104">
  <defs>
    <style>
      .cls-1 {
        fill: #4561af;
      }
    </style>
  </defs>
  <g id="Layer_1-2" data-name="Layer 1">
    <path class="cls-1" d="M48.2748389482,9.6322927466c-.333183371-1.4804168559-2.846463835-1.9024523539-4.0364528665-2.1991748794-1.6834451766-.4172902618-3.3811260618-.7663072271-5.0741101316-1.139147215-3.163765191-.7013265435-6.3243830314-1.4121435594-9.5976276006-1.4121435594-.8552077749,0-1.7009250773-.0317640301-2.5545349665-.0730185327-.9265800011-.0444502739-1.0471961583-.7346400385-1.5120840445-1.3866742304-.5172307469-.7251495661-2.1419899409-3.6731033511-3.2272448305-3.4049490844-.3268402491.0808626987-.9916575263,1.5024967305-1.4010067806,1.8293369797-.637846904.5061908096-1.3232914324.9345210087-1.9515994432,1.4914567932-.510887625.455348993-3.4525467089,3.1210096443-.9249821155,2.9416590839.7409347396-.0523912814,1.3644975142-.0206272513,2.0975396671.0825090051-2.1658129636.2427817792-4.2538137375.9091485212-6.4211761659,1.0503435088-1.0900485465.0714690678-2.0483925778-.4267807342-3.1209612235-.4267807342-.5585094598,0-.6537047087.304663533-.7726987698.777444006-.085680566.3459180355.9916575263.3284865556,1.2836106052.3141540054-1.5660247908.4681320783-3.2336121627.4966034956-4.6711039992-.3617032091-1.4232319175-.8504625387-2.264155563-2.0943923165-3.4224047748-3.2209501294-.2697521523-.261762724-1.608877179-1.275693808-1.9515994432-.9313252373-.6251364499.6283080108-.6076807595,1.3533607353-.6981307722,2.1769013216-.1713369217,1.5564374768-.4236333837,3.1018350163-.2713016172,4.6710555785.158650678,1.6231613084.155479117,3.1431863605.4506037568,4.7584066613.1348760761.7282484959.2570416981,1.4502022907.3903198886,2.1800002514.158650678.8742855613-.1713611321,1.680297826.9043790746,1.0027943052,2.6132209491-1.6485337959,4.0459675494-5.9435536151,7.7920652228-5.2962646595.2602132591.0459997388.5235980791.1570770027.777444006.2348407716-.6743077496.3442717291-.5870535082,1.0154805489-.2316450003,1.5565343184.2126156347.3251939427.4426869597.355408508.6394205793.7885807848.144390759.3157034703.2221303175.6409942545.3316096958.9693839686.1586748884.4696815432.5616568103,1.7834340824.9742018359,2.0578830502.6759056352.4537995281,1.7421311591-.261762724,2.3387235606-.5838577369.5410537695-.2919772892.6505331477-1.2376350768,1.0662255239-1.6532790321.6981307722-.6965813073.8393257598-1.1233620415,1.8341790574-1.064676059.7806397773.0476460452,1.537456532.2253502992,2.2958711723.4172902618.7013265435.1761547891,1.5438480746.0031957713,2.2736944562.0031957713-1.1439892928,1.2883800517-.7409831604,2.8290323551-.3903198887,4.3981560756.0618817538.2777415806-.0745679976.9361673151.1205677364,1.0345583353.4887109088.2411354727.6997286578-.0047452362,1.1836459097-.2475270154.4648878862-.2332913067,1.2899779374-1.3629480493,1.5771615696-1.8389242936.3030172265-.4997992669.5648283713-1.2026752753.8393257598-1.7548658236.4997992669-.9995985338.8837760337-.5791125007,1.908747055-.5791125007h5.1851873955c.6933371152,0,1.5072903875-.1475865303,2.1879896798-.0777637689.4791720156.0491955101.422035498-.1618222389.6695625133.3315854854.1935378483.3856230732.3998103611.7711493049.5347106476,1.1789490943.2205082214.6584257345.1935378483,1.5739657983.5267696401,2.1245100402.4664373511.7758945411,1.4502022906-1.0440488077,1.5977404002-1.3391250267.371290523-.7441305109.3300360205-1.3455165694.4299765055-2.1451372915.0253724875-.2126640554.0301661445-1.064676059.2205566422-1.1027347902.4823193662-.0968415553.9456577875-.2158598268,1.4375160469-.2158598268.8297868666,0,1.3676932855-.4330754353,2.1514804134-.6283080108.848864653-.211017749,1.6834451766-.4966034956,2.4926532127-.8329342172,1.177254367-.4886624881,3.2240490591-1.2978705242,3.8444160624-2.5291140583.4490542919-.8949128125.1301066295-1.0995390189-.6314553614-.4475048271-.3982608962.3396233344-1.7072681992.7283453374-2.2197537098.5442495408.815551158-.8584035462,1.9944518314-1.0471477375,2.724298213-2.0229232487"/>
  </g>
</svg>