<?xml version="1.0" encoding="UTF-8"?>
<svg id="Layer_2" data-name="Layer 2" xmlns="http://www.w3.org/2000/svg" viewBox="0 0 70.1357675838 29.0648749238">
  <defs>
    <style>
      .cls-1 {
        fill: #979b79;
      }
    </style>
  </defs>
  <g id="Layer_1-2" data-name="Layer 1">
    <path class="cls-1" d="M32.2870491134,28.2778013921c-1.5786868242-.1983315053-3.1875640032-.6901897646-4.7710444843-.6283080108-1.6834451766.06662699-3.4478014727.0491470893-5.1137667485.3014677617-1.7167586716.2602132591-3.4271742214.5124855107-5.1296487636.8424731104-1.8992323722.3696926374-3.5477661681.282438396-5.4945719544.1951841547-3.3780029217-.1507338808-6.611590874-2.0610788215-9.2597232038-4.0221687372-.6124259958-.455348993-1.0487698335-.9805691682-1.5517406614-1.5612795546-.6060828738-.7012781227-.6378226936-1.4866631362-.8282374017-2.3926643069-.3585800689-1.7008766566.0603080786-3.3605472313.3490653861-5.0328556291.5505684523-3.1828429773,3.0828782819-5.7849271475,5.9150579875-7.0923365649,1.6199655371-.7473262823,3.2415289599-1.5612795546,4.9090921214-2.1959306873,1.5184271664-.577514615,3.1923334498-.8536098892,4.6758734458-1.4549475269,1.800841352-.7330421529,3.5477419577-1.4232319175,5.4152345102-1.9674330375,1.5533385471-.4522016425,3.1558483938-.6568762696,4.7155300627-1.115421034,1.5104861588-.4458585206,3.2573867645-1.2296940692,4.8138968725-1.3724869425,1.7278712401-.1586264676,3.4573161554-.2839878609,5.1867610708-.422035498,3.468428724-.277644739,6.8226328334-.2189587565,10.2894636717-.1110772639,1.6405927884.0523912814,3.3208421936.6648172771,4.928121487.6584741553,1.6136224152-.0079410075,3.2335879523-.6584741553,4.8805238626-.6584741553,1.6882388336,0,3.3700861245-.3648989804,5.0614238879-.2094198633.9297757725.0841068908,1.3423207981.4426627493,2.1895875654.6727582847.2903794036.0793132338.9821670539.1253129726,1.1646165441.3696442166.2618111448.3475159212.4632900006.731492688.8472667674.9409125513,1.5676226764.8568056605,2.015030662,2.3180963093,3.2653519824,3.4827128533.3601537442.3363307216.4299765055.0983425994.7203074883.6775035209.1697632464.3379286072.3570063936.6647688564.5457990057.9932069912.4220839188.7393852747-.333183371,1.4121435594-.7203074883,1.94206055-.0063431219-.2189587565-.1063320277-.4363196274-.1110772639-.6568762696-.1205677363.215811406-.3395264929.3776336449-.4680836576.5886513939-.0491470893-.2427333584-.2379881221-.4569468787-.2966741047-.6981307722-.1015383707.1729590178-.333183371.266556381-.4379175131.4379175131-.2792426247-.54420112-1.275693808-.7171601378-1.8627473162-.6568762696.6505331477.3998587818,1.2883800517.8076101504,1.9722266945,1.148734529.548994777.2760952742.9741776256,1.1503324147.0301177237,1.1503324147-1.6120245296,0-2.7718474167-1.0202257851-4.2458727299-1.588201507-1.3740364074-.5283675257-2.6385934365-1.5882499277-4.112570329-1.5882499277-.6600720409,0-1.4486528258-.2903794036-2.1007354384-.4204860331-.7124149016-.1411949876-1.575563684.0206272513-2.2895280505.0857047764-.2729479236.0237746018-.4966519164-.282438396-.7520715185-.1555275378-.3395749137.1698116672-.6188175384.3776336449-.9266284219.6013860584-.6140238814.4474079855-1.2566160216.8202963942-1.9150901769,1.2042247402-.9520009094.5521905483-.988461755.5252201752-.882178148,1.6628179253.0507933957.5648767921.0904500126,1.4977999151.760012526,1.6771020547.7488757471.1983315053,1.4882610219.3919177743,2.2466756622.5426516551.6822971779.1380476371,1.2804390442.3315854854,1.9262269557.4950056099.6505331477.1634201246,3.7428776917-.3093603484,3.3954101912,1.0963916684-.5695736075-.6267101251-.6790529858.0935973632-1.1979300391-.0222251369-.6933371152-.1538812314-1.2724980367-.1967336196-1.9785213956-.1967336196.0967931345.4537995281.2744973885.8805802624.4379175131,1.3137525392-.2046746271-.0761658832-.4553974138-.2300471146-.6727582847-.2506743659-.1411949876-.0142841294-.493456145.1538812314-.5315148763.1411949876-.3871725381-.1253613933-.6584741553-.5363085333-1.0947937827-.6568762696.2173608709.5029466175.3950651249.8647466681.3300360205,1.4232319175-.6156217671-.9186874144-1.3106051887-.6013376377-2.191185451-1.2058710466-.0365092664.3014677617-.0015978857.5965924014.1078814926.8774329118-.5664262569-.6822487571-.6552783839-.4759762443-1.4279771537-.7314442672-.5505442419-.1809000253-1.0249710213-1.0154805489-1.5279660596-1.3502618056-1.1423914071-.7568167547-.6346511327-2.6655638097-.7647577622-3.8301803538-.6219648889.266556381-1.5311134101.2459291297-2.0801081871.5458474265-.4807214805.2633606096-.9900596406,1.2121657477-1.3137041185,1.6437401389-.6965813073.9266284219-2.4212325657,2.5275645934-.7758945411,3.2335879523.2205566422.0951952489,1.5961909353-.1126267288,1.8627473162-.2030767415.7663556479-.2554680229,1.1312546283-.2649584953,1.7595626391.2538701372.2887815179.2395860078-.3490653861.6854445284.5267696401.4696331224.2268997641-.0570880968.5743672645-.0142841294.7853850135.0761658832.5045929239.215811406,1.026568907.8885212699,1.0947937827,1.4232319175-.1379992163-.0079410075-.3014677617.033313495-.4347217418,0,1.0503435088.3014677617,1.4851136714.5807103864,1.7500721667,1.642190674-.2475270153-.4887109088-.5791125007-.6457879115-1.0979411332-.5172307469-.531563297.1316560944-1.0059416557-.1206161571-1.5295639452-.249124901-1.0757159963-.2649584953-2.1007354384-.6362490183-3.1764514347-.8758350262.299869876.3696926374,1.0884506608,1.0582845163,1.5342607607,1.204273161.8044627999.2649584953.7489241679.6806508714.6568762696,1.4232319175-.4966034956-.866296133-.4807214805-.4617405357-1.2058226258-.8218942799-.5315632971-.266556381-.9662850388-.6743077496-1.4771726638-.9821186331-.5696220283-.3427222642-1.2471255492-.3443201499-1.8072086843-.7140127872-.6838466428-.4537995281-.548994777-.8472667673-1.4391139326-1.0694212952-2.8861204519-.7171601378.3966630105-5.0265125072,1.2217530617-6.2640991632-2.0801081871.9234326506-4.3918613745.7235516804-6.6227034425.9297757725-1.1407935215.1063320277-2.297469058.055538632-3.4414583508.055538632h-1.7770425398c-.8202963942,0-.6600478306-.1856452615-.7488999575-.9853144044-.793326021.9535987951-1.7088176641,1.7834340824-2.4339188094,2.79571886-.5410537695.7536209834-2.4434577026,1.7849835473-2.1657887532,2.7877294317.637846904-.1094793783,1.3105809783-.2554680229,1.8548063087-.6156217671.6933613256-.4585447644.3617516298-.1872431472.9916575263-.0412545026.2855857466.0666269901.2126156347-.2871836322.4394911884.0539407463.1523317665.2316450003.1697874568.1475865303.4331722769.0825090051.2840120713-.0698227614.2840120713.4902603737.5838819473.548994777.4394911884.0872542413.848864653.0809111195,1.2978705242.0809111195.7965217923,0,1.309007303.6029355233,1.7357880372,1.2026752753-.3299875997-.2157629852-.7298463815-.2586153734-1.0947937827-.1094793783.6997286578.3506632717,1.3883205368.6568762696,2.1864402148.6568762696.9170895287,0,1.2359887703.8076101504,1.3168998898,1.5343091814-.1729590178-.6981307722-.5727693788-.4728288938-1.0947937827-.3839767668-.5283191049.0904500127-1.0915980114-.1793021396-1.6326517808-.2554680229-1.077313882-.1538812314-2.3672918194-.1285087439-3.4033754092-.4537511074.404604018.2157629852,1.1170189196.4283786199,1.4216582422.7647577622.2411354727.2649584953.4030061324.9789712826.5489463562,1.3137525392-.9107221964-.7806397773-2.2736460354-1.2058710466-3.4477772623-1.8325811718-1.0773380924-.5743672645-2.5989368196-.4204860331-3.7207009755-1.059882402-.3236686882-.1856452615-1.3105567679-.7505220536-1.2439297779-1.1519303003.1015383707-.6060828739.0904500126-1.7135629003.4204618227-2.1959306873.3062372083-.4506037568.93771678-.6521310334,1.2550423463-1.1804501384.3696926374-.6156217671.6283080108-1.1931848029.8250658408-1.8849724532-1.1392198462.8108059218-2.1118480069.7584146404-3.4731739602.6521310334-1.6786999404-.1317045152-2.3657181441.3649474012-3.8635180592.9900596406-.5680241426.2379881222-1.215361519.3570063936-1.8071844739.5299654114-.6584741553.1935378483-.9773733969.5695736075-1.6961314203.6743077496-.3220950129.0459997388-1.8294096108.1872431472-1.7215281182-.3617516298.1142488249-.5727693788.1237635077-1.3502618056.7378115995-1.6104750647-2.9194581573.4172902618-7.1827865775.6791014066-9.4707409528,2.779836845-2.9289486297,2.686191061-2.4958005632,5.9753176453-1.2772432729,9.4294622398.2015030662.5696220283,1.448604405,1.0837054246,1.9198354131,1.3486639199.6568762696.3680947517,1.1646165441.8536098892,1.8690904381,1.1233620415,1.7231017935.6568762696,3.3748071504.9678345037,5.2073883221,1.1947342678,1.6389949027.2030767415,3.2907002595.4363196274,4.9249741365.1634201246,1.7738709789-.2951246398,3.5302862674-.4077513686,5.3247844975-.4791720156,3.2796119015-.1285087439,6.5861941761-.0809111195,9.5659119912,1.4121435594"/>
  </g>
</svg>