<?xml version="1.0" encoding="UTF-8"?>
<svg id="Layer_2" data-name="Layer 2" xmlns="http://www.w3.org/2000/svg" viewBox="0 0 90.8896315793 35.1053602525">
  <defs>
    <style>
      .cls-1 {
        fill: #cca899;
      }
    </style>
  </defs>
  <g id="Layer_1-2" data-name="Layer 1">
    <path class="cls-1" d="M90.6542482538,8.2250979812c-8.1881673535-4.5060196968-23.26497697-.7516743728-32.8428863933-.5645120092-5.9757210082.6573605001-14.4374789443.4680774996-20.081231915-.9385660752-5.6495293118-.5094065951-13.3798668096.2179826277-18.9551899301.7506380269-1.4529205261.8157441136-1.5276146848-.4489169188-2.252149101-1.5026145772-.8887011858-1.2572694327-2.0126548333-2.4604395393-3.1905602244-3.5700454638C12.4283550164.9006550967,10.325318604-.040251187,8.6403069842.5203982225c-.7007558098-.3685149548-1.2562390598-.7300361121-2.0642953751-.3749930145-1.0955559775,1.49735296-2.842809375,1.4191382034-4.3165368987,1.8781745019-1.1786643823.4352241216-3.0760280002,2.0368922779-1.8768680733,3.1952976553,1.3548532187-.1344244972,2.8728280605.0458538709,3.9415668799-.3757497125.6500532377-.8877587174,3.4009750335-1.2579062412,1.5015501554-.000194557-1.3851734373.5913011557-3.4770493361.6976965636-4.3169876583,2.0666289937-1.1090433745,1.6070214276,8.1814859053-2.1867052995,8.6331337899-1.3152758661,3.2524210979.3562620213,1.817046369,3.8916599546,3.5656561024,5.4498641548,1.0273361032.9584885311,2.4645722968,1.3528135714,2.8148977224,2.81872508.1150671935.655531902,1.2932129246.5788558611,1.6894411159,1.127330515-1.0298409668.8633392668-2.574068719,1.9525066584-2.815237663,3.3823042087-.9240210333,1.9831302412,1.013803328,2.0218678156,1.6891608143,3.0067561241.6688971134-.836757667.5443778833-2.1308061771,1.1265950883-3.0064564457,3.0595714582-3.4463108785,3.4634419031-2.7360569117,7.5066723892-2.0667176587-.2222696801,1.7330120299,1.1128645158,2.9075548174,2.0642328119,4.1338117256,4.5854883337,3.5545635613.3764121822,3.7456260659-2.8150822195,4.5097021323-1.7034774565.3548680936-2.1386888887,2.1771225403-3.941416971,2.2549692731-.8896380034.0424500435-2.0287447853,1.9071377981-.9381180444,2.0675865365.2720638451-.7580832671,1.7771920562-.3916480106,2.2521332551-.563816547,1.3968536329-.2777237564,2.5010198944-1.2455807521,3.5655513611-2.0675501985,1.4005758862-1.974059596,6.4630941827.4665551504,6.5690821346-2.6304001229-1.1442777567-1.3947775681-1.7592573771-5.0536448726-1.1267692611-6.0138182948.4351842401,1.1096735537,2.3306566166.7675629033,3.1907225097.3759504601,2.704125073,1.8926452131,4.9320406202,4.4991395586,7.5071227481,6.7650645806.7169088127,2.2004052268,2.0984842243,5.784609953.5633150159,7.7050020517-.9477938661.4144649266-2.2000010595.2198563126-3.0029754492,1.1274751487-1.1729530541,1.5939879549.2892164784.7812783834.9383476077.9387831217,3.6424203638,1.1637881703,3.7189196797-3.2395779926,5.6298221086-2.8187238607-.298932245-1.2068849021-1.1317034588-2.1391618572-1.5007755221-3.3820795988.167025434-5.525628578-1.2614373132-4.6950798073-3.5668315892-8.8317106273-2.7258260861-3.0964368895-2.2392766989-2.6281080774.9391834313-4.6983868213,10.5306747267-3.7462857283,21.2817087662-6.7206239826,32.6551516685-7.1404002819,2.8971600579-.6100584319,8.9239277385-.514280297,11.8234759054-.0003505831.8618431414.3602990775,2.0017338062.1510502708,2.8152204832.7518599834.8912593934.0400210633,2.0539270123,1.1660917376,1.3138008957-.563962298Z"/>
  </g>
</svg>