<?xml version="1.0" encoding="UTF-8"?>
<svg id="Layer_2" data-name="Layer 2" xmlns="http://www.w3.org/2000/svg" viewBox="0 0 54.006201758 25.4616242865">
  <defs>
    <style>
      .cls-1 {
        fill: #d95239;
      }
    </style>
  </defs>
  <g id="Layer_1-2" data-name="Layer 1">
    <g>
      <path class="cls-1" d="M29.438208594,3.2762631993c.3218966844.1390648922.1427799511-.4330605321.1875528885-.5643496542-.1892090441.09702295-.2106208958.3811072799-.1875528885.5643496542Z"/>
      <path class="cls-1" d="M54.006201758,17.5667295079c-3.9051295832.3448511673-9.7212804726.68747424-13.8780115393.7518840519-.8155621814-.0049148095-4.646096952,1.8435477383-3.5634139253.5648249494,3.7412657015-10.6340330581,2.6482135361-2.9633271747,12.9408161797-5.4536082059,1.0871239047-.4668328496-6.9414247243-1.8429209761-8.0640445458-1.8806441013-2.5556433136.9230534122-3.4347789583.2049677428-2.0633446676-2.2562976504,1.0267008973-1.0603016245,2.8846943449-1.1140412552,3.8253163408-2.3312997155.8571794071-.7281561546,1.7142922676-2.0691980226,1.2379103595-3.1213053558-.6284810932.6729640305-1.184381496,2.4687120695-2.2503325454,2.2564911223-1.2234205983,1.091468066-3.0955955869.5835345783-4.5098000689,1.3207089101-1.3546259853.7890059475-2.691238268,2.3050532102-4.5029497433,2.4413130768-3.7329097405.0718201793-6.9972956991,2.4968285978-10.7959041622,2.7985683345-.7181823232-4.0461308617,2.0444959424-11.7271344218,6.6871047371-8.4345688711,1.2123624672.6679592963,1.6474315228-.1117784349,1.4932790982-.9463451676-.2491294214.2160890887-.4388603806.6130672848-.3745549209.0000188957-.3080507017.396508118-.382626638.0428056863-.1874950294-.1962220478.1034030978-.3779877381-.92249897.7342374517-.5626964583-.1893011544.0220885835-.7606503144-.11611331.3365713864-.5697933937-.1863824511-.6122931485-.382593464.0301700922-.7768849975.011741853-.189586829.3126086934-.6714908636.3002522403.0846410293.0033994154.1969415691.6510378869-.0343815393.2932312153-.6037651889.7421420999-.0086181462.0074652929-.8688578228.2826555311-.0160089486.1918507921.1879520717.3793670144-1.0771808575.3845728359-.2598979293.3753832047.1881025638.3078021437-.2594246223.0205136385-1.0341592309.3704672821-.5467149019-.0321012084.7752048597.1858317198-.4371032433.3750607238.3578832702-.0791516396-1.0546929963.2319225056.2420566493.1920054571-.5454628926.2620170118.873053146.425985512-.5090199193.3644626514-.7677405267-.9213154553-.7198512803-2.069255319-1.6116495504-3.1881712859-1.5044114265-1.127457571-.4047829158-2.5977458195.9882647496-3.4702892086,1.4208388686-11.6616647689,7.0486211183-.6301992344,20.5658335917-9.4721023752,18.5133808073-2.7553919875-1.5528570654-6.3193086996-1.232325107-9.1914031337-1.501477668-1.6231359011.206228625-6.0197121851-2.081793112-6.1728349492-.9333365902,5.048093963,3.6630686896,11.5873398075,3.8906759119,17.4398902064,4.5156894139,2.2443004491,2.8315170881,6.0393751941,3.3446613605,9.3822857235,3.3736205753,2.8067531345-.3134194224,5.3145900809-1.6386660252,7.3045573342-3.5699413771,6.3661326793.4003490291,15.5403763754-.3756409602,19.8794684939-4.3249534015ZM22.6867437502,13.9942807774c-.1961207495-.2715816952.5128605408.0387064714.5625444885-.0000635158.3258510336.017290714-.4663719129.8664490373-.5625444885.0000635158ZM28.5004644533,2.3360166173l-.1875-.1879882812c.1660463602-.0258340993.2128842432.0226438057.1875.1879882812Z"/>
    </g>
  </g>
</svg>