<?xml version="1.0" encoding="UTF-8"?>
<svg id="Layer_2" data-name="Layer 2" xmlns="http://www.w3.org/2000/svg" viewBox="0 0 90.7959197291 40.449703911">
  <defs>
    <style>
      .cls-1 {
        fill: #e18585;
        fill-rule: evenodd;
      }
    </style>
  </defs>
  <g id="Layer_1-2" data-name="Layer 1">
    <path class="cls-1" d="M90.6555625767,12.0842399803c-.261692676-1.1276060658-1.3537447227-1.8755346163-1.8765140673-2.8179517649-.7311815522-.0189017096-1.460135776-.9923963023-1.8769271189-.7515241294-1.239289592.2554837103-1.0673494227-1.6605611623-2.252166185-1.3144201262-.4810869097-.7249894563-1.4651604458-.5279117948-2.2519438022-.7517121058-.4996738-.5504403639-.9998621428-1.2160090384-1.8766971055-1.1268527395-.1298094794-1.7299751016-1.3506984791-.6296568103-2.0646726609-1.5025608405-2.3486543419.7370388695-3.1949214754-1.0617682226-3.9411273618.7507768172-.3730601904.1846476909-1.7559891734-.7650140871-1.8765605569.7522332951-.2516003859,1.37658214-1.4274646673.043669816-1.8768332496.938629087-.3670989108,2.1865202272-.8799555766.1961226266-1.8766791157.7509899417-.4605403185-.1345456662-.6117705787,1.3460282471-.938325473.3761389662-.4499583561-.6192536761-1.6971101882-.016312826-2.4398412234-.1879018603-.3782298105-.8118693475-1.1851179458-.989228501-2.2521789857-1.1271189026-.7625079076-.5725627752-1.1939315488-1.1560846815-2.0642882141-.9391949774-1.1884802589.7781434298-2.6124888372-1.0906371782-3.7534617355.0001839127-1.0020334282-.3191386733-2.3850535902-.0408267062-3.1906188231.0003028347-.737650618-.5414332195-1.6997280869.5594082192-2.4398596981.7506233804-.9863346522-1.6315645339-2.4138983008.9051552279-3.5656972139.0005219485-.237835925,1.0773461684-1.4510004377.4950923905-2.0646421966.9388497711-.5639812865.3227594028-1.2407122767.1507914837-2.0641158519.3761012391-.7423183603,1.0178079401-2.15792628-.2550683514-2.8152749534.1871995595-2.4147916897.0729235043-4.8060281329.5806604992-7.1313035042.3760936494-1.8019303993-.5583387579-3.6884172893-.452944712-5.4429105178-.7509829462-1.0657511064-.274382632-2.3685393584-1.3438002266-3.3779644711-.375774077-3.8666006423-2.201134375-8.0666326119-3.4298686277-12.0111849643-5.2600679613-2.2399448899-2.1463705201-21.2421862707-1.4967989553-9.5714129917.0006079803,8.7507064594-.1868644354,10.5406721113,3.622899828,17.2659378817,6.3868072849,2.6784415806.7515115242,5.2125967477,2.4646313449,7.6944638121,3.9449121866,2.5612101156,1.1968055915,5.0632923205,1.9749035577,7.3196526886,3.5688633369,2.0968472879,1.0306279102,4.3718893617,1.7340104478,6.5687374523,2.6294344414,1.4840429013.7497921145,2.1212581023,2.2449175938,3.7534445339,2.4420356505,3.912221963.8793836158-2.0193475096,1.052412785-3.0027813976,1.6907574578-1.2081304102.1100408843-2.2618944822-.522473894-3.3783566203-.5633203186-.7649201902.8708958212-1.8470453044,1.0740556262-1.5009470375,2.4421428993.3395327615,1.5204197268,2.2650753335,4.2612354078.750651304,5.2598266861.1083820781.8496848222-.4058736981,1.6599666348-1.3139631572,1.5025483662-.2230107273.5199410356-1.1390932771.9842534624-1.6890609021,1.127469601.0813465964.7161022069.8103436801.3332594452,1.3135814241.3755714171,3.9619437372-.9662619945-2.2352489994,2.665747903,1.1259647931,2.0660175234.5461293031-.3787633174,1.2408619031-.5537233415,1.8767522307-.9388951239-.0940314883-.6530334487.7025192363-1.0788731867,1.1258378865-1.502911927,3.572220496-1.2790234472,1.0739166277-4.2997311906.3757441793-6.7628638186-1.0009124352-1.4269950773,9.1194868743,1.0567411316,9.1959620814.7511700991.5075039144,2.3149354906-.9283478002,4.8948642723-.9389131758,6.9508728819.4700747549.8744915865.4620262463,2.1075873326.9388579418,3.0056358983-.2642845888,1.4274512503.2442523283,2.2584391707,1.5020620783,2.81724799.9272278095,1.2993892636,1.4479999177,1.0837056915,3.002643148,1.5030139429.9744854674.218733572,1.0137243498-.499123475,1.6886148525.3759375037.3241555979-.9111487225.5568104306-.7415961722,1.5017380942-.1877435441,1.1507711547.1911427915.0868212229-1.1860618927-.3756445063-1.5025741999-1.0161420432-.3858182406-2.1100153241-.7082471837-3.1905910437-.9394825342-2.5734823231-1.3915385343-1.5485958677-5.6125237671-1.5012258173-8.0777674598.7187191848-1.2903227897,1.5673748637-2.4319507283,2.6274970753-3.5688991608,1.0212804562-1.1375313502,1.6178648366-2.6166303101,2.2520000671-3.9449356771-.2522763007-.9732515829,2.1398571468.1348644145,3.0027289811-.1881391658,1.2617162305-.4771536664,2.6615150221-.6944764987,3.7534609352-1.5024785533.2405373919-.1446337193.8967877094,1.1371032429,1.5019603644,1.5026427155.4596053705.3463972221,2.0579914287.921539869,1.8767547888,1.1268349731-.3288592943.4804933484-.7159363178-.0939397238-1.1266405514.0002972591-.6384940402.3809554297-1.2458032372.7337253663-.3750428266,1.3150130967,2.7793443702,1.4073291795,1.8712472493-1.934613807,3.0024810736-.5637746137.3466465308.1513637889.6660156201.7610980288.1878036214.9393466727-2.1155712932-.3648519355-.6855984818,2.1443431229.5629936192,1.3152982376,1.2851701943-.432265473,1.3472041451-2.6572569556.3754560935-3.5695526799-.9726298127-.9652631793-3.5873386825-1.6472346445-2.6274528475-3.3810911358.655744935.0529341163,2.0443322665.0331766767,2.4394680282-.5638897344,1.1180901812-3.5337375223,2.3369735909-2.4104263571,4.5044753852-4.8836798881.4445279536-.8987955142,2.371427466-.057946711,3.190352178-.1878852436.3826121604-.7063523207,1.429421356-.3162239375,1.5015100942.375606116.8244737122,1.1350474929,2.06674833.505984546,3.1903917853.7515228442,1.422049332.7628798256,5.4550633245,1.7991804001,5.4427443327-.1878758873-1.3469675803-1.3330686842-4.5883034347-.6904699354-5.0677999608-2.6296980107,1.0068327543.4180647279,7.7600315986,2.0649189708,6.5688970801.1874416427Z"/>
  </g>
</svg>