<?xml version="1.0" encoding="UTF-8"?>
<svg id="Layer_2" data-name="Layer 2" xmlns="http://www.w3.org/2000/svg" viewBox="0 0 90.8975771295 59.5292221876">
  <defs>
    <style>
      .cls-1 {
        fill: #d3b352;
        fill-rule: evenodd;
      }
    </style>
  </defs>
  <g id="Layer_1-2" data-name="Layer 1">
    <path class="cls-1" d="M89.959248104,4.701215794c-1.2376938617-1.231075093-2.8690996235-1.4391563463-4.5041446529-1.5001809959,1.489549962-.5008742832,3.7337012894-.5595761998,5.4424736784-.5622615924-2.4892138058-4.4410514068-11.9993919371-3.1256172511-11.6356989933,2.8122061682-.9669310293,4.2232448522.4637027119,15.5203456169-6.7565340344,11.623913933-1.7368389467-1.4912099079-5.1066283541-1.0298275435-7.3191668628-1.3126207421-3.6257860922-.8594939003-7.8242368484-1.7548415863-11.8234181817-1.4996664254-5.1473799799,1.6986521813-10.896552275,2.8222142866-16.7029974817,2.2495892522-8.8754770462-1.2525339441-17.6249587121-5.551523518-26.8373876512-4.8752818383-3.4768299394.1692157968-6.7243196254.9542860602-9.5716581344,2.6254129105-1.7780565114,1.8130362034,6.4541137404.2673441066,7.3189834141.0005593883,3.2505900683-.1160812738,7.4372092536.1719190653,10.3227462648.7499244916,8.7661196564,2.9117188479,17.6120727007,5.4845014077,26.0865524463,9.5609759771,1.3845659425,1.2259785263,2.1563649704,3.3016013875,4.3166812775,3.5617189956,1.2396203731.8631387144,2.8683272305.8705962019,3.940799368,2.062560645-.741998097.1716420049-1.3055248082.9850936501-1.876496391,1.4998663299-1.5685383177,1.6775397169-3.3595446505,3.0126277647-5.255073862,4.1241754173-1.2766795449.4194061481-2.8144494402.4872491822-3.9411717635,1.5000301939-1.6950036977,1.8195624942,1.5387163884,10.404792633-1.8764604581,11.4361582989-1.750111376,1.5116025833-1.4167035989.4716643032-3.0029089931.3745369081-.3155856635-.3169381084-1.1417521151-.1364438029-1.5012579305-.3748507887-.4367814094-.736250751-.8268296799-.4148117068-.7508646469.3752912949.1395427681.7095429906,1.9267848796,1.3950408067.3753019557,1.3122291701-1.4344928906-.8328280778-.9960984743,1.1053973939-.1874118383,1.499838159,1.578028708.135267701,3.8413487884.1687642373,5.2545601029-.3747885638,6.7011323163.2344934428,1.6324929893-8.0185596648,4.6923471784-11.6240845913,2.2850096214-3.7077085366,6.2377367755-3.5546301088,9.9463891037-4.1236552457,4.1701847269-2.9291783283.4932592635,6.7950405932-.5627827819,8.2484935373-1.0384444613,2.2529543845,1.958578483,3.9882130215,2.8148330827,5.8118970124,1.5154437085,1.1309085344,2.1636269424,3.2368193917,3.3781380813,4.6866633186.482079225,1.774797455,1.6627604436,3.1155089913,3.5660831585,3.3748300044.8599770433,1.1121382137,2.1664017166,1.0336905156,3.3779649647,1.3118346104,1.3395455937.7937464927.4992379552-.3389965238-.0003777713-.9369030027-.2081402416-1.4392577219,3.0858238844.9210537035,1.3139644902-1.4999870034-3.1021774148-2.5504109898-4.9848198633-.7753702578-7.6945469066-5.811963665-1.0105426671-1.136865617-1.394859891-2.5509266565-2.2521069683-3.7492489346-1.4372956038-1.5392478423-1.6799008855-3.742257282-.3749981308-5.6242098865,2.2843563092-2.7325994962,4.2156457292-5.5847748842,5.8171162517-8.4367066388,1.9172433681-2.2218964043.1055997557-3.3802424571,4.3170837966-3.5614985059.5109192044,3.494310465,2.5228853183,4.6947341015,6.5687154015,4.4988788081,1.3653653167.2298413205,2.3107028956,1.1295143201,2.6269542866,2.437606937-.914289781-.2091819482-1.2321518846.825249828-1.6890635129,1.499495587-.4066265294.3738599351-1.1860422661-.4174895817-1.6889129888-.5619961989-.3737088633-.18159129-.3096491673-.7954525602-.7506800317-.7503272883-.4125136648.4774192967-.0396110507,1.3426573985-.9384233649.5623902355-.8009785281.8095910809.2704956205,1.3264161943.5633687321,2.0623111542.870937705.9676480846,1.3052617834,2.723777475,2.8147331124,2.0622253706.9293455305-.599460278,2.6375851737.343172197,3.0026886965-1.3125200073,1.860428312-2.4484245084.4024579527-6.3882900906-2.0640458682-8.0614419069-1.3453082592-.7878184022-2.8400660399-1.2406814357-4.1292191942-2.0619537133.4297545504-.8945048284.3703063714-2.506734431,1.3137394415-2.8122857607.5999224566-1.282621897,2.4562646997-1.2698176781,3.0028110913-2.6246919554.334501706-.8164945306.9342762986-1.191601648,1.6895197157-1.6870177377.9296472332-.7477339844,1.4986138193-1.7951338568,2.2516045407-2.6250599875,2.4163243639-4.1038110285,1.1729997353-9.7052863948,2.8145227109-14.0609157999,1.2029765282-2.0033340843,7.3079971389.8749738912,6.757133051-1.499495333Z"/>
  </g>
</svg>