<?xml version="1.0" encoding="UTF-8"?>
<svg id="Layer_2" data-name="Layer 2" xmlns="http://www.w3.org/2000/svg" viewBox="0 0 90.5238508075 46.058864011">
  <defs>
    <style>
      .cls-1 {
        fill: #bfbfbf;
        fill-rule: evenodd;
      }
    </style>
  </defs>
  <g id="Layer_1-2" data-name="Layer 1">
    <path class="cls-1" d="M90.4593022693,5.0999732946c-3.3937913302-1.1451157636-5.8636966555-4.649763412-9.5716060469-5.0626410979-2.2522318284-.2526194021-3.7580788084.8006560729-5.0667549979,2.4376926236-2.5540289538,1.2330917678-3.3681961432,4.7407960242-3.9415431939,7.3129950098-3.4167529093,4.2926534078-9.8316942614,1.2457313064-14.0755608591,3.3748797672-1.7626078228,1.0986086916-3.4116098784,1.8030254636-5.067018241,2.8135238477-3.9506407536.7505926799-9.270571085.4510078435-13.3249308697.938092619-5.5316450504.7039593027-10.7055640121,2.7157134894-16.1400838994,3.9374686716-5.2441887996,1.1210210522-10.6894983621,1.7820768413-15.952332233,2.8124311654-1.825269449.7369345365-6.0360780591-.5018487594-7.3194719282,1.312236425,13.2414708621,2.1892134367,26.4132968185-4.2688107086,39.9747954165-2.4359402819,4.7239472003.2456326611,9.9715021972-.2198320781,13.5126923535,2.6241159079,2.1385482952.2903404542,4.0440307388.8892113154,5.6302255182,2.0631695431,1.8874327802.7681901887,1.3042820985.4281576605.1874507829,1.6874063239-.6691939599,2.4944488986-2.7929385065,1.253924491-2.0643996615,2.0626198734.4688149992,2.3703372952-2.6185258166,3.2527200822-2.6276157799,5.2505009683.4620073318.8879588999,1.3565903355,1.6532904663,1.126300031,2.8131762099-1.2805271015,1.5696907948.2496502553,2.2376846155,1.126347135.937392889,1.2116090427,1.0924403778.2448974623,3.3856111628,1.8765932911,4.1255279715,1.2773297078.444211514,2.3286862845,1.6043297826,3.7533888861,1.6879472222,1.4424506988.6641734882,6.6598550298.0801860266,2.8151075363-1.6873722545-.6140220423-.0201169831-2.1812850534.3481111614-1.6891842233-.563135274,1.4285204544-.6403990934,3.1332291127-.7249497458.5631379832-1.8755663474-1.1705634756.5132272732-2.7373903937,2.1372422723-4.1288423494.9379920871-1.1014330653-1.3300375152-1.0958676572-2.9114324918-1.8764751993-4.3131558927-.2719240773-1.0827283316-2.2187102938-2.3677323901-.751000314-3.375082019.4986874801-.0492431722-.0442937203.5450907817-.0000157514.7498927117.3688964543.2960103506.8563471886.0236951409.9386808499-.562546047.4405240355,2.3514217635,2.0356022278,1.8955172957,3.0028687845,3.7504628148.368756169.4878878121,1.5949603545,1.472590923,1.876606716.5627006263.1821891373-.2313036011,6.3314491698,1.0840189817,5.067174688-.5622774503-.1527540246-1.8707293081-5.6051538748-.011151442-3.9414928083-1.1254629707,1.5760507413-.3797727808.5791189243-1.1849401775-.562908346-1.1253125961-.6332035207.8693928545-1.7036671294.5055595766-2.4396686099-.0000508776-1.3380471334-.5937325355-.3528480785-2.4324792489-1.3136986353-3.3753312234.947350409-.8358336238,1.991510857-1.6707901168,3.1903645674-2.0627991931.8778123303-.7804985447,1.2804717654-1.8545118893,1.8768895941-2.812552261.8802588289-1.054244692,2.8098630972-1.4409773317,2.4395933329-3.188046615,1.4682322207-.8711315414,2.3526400526-2.5540903686,3.9413152281-3.1881080815.6133246286.6720536844,1.2428449045,1.1945128311,2.0643524306,1.5003637663,1.5614113848.6987383382,4.3948073251-.030150708,5.8179315155,1.1253788012,1.3866859091.631605221,1.9290106077,3.4144128331.0001976306,1.4997673709-.1577137125,1.4095285049-.4634771293.7632361241-1.3139701486.3750887982-.4266482522,3.2014628921,5.3151321398,2.0901815137,4.3169573677-.5625411394-.033038701-2.7950280354-3.3012362519-3.2858632104-5.2551562029-4.3128814306-2.9901111062.0242091791,3.1887587421-1.1826588485,4.3162272638.750557378.8239302805-.1874421478,1.4191405294.2982182082,1.6888350585.7500427412.6281567836-.8854122976,1.6146404388-.6413790207,2.0645177277.1873551229.4926098531.7723961771,1.0131085454.0028141613.7507624761-.3752225375.5402365733.2355278754,1.4870930109.6505190661.5632698031-.3753996026-2.8667257246-2.4674390003-6.9532926366-3.1988709439-10.5097968686-4.1251796116-.7955199607.0462765812-1.7365604822-.030693767-.7505143424-.7501263574.113816-.8505118537.7854750197-1.5843368257.9384597988-2.4377329861.8770190464-2.0202458014.7093447867-4.308092018,1.3135937095-6.3757974818.3997336219-1.1851279226.9704344618-2.77501517,2.2519859223-1.4999636699,1.1658769908-.1541889077,2.4721200594-.9825334668,3.5659995519-.1876300693,1.1362603025.2462349371,2.3173771733.8981395467,3.3780611973,1.3122499721,2.8773666577-.0153001076,3.0161898291-.4310703604.3747491135-1.687101012-.4034613365-.3352142959-3.520274718-1.4756444763-2.063803689-1.500550628,1.4057494272.21392674,6.1104097483,2.4008759174,5.4424119373-.18752222Z"/>
  </g>
</svg>