<?xml version="1.0" encoding="UTF-8"?>
<svg id="Layer_2" data-name="Layer 2" xmlns="http://www.w3.org/2000/svg" viewBox="0 0 89.965206622 33.9842600832">
  <defs>
    <style>
      .cls-1 {
        fill: #70a240;
        fill-rule: evenodd;
      }
    </style>
  </defs>
  <g id="Layer_1-2" data-name="Layer 1">
    <path class="cls-1" d="M89.7943925157,5.4903865018c-.490025517-2.4830347344-.5765975292-3.1375742216-3.3784854144-3.5610232938-.5200260916-.2187279673-.8385391443-1.7174918742-1.3134355731-.9376942127-1.5812009697-.125510656-3.7649795814-.1825552195-5.4426206816-.936552358-2.8143534224-.5405867539-4.3666843956,3.0520075349-6.9441669954,3.9353067424-3.911604331,1.0400226496-8.7898878523-1.5340777124-12.9493258882-.3737793069-2.6124774896.7662588169-6.1179306404.6316135703-8.6330804943,1.3105686225-2.6930758973.9250768904-5.4607473791,1.9326842503-8.0699486255,3.374109077C29.6092297664,13.4243279862,13.7212810702,10.5703216173.6491106243,16.1736872608c-3.2752736997,2.2063393518,6.847458825-.1019144926,8.0697631124-.5619051274,9.1633070463-1.1575930777,27.2335994466-.6596540408,36.2212179368-1.1256219337,1.0573212913.1045974159,2.4837786726.438517341,2.0643502009,1.6875753327.3323453844.474816168.6655510926,1.4563680097.0001757302,1.8743300834-1.0558814165.2316003007-1.1006521404,1.5663433229-1.8769979763,2.2490952357-1.3753136211,1.4156965903-3.0461950174,2.357598781-4.5039323442,3.3740395916-1.2001294402.958415591-2.2676395454,2.0316332159-2.4399042345,3.5609556033-.3792198754.6635329881-1.1792630147.7668148745-1.6888799125,1.4996615199,1.1942241514.1003248639.1104109128,1.3368920529.187621503,2.0615417886.4151230524,1.1518591312.8621392048,3.0184272482,2.6275385045,2.6238393463-.121758637.7159130789.5065276442.7951740934.3753728878.0001070748.6958819751-.0126477681,1.7020125157,1.051362957,1.8764070295-.000197542,1.05064889.0070149363,1.9404182804.8647378359,1.3140385092-.7497007889-.4962599609.2526358533-1.438424729-.3934060772-2.0646540058-.74902329-.3678553303-.3687532955-1.1721322644-.0689728231-1.5012734732-.5629102201.0834993457-1.7645762527,1.2565551964-3.2528952968,2.6276612751-4.6854633819,1.8771091456-2.9927087287,4.1852154538-4.5709393782,7.694662803-4.6856872879,2.1293308787.7480729675.9857847037,3.8393248464,1.8763142747,5.4354854027,1.1532199385.5127751775.3479666612,3.6546320315,1.6893474993,1.4995172641.3781679536-.026040928.3983992167.7899990414.3752483874,1.1242777887.5106123282.8259984324.8901124124.2074574749.7506216095-.5624015839.5295504256-2.1029752902.1101586982-5.0978979533-.9378702234-6.7473825035-.366408641-.6570377879-2.6727707584-1.7414383958-2.0651539653-2.4362823881,2.3589146737-2.0172005373,5.5908606025-2.2702097974,7.6948776049-4.6861267369,4.4840754532.1249561142,2.8486702838-2.202575607,7.6946612857-.1870794185,2.4616214038,2.3346958884-1.2885990757.9941682029-1.3139674977,2.2487097918.6769347164.8643159309,3.6107432966,1.0561956203,4.316798684.1879625546,2.0544063745-3.3321389-3.6496584375-3.7518327676,1.1262641588-6.1853751854.8841293738-.140103087.9972629455-1.8133340483,1.8761588745-1.6872448707,3.5621308716-.848176873,4.0561122166-5.1053572888,6.5688324075-3.1861842233.6221124795-.6130954287,1.3049952688.2274467308,1.5011801098.7500364628,1.4519449981-.0193979725,2.3647261291,1.4783515765,3.566259123,2.0616700082.4972086966.8281884451,3.4973857887.9633242638,2.8155379449-.1874750098-.6925398653-.8423545598-5.1691869246-4.4960787584-1.5018490091-4.1236619388,1.0792253205.1395642223,5.1800856738,2.3596540875,4.1288530771.1876178227Z"/>
  </g>
</svg>