<?xml version="1.0" encoding="UTF-8"?>
<svg id="Layer_2" data-name="Layer 2" xmlns="http://www.w3.org/2000/svg" viewBox="0 0 89.9124769952 39.7269177907">
  <defs>
    <style>
      .cls-1 {
        fill: #879510;
        fill-rule: evenodd;
      }
    </style>
  </defs>
  <g id="Layer_1-2" data-name="Layer 1">
    <path class="cls-1" d="M89.9124769952,13.8670269081c-16.6939974276-.4294714387-37.9187422173-.13428242-54.0503541891-1.8733466574-6.0728443936-.8204834873-12.3658128358-1.4068802067-18.3918785658.3748299313-1.4727998314.1660040308-2.8097948514.8558279622-4.3164719706.9364516098-1.3893518342-.7368555373-3.3668298106-.5255900748-4.8794485765-1.1247071985-3.5603121997-1.7031577079-7.2682606134-6.3764817623-1.3134737023-7.4952349787,2.5705244612-.2244913593,3.6156296207-.7414390369,2.2514247619-3.3733760885-.4510729642-.6116845158-1.4734503548-.3307799356-1.8763268182-1.3116435262-1.6075248696.5656879967-3.661055662.5423422089-5.2550151006,1.1242999193C-.4898686828,3.7219666017-.362055565,8.0217486271.767274932,11.243520366c1.6145691049,3.3430082938,4.6776905261,6.1254892404,7.8822898263,8.0577048055,1.8133760107,1.5314202292,3.4665372884,3.1956159756,5.0673444665,4.8721469332,1.222125853,3.4325746847-.0316752741,8.0631939845.1874845644,11.8056974757.0587382971.6049077445-1.5161014567,1.7382860541-2.251990537,2.0611693266-1.2441190718,1.4563970608,1.0422149335.428669666.9383321025,1.6866788838,1.3717671186-.1468453677,2.7481816125-.5913647931,3.9410644086-1.1244216,1.2109726051-.8977014751-.3563991773-3.7651998295,2.6276702435-1.6862721521,1.4691573015,1.963607445,1.6529449683-.002648436,1.5009987308-1.4995126586.4408071144-.3778911123.683833047-1.0166906465.5630789766-1.6864685263-.9238538026-.681589516-2.4271644098-.2174141389-3.190302546-1.3116204272.0692938068-1.7836628008,1.9252172026-3.0900171477,2.0644632304-4.8721163286,1.3298393059,1.0656994561,4.1263322764-.0656784156,4.6918535755,1.8737551604.1488006459,1.2738325067-.3698807734,3.5557187133-.3751861959,5.0595527168.559494693,1.4490255594.1886091443,2.562945731-1.3138853724,2.8105797278-3.5428618807,2.3938865585,3.935793971,2.6748272414,5.0670536146.5623382788-.8955054091-4.3517522263,1.8301214495-5.6356169518,1.6898131592-9.1819428931-.0163520349-.9535807973,1.5291882885,1.8366750245,1.8764064886,2.2484857072.7221996122.9783553939,1.8035599425,1.6744942719,2.6271788699,2.62362417,3.1235775452,3.9465011444.8490199521,2.8855834073-.5635711437,5.6213997875,3.0585582404.4056855542,5.0970346464-.2876143833,6.1936114509-3.7477908366-1.328054937-2.7172198137-3.6627281441-7.0794903527-2.252287953-9.9314008231,1.4972519282-1.0436938912,2.1540589113-2.8329767715,3.1909379752-4.3097231625,3.8944410758-2.352846499,8.8675090681-2.4333243502,13.3246199603-3.5604993958,6.3084919048-.6677206684,12.9345979604-1.1569766024,19.1430199109-2.2486148822,3.7730363484-.9962337661,14.6816668969,1.2417553142,16.5152042567-1.499242745Z"/>
  </g>
</svg>