<?xml version="1.0" encoding="UTF-8"?>
<svg id="Layer_2" data-name="Layer 2" xmlns="http://www.w3.org/2000/svg" viewBox="0 0 91.2515208404 35.186411851">
  <defs>
    <style>
      .cls-1 {
        fill: #61bbe0;
        fill-rule: evenodd;
      }
    </style>
  </defs>
  <g id="Layer_1-2" data-name="Layer 1">
    <path class="cls-1" d="M91.1225168968,3.4251490408c-2.4320185603-1.8544313892-5.0461587382-2.2743533387-7.8824337161-2.4419913498-.7408232841.734005761-1.2374159214.8518405168-2.0643780296.3751868371-4.9413993789-3.4164745596-7.8216945645.3260294787-12.0111654179,3.3821716844-3.1524059615,2.187081828-8.1502177227.035242804-11.8233650847,1.1277807804-1.5806996988.5248784767-3.0761716316.8567212852-4.3166213222,2.065787823-1.3623455863.4615210861-3.3512122892.1230231437-4.5040072332,1.315100836-5.8090267074,1.5420936714-12.9503377727,2.2423174985-19.1429654669,2.2545290752-7.8131376532.1740052035-17.1218217841-2.0420220037-23.8346383878,1.314589386-.6993824322.5231532011-1.7212630985.4689865406-2.4397447544.9392561552-.9725515781.9988763745-5.4516661113,3.9293422887-1.5015465392,3.0059787247,6.7713729329-5.0325370946,20.0010981421.2200785351,27.7757885105.7511530468,4.8825085433,1.4327779874,11.0767395863,1.1218695638,15.5772605112,3.0053843183,1.2763835286.5760347797,3.7198170475-.0750669141,1.8763758609,1.6911712633-1.0494381006,2.4679473707-2.7870289055,2.8130896663-4.5041906002,3.9449303395-.0842254474,1.4733371498-.9520305461,2.6604341724-1.5012186426,3.757678113-.3924484305-.7012895192-2.285444721.2065602007-2.0647460434.3756609687.4530295896.590238349,1.1561132495.800815244,1.8771137175.7514068449-.4505256796,1.4611635526-.5532812063,2.8359809068-1.3142491655,4.1328348443,2.9537585064-.9852972933.9627463905-1.3164036631,3.9417823935-.3744091249,1.732557112.6723926359,1.6513413415.5715337561.7509458528-1.1284841505-1.0973350703-.7903669722-1.7556476323-.6197879402-1.3136605894-2.0662290102,1.0765586005-2.5072312104,1.8982603971-5.461469483,5.254577952-5.6358869642,1.4422008884-.4495977267,2.682036392-1.0303314591,3.9409052833-2.0669602647.6257387831-.1524829384.1995340102.7151936187.751059657.9395658527,1.0865718815.2257922257,1.3032030469,1.2743431431,1.3135420798,2.2546708687-.4088501251.9259923781-.0400647397,2.0502341393-.3759740266,3.0055164701,2.5065255132-1.3202715722.4839050519,1.4806971371,1.3144531472,1.3153924065,1.338103913-.7115748042.8456500122-3.3330463879,1.1260398989-4.6967643193.3135164876-.5992596265.8988087325-.8846372875.7505680863-1.6907115183-.5457262785-1.1437312902-2.6411918024-1.0315599782-2.8152435301-2.44217473,3.8311905574.1549064349,6.399186294-2.9557005021,9.9469685391-3.3816207689.9364429739-.5497358402,1.9474807519-1.0542405671,3.0027067258-1.3152632617.3800893191-.1771407877,1.26531904.4405789651,1.8770532264.5631566381,1.0685451261-.1432144968,3.6747708412-.4309831697,3.0026179342,1.3157869231-1.1944721616.7813871279-3.0890588402-1.7505445669-2.0645795353.7508737465-2.7054514598,1.4207342173,5.6329206944,1.3747906418,2.8147675416-2.6298035297-.3390756616-.6417151616.6153412432-.3838790383,1.1264269253-.7513255781.5879983075-.54967669,1.8207121832-.4796494933,2.4397371236.3759911226-.2096916241,1.3755414003.1780999057,1.8899695135,1.313791343,1.1264850717-.0916026615,1.8786168849,1.742669725-.0068530901,1.3135066729-1.1265926392-1.3495930285-3.3958032206-7.4504337064-1.2820276538-6.7564583792-2.8176385691.1009038242-.5683399677.5423436662-.9996136695.9385587483-1.3153924623.5237481254-.823152512-1.1114750389-1.9619331401-.5632791788-2.4424418221.3831223556-.6511570165,1.5742457292-.8178865318,2.064595005-1.6909289317.7572081774-1.1900132482,1.6559385386-2.4479828117,3.0032409425-1.314357854.4953558111.5396945002,1.3186813627.4470545564,1.8765234235-.0004110019.305227336.8430508773,2.3142779471-.1090402709,2.439902797.7512565245.7497852772,1.166359858,2.5308657448,1.2751155189,3.9411192397,1.3155371519,1.0330730416.5575214843,3.9898709619,1.9602304436,4.3168384309-.000069349-1.2707903055-1.4127813924-3.2073754922-1.167831237-4.6926404261-1.8784698452-1.4950488119-1.3220389251,5.232623253-.210798773,3.5663728385-1.3156914351-.3912924781.3595590711-5.0284279056-.2522385795-4.5043093883-.7507172349.6469601135-1.3502457671,7.936511955-.2830370078,6.7562750495-2.6304981023Z"/>
  </g>
</svg>