<?xml version="1.0" encoding="UTF-8"?>
<svg id="Layer_2" data-name="Layer 2" xmlns="http://www.w3.org/2000/svg" viewBox="0 0 59.0694750723 13.0586030769">
  <defs>
    <style>
      .cls-1 {
        fill: #cb9167;
      }
    </style>
  </defs>
  <g id="Layer_1-2" data-name="Layer 1">
    <path class="cls-1" d="M0,3.8471503735c2.8163219009-1.5152798158,5.3422643983-1.1979300391,8.3204085381-.271350038,1.1582492118.3618000506,2.8766057691.6600720409,4.0919672881.6600720409,1.2947231736,0,3.0939908503-.3680947517,4.3252101741,0-.7615862013-.337977028-1.1281072777-.5965439807-1.5073145979-1.3613017429-.1729348074-.3443685707-.4617163253-1.646984331.0729943223-1.781787776,1.1614207727-.2919772892,2.8766057691.0490986685,4.0523106712.3426254227,1.2312435341.3078593043,2.6179661853,1.2662033356,3.8492097194,1.2264982979,1.6533032425-.0522944399,3.2653277721-.0475492037,4.9186310146.0175283215-.6315037821-.4015050883-1.0313383536-.6140723022-1.3994331053-1.2550665567-.1332781905-.2332913067-.1316803048-1.3518112705.1602485637-1.3883205368,1.1725333412-.144390759,2.4862858804.160272774,3.5683934194.6409942545,1.0138584528.4506037568,2.1292794868.7789934708,3.1034813228,1.2645570291.8567814502.4267807342,2.4307472485.2887815179,3.4240026604.2507227867-.1713611321-.076214304-.3157518911-.2142135203-.4871130232-.2919772892.7171601378,0,1.3359776762.1078814926,2.0436231312.1951357339-.1428170837-.0713722263-.2506985763-.2093714426-.3887462134-.2903309828.5347106476-.2253502992,1.2201309656.1570770027,1.7500721666.2903309828-.033313495-.1538812314.0380829416-.3331349502,0-.4854667167,1.5771373593.5616810208,3.1558726042.2299986938,4.7425246463.5980934455,1.711989225.3966630105,3.4731739602.2840362817,5.2280155734.371290523,2.7687000661.1396455227,7.4191768141.0253724875,9.2009888004,2.5323098296-.19675783.033313495-.385550442.1809000253-.582308272.1951357339.1666158959.0175283215.3220950129.1555275378.4855151375.1952325755-.4934319347,1.8166507359-3.6080500363,2.3529592692-5.1201098704,2.9416590839-.993255412.388722003-1.9769719307.7901302497-3.0098839596,1.0614802877-.8599772215.2252534576-2.0483683674.7647577622-2.9448306448.7647577622-1.3137525392,0-1.8516347478.3601537442-2.9622863352,1.0265204862-.8885212699.5331127619-1.9309479816.633053247-2.7829841955,1.2011258104-.774272445.5187802118-1.8849482428.6599751994-2.7877536421.4966034956-1.359752278-.2459775505-1.0741665314-1.1963805742-.6346511327-2.2372336106-1.9373153138-.1395486812-3.9460028539-.2061756712-5.8864897287-.0824121636-1.0979653436.0697259198-2.1102259108-.009587314-3.2034460183-.0920963191-.7330179425-.0571365176-1.9896581745-.4458585206-2.6782742638-.2918804477-1.1074800264.2458807089-2.0213737838.8472667673-3.1304516959,1.1264609713-1.0027700948.2507227867-1.9277764206.7219537948-2.9559432133.9250305362-.4918582594.0983910202-.951976699.3459180355-1.412119349.1174688066-.4997992669-.2491733218-.0761416729-.7679535335.1380476371-1.1979300391.4632900006-.9329715438,1.1281072777-1.5438480746,2.1007354384-1.8674925525-1.345492359.0904500127-2.6084757128-.1412918292-3.9222040417.1237635077-1.3407229124.2680574251-2.6306766394.7424842045-3.961884869,1.0439519662-.67433196.1538812314-3.5493398434.988461755-2.9194339469-.6806024507.493456145-1.3059083733,2.8512090712-.5792093423,3.4065469701-1.7516700523-1.3581786027.4934077243-2.7449254643,1.072520225-4.1633879352,1.3787332228-.6298816861.1349002865-1.5628532299.5680725634-2.186391794.5680725634-.9424862266,0-1.0075395414-.7060717797-1.4073741128-1.4993978007-.5695978179-1.1360482853-1.3058115317-2.5926421186-2.364096048-3.3668903532-1.1820722344-.8631487824-2.8353512665-.9598934962-4.1840151865-1.3629480493"/>
  </g>
</svg>