<?xml version="1.0" encoding="UTF-8"?>
<svg id="Layer_2" data-name="Layer 2" xmlns="http://www.w3.org/2000/svg" viewBox="0 0 88.0965618118 40.5688078776">
  <defs>
    <style>
      .cls-1 {
        fill: #ace0d6;
      }
    </style>
  </defs>
  <g id="Layer_1-2" data-name="Layer 1">
    <path class="cls-1" d="M0,13.019421156s6.688456678,2.4941481449,9.4114138747,2.6078127871c0,0,8.4795302828,1.3759063316,9.241703038,1.6819407506.7622652407.304647137,9.2266279064.5349359563,17.918227371-.3803002511,8.6931717176-.9167159749,14.6391550454-3.7366904293,14.6391550454-3.7366904293,0,0,4.9564812882-2.5926451701,8.3886170661-2.5168995704,3.4290837574.0773178526,8.2355536139-.8364385873,11.3615624873-.2272367989,0,0,2.0578016992.0757455996,2.895720054-.6864271556s3.50640161-3.812436029,3.5836269771-4.2700541327c.0787976201-.4576181037.7621727552-2.1350270664.4576181037-2.9745176742,0,0,.7637450082-2.5911654025,2.5168995704-2.5154198029,1.7547268152.0758380851,4.1155109129,1.7532470477,4.2700541327,2.2108651514.1514911993.4576181037,1.3728543112,1.3727618257,1.3728543112,1.3727618257,0,0,2.8199744544,1.8289926473,1.8274203944,3.1261013589,0,0-1.0667274067.7621727552-3.4290837574-.3045546515-2.3653158857-1.0682996597-2.0592814667-.5349359563-2.0592814667-.5349359563,0,0-1.2955364585-.5333637033-1.3728543111.610681556-.0757455996,1.1440452593-1.4485999108,2.6683907697-1.4485999108,2.6683907697,0,0-5.1095447405,6.7112081035-6.3277633464,7.6248720579,0,0-.4561383362.3818725041-.2273292843,1.0682996597.2273292843.6864271556,0,1.60009111,0,1.60009111,0,0,.1514911993.6864271556.5333637033.8394906078.3803927366.1530634522,4.1943085331,2.9730379066,4.2685743652,4.0412450808.0757455996,1.0668198921-.1530634522,3.2790723256-.1530634522,3.2790723256,0,0-.4560458507,2.7442288548-2.1335472988,1.295628944,0,0-.6864271556-1.3713745436.3818725041-2.2108651514,0,0,1.1425654918-1.3728543111-.2302888194-2.516807085-1.3728543111-1.1440452593-2.4395817178-1.5244379959-2.4395817178-1.5244379959l-1.8304724149-.9924615746.1227282182.7015022871s.9895020395,3.2715810026-.6166931115,4.5685972286c-1.6047153835,1.295628944-2.3457089661,2.0365300412-2.594217423,2.0365300412-.2454564364,0-2.6532231527.1243004712-.986450019-1.297016226,1.6668656191-1.4198369297,2.0395820617-1.295628944,2.7790033914-2.1593507449.7409935827-.8652015684-.5575948964-3.7047829423-.5575948964-3.7047829423,0,0-.6773635795-1.9759520586-1.9743798056-.8031438182,0,0-.3697569076,4.4458690105-3.827603646,6.4823990516,0,0-1.0500800221.5561151289-1.2971087115,1.1728082403-.2454564364.6182653645-.1848784538.9879297866-.6773635796,1.2349584759-.4939648933.2470286894.2470286894.6166931115.3697569076.8652015684.1227282182.2470286894.986450019,2.5911654025,1.3576866941,2.7775236238s.9895020396,2.4684371843.8637218009,2.900251842c0,0,1.1743804933,2.1001600443,1.8547036079,2.4713967194.6773635796.3697569076-.8652015684,0-.8652015684,0l.0605779826.5546353613s-.8652015684-.3090864395-1.1122302577-.3090864395c-.2439766689,0-1.9107498025-1.606195151-1.9743798056-3.3336387527,0,0,.0636300031-.3712366751-.4319071431-.5561151289-.4939648933-.1848784538-.927351804-.3697569076-.8030513328-1.6047153835.1227282182-1.2333862229-.4318146577-1.3561144411-.6166931115-1.5425651479-.1848784538-.1863582213-1.7895938373-1.7273511162-1.2349584759-2.9623095922.5545428759-1.2365307289,1.6667731336-1.6683453866,1.7273511162-2.0381022942.0621502356-.3712366751.2470286894-1.9759520586.0621502356-2.7790033914-.1833062008-.8015715653-1.0500800221-.3697569076-1.1091782372.3090864395-.0636300031.6788433471-.7424733502,2.222980748-.6803231146,2.5926451701.0605779826.3712366751-1.1728082403,4.3215685393-1.5441374009,4.8171056855-.3696644221.4909128728-2.6532231527,5.4914172446-.1227282182,6.1717403592,2.5320671875.6803231146,2.8396738594.7394213297,3.0245523132.9258720364.1848784538.1863582213,2.3471887337,1.4213166972-.1227282182,1.4213166972-2.4684371844,0-3.829175899-.1243004712-4.0140543528-.6182653645-.1833062008-.4939648933-1.8500793344-.8637218008-1.8500793344-2.1607380269,0-1.2971087115.0620577501-3.7670256634.6166931115-5.4944692651.5545428759-1.7274436017.7409935827-5.5565270152.6788433471-5.9262839228-.0605779826-.3712366751-.4319071432-2.0365300412-3.0260320807-1.8516515874,0,0-2.0365300412-.3712366751-2.0986802768-.7409935827-.0590982151-.3712366751-3.3927369678-1.4818946798-4.3215685393-1.5425651479-.9242997835-.0620577501-25.4310070398-1.2364382434-26.543144812-1.7910736048-1.1122302577-.5560226434-10.8024878234-1.6667731336-12.161654285-3.2093382815,0,0-4.6155798472-1.6380101526-7.7704441871-4.2140079381"/>
  </g>
</svg>