<?xml version="1.0" encoding="UTF-8"?>
<svg id="Layer_2" data-name="Layer 2" xmlns="http://www.w3.org/2000/svg" viewBox="0 0 90.3340726303 36.2197514181">
  <defs>
    <style>
      .cls-1 {
        fill: #f7b4e0;
        fill-rule: evenodd;
      }
    </style>
  </defs>
  <g id="Layer_1-2" data-name="Layer 1">
    <path class="cls-1" d="M90.0870223242,10.3593022031c-1.4779581724-1.3484780288-3.3268551928-2.4437788595-5.2548108254-3.186372312-1.2511397281-.400495587-2.7006197124.266543858-3.7535767461-.3744685563-5.2016624108-1.9676512614-2.2798385484,10.5653630266-7.6948244328,3.3734044441-.7296644602-.2838009771-.4270929059-1.2336995401-.5624443833-1.31223877-.7819828343-.5142286011-.4441838015-1.5393444748-1.1263976082-2.0615698827-.7493798142-1.662419454-2.0211799009-3.2334330153-3.7536250881-4.3110709656-.8027319705.0719464673-1.1695281649.1614096467-1.6887202496-.5626298331-.4925998972-.3170806051-1.1328219848-.2586716113-1.5015399321-.7495281911-.6019932454-.3714712942-1.1939889205.058693139-1.8768831996.0001116922-.2882517709-.1224559049-.7157263997-.729990251-.9380736707-.375010235-.7685979174.6212432609-1.3814430636-1.2003521066-2.0647637473-.5625514402-.7505500303.6933536553-1.6873708849-.4910253759-2.2519173641-.0000111581-.9600946936.3708253198-1.5313973477-.4414696358-2.4396531848-.1870657041-1.263230256,1.3738761321-3.5077344957.7061753752-4.6920323786,2.2491266269-3.2385825545,2.2592096616-5.6898958921,5.6708491649-6.193398026,9.3717946447-.4996760795.598784066-.8053539694,1.3678302335-1.5012338402,1.8742066356-.1216108375.6872080876-.1472352188,1.0772710742-.7505886304,1.312202783-.3856316332,1.1841752201-.6903162794,1.6779623123-2.0648454471,1.8739874606-8.0741288688,2.068208112-16.8339363678,1.4824940643-25.1480264307,2.4369424931-4.1227971828.0560852336-7.9123884686,1.0752201012-11.6357206095,1.8743648979-7.2522939353,3.2880528821-.2903859737,1.8170272659,2.6273096372.9371259963,9.1530404656-1.1593520828,18.4404263107,1.8897114853,27.5883155168,1.6871772047,5.6389280169,1.0398755777,11.9458303932-1.5521090604,17.0782176764-.7503562583.3201699709.6266850371-1.1982941809,1.2605493511-1.3135839995,2.0624777084-.5032959891.8166799468-.9930616105,2.0769788701-1.6891836221,2.9989935179-1.2180077302,1.4526327549-2.2583816591.26136253-2.4391594782,2.8118057615-.8863126814,2.1331779227-1.6697058184,3.8066900256.7506331312,5.2478901067.8740284831.3176144079,5.4518415448.3381890374,3.1898352258-.9367191058-2.8793775355-.4996727129-2.19845246-2.8632151155-.9381788942-4.6867078944.8289620784-1.4756694361,1.9293912105-3.1416254728,3.565584721-1.8737171807.9826337427.8435122998,2.3657643274.6612341012,3.3783194206,1.3116859046.2498462205.4262693542.1767300449,1.4281156574.7504859914,1.4996978984.0991295936.6911144367-.1317956412,2.0893220266.9383010962,1.8740452289.8212400957,2.2450057141.2275588366-1.108684717,1.126142939.56240164-.0397385465.3046641868.1928489647.6786830199.3754123913.374884754.2536284903-1.8321586945-.5672989333-3.4388299419-.7504484643-5.248330902-.8856617438-.7219594456-6.1419865931-2.7667169883-2.6276681373-2.4364667926,1.296018524-.4971851499,2.8955780625-.1223186633,3.9410846194-1.3124661251,1.2243357293-.4195145452,2.1997828086-.9041737944,3.1904609889-1.8743656569,3.1553454961.1689696111,5.2868660156-2.3756760206,8.2576938612-2.6234302143,2.1920068916-.9119730159.3781194074.8849547175,1.6893619365,1.4992383699.6107949172.2296989624,4.0803009149,2.1248000232,3.1907797884,2.623693351-.2810229948.7645860868-1.2614634525.6512725876-1.3140821421,1.4999240543.1239494133-.105307114,1.1251126757.1760035026.5628189776.1874573383-.7021932179,1.3257776616,1.9473885819.2149860458,2.2518088719-.5626926283.5863387781.1092030491-1.3810461605,2.6632071548.5635788239,1.6871547142,4.1488512292-2.8972171466-2.2719841169-4.4176490703-2.2526160859-7.1223637097,1.5026730497-2.0332572723,1.8302395238-2.3391766229,4.1293823858-3.5610340098,2.0348481096-1.8317716748.1646114052-1.6019861396,3.0026423188-2.8115307775.5636198068-.9798958895,3.3776132231.0802583274,4.5042704874.3739299731.9542122436.4263790732,3.8880082033.1298930692,1.8766216409-.9368655316-.9382579571-.4875930093-1.895965526-.3132442014-2.4395888625-1.3120369862-2.7848122709-2.0362469507,5.9277807209,1.1646231258,4.1285230333-1.8741243786Z"/>
  </g>
</svg>