<?xml version="1.0" encoding="UTF-8"?>
<svg id="Layer_2" data-name="Layer 2" xmlns="http://www.w3.org/2000/svg" viewBox="0 0 90.440372439 30.3847245174">
  <defs>
    <style>
      .cls-1 {
        fill: #a15f36;
        fill-rule: evenodd;
      }
    </style>
  </defs>
  <g id="Layer_1-2" data-name="Layer 1">
    <path class="cls-1" d="M90.440372439,12.1597431809c-11.2669077504-3.4543965282-24.8239613306-1.9162701338-36.5963097778-4.6954544224-3.9840319424-1.0863745053-8.1102526695-2.1874804981-12.0114484882-3.5666369767-3.5227160891-.7897954478-7.3327617883-1.0418436792-10.8849060958-1.6903390534-4.040197793-.9550155665-8.4542458394.178044977-12.1988950165.9387472318-2.0524662323.7237626674-2.0816638178,2.9185584019-3.3777759624,3.9440924457-.7673542075-.2802151306-1.1949906153.8842744558-1.6893920197.3754391702-1.4953012155-1.401566153-1.8222315891-3.2784131-2.251444015-5.0703071748-.1583359988-1.1136801067-2.9470307658-3.6130681288-3.7540284107-1.6900370353C5.2868803927-.4645007169,1.630704785.2714712052.5445838913,2.95868749c-3.0641787438,6.2827490944,7.7189035226-.2654291976,9.571052097,7.8866924381,2.1646133729,3.0140364731,4.0807555347.7970615905,7.3192698355,3.7557803378.7031700326.1333985377-1.0664873445.6254147508-1.5011396978,1.1264375435-.387975875,1.6528891049-2.4954495849,2.480490471-2.0642497305,4.3183878503-1.7238901885,5.0895365101,1.7254900423,3.3968174894,2.0634387468-.3756533397.6606209884,5.3030968342,1.0248122337-2.0130505241,3.9420377353-1.8772206194,1.9048654628-1.1362682291.4699372678-3.5425565406,2.814705259-2.0658814022,1.6258065769.4349810862,3.2189258734.6529508511,4.8797184522,1.1264774897.7035390964.2912021618.8911803889,1.6134278476,1.3139810478,2.0655599618.6515096682,1.1473848842,1.595103091,2.1733017764,2.4396771413,3.0043542235.9438064228,1.5054047083-.4516638889,4.5496224004-1.8769134923,5.4453197905-.7256874488,1.1947591426.8990696749.4378534071,1.3138577601.9389516749,1.1130437602.6820551649,2.5519242917-.2610778649,3.3780270991-.9386700427.3729735007-1.0360412002.3983915386-2.5699030778.9384412508-3.5676852897-.02062311-1.404518666-.3947413926-2.6742330977,1.1263460963-1.1267190605,1.6269018692,1.8764985862.982413796,4.4199791782-.7514349473,6.0085204704-.9401423121,1.218353751-.1631851615,1.7646394169,1.1265442722,1.314127427.3443701528.6022581978,1.2281719457.3670188144,1.6889115335.1881219527,2.5302067692-.8034478297,2.0288517718-5.7406884152,1.6894553232-7.8865471227-1.7980773505-1.3930211266-2.3667873007-3.3232486814-3.7539233397-5.0693376155.954229273-.1358105954,1.7613522125-.7690850132,2.6275325167-1.1266947005,2.3223521102.1973103827,4.7186662407-.4169764244,6.5686859331-1.314579288,7.6906468697-3.5650518056,37.6040689143.0449595786,45.0417676557-2.6286869884Z"/>
  </g>
</svg>