<?xml version="1.0" encoding="UTF-8"?>
<svg id="Layer_2" data-name="Layer 2" xmlns="http://www.w3.org/2000/svg" viewBox="0 0 90.8644549634 39.03309615">
  <defs>
    <style>
      .cls-1 {
        fill: #8d248b;
        fill-rule: evenodd;
      }
    </style>
  </defs>
  <g id="Layer_1-2" data-name="Layer 1">
    <path class="cls-1" d="M90.8385013143,21.3508434797c-.949195305-2.0817503052-4.1289316546-2.0912784215-6.0052264425-3.1842492622-3.7383582678-1.2317573433-7.3818022126-2.4907440959-11.260749344-3.1838081919-7.4802355027-2.2984067217-16.0020193076-1.5540476112-23.8345231495-2.6216424498-2.8382559618-1.2570439682-5.8667262774-1.7253077959-8.8206665954-2.6224528876-4.1237863292-.7277645093-8.9339792706-.9666835389-13.1373078155-.3740196397-2.7635927361,1.2205575467-8.6657513717.3874199415-11.6358124037.935835894-.8237854761-.3817563911-1.4153295091-1.0529936266-1.8764854188-1.8731155255-1.1399016492-2.6044598869-3.3762660733-4.5529586606-5.4426978413-6.5549533924C6.9680646554.9888837719,4.3715792176.6968303935,2.4442146509.1859718154.371542212-.6465890403-1.1358589202,1.5108518447,1.1304017494,2.8089953566c.8685924771,1.0503908958,2.2363947466,1.1368400322,3.1904806925,2.0600028944.8976776238.4450392409,1.2070641793,1.394226892,2.2521374219,1.497819465.4864621874.50254333,1.4871686699.6394407365,1.5009966324,1.6865167082.5874327068.5620556263.842810053,1.0046329772,1.3137723489,1.8726705194.4990691103,2.289352652,1.8101612647,4.1253186677,3.5661357841,5.8059824354,1.1700972854,1.1179498487,2.1315370052,3.0435431337,3.7535162571,3.9329619093.4786252492,1.9496014078.1383611117,11.4124255315,2.2516553461,11.42544729.9731031655.1213997339-.5490744415-2.637452534.7509674798-1.8735205199.360479521.3672187311,2.1000623747,2.0518084521,2.2523255097,1.1239791034-.5783637915-.9051089246.0926752072-2.6128630333-.9385718074-3.3712015997-.4060060577-1.7324156765.2080794046-3.8699405435-.1878999311-5.6188030583-.5471527337-.5151395546-.8929259447-2.7991090227.1880768235-1.6859187459.5879132348.2646079965,2.2005988781.0337080488,2.8150235359.3746972865,1.8512205315.5533770365,3.7208583318,1.396766434,5.4426786089,2.0602656651,2.0316252284-.3991378634,1.7833305822,1.9605100836,2.8146749654,2.9970616991,1.5351470048,2.4780638851,3.6086464428,4.7915301248,4.8798829551,7.3040030432-.5791711104,1.6197493635-1.713930921,2.9590332809-2.815570219,4.3076932775-4.1212839372.2851342015-5.0213203082,3.2024025646-.374916078,2.0606969974,2.8260328597.3475693213,3.6480765686-3.3425840501,5.8180310426-4.6821733543,1.0358019012-2.5445344378-2.069854095-4.8346643364-1.1265724351-7.3048591793,1.5060805991.1882048746,2.8001126203,1.0569402069,4.1292359243,1.6854336575,1.9117015768.0677193622,4.6938795368,3.2399153243,4.5043067212,5.2442618783-.518105614,1.4699635608-2.3015833485,3.0560029634-1.5019550973,4.6826291594.2051481232.6986021877.9190816857-.7572715365,1.3137447764.1875119898.9304210996-.2026288173,1.2106452054-2.1454481604,1.1262087259-3.1841664621.7314352904-1.1473889415,1.7460782286-2.6202090766.7503856525-3.9334888648-1.4922346301-1.4770145314-.6155799754-3.0624738312-1.6882200948-3.7458379152-.9771734093-.8603488545-2.4838479107-1.1548513505-3.1905409353-2.6224082613-.4782292156-.566982324-3.4999913889-2.5083997476-2.8156235491-2.4341646385,7.3957477364-.6618331545.5693202436-4.9055270899,15.9527308181-4.1201312609,7.3768976975-1.0796047785,17.3197799163-1.2484202881,24.5849501298.373883554,2.0582368027.4988588974,4.2064761488,1.0684369679,6.1933875086,1.8730074929.8686704366.2507940654,3.3059429043,1.9367523603,3.0026640512.5619959574Z"/>
  </g>
</svg>