<?xml version="1.0" encoding="UTF-8"?>
<svg id="Layer_2" data-name="Layer 2" xmlns="http://www.w3.org/2000/svg" viewBox="0 0 130.5528417426 31.4271488178">
  <defs>
    <style>
      .cls-1 {
        fill: #5ecaf0;
      }
    </style>
  </defs>
  <g id="Layer_1-2" data-name="Layer 1">
    <path class="cls-1" d="M129.2441832545,29.6431120028c-.203125-1.2946777344-.7668457031-2.53125-1.0656738281-4.1520996094-.1162109375-.6439208984-.2307128906-1.1632080078-.4252929688-2.1281738281-.0700683594-.3706054688-.39453125-.802734375-.4270019531-1.1734619141-.0598144531-.8131103516.4936523438-1.3442382812.7463378906-2.0223388672-.666015625-1.0247802734-2.6184082031-.3330078125-3.51171875-.9581298828-.4216308594-.0666503906-.4270019531.2835693359-.8540039062.2135009766-1.5168457031-1.4245605469-2.5158691406-3.3767089844-4.0427246094-4.7927246094-1.3715820312-1.5389404297-3.1564941406-2.6594238281-4.8986816406-3.8310546875-3.5083007812-1.4279785156-8.3095703125-3.5629882812-12.3488769531-5.0063476562-1.1838378906-.4201660156-3.2094726562-.6181640625-3.513671875-1.4892578125-.0971679688-.2716064453.5090332031-.7805175781.3195800781-1.1700439453-1.45703125-.6968994141-2.8078613281.4235839844-4.2580566406.4270019531-.5107421875.0034179688-.8659667969-.3297119141-1.3852539062-.4270019531-1.3579101562-.2528076172-2.8115234375-.4064941406-4.15234375-.2100830078-2.5500488281-1.1153564453-5.6293945312-.939453125-8.6235351562-1.279296875-1.634765625-.1878662109-3.3803710938-.5004882812-5.1088867188-.7446289062-3.375-.4748535156-7.5048828125-.3553466797-10.9653320312-.640625-4.0891113281-.3295898438-7.9184570312.1486816406-10.8598632812-.2116699219-1.1494140625-.1384277344-2.5908203125.0716552734-3.9384765625.1075439453-1.14453125.0289306641-2.3247070312-.2459716797-3.1940917969-.1075439453-.6081542969.0972900391-1.2998046875.6335449219-2.1298828125.1075439453-6.1164550781.2904052734-13.7326660156.5294189453-19.6936035156,2.0206298828-.7907714844.1979980469-1.8051757812-.0051269531-2.6625976562.1075439453-.3452148438.0426025391-.6560058594.2784423828-.9582519531.3177490234-.6423339844.0853271484-1.2810058594-.0649414062-1.9165039062,0-1.1083984375.1263427734-2.0700683594.6831054688-3.0864257812.9598388672-1.9436035156.5277099609-3.9130859375.6131591797-5.6413574219,1.3817138672-3.4128417969.5295410156-6.7570800781,1.1257324219-9.583984375,2.2375488281C.8625914576,7.9120329013.0137145045,8.1956022372.0000426295,8.8821256747c-.0085449219.4885253906,1.2690429688,1.9677734375,2.44921875,2.5551757812,1.2775878906.6354980469,3.1547851562.6970214844,4.5776367188.9599609375,1.82421875.3295898438,4.3264160156,1.2023925781,6.2802734375,1.701171875,1.6108398438.4184570312,3.2880859375.6491699219,4.6850585938.9582519531,2.7106933594.6080322266,5.9799804688,1.3493652344,8.8356933594,1.7045898438.4611816406.0581054688,1.1801757812-.0803222656,1.810546875,0,.4936523438.0649414062.9445800781.3637695312,1.2775878906.4235839844.5141601562.1042480469,1.2126464844-.0290527344,1.810546875.109375,1.7302246094.3962402344,4.9274902344.3586425781,7.1325683594.4252929688.6867675781.0187988281,1.224609375.2543945312,1.7199707031.5943603516l.4611816406.3996582031c.5705566406.5875244141,1.1394042969.8505859375,1.7746582031,1.3714599609,2.2016601562,1.7900390625,5.1206054688,3.6433105469,7.9099121094,4.2821044922.8779296875.2015380859,1.9418945312.5003662109,2.8454589844.4184570312,1.1252441406-.1036376953.6872558594-.7406005859.1540527344-1.1937255859-.0778808594-.0671386719-.1579589844-.130859375-.2360839844-.1879882812-.857421875-.6279296875-1.7912597656-1.1408691406-2.62890625-1.8034667969-.9787597656-.7751464844-2.0029296875-1.8774414062-2.814453125-2.8134765625l.55859375.1333007812c1.4841308594.2135009766,3.2263183594,1.2109375,4.4150390625.6081542969-.435546875-.7669677734-1.7473144531-.6611328125-2.2373046875-1.3835449219,4.1538085938-.4064941406,9.0405273438.2321777344,13.7341308594-.1076660156.5808105469-.0393066406,1.1220703125-.2800292969,1.7045898438-.3176269531,2.6252441406-.1743164062,5.2145996094.53125,7.5563964844,0,5.4177246094.7890625,11.0986328125.0444335938,17.1416015625.3176269531,2.2529296875.1025390625,4.6491699219-.2117919922,6.4938964844.1076660156,1.0642089844.1861572266,2.3024902344.5977783203,3.5134277344.8522949219,1.796875.3757324219,3.6550292969.5977783203,5.2180175781,1.3818359375,2.9924316406.3159179688,6.3283691406,1.4431152344,9.5803222656,1.7062988281,1.8173828125.1451416016,3.646484375.1092529297,5.6416015625.1041259766,1.2895507812,2.2033691406,2.5808105469,4.8592529297,4.3657226562,6.8133544922.5087890625.5584716797,1.2280273438,1.2775878906,1.701171875,1.5969238281.7429199219.4936523438,1.8395996094,1.0385742188,3.087890625.7446289062.2358398438-.8146972656-.8642578125-1.1733398438-1.2758789062-1.701171875Z"/>
  </g>
</svg>