<?xml version="1.0" encoding="UTF-8"?>
<svg id="Layer_2" data-name="Layer 2" xmlns="http://www.w3.org/2000/svg" viewBox="0 0 92.1253255777 60.2471376552">
  <defs>
    <style>
      .cls-1 {
        fill: #a1938f;
      }
    </style>
  </defs>
  <g id="Layer_1-2" data-name="Layer 1">
    <path class="cls-1" d="M89.1699598696.9299618862c-.9247279835-1.056307191-2.5060161749-.9247279835-3.6932346586-.9247279835-1.1875524411,0-2.3801142429.1365885682-6.7355863848.9247279835-4.3661587781.793148776-3.573010002,2.9050952433-3.573010002,2.9050952433.5309922332,1.5869654668,2.1176237427,1.4557202167,2.7741839505,1.4557202167.6619035259,0,7.1403427286.2678338183,7.1403427286.9247279835,0,.6619035259,1.3131204157,2.511359493,1.3131204157,2.511359493l.1315792075,1.849455967c-1.4446996232,3.9614024342-3.693568616,4.8857964604-4.0873043663,4.7545512103-.3994130258-.1312452501-2.5116934504-.5306582759-4.7548851677-2.6426047431-2.2488689928-2.1119464672-4.8914737359-2.7741839505-4.8914737359-2.7741839505,0,0-3.9670797097-.2624905002-6.6096844528-1.9807012171-2.637261425-1.7178767596-10.1716738613-2.1119464672-11.8898845782-1.7178767596-1.7125334415.3937357503-7.9391687802-.2681677756-7.9391687802-.2681677756C18.3626465055-1.8936477565,0,1.4933479852,0,1.4933479852c24.3047501569-.6949653065,40.2979690556,11.5943322975,40.6920387633,11.7255775476.3937357503.1312452501,1.4553862593,1.849455967,4.0979910024,2.7741839505,2.6429387005.9247279835,6.204928109,5.0173756679,6.204928109,5.0173756679,0,0-1.0559732336-.9247279835,0,.2681677756,1.0613165517,1.1872184837,4.2295702099,1.3184637338,5.0173756679,1.8491220096.7934827334.5309922332,1.1928957592,3.6989119341,1.1928957592,3.6989119341-3.567666684,2.9054292007-4.7548851677,9.2416025597-5.0173756679,9.7722608356-.2681677756.5363355513-1.723554035,2.6426047431-1.723554035,2.6426047431-2.1122804246,1.8494559671-.6568941652,5.417122651-.6568941652,5.417122651.6622374833,1.3238070519-.5306582759,5.6846225119-.5306582759,5.6846225119l1.3241410093-.667246844v1.3241410093c-.2624905002,2.6426047431,1.3187976912,3.5673327266,1.7125334415,4.4920607101.3994130257.9300713016,2.6429387005,2.2431917174,2.6429387005,2.2431917174,0,0,.3994130257,1.0616505091.9300713016,1.3241410093.5253149578.2681677756,1.7125334415,1.1875524411,1.7125334415,1.1875524411.3994130257-.9193846654-.2624905002-2.6429387005-.2624905002-2.6429387005,0,0,1.4500429413.3994130258,1.9807012171.1312452501.5306582758-.2624905002,1.849455967.2681677756,1.849455967.2681677756,0-.5306582758-.6622374833-1.7178767595-.6622374833-1.7178767595-.125901932-.6622374833-.787805458-1.8494559671-3.6985779767-2.3747709248-.1315792075-.0273845051-.251803864-.0547690102-.3720285206-.0874968334-2.5771490967-.6732580769-3.0587156378-3.091443461-3.0587156378-3.091443461,0,0-.5306582758-2.9000858826-1.1872184837-4.8861304178-.6675808014-1.9807012171,1.8437786916-6.0733489015,1.8437786916-6.0733489015,0,0,3.7042552521-5.1542981935,6.3468599952-7.928482144,2.6429387005-2.7741839505,2.5060161749-6.210271427,2.5060161749-6.210271427l4.6236399176,2.2435256747s1.1925618018,1.1925618018.7988260515,2.7738499932c-.3994130257,1.5923087849-1.061650509,7.4031671862-1.061650509,7.4031671862,0,3.0366744508,2.3747709248,5.8108584013,2.3747709248,5.8108584013-.5306582758,0-1.3131204157-.5253149578-1.3131204157-.5253149578.3937357503,1.718210717,2.2378483993,2.6426047431,2.2378483993,2.6426047431,1.4553862594,3.1682536583,1.1928957592,7.1349994106,1.1928957592,7.1349994106.6619035259-.2681677756,1.4497089839-1.849455967,1.4497089839-1.849455967,1.5923087849,3.1625763828,7.928482144,3.693568616,7.928482144,3.693568616l-.2681677756-.7881394153h.7988260515l-1.1928957591-1.4553862594s1.5869654668,1.9807012171,1.3241410093.3994130257c-.2681677756-1.5866315094-2.5060161749-1.849455967-2.5060161749-1.849455967-4.7602284858-.5360015939-6.3522033133-6.0786922196-6.3522033133-6.0786922196.5360015939,0,2.1226331034-3.7042552522,2.1226331034-3.7042552522,4.0929816417-1.844112649,5.0177096253-7.6546370929,5.0177096253-7.6546370929-.3994130258-1.3241410093,1.0559732336-7.1349994106,1.0559732336-7.1349994106,10.1770171794-4.8914737359,10.6966548617-17.5748410475,10.6966548617-17.5748410475,1.4557202168-7.1293221351-2.6426047431-8.1906386868-2.6426047431-8.1906386868M71.3873973321,41.714840801s-.91370739-3.1572330647.2080554474-4.6837522459c0,0,1.5265191812,1.8330920554-.2080554474,4.6837522459ZM75.8684374487,38.3552295644c-.3062389169,1.3241410093-1.0122248169.7113292181-1.0122248169.7113292181,0,0-.9190507081-5.7998378078-1.8327580981-6.308788854-.9193846654-.5086170888,1.2199463069-3.1568991073.809846645-3.6658501535,0,0,3.0530383623-1.1160855619,3.4577947062-.5089510462.4104336193.6128117912.2080554473,5.9093758282.3065728743,6.5111670259.103860745.6128117912-1.4226584362,1.9369528004-1.7292313105,3.2610938097Z"/>
  </g>
</svg>