<?xml version="1.0" encoding="UTF-8"?>
<svg id="Layer_2" data-name="Layer 2" xmlns="http://www.w3.org/2000/svg" viewBox="0 0 90.8282867797 31.3096549378">
  <defs>
    <style>
      .cls-1 {
        fill: #96f873;
        fill-rule: evenodd;
      }
    </style>
  </defs>
  <g id="Layer_1-2" data-name="Layer 1">
    <path class="cls-1" d="M90.7947923167,11.719241809c-9.2967379171-6.6355428778-21.4157177104-4.7545663978-32.092262269-3.9337735333-6.0993487129-.842810822-13.609343841,1.0066027234-19.5179967917-.5616709271-3.5821949324-.9434121086-7.143723892-2.3759149675-10.8852771761-1.3104663392-2.0104030081.7186401353-4.362140051.7982529578-6.380759356,1.4976374851-1.1800777196.2288148388-3.2576059428-.1855724434-4.1290014394.7488980443-1.4732184503,1.2502924011-3.1980860036.9945534118-4.5043055607-.3746402896-.9305181848-1.1581998778-.8022399154-2.9019513021-1.5010695622-4.1207601427C9.5416809223-1.2566136171,4.9781915075-.0367228657.5233999452.6674282492-.3968296051,1.3562159054-.0377568355,2.3389070103,1.0868396615,2.7279680057c-.9462589464.3226855233-1.4293034515.25618688-.3751065901,1.1242435246,15.109220339.1061664508,3.78893468,4.9793832262,15.5766128294,10.3021130776.8264081106.5520194772.8442275521.9672512577-.0002807297,1.4987174802-.5226716106.2912227674-.4391080206.9479139982-.9381114385,1.1237905519-.8621887679.6306558587-2.6043265357-.3553007948-3.3780892331.3747346625-.5553898426.5489507146.1059603772,1.0727457347.7504912073.9363496631.031846898,1.5742158161-2.7425241662.2447469603-2.0638210451,3.5592523785.685220987.1365317484.6834476166-.6357663738,1.1255546597-.9366830904.8222708428-.1758479531,1.5345074407-.6559729909,2.2518578787-1.1240593177.7026391725.3487268878-.3918604817,1.3035632391-.9381010688,1.3112302678-3.0255150824,1.0968802233-.8201881596,2.4440624119,1.1260408607.9366138158.9107461888-.372379797,1.3237833284-1.3246926906,1.6887698118-2.0603625585,1.0405520804-.7659401211,2.016945555-1.7240891625,3.0029883742-2.6222811033.8089861861-.5789489358,1.734443666-3.5475816632,2.8149131193-2.6229181058,1.5653703501.0977406496,2.9394350306,1.3035621343,4.316850197,1.8732107426,1.5244937041.4604267612,4.1080608583-.6356497664,5.4423864426.5622629064,1.1528155594,2.7723812955,4.2023787011,4.066546212,6.005871515,6.3685299463,1.3793841373.8168787969-1.4343754665,3.4202171146-1.689159569,4.683440961-1.0654765837,1.7655288417-3.5641172986,1.0786550999-5.067444971,2.0603287071-4.2790897702,2.2220657961,4.5813442821.9032407709,5.2549945944.18753142,1.5135370653-.3127052743,1.6613401018-2.6017982006,2.6275794992-3.5591307106.595619105-1.3065199756,2.3276592057-1.6555683899,1.8764467875-3.3718295769-.5605519158-.9204533744-1.6382196675-1.6405674979-2.0644327541-2.6224597452-.1939880834-1.5816779225-.8886422846-2.5133678651-2.4400828458-3.1843573404-2.3434893586-2.0290085467,5.9322716451-.9654954048,5.8182469323-.1876482061.6081929816,1.3431592524.5968026068,4.2064936824.5631651738,5.8072544883.6637118181,5.0120824578,7.8393898907,4.5470034638,5.6305061143,3.3711487735-.7406539732-.0010861954-1.1906161472-1.003762318-2.0647127456-.9361389153-1.1114978846-.4519478368-.8396214049-1.212754813-1.3134897492-1.8735809262-2.1360594793-2.2059880684,1.0199988204-9.2232828613-3.190294272-9.1782752193-1.3742860655-.793551399,2.2224942783-1.3513805242,3.1898801027-1.4986083252,5.8050240519-1.5341401751,11.8811852182-2.1162187569,17.8291745307-3.184378081,5.585583184-.4552515348,11.5091180943-1.9688565544,16.8907724079-.3743991694,2.58764662.3239574794,5.27493202.949684696,7.6945716987,1.8724110574,1.1605470463-.2424130318,4.1345848712,2.8390625773,3.75340493.3752197697Z"/>
  </g>
</svg>