<?xml version="1.0" encoding="UTF-8"?>
<svg id="Layer_2" data-name="Layer 2" xmlns="http://www.w3.org/2000/svg" viewBox="0 0 80.6991092137 44.1039809333">
  <defs>
    <style>
      .cls-1 {
        fill: #82ff82;
      }
    </style>
  </defs>
  <g id="Layer_1-2" data-name="Layer 1">
    <path class="cls-1" d="M80.68935208,24.6339138646c-.0087280273-.0677490234-.0269165039-.1337890625-.0536499023-.1981201172-.0114135742-.0270996094-.0288696289-.0529785156-.0432739258-.0793457031-.0244750977-.0455322266-.0515136719-.0905761719-.0846557617-.1343994141-.0189819336-.0249023438-.039855957-.0491943359-.0615234375-.0736083984-.0415039062-.0469970703-.0881347656-.0928955078-.1392211914-.1379394531-.0205688477-.0180664062-.0394897461-.0363769531-.0615234375-.0540771484-.1581420898-.1275634766-.3541259766-.2471923828-.5820922852-.3592529297-.0223388672-.0109863281-.0462646484-.0216064453-.0692138672-.0324707031-.0960693359-.0454101562-.1969604492-.0895996094-.3031005859-.1324462891-.030090332-.0122070312-.0599975586-.0242919922-.0908203125-.0362548828-.1149291992-.0446777344-.2346191406-.087890625-.3595581055-.1298828125-.0197753906-.0065917969-.0383300781-.013671875-.0583496094-.0202636719-.1438598633-.0472412109-.2935180664-.0927734375-.4486083984-.13671875-.0455932617-.0129394531-.0935058594-.0251464844-.1399536133-.0377197266-.1053466797-.0286865234-.2119750977-.0567626953-.3216552734-.083984375-.0754394531-.0187988281-.1520385742-.0369873047-.229309082-.0551757812-.0759887695-.0177001953-.1528930664-.03515625-.2305908203-.0522460938-.1016845703-.0225830078-.2033691406-.0450439453-.3075561523-.0665283203-.0026855469-.0004882812-.0054321289-.0009765625-.0080566406-.0014648438-2.3171386719-.4769287109-5.2131347656-.6981201172-7.0029296875-.7954101562l-.0816040039-.0070800781c-.9598999023-.0461425781-1.5881958008-.0698242188-1.5881958008-.0698242188-.1329956055.0092773438-.2611694336.0081787109-.3923950195.0131835938-.2325439453.0087890625-.4638061523.0147705078-.6910400391.0122070312-.276550293-.0029296875-.5466308594-.0180664062-.8150634766-.0363769531-.16015625-.0109863281-.3211669922-.0203857422-.4783935547-.0366210938-.2507324219-.0255126953-.4956665039-.0600585938-.7386474609-.0979003906-.1644287109-.0256347656-.3289794922-.0509033203-.4898071289-.0816650391-.2283935547-.0435791016-.4517822266-.0932617188-.672668457-.1462402344-.1641235352-.0394287109-.3275146484-.0797119141-.4874267578-.1239013672-.2090454102-.0576171875-.4140014648-.1192626953-.6156005859-.1842041016-.1589355469-.0512695312-.3161621094-.1038818359-.4704589844-.1590576172-.1929931641-.0690917969-.3826293945-.1405029297-.5680541992-.2149658203-.1497192383-.0601806641-.2968139648-.1219482422-.4415283203-.1851806641-.178894043-.078125-.3554077148-.1574707031-.526550293-.2395019531-.1372070312-.0657958984-.2708129883-.1328125-.4028930664-.2005615234-.167175293-.0858154297-.3327026367-.1719970703-.4915161133-.2601318359-.119934082-.06640625-.235534668-.1335449219-.3506469727-.2009277344-.1592407227-.0932617188-.3174438477-.1866455078-.4672241211-.2807617188-.0972290039-.0610351562-.1896362305-.1218261719-.2827148438-.1827392578-.1549072266-.1014404297-.3089599609-.2027587891-.452331543-.3031005859-.069519043-.0485839844-.1342163086-.0960693359-.2009887695-.1441650391-.1556396484-.1120605469-.3095092773-.2237548828-.4498901367-.3316650391-.0332641602-.0256347656-.0630493164-.0498046875-.0953979492-.0750732422-1.0966796875-.8552246094-1.6994628906-1.5323486328-1.6994628906-1.5323486328-.0401611328-.0355224609-.0807495117-.0717773438-.1213378906-.1076660156l.0087280273-.0048828125c1.1470947266-.6616210938,3.212890625-.3459472656,4.0442504883-.3459472656.8314819336,0,.7743530273-1.1472167969.7743530273-1.1472167969.0000610352-.0065917969-.0012817383-.0129394531-.0012817383-.01953125.0006103516-.0209960938.0020751953-.0446777344.0020751953-.0595703125.0001220703-.0321044922-.000793457-.0509033203-.000793457-.0509033203.0005493164-.0914306641-.0137329102-.1799316406-.0181884766-.2703857422-.0075073242-.1539306641-.0098876953-.3089599609-.0309448242-.4597167969-.0009155273-.0063476562-.0029907227-.0123291016-.0038452148-.0186767578-.5142211914-3.5865478516-4.7088012695-6.2821044922-5.5399780273-6.8179931641-.8900756836-.5743408203-2.438659668-1.1772460938-2.7829589844-1.5216064453-.0238037109-.0236816406-.0520019531-.0314941406-.0770263672-.0516357422-.0610351562-.0502929688-.1221313477-.0981445312-.1876831055-.1259765625-.028503418-.0119628906-.0562133789-.0115966797-.0848999023-.0194091797-.0528564453-.0145263672-.1057128906-.0362548828-.1581420898-.0362548828-.0103759766,0-.0190429688.0085449219-.0293579102.0091552734-.0641479492.0032958984-.1212158203.0295410156-.1799926758.0555419922-.0350952148.0155029297-.0721435547.0194091797-.1043701172.0428466797-.0463256836.0343017578-.0794067383.0936279297-.1171875.1455078125-.032409668.0428466797-.0741577148.0681152344-.0990600586.123046875-.1934814453.4569091797-.9710693359.6854248047-.9710693359.6854248047-1.7311401367.7542724609-3.609375,2.1702880859-4.989074707,3.3312988281-.9612426758.8076171875-1.6833496094,1.4926757812-1.9366455078,1.7380371094.0016479492.0001220703.0045166016.0002441406.0061645508.0003662109-.0003051758.0003662109-.0008544922.0008544922-.001159668.0010986328-.0335693359-.0008544922-.0794067383-.0030517578-.1049194336-.0030517578-.1767578125,0-.3516235352-.0072021484-.5413208008-.0227050781.0125732422-.0556640625.0165405273-.1043701172.0054321289-.1480712891.0372924805-.2043457031-.1257324219-.3386230469-.1257324219-.3386230469-.6273193359-.4765625-.7918701172-.9517822266-.8195800781-1.2783203125.000793457-.0219726562.0005493164-.0458984375.0024414062-.0654296875l-.0077514648.0080566406c-.0000610352-.0009765625-.0002441406-.001953125-.0003051758-.0029296875.282043457-.3057861328.0239257812-.3352050781.0239257812-.3352050781l-.1079101562.0634765625c-.0335693359-.013671875-.0518188477-.0400390625-.0823974609-.0563964844.0288696289-.0203857422.0606689453-.052734375.0888061523-.0705566406-.5348510742-.2098388672-.6694946289-.765625-.7071533203-1.1047363281l.0042114258-.0075683594c.1729125977-.3156738281-.0555419922-.2283935547-.0555419922-.2283935547l-.0364990234.0364990234c-.026550293-.0189208984-.0407104492-.0395507812-.0651245117-.0588378906.0204467773-.0213623047.039855957-.0437011719.0604248047-.0649414062-.4382324219-.3178710938-.567199707-.6811523438-.609375-.9299316406l.0191040039-.0173339844c.2855834961-.2585449219-.0571289062-.2585449219-.0571289062-.2585449219l-.055480957.0444335938c-.0330810547-.0173339844-.0576782227-.0393066406-.0880737305-.0582275391.0284423828-.0223388672.0546264648-.0484619141.0833129883-.0703125-.6219482422-.3255615234-.7534179688-.9443359375-.7673339844-1.3530273438.000793457-.0301513672.0008544922-.0627441406.0025634766-.0888671875.0967407227-.1082763672.1716918945-.1909179688.1934814453-.2225341797.1428833008-.2014160156-.1141357422-.1428222656-.1141357422-.1428222656l-.1729736328.1586914062c-.0369873047-.0051269531-.0679321289-.017578125-.1032104492-.0249023438.0353393555-.0339355469.0692138672-.0756835938.1047363281-.1083984375-.8517456055-.1076660156-1.2329711914-.8212890625-1.3789672852-1.2006835938l.0002441406-.0003662109c.2014160156-.4600830078-.1142578125-.2301025391-.1142578125-.2301025391l-.1031494141.1174316406v-.0015869141c-.0363769531.0003662109-.0668945312-.0052490234-.1020507812-.0062255859.0345458984-.0393066406.0637817383-.0799560547.0988769531-.119140625h-.0301513672c-1.0466918945,0-1.5735473633-.556640625-1.7919311523-.8958740234l.0069580078-.0115966797c.2015380859-.3459472656-.1713256836-.2302246094-.1713256836-.2302246094l-.0968017578.126953125.0031738281-.0046386719c-.0324707031.0024414062-.0607299805-.0007324219-.092590332.0007324219.03125-.0422363281.0610351562-.0861816406.092590332-.1276855469-.0840454102.0063476562-.1682128906.0095214844-.2490844727.0095214844-1.0975341797,0-1.7754516602-.5200195312-1.9982299805-.7316894531l.0180053711-.0473632812c.0856933594-.3156738281-.1729736328-.1444091797-.1729736328-.1444091797l-.1807861328.2855224609.0047607422-.0078125c-.0292358398.0047607422-.0549316406.0046386719-.0836181641.0085449219.0270996094-.0450439453.0530395508-.0927734375.0804443359-.1370849609-.1840209961.0301513672-.3569946289.0428466797-.5187988281.0428466797-.7916870117,0-1.3114013672-.3109130859-1.5385131836-.4873046875.0124511719-.033203125.0230712891-.0615234375.0279541016-.0776367188.1142578125-.3442382812-.2586669922-.0871582031-.2586669922-.0871582031l-.1395263672.2506103516c-.0305175781.0092773438-.0565185547.0125732422-.0861206055.0207519531.0270996094-.0509033203.0521240234-.1036376953.0797119141-.1539306641-.283996582.0888671875-.5315551758.1237792969-.744140625.1237792969-.5151977539,0-.8233032227-.2033691406-.9758300781-.3502197266-.008972168-.3900146484-.1982421875-.1480712891-.1982421875-.1480712891l-.1031494141.2110595703v-.0015869141c-.0210571289.0063476562-.0399169922.0065917969-.0606689453.0122070312.0205078125-.0437011719.0399169922-.0895996094.0606689453-.1328125-.1729736328.0523681641-.3379516602.0745849609-.4918823242.0745849609-.6842041016,0-1.1556396484-.4387207031-1.3479614258-.6577148438-.0002441406-.2631835938-.1799926758-.1070556641-.1799926758-.1070556641l-.0936279297.2062988281c-.0239868164.0112304688-.0454711914.0148925781-.069152832.0251464844.0236206055-.0522460938.0451660156-.1044921875.069152832-.1568603516-.3283691406.1553955078-.6298828125.2156982422-.8995361328.2156982422-.6575927734,0-1.119140625-.3599853516-1.3301391602-.5751953125.0331420898-.267578125-.1724853516-.1451416016-.1724853516-.1451416016l-.1110839844.2205810547c-.0213623047.0141601562-.048034668.0158691406-.0700683594.0286865234.0238037109-.0511474609.0457763672-.1077880859.0700683594-.1571044922-.2903442383.1918945312-.6504516602.2553710938-.9948730469.2553710938-.3760375977,0-.7329711914-.0745849609-.9583129883-.1412353516v.0126953125s-.0051879883.0262451172-.0090942383.0460205078c-.0451049805-.2983398438-.3352050781-.0380859375-.3352050781-.0380859375l-.0826416016.2540283203c-.0143432617.0173339844-.0290527344.0284423828-.0434570312.0450439453.0156860352-.0554199219.0308837891-.1186523438.0468139648-.1706542969-.4808349609.5744628906-.998046875.7156982422-1.3915405273.7156982422-.1729736328,0-.3189086914-.0281982422-.4309082031-.0589599609.1480712891-.5479736328-.133972168-.2963867188-.133972168-.2963867188-.0999145508.2077636719-.1856079102.4442138672-.2664794922.6997070312h.0015258789c-.0153808594.0275878906-.0313110352.0439453125-.0468139648.0700683594.0181274414-.0635986328.0340576172-.1326904297.0532226562-.1938476562-.4284057617.7614746094-.8917236328.9536132812-1.2503051758.9536132812-.2538452148,0-.4553833008-.0969238281-.5552978516-.1540527344v.1204833984c-.0297241211-.1312255859-.1444091797-.0030517578-.1444091797-.0030517578-.1348876953.3094482422-.2395629883.6806640625-.3220825195,1.0885009766-.0106201172.0196533203-.0221557617.0295410156-.0328369141.0482177734.0108032227-.0593261719.0195922852-.1220703125.0313110352-.1799316406-.2952270508.5490722656-.6315307617.7155761719-.9329833984.7155761719-.3457641602,0-.6422119141-.2213134766-.7736206055-.3325195312-.0142211914-.2407226562-.1784667969.064453125-.1784667969.064453125-.4584960938,1.3486328125-.1443481445,4.9899902344-.0872192383,5.4215087891.0529174805.3895263672.3842773438,2.5931396484.4484863281,3.0196533203-.1956176758.0932617188-.3822631836.1901855469-.5689697266.2873535156-.0444335938.0229492188-.0889892578.0456542969-.1329345703.0689697266-.7875366211.41796875-1.4951782227.8646240234-2.1298217773,1.3226318359-.0494384766.0356445312-.0975952148.0709228516-.1461791992.1066894531-.3009033203.2216796875-.5897216797.4443359375-.8580322266.6672363281-.0026855469.0023193359-.0056762695.0046386719-.0083618164.0068359375-.2744140625.2282714844-.529296875.4547119141-.7713012695.6791992188-.0499267578.0461425781-.0966796875.0910644531-.1452636719.1369628906-.19140625.1811523438-.3732299805.3591308594-.5446166992.5339355469-.0410766602.0417480469-.0839233398.0837402344-.1239013672.1251220703-.1892089844.1960449219-.3658447266.3858642578-.5310058594.5692138672-.0631713867.0700683594-.1194458008.1342773438-.1792602539.2021484375-.0980224609.1110839844-.1918945312.2183837891-.2811889648.3225097656-.53125.6196289062-.9174804688,1.11328125-1.1818237305,1.3635253906-1.3184814453,1.2503662109-3.2622070312,2.5006103516-4.0253295898,2.638671875-.4927368164.0888671875-.760925293.3569335938-1.4417724609.9594726562-.3765258789.3315429688-.8745117188.7619628906-1.6173706055,1.330078125C.2364101855,24.0601833959-.0038852247,24.6560085912.0043545214,25.1319607396c-.0608520508.7562255859.5361938477,1.2454833984.5361938477,1.2454833984l.0142822266.0302734375.0114135742.0227050781c-.2208862305.1823730469-.2853393555.3500976562-.2662353516.4981689453-.0854492188.4129638672.5166625977.6976318359.5166625977.6976318359.2791748047.693359375,6.2482299805,3.0543212891,6.2482299805,3.0543212891,3.8174438477,2.359375,7.2890625,2.6385498047,10.6209716797,2.9146728516,1.5739746094.1317138672,3.3193359375.185546875,4.9202270508.2062988281l-.0031738281-.0126953125c.5283813477,1.6374511719,2.5687866211,7.7587890625,3.411315918,7.0954589844l.4172973633-.3474121094s4.5124511719,5.0676269531,4.7202758789,3.1225585938c.1594848633-1.4899902344.4396972656-2.6970214844.4681396484-4.1807861328.0133056641-.4498291016.0010986328-.9276123047-.0414428711-1.4421386719.0614624023-.0075683594,2.2182617188-.2728271484,2.7656860352-.1351318359.3273925781.0805664062.4802856445.0134277344.4271850586-.1945800781.0098266602-.0268554688.0114135742-.0594482422.0051269531-.09765625-.001953125-.0122070312-.002746582-.0235595703-.0064086914-.0369873047-.0174560547-.0631103516-.0536499023-.1387939453-.1102294922-.2279052734-.0142822266-.0225830078-.0330200195-.0478515625-.049987793-.072265625-.0623779297-.0891113281-.138671875-.1870117188-.2374267578-.2985839844-.0110473633-.0124511719-.0151977539-.0207519531-.0267333984-.0334472656-.6282958984-.6965332031-2.6385498047-2.2277832031-5.8372192383-2.638671875,0,0-.7556152344-.2180175781-1.5266723633-.4981689453h.0050048828c1.8739013672,0,8.1903686523-.6934814453,9.3707885742-1.0408935547,1.180480957-.3459472656,4.0269165039-.693359375,4.0269165039-.693359375,1.3200683594,0,2.5244140625-.1142578125,3.6207275391-.3093261719l-.0333251953.0063476562c1.2185668945,2.2451171875,4.0015869141,4.8249511719,4.3712768555,5.1184082031.4013671875.3157958984.2872314453.2570800781,1.204284668-.2315673828.9186401367-.4871826172,2.3514404297.4315185547,3.5842285156,1.0042724609,1.2344360352.5744628906,1.7802124023-.5727539062,1.8944091797-1.1185302734.1142578125-.5457763672.1142578125-1.1456298828.4300537109-1.6627197266.1636962891-.2674560547.2191772461-1.19140625.2349243164-2.1865234375.0014648438-.0771484375.0023193359-.1550292969.0032348633-.2331542969.0001220703-.0079345703.0002441406-.015625.0003051758-.0236816406.0102539062-.8857421875-.0084228516-1.8071289062-.0084228516-2.3579101562,0-.1417236328-.0118408203-.2666015625-.0313110352-.3809814453-.005859375-.0345458984-.0164794922-.0628662109-.0241088867-.0950927734-.0180053711-.0759277344-.0385742188-.1485595703-.0661010742-.2121582031-.0127563477-.029296875-.028503418-.0554199219-.0432739258-.0821533203-.0314941406-.0574951172-.0669555664-.1107177734-.1075439453-.1575927734-.0176391602-.0201416016-.0360717773-.0395507812-.0554199219-.0578613281-.0484619141-.0461425781-.1027832031-.0865478516-.1617431641-.1215820312-.0178222656-.0103759766-.0346679688-.0220947266-.0534057617-.0316162109-.0755615234-.0386962891-.1583251953-.0703125-.2489624023-.0946044922-.0064697266-.0018310547-.0121459961-.0043945312-.018737793-.0061035156-.1949462891-.0498046875-.4205322266-.0725097656-.680847168-.0725097656-.0129394531,0-.0286865234.0015869141-.041809082.0017089844-.1488647461.0004882812-.306640625.0063476562-.4754638672.0173339844-.1940307617.0130615234-.3887329102.0083007812-.5815429688.0013427734-.0827026367-.0032958984-.165222168-.0056152344-.2463378906-.0115966797-.137878418-.0100097656-.2711791992-.0239257812-.4016113281-.0400390625-.0778198242-.009765625-.1580810547-.0178222656-.2320556641-.0290527344-.1149902344-.017578125-.2184448242-.0367431641-.3218994141-.0561523438-.0798339844-.0151367188-.1679077148-.0295410156-.2391357422-.0451660156-.0060424805-.0012207031-.0099487305-.0024414062-.0159301758-.0036621094-.0932617188-.0205078125-.1649169922-.0394287109-.2400512695-.05859375.7510986328-.6055908203,1.1330566406-1.0517578125,1.1330566406-1.0517578125,5.7135620117-2.1641845703,10.1830444336,1.1677246094,11.7490844727,2.5958251953.3935546875.3585205078.6061401367.5981445312.6061401367.5981445312.1205444336.1888427734.2380371094.3680419922.3538818359.5443115234.1030883789.16015625.2045898438.3125.3062133789.4631347656l.0031738281.0031738281c4.3584594727,6.5228271484,6.6876831055,6.9575195312,7.9442749023,8.0825195312.6611938477.5919189453.9381713867.29296875.901550293-.66796875,0-.001953125.0001220703-.0037841797.0000610352-.005859375-.0001220703-.0131835938.0004272461-.0251464844.0001831055-.0386962891-.0032958984-.1773681641-.018737793-.3806152344-.0451049805-.6063232422-.0025634766-.0217285156-.0056152344-.0444335938-.0083618164-.0666503906-.0565795898-.45703125-.1569213867-1.0040283203-.298034668-1.6304931641-.01171875-.0521240234-.0227661133-.1029052734-.0350341797-.1561279297-.0659790039-.2854003906-.1395874023-.5855712891-.2211303711-.9006347656-.0285644531-.1108398438-.0595703125-.2260742188-.0900268555-.3404541016-.0562744141-.2105712891-.1157836914-.4268798828-.1782226562-.6488037109-.0326538086-.1164550781-.059753418-.22265625-.0940551758-.3421630859-.1325073242-.4566650391-.216796875-.8666992188-.2720336914-1.2454833984-.036315918-.2514648438-.0621948242-.4912109375-.0704345703-.7108154297-.0338745117-2.3072509766,1.3817138672-2.8448486328,1.3817138672-2.8448486328,1.5962524414-.76171875,5.9007568359-3.9555664062,5.9007568359-3.9555664062.2669677734-.3149414062.3637084961-.6018066406.3239135742-.8637695312.0005493164-.0385742188.0039672852-.0776367188-.001159668-.1151123047Z"/>
  </g>
</svg>