<?xml version="1.0" encoding="UTF-8"?>
<svg id="Layer_2" data-name="Layer 2" xmlns="http://www.w3.org/2000/svg" viewBox="0 0 54.3710127284 29.6658935547">
  <defs>
    <style>
      .cls-1 {
        fill: #70f540;
      }
    </style>
  </defs>
  <g id="Layer_1-2" data-name="Layer 1">
    <path class="cls-1" d="M23.9888305664.6379394531c-.1305541992.0330810547-.28125.0583496094-.4346313477.0568847656-.0819091797.0007324219-.1610717773-.0053710938-.23046875-.0159912109.0056762695-.0059814453.0089111328-.0150146484.0161132812-.0205078125l-.0314331055-.0423583984c.0213012695-.0379638672.0465087891-.0749511719.0907592773-.1103515625-.0348510742.0229492188-.0862426758.0380859375-.1301269531.0572509766l-.110168457-.1485595703c-.11328125.0791015625-.3474121094.1474609375-.5443115234.1459960938-.1702880859.0014648438-.2972412109-.0510253906-.3337402344-.1103515625l-.0859375-.1208496094-.1231689453.0828857422c-.2639160156.1820068359-.8140258789.3109130859-1.2269287109.3107910156l.0067138672-.0081787109c-.0048217773.0031738281-.0145263672.005859375-.0196533203.0090332031h-.0015869141c-.0202026367,0-.0366210938-.0024414062-.0560913086-.0030517578l-.0465698242-.0675048828c-.0180664062.0124511719-.0310058594.0319824219-.0485839844.0454101562l-.0677490234-.0744628906c-.1300048828.0905761719-.5352172852.2076416016-.8043212891.2038574219-.0056152344,0-.0072631836-.0017089844-.0127563477-.001953125l.0264282227-.0224609375c-.0076904297.0070800781-.0261230469.0141601562-.0349731445.0212402344-.0638427734-.0018310547-.1143798828-.0102539062-.1502685547-.0216064453l-.0694580078-.0786132812-.0028686523.0024414062-.0001831055-.0001220703c-.0759887695.0729980469-.3109130859.1861572266-.5572509766.2645263672-.2463378906.0814208984-.5154418945.1361083984-.6659545898.1353759766l-.0456542969-.0024414062-.0016479492.0183105469-.0568847656-.0471191406-.0074462891.0087890625c-.032409668.0404052734-.1297607422.1220703125-.2601928711.2055664062-.1329956055.0866699219-.3010253906.1801757812-.4789428711.2661132812-.353515625.171875-.7579956055.3071289062-.9837646484.3041992188-.0820922852.0007324219-.1307373047-.0183105469-.1436767578-.0305175781l-.1155395508-.0904541016-.0942993164.1116943359c-.0623168945.0783691406-.3154907227.2554931641-.5861816406.3901367188-.2698974609.1391601562-.5777587891.2447509766-.7328491211.2416992188l-.0806274414-.0144042969-.0207519531-.0163574219c.0241088867-.078125.0488891602-.15625.0610961914-.2360839844l-.1878051758-.0280761719c-.0172119141.1171875-.0574951172.2371826172-.1061401367.3583984375-.0692138672.1064453125-.1536865234.1489257812-.251159668.1516113281-.0783081055.0008544922-.1604614258-.0288085938-.2151489258-.0737304688l-.0562133789-.103515625c-.0121459961-.041015625-.0112915039-.0842285156-.0050048828-.1302490234.0170288086-.0393066406.0456542969-.0838623047.1015014648-.1372070312l-.0280151367-.0350341797c.0252075195-.0368652344.0419311523-.0734863281.0819702148-.1108398438-.0379638672.025390625-.06640625.05859375-.1018676758.0860595703l-.141418457-.1766357422c-.0070800781.0048828125-.0119628906.0112304688-.0189819336.0161132812l-.000793457-.0008544922c-.0014648438.0013427734-.0018920898.0030517578-.0032958984.0042724609-.5284423828.3671875-.8137817383.9123535156-1.0367431641,1.4691162109-.2265014648.56640625-.3975830078,1.1517333984-.676574707,1.6048583984l.0097045898.005859375c-.6614990234.3046875-1.3060913086.6500244141-1.9354248047,1.0278320312-.0035400391.0014648438-.0071411133.0025634766-.0106811523.0041503906-.061706543.0369873047-.12109375.0786132812-.1824951172.1163330078-.2529907227.1553955078-.5040893555.314453125-.7521972656.4796142578-.1069946289.0712890625-.2127685547.14453125-.3188476562.2175292969-.2184448242.1502685547-.4351806641.3034667969-.6499023438.4602050781-.1049804688.0767822266-.2098388672.1533203125-.3139038086.2314453125-.2299194336.1726074219-.4573364258.3489990234-.6831665039.5280761719-.078125.0620117188-.1572265625.1223144531-.2348632812.1850585938-.3028564453.2443847656-.6026000977.4932861328-.8983764648.7470703125-.0402832031.0344238281-.0795288086.0700683594-.1197509766.1048583984-.2555541992.2208251953-.5086669922.4442138672-.7591552734.6702880859-.0924682617.0834960938-.1838378906.1674804688-.2756958008.2515869141-.2006225586.1834716797-.3999023438.3677978516-.5974121094.5533447266-.0946044922.0889892578-.1888427734.177734375-.2827148438.2669677734-.2023925781.1925048828-.4030151367.3853759766-.602355957.5789794922-.0787353516.0764160156-.1579589844.15234375-.2362060547.2290039062-.2705688477.2644042969-.5390625.5290527344-.8042602539.7930908203-.0556030273.0552978516-.1206054688.1129150391-.1832275391.1700439453-.0740356445.0579833984-.1477050781.1147460938-.2211914062.1689453125-.0014648438.0109863281-.0034790039.0217285156-.005065918.0325927734-.2816162109.2425537109-.5927124023.4959716797-.8715209961.7574462891-.4212036133.3999023438-.7846069336.8127441406-.792175293,1.2946777344,0,.162109375.0563964844.3173828125.1499633789.4672851562-.8065795898.3103027344-.5664672852.6958007812.0423583984,1.0549316406v.1745605469l-.6180419922.0822753906c.127746582.1381835938.2978515625.25390625.4830322266.3608398438l-.0185546875-.0012207031c-.0235595703.1215820312-.1429443359.1154785156-.071472168.2600097656.9830322266.6993408203,2.0861816406,1.2072753906,3.0235595703,1.9165039062,1.1669921875.8818359375,2.34765625,1.16015625,3.7328491211,1.6695556641.4700317383.1724853516.9378051758.3489990234,1.4080810547.4766845703.0327148438.0112304688.0676879883.0200195312.1010131836.0303955078l-.0532226562.0661621094-.012878418.0167236328c.0911865234.0288085938.1854858398.0554199219.2843017578.0775146484l.0123901367-.0079345703h.0000610352l-.0122070312.0080566406c-.0000610352,0-.0001831055-.0001220703-.0002441406-.0001220703l-.0030517578.0023193359c.1497802734.212890625.4333496094.33984375.7990722656.4682617188.3656616211.1240234375.8142089844.2296142578,1.2741699219.3208007812.0213012695.00390625.041809082.0084228516.0631103516.0122070312-.0028686523-.0007324219-.0056152344-.0017089844-.0084838867-.0024414062.0006713867.0002441406.0014038086.0002441406.0020751953.0004882812.0023803711.0006103516.0047607422.0013427734.0071411133.001953125.0980834961.0190429688.1950683594.0349121094.2932128906.0526123047.0413208008.0074462891.0823364258.0151367188.1234741211.0223388672-.1391601562-.0244140625-.2777099609-.0477294922-.4174194336-.0749511719.8377685547.212890625,1.7006835938.3558349609,2.3302001953.4318847656.008972168-.0173339844.01953125-.0338134766.0300292969-.0495605469h.0006103516c-.0110473633.0158691406-.0208740234.0322265625-.0306396484.0495605469h.0003662109c-.0135498047.0249023438-.0248413086.0511474609-.0353393555.0791015625l.0896606445.0318603516.0897216797.0318603516c.0140991211-.0385742188.0338134766-.0717773438.0570068359-.1020507812-.0095825195.0407714844-.0099487305.0886230469-.010559082.1363525391l-.1361694336-.0653076172c.0114135742.0295410156.0236206055.0599365234.0364990234.0895996094.0322875977.0037841797.0646362305.0073242188.0969238281.0107421875,0,.0002441406-.0000610352.0004882812-.0000610352.0007324219-.032409668-.0034179688-.0650634766-.0069580078-.096862793-.0107421875.0368041992.0869140625.0868530273.1641845703.1295776367.2468261719.2498168945,1.0921630859,1.8124389648,3.1195068359,2.2659912109,3.6184082031.9442749023,1.033203125,2.2465820312,1.8337402344,3.3383178711,2.7056884766.0291748047-.0313720703.0440063477-.0697021484.0698242188-.1029052734.0276489258.0219726562.0578613281.04296875.0852661133.0649414062,1.4298706055-1.5366210938-.8245239258-5.0849609375-2.6491699219-6.2204589844.2650756836.0339355469.5298461914.0686035156.8009643555.0897216797.7268066406.0570068359,1.4536132812.0828857422,2.1773681641.0828857422.9274902344,0,1.8506469727-.0537109375,2.7715454102-.1286621094l.0003662109.0114746094.0014648438.0512695312-.0653076172.0173339844c.2896728516.521484375.3071289062,1.0969238281.5640869141,1.6140136719.0014648438-.1330566406.0124511719-.2512207031.0286254883-.3601074219.0364990234.109375.0739746094.2186279297.1257324219.32421875.0053710938-.5178222656.1319580078-.8521728516.3244018555-.9622802734.0940551758.0041503906.1970214844.0513916016.3073730469.1479492188-.1799316406.1903076172-.3020629883.4188232422-.3063964844.6881103516v.08984375l.0745239258.0166015625c.2673339844.0584716797.544128418.1613769531.8255615234.2863769531l.0394897461.0936279297c.0676269531.1944580078.1409301758.3817138672.2333984375.5532226562l.3231811523.7659912109c-.0274047852-.1730957031-.0811767578-.3402099609-.1250610352-.5095214844.0419311523.0489501953.0676269531.1105957031.1182250977.1530761719.0436401367-.0389404297.0878295898-.0439453125.1318359375-.0661621094.0095825195.0087890625.0133056641.0219726562.0232543945.0302734375.0588378906-.0526123047.1184082031-.0668945312.1777954102-.0895996094.4846191406.0021972656.9603271484.794921875,1.3003540039,1.3392333984l.1419677734.3051757812c-.0107421875-.046875-.0342407227-.1072998047-.0484619141-.1579589844.0532226562.0823974609.1034545898.1578369141.147277832.2135009766.0014648438-.0756835938.0314941406-.1267089844.0487060547-.1889648438.0361328125.0544433594.0737304688.1131591797.1048583984.1530761719.0077514648-.3814697266.2369995117-.5756835938.5335693359-.6534423828.5928344727-.0616455078,1.3622436523.2947998047,1.4195556641.7904052734-.0013427734-.0864257812.0220336914-.1420898438.035949707-.2095947266l.0073852539.0103759766c-.0018920898-.0037841797-.0054931641-.0068359375-.0073852539-.0106201172.0057373047-.0278320312.0067749023-.0616455078.014831543-.0863037109.0532836914.080078125.094543457.1646728516.1051025391.255859375-.0026245117-.1616210938.0263061523-.2846679688.0741577148-.3823242188.029296875.0087890625.0584106445.0181884766.0877685547.0264892578.4668579102.1363525391.9487915039.2296142578,1.4368286133.2733154297.0129394531.0090332031.0234985352.01953125.0365600586.0285644531l-.0223388672-.0267333984c.0314941406.0028076172.0623779297.0095214844.0938720703.0118408203.0435180664.0390625.0925292969.0789794922.123046875.1159667969-.0150756836-.0406494141-.0173339844-.0699462891-.0269165039-.1057128906.038269043.001953125.0764770508.0024414062.1147460938.0036621094.0213012695.021484375.0517578125.0441894531.0687866211.0646972656-.0090332031-.0241699219-.0090942383-.0405273438-.0161132812-.0629882812.0317382812.0007324219.0634765625.0028076172.0952148438.0030517578h.0326538086c.3935546875,0,.7908935547-.0441894531,1.1882324219-.1451416016.162109375.0708007812.3231811523.146484375.4764404297.2229003906.0495605469.04296875.1054077148.0892333984.153137207.1313476562l.032043457-.0366210938c.1206665039.0628662109.2357177734.1243896484.3359985352.1806640625-.0625610352-.0622558594-.1143188477-.1298828125-.1585693359-.2048339844.1123657227.05859375.2193603516.1160888672.3134155273.1688232422-.1701660156-.1684570312-.2870483398-.3865966797-.3009033203-.6143798828.1174926758-.0324707031.2245483398-.0561523438.3330688477-.0810546875,1.0520629883-.21484375,1.7219238281-.0349121094,2.6912231445.6762695312-.0833740234-.1248779297-.1907958984-.2353515625-.2998046875-.3427734375.1466674805.0891113281.2971801758.1881103516.4571533203.3055419922-.2397460938-.3619384766-.6812744141-.6069335938-.782409668-.9949951172.0131835938.0007324219.0264892578.0014648438.0396728516.0020751953v-.0007324219c-.0166625977-.0367431641-.0392456055-.0653076172-.0579833984-.0992431641-.0044555664-.0454101562-.0068359375-.0916748047-.0012207031-.1413574219.0104370117-.0021972656.0209960938-.0024414062.0314941406-.0043945312.0452270508.0152587891.0902099609.0297851562.1356811523.0457763672.0005493164-.0001220703.0010986328-.0001220703.0016479492-.0001220703.4243774414.1472167969.8555908203.3050537109,1.2230834961.3460693359.2840576172.0295410156.6082763672.0535888672.9490966797.0614013672.0008544922.0002441406.0018920898.0006103516.002746582.0009765625.0319213867.0006103516.0640869141.0004882812.0961303711.0009765625.716796875.1906738281,1.1620483398.1474609375,1.9915161133-.0717773438.0618286133-.0163574219.123046875-.0297851562.1846923828-.0456542969.326965332-.0864257812.6514892578-.1525878906.9774169922-.2155761719.2424926758-.0435791016.4871826172-.080078125.7359619141-.10546875.0472412109-.0056152344.0960083008-.0083007812.1435546875-.0131835938.2012939453-.0170898438.4044189453-.0302734375.6132202148-.0329589844.5120849609-.0070800781,1.3724975586.0368652344,1.9999389648-.1281738281.3022460938-.060546875.5664672852-.1596679688.7346801758-.3249511719-.6636962891-.5998535156-1.8071289062-.9129638672-2.6152954102-1.4443359375-1.0894165039-.7170410156-1.4741210938-1.9538574219-2.616027832-2.6624755859-1.9350585938-1.2036132812-3.6561279297-2.1942138672-5.8822631836-1.9498291016.4547119141-.3140869141.9026489258-.6362304688,1.3412475586-.9498291016,1.3486938477-.9693603516,2.489074707-1.7188720703,4.1206054688-1.7196044922.0836181641,0,.1680297852.0021972656.254699707.0061035156,1.6026000977.0690917969,3.1732788086.9677734375,4.5554199219,1.7607421875,1.4642944336.8347167969,4.0012207031,2.4821777344,6.2113037109,2.4875488281.8735351562.0014648438,1.7060546875-.2668457031,2.3674316406-.9556884766.6796875-.7052001953,1.0286865234-1.6319580078,1.1754760742-2.5941162109.0021362305-.0129394531.0045776367-.0258789062.0065917969-.0389404297.0178222656-.1214599609.03125-.2430419922.0427856445-.365234375.0444335938-.4342041016.0543823242-.8724365234.0303344727-1.2987060547-.0397949219-.6662597656-.2216186523-1.2640380859-.2966918945-1.9028320312-.0004272461-.0034179688-.0003051758-.0068359375-.0007324219-.0100097656-.0243530273-.2109375-.0375366211-.4260253906-.0294799805-.6499023438.0311889648-.8211669922.0760498047-1.5769042969-.0486450195-2.3903808594-.1618652344-1.0454101562-.21484375-2.453125-.7612304688-3.4543457031-.1859130859-.3508300781-.430480957-.6606445312-.7608032227-.896484375-.3104858398-.2231445312-.6268310547-.3636474609-.9437866211-.4494628906.0000610352-.001953125.0003051758-.00390625.0003051758-.0059814453-.0737304688-.0197753906-.1475219727-.0364990234-.2212524414-.0501708984-.0043334961.0004882812-.008972168.0017089844-.0133056641.0021972656-.1652832031-.029296875-.3303833008-.0480957031-.4945068359-.0478515625-1.3092041016.0046386719-2.5575561523.8287353516-3.692565918,1.3190917969-1.8550415039.8096923828-4.0346679688,1.6162109375-5.9938964844,1.9431152344-.8689575195.1467285156-1.6345214844.4144287109-2.3263549805.412109375-.6044311523-.0029296875-1.1533203125-.1846923828-1.7440185547-.8408203125-.0874023438-.0983886719-.1623535156-.1806640625-.2289428711-.2583007812-.0587158203-.1877441406-.1352539062-.3666992188-.2254638672-.5383300781-.0010375977-.0139160156-.0010375977-.0288085938-.0014648438-.0432128906.1325683594.0656738281.2626953125.1016845703.3866577148.1016845703.367980957-.0037841797.6181030273-.2653808594.8020629883-.5299072266.184753418-.2683105469.3231201172-.5717773438.4318237305-.7237548828.3018188477-.4417724609.8765869141-.7496337891,1.3966064453-1.2142333984.6348266602-.5640869141.9997558594-1.3052978516,1.3524780273-1.9970703125.4166259766-.8089599609.8134765625-1.1989746094,1.4992675781-1.8520507812.3786010742-.3588867188.806640625-.9206542969,1.2620239258-1.3989257812.453125-.4812011719.9351196289-.8590087891,1.3479003906-.8825683594l.5694580078-.0402832031-.5147094727-.2478027344c-.1619262695-.076171875-.4241943359-.1833496094-.6583862305-.1862792969l-.0341796875.0007324219c-.721496582.041015625-1.4095458984.462890625-2.0352172852.5922851562-.3550415039.0782470703-.635559082.1785888672-.9716186523.2188720703l-.141418457.0076904297c-.182434082,0-.4097900391-.0274658203-.6051635742-.0274658203-.0699462891,0-.1368408203.0030517578-.1999511719.0152587891-.4280395508.0874023438-.7457885742.3618164062-1.0749511719.4112548828l-.143737793.0113525391c-.2501220703.0031738281-.5435791016-.0972900391-.8430786133-.1003417969l-.1315307617.0084228516c-.6713256836.0858154297-1.4224853516.3824462891-2.1059570312.4896240234l-.0022583008.0007324219-.0114135742.0007324219c-.0410766602.0007324219-.1444091797-.0205078125-.2387084961-.044921875-.1003417969-.0234375-.1755981445-.0500488281-.2630615234-.0539550781l-.0638427734.0100097656-.0023193359.0007324219-.0029907227.0014648438c-.1246948242.0517578125-.1961669922.1437988281-.2653198242.2272949219-.0654296875.0837402344-.1262207031.1672363281-.1611938477.1970214844l-.0093383789.0080566406c-.0822143555.01953125-.1589355469.0268554688-.233215332.0268554688-.1870117188.0014648438-.366394043-.0478515625-.5816040039-.0494384766l-.098815918.0045166016c-.7108154297.0661621094-1.3532714844.0729980469-2.0869140625.1254882812-.3511962891.0296630859-.5884399414.1550292969-.84765625.1513671875-.0827636719,0-.1712646484-.01171875-.2717285156-.0406494141l-.0004272461-.0003662109-.0175170898-.0100097656-.0585327148-.0417480469-.1695556641-.1345214844c-.1300048828-.1020507812-.2691040039-.2136230469-.4204101562-.2692871094-.1672363281-.0584716797-.3367919922-.0850830078-.5040283203-.0850830078-.190612793.0013427734-.3760375977.0402832031-.5571899414.1010742188l-.0000610352-.0021972656-.0479125977.0007324219c-.1170654297,0-.2280883789-.013671875-.3550415039-.013671875-.0814208984,0-.1691894531.0076904297-.2625732422.0300292969l.1044311523-.1668701172-.2630615234-.0091552734c-.0889282227-.0037841797-.1755981445-.0037841797-.2607421875-.0037841797h-.1026611328c-.1995849609,0-.384765625-.0129394531-.564453125-.0451660156.0173950195-.0323486328.0347900391-.0594482422.0687866211-.0817871094l-.0259399414-.0502929688c.0249633789-.0390625.0479125977-.0783691406.0966186523-.1108398438-.0309448242.0114746094-.0797119141.0231933594-.1362304688.0339355469l-.0728149414-.1411132812c-.0562744141.0234375-.2888793945.064453125-.4789428711.0629882812-.1058349609.0007324219-.2009277344-.0139160156-.24609375-.0322265625-.0010986328-.0048828125-.0021362305-.0095214844-.0026245117-.0146484375l.0411376953-.0572509766-.025390625-.0235595703c.0149536133-.0346679688.0289916992-.0690917969.067199707-.11328125-.0305175781.0302734375-.0667724609.0550537109-.1015625.0812988281l-.1630249023-.1512451172c-.1162109375.1182861328-.2808837891.1961669922-.4258422852.2042236328l.0267333984-.0551757812-.0151367188-.021484375c.0109863281-.037109375.0223388672-.0727539062.0569458008-.1115722656-.0374755859.0144042969-.0798950195.0139160156-.1185302734.0249023438l-.0943603516-.1328125c-.1998901367.0812988281-.4371337891.1025390625-.6872558594.1018066406-.0210571289,0-.0425415039-.0008544922-.063659668-.0009765625.0001831055-.0008544922.0003662109-.0028076172.0005493164-.0036621094l.0532226562-.1025390625-.0179443359-.0212402344c.0147094727-.0386962891.0255126953-.0771484375.060546875-.1164550781-.0361328125.0228271484-.0780639648.0330810547-.1170043945.0499267578l-.1202392578-.1418457031c-.1588745117.1033935547-.3815917969.1337890625-.62109375.1330566406-.0504150391,0-.1014404297-.0032958984-.1525268555-.0052490234.0179443359-.0227050781.0369873047-.0445556641.0825805664-.0715332031-.0388183594.0207519531-.0958251953.0339355469-.1460571289.0502929688l-.0835571289-.1477050781c-.0428466797.0240478516-.119934082.0424804688-.1930541992.0610351562l-.0000610352-.0002441406c-.0000610352.0001220703-.0001831055.0002441406-.0002441406.0002441406ZM.7304077148,15.001953125l.0104980469.0092773438c.0048217773.0789794922.0202026367.1578369141.0540771484.2362060547-.0397338867-.0830078125-.0649414062-.1644287109-.0651855469-.2423095703,0-.0009765625.0006103516-.0021972656.0006103516-.0031738281ZM.8720703125,15.380859375c-.0131225586-.0168457031-.0200805664-.0329589844-.0310668945-.0496826172.0096435547.0166015625.0200195312.033203125.0310668945.0496826172ZM30.1984863281,27.6529541016c.0000610352.0001220703.0001831055.0001220703.0003051758.0002441406-.2011108398-.0854492188-.4053344727-.1524658203-.5807495117-.1524658203.1752929688,0,.3794555664.0668945312.5804443359.1522216797ZM31.0450439453,27.7834472656c.0015258789-.0827636719.0227661133-.1162109375.057800293-.1442871094-.0349731445.0280761719-.0562133789.0614013672-.0577392578.1450195312,0-.0002441406-.0000610352-.0004882812-.0000610352-.0007324219ZM2.2504882812,12.8120117188c-.0052490234.0046386719-.0095214844.0090332031-.014831543.0137939453-.021484375.0190429688-.0428466797.0382080078-.0648803711.0573730469-.0079956055.0069580078-.0166015625.0141601562-.0246582031.0211181641.0357666016-.0310058594.0700683594-.0617675781.1043701172-.0922851562ZM8.6827392578,21.5029296875c.0704345703.0212402344.1446533203.0383300781.2190551758.0550537109l-.142578125.0028076172-.0010986328-.0007324219c-.0263671875-.0183105469-.0509643555-.0378417969-.075378418-.0571289062ZM11.6746826172,22.580078125c.0703125.01171875.1333007812.0209960938.2020263672.0319824219.1379394531.0222167969.279296875.0454101562.4069824219.0646972656-.197265625-.0297851562-.4083862305-.0629882812-.6271362305-.099609375.0062866211.0009765625.0118408203.0018310547.0181274414.0029296875ZM12.2879638672,22.6774902344c.4077148438.0615234375.7508544922.1088867188.9518432617.1423339844-.2011108398-.0334472656-.5450439453-.0809326172-.9518432617-.1423339844ZM30.9545288086,27.8206787109h0c.0309448242.0010986328.0618286133.0057373047.0927734375.0062255859-.0310668945-.0004882812-.0617675781-.0052490234-.0927734375-.0062255859ZM31.3096313477,27.5919189453c.1740722656,0,.4180908203.0616455078.6849365234.1566162109.0039672852-.0007324219.0078735352-.001953125.0118408203-.0026855469h0c-.0039672852.0007324219-.0078735352.001953125-.0118408203.0026855469-.267578125-.0949707031-.5115966797-.1566162109-.6849365234-.1566162109ZM36.1926879883,27.0498046875c-.0454101562-.0153808594-.0930786133-.0322265625-.1391601562-.0483398438.0013427734.0002441406.0026855469.0004882812.0040283203.0004882812.0457763672.0158691406.0932617188.0328369141.1382446289.0478515625.3322143555.0168457031.6751098633.1079101562,1.0111083984.2159423828.0116577148.0009765625.0255126953.0010986328.0372924805.0020751953h.0001831055c-.0117797852-.0009765625-.0255737305-.0009765625-.0373535156-.001953125-.0000610352,0-.0000610352-.0001220703-.0001220703-.0001220703-.3367919922-.1080322266-.678894043-.1990966797-1.0111083984-.2159423828h-.003112793ZM36.6732177734,8.6774902344l-.0274047852-.0510253906c-.0150146484-.0363769531-.0288696289-.0942382812-.0428466797-.1511230469l.0018310547-.0183105469c.0223388672.0927734375.0512695312.1706542969.0872802734.234375-.0034790039-.0017089844-.0054321289-.0006103516-.008972168-.0024414062l-.0098876953-.0114746094Z"/>
  </g>
</svg>