<?xml version="1.0" encoding="UTF-8"?>
<svg id="Layer_2" data-name="Layer 2" xmlns="http://www.w3.org/2000/svg" viewBox="0 0 90.4861374127 61.8288227272">
  <defs>
    <style>
      .cls-1 {
        fill: #a6cea6;
        fill-rule: evenodd;
      }
    </style>
  </defs>
  <g id="Layer_1-2" data-name="Layer 1">
    <path class="cls-1" d="M90.0079531039,26.238262738c-7.7866878644-.3137525537-16.2243235181,1.4407013985-24.2099567206-.3758577089-7.4238430871-1.8197796953-15.040934858-4.0333589079-22.7087772137-4.3094980955-3.1910816183-.295486025-5.8192203246-1.8372816296-8.820591217-2.6236321238-4.9935858049.6125502114-14.0270058378.0444606044-18.9553022323,1.3105856905-7.1104868166-1.1321851548-.4782401887-15.0026520568-6.7565238333-17.6160972098-1.5226900029-.2487584653-.0454587001-2.4805523909-2.6275190281-2.6237632906-1.1096733679.5636604155-.5981043287,2.0950396093-1.8766792287,2.6232337026-2.1986603336.6963664837-6.0383368993,1.6293538612-2.8143545837,4.1237119295,1.4250650031-.5759542744,3.3146441534-.4904995377,4.5040420644.5622236443,5.2097167985,1.5782608876-.7029175443,10.5290361021,3.5662487544,14.8056775344.9610401705,1.6674281316,2.0625603925,3.2851578719,2.6270068391,5.0603704133.9168057331,1.1027906219,2.1823023444,1.3549228368,3.3778654465,2.0618922705.5537078928.8202578744,1.3147862857,1.4023538585.0000683737,1.4989673576-.8819274427.7502036519-2.1919783876.5652079479-2.8152024678,1.1244991574-3.1459747987.1597720779-2.4735578991,2.7982916465-1.6892430868,4.8733289235-.1040110985.734820229,2.3519604067,3.9650719612,2.8152008682,3.3736747367.7843540599.2542251603.7416543219-.9087310798,1.5014944356-.75011557.483574882-.4288392659,1.9443507825-.0137396417,2.0644703828-.9370267984.4014336404-.9308833394,1.0328315236-2.9422012464.0000926746-3.5609138201-.365153577,1.1755204042-1.2036178149,2.6513775119-2.4396937782,2.9989284647-1.7727909747,1.2430149444-.636631258-.6616724948.1876648136-1.312012891.0190331775-.6252202728-2.7912822166.6251387778-1.8771452141-.3750612494.5773309436-2.6339652794,4.0014219884-2.2657560545,5.8179895471-3.3736550855.4978269416.1192121847.788660426-.4797212559,1.1263776818-.749465359,1.1775593176.1156500832,2.307068059.8227062769,3.3779175487,1.3120777669,1.1709963711.557791724.9665894315,2.7574549796,1.6893478518,3.7480303796,2.2961589244,2.2605889609,5.0706713211,2.7988144903,7.6944518047,4.123336418,1.1216255155.036673772,2.0253910429.7289711643,3.0027902535,1.124333734,1.9985932317.302586011.9666117069,2.0259018009-.1880337734,2.9987824963-1.8224072776,1.4333553588-3.599753233,2.6295151119-5.6299563365,3.7481845606-1.2074280386.9712381399.0630338994,13.3972271885,1.1266157626,7.497221555-.3380784522-.1993194989.281642323-.9498650781.5623812388-.5623819203.8089337636.3536917117.7894327855-.0368044605.5629832864-.750061093.5268800314-.6254698264.309215717-1.1953966032.0001113467-1.8741318818-.7407505454-4.1123411069,3.7403083549-4.9172642854,6.0055469562-7.4968239746,4.5522648723-4.0263203517,6.1372614416,1.3008892316,8.6329511395,4.4987707166,1.8597868311,2.6167818009,5.8006652437,11.1030710676-.5630155941,9.7456396483-3.6655489202,2.7404041667,5.4317175881,1.7359587549,6.3807592236-.3756153953.3950381122-6.0078457477-4.4330819662-9.9985782217-6.005168964-15.1803616814-.7725485799-1.1494374416-1.9651244857-1.1100582072-3.0031670801-1.6865120571-1.465320232-.6933544079-2.7539307512-2.4437756667-3.1902589806-4.1233796716-1.0639353713-1.4371463881-2.0166629844-3.5084256106-3.9411222794-3.7482771724,1.4079667724-3.3945823834,4.118874868-.4920757883,6.7561052822-4.1237405968,1.8689994535-2.642411207,4.9815092015-2.6053942713,7.6951586385-3.1854055342,7.8499100782-1.1985700644,15.4494781348,2.0028757501,23.2712856253,1.4994030241,1.8624427212-.225697195,19.3287628334-2.2072143082,15.764783772-2.999083944Z"/>
  </g>
</svg>