<?xml version="1.0" encoding="UTF-8"?>
<svg id="Layer_2" data-name="Layer 2" xmlns="http://www.w3.org/2000/svg" viewBox="0 0 90.1889489008 37.5216294716">
  <defs>
    <style>
      .cls-1 {
        fill: #c7c729;
        fill-rule: evenodd;
      }
    </style>
  </defs>
  <g id="Layer_1-2" data-name="Layer 1">
    <path class="cls-1" d="M90.1749523243,6.8681700338c-17.3619394738,1.0448526382-37.2752626347,4.1325929072-54.4255718182.1878239531-6.0604808201-2.6775537018-12.3380172518,2.1665499384-18.3919310562.5638960588-5.7227178599-1.4047856377-2.3926148031-5.5604443028-6.0051867818-6.7611301589-1.76009227-.449954423-4.3874000659-1.3138085704-6.0060502914-.563800474C3.7269341333.6033891004-1.218241877.242628032.278664476,2.7372726873c1.6330652546.4018851727,4.510418669-.1871317348,5.8183229598.9386783356-1.9385017976.2790799599-8.3985191597-.4230895266-3.9412309538,1.8774099082,2.0179455129.6338910635,4.4048584063.2655961001,6.1932424615,1.3146791904,2.7903115641,1.8039652139,3.9320268552,5.0938675105,6.5686304117,6.7604283665,4.6113750809,3.375582968-5.0951905243.3933020976-6.3807149426,2.6291695093-2.1835885989.957758384-4.2484469211,4.9787085239-1.5019493242,6.1970391507.6500015417.3195415897.9060021894-.2252427748,1.313987543-.7514224514-2.1885718996-.0078039206-1.2577388389-1.0778217278.000207739-1.5018762095.4994901055-.2286485924.6525420299-.546261183.5626250044-1.1270765472-.4872772827.1143964649-.9035385204.5141110424-1.5012146476.37547086.9487051367-1.2399655944,2.3333472102-1.6886684576,3.566057013-2.4408925188.8694764815-.3595376971,1.606955783.2616539145,2.4395899455.5630636734,2.2143390931.2723909886,1.7621126734.5078942133.1876654602,1.5025003714-2.2163611144,1.1799683932-3.8467548526,3.4126625363-5.0672036051,5.4457240709-.3403769419,1.2569664567.3630442551,2.6134096084,1.3136539235,3.3800517598.0616125909-2.0809857771.8704362512-.2601057882,2.0648255845-.3754854315-.89043592-2.1721124352-.9757860126-1.7634123724.187617305-4.3190999335.8913351961-2.3706043807,3.4978824808-2.2126142037,5.0670744865-3.7555754719,3.0617682338-1.0009188732,4.5353412087-3.1676033406,6.7558760088.3753669491.7514630912,1.355303532,5.6358291926,4.4221845691,2.6280203646,5.2579895764-.0103390266-1.6127240166-1.1613891288-3.4478711333-3.0029570971-3.1923302214-.4419936341.2864335153-1.05892557.6346756012-.9384958252,1.3146891909.4356972929-.1281850882,1.2363053863-.6021532745,1.5012703094-.000019458.1637610113.875035949-.4075494701.1212649792-.7506628412.7510222443.0613666575.396965691-.0778759821.6390883919.5632250481.9387578082-.4428561406,1.1894977666.9166743745,2.0207439697.3758342456,2.6291218148.4858727912-.2969837862,1.8517331045.006213906,2.2515508921-.3752026669,1.2593724456.2156090132,1.2696001118-1.0490708001,1.8764753128-1.5027531046.4772074356-.3976899645,1.2390309037-.2800822131,1.6891559783-.7510455822.6424006897-.8309020543-5.426854459-6.6903295211-1.8768426327-4.6947203056,1.2089339457.7034342644,2.3519114012.9976227184,2.8152669632,2.4414653915,1.2545163706,1.5502935903,2.7684705142,3.2522533441,4.50405798,4.1311260286,2.9259096759,2.5441046318,8.160324819,2.7029492244,6.9440176771,7.8872017254-.3875095119-2.6044467536-2.3216679809-2.8474330022-3.7533669011-.7511679385.1272640575,1.0436229123,2.3842756354-1.2535441523,2.0642848667.7512301852-.7737677295-.182822775-1.0228581505.2753006274-.3751189088.750851423.8354272853,1.079961019-1.9510752784.287685976-1.8767433299,1.1266829536,1.6861365346.5147920074,3.990173378,1.7047911231,5.6303015904.3753309071,1.6166228624-1.0741261032-1.4188374486-3.7058148915,1.3132325336-3.1918154969-1.154364839-1.3104194733-2.1129468902-1.8469979924-2.063524641-3.7561733824-.7533809966-1.2680556968-1.9203262309-2.1190272067-3.0033237229-3.1921902221-1.2366614407-1.4518443969-2.2775496447-3.269539657-3.9411448689-4.319050841-.4338748444-1.132680173-3.460720949-.8102710398-.7507167473-1.8777949215.8558975586-.4100684585,1.7877176157-.7269607775,2.4396398902-1.5021680957,1.0755448687-.2446913705,2.0469475939-.2976227803,2.6272691612-1.3149181621,3.4765519223-2.0244039562,7.8614971158-1.9975128642,11.6358377988-3.380216808,4.9748662867-1.2022003418,9.8945413765-2.6341919224,15.2020397968-3.1913185596,4.5223589513-.5910222089,9.0795713886-1.2637121098,13.512499059-2.0657482706,1.8919235761-.1138474904,9.3888676579-.4902025007,9.0081435237-2.2540914469Z"/>
  </g>
</svg>