<?xml version="1.0" encoding="UTF-8"?>
<svg id="Layer_2" data-name="Layer 2" xmlns="http://www.w3.org/2000/svg" viewBox="0 0 90.8287767597 29.8928866528">
  <defs>
    <style>
      .cls-1 {
        fill: #66f5ff;
      }
    </style>
  </defs>
  <g id="Layer_1-2" data-name="Layer 1">
    <path class="cls-1" d="M90.3863561886,10.1477551856c-12.6791788665-.049814708-26.6855415514-1.3835173587-38.8485283723-3.1807941182-4.0326564369-.8585648406-8.1184378527-2.5197828365-12.5742338503-2.0572328827-3.9342790847,1.1429848528-7.7887664952,2.1068253211-11.6356574706,3.1802319592-1.0035915414.6055470631-2.2625360552.6204835006-3.1905274651,1.3096133872-1.1754009364.3873548191-1.5622977954.6803301295-2.8152640963.1863945498-3.0523301236-1.1133075984-5.7906258689-3.766172425-8.4450949858-6.173675419-1.4112686428-1.1605833912-3.2963937937-1.5846808137-4.8796489791-2.4321008132-1.2743901526-.5569323919-3.5003641434-1.6768409304-4.691850197-.3745308283-2.5419390021.4832870186-5.4749221848,3.2299849754-.9383018481,3.1811929103,1.7058138738-.665642277,3.3617594368.6124386084,5.0672021976.373468639,1.5854258558.6698566998,2.7735320892,2.0762937105,4.1286924868,3.1809688542,1.8514060859,1.7467114372,2.4662428685,4.3763784367,4.6920359347,5.9869724851.9723209992,1.3550395052,2.6208084683,2.1421699963,3.9407970488,2.9936315556.7886349227.7079755529,2.1184700748.5401033908,2.6276420419,1.4965739527,1.0545965768,1.4837179022.9380064451,3.7593030279-.0002201681,5.2388490498.5080492883,2.4510609557-2.4132135826,4.2456823644-3.9413817872,5.4252691095-.9441797977,1.2306345693,2.1378577811-.0847163963,1.5019245154.5613075247-.2207076965.1842096218-.4607426243.4320986453-.3752289576.748644459,3.5907395921-.2406802496,3.9750297654-4.5418116614,6.0051095413-6.1743290654,1.1476031325,1.6099087915.7290296366,4.4020265142,3.1908572063,5.0517787705,2.3185794394.6345971713,3.3039440815-.3927773817.5626983461-1.3095061454-1.8445852607-6.9110064292-.1185762044-8.3580760188,6.5688563001-6.360996179,1.4558792135,1.9668015534,2.0912496855,6.0499117292-.5630878837,7.6703697289-2.1776061675,1.9234731576,3.8225611915,1.3091894747,4.1283736053.0003012847.112574349-1.1756071025-.0486497544-2.4458905922.5636488487-3.5548919991.6629626262-.6789745299.960125677-3.2750629987,1.6886919909-2.0581140392,5.8299725017,3.6677923848-3.474022563,6.8709382938,3.0029491271,6.3614582248,4.5665752289-1.9175405657-1.21098111-8.4932074084.3747663428-10.6645640951,1.2606069105-.6918409584,2.961528034-.3295611059,3.9418089179-1.683733917,2.0479072307-1.0032170294,4.1078266243-2.1143539557,6.3811301247-2.8061892266,4.1704670747-1.0580031644,8.6681821044-1.4929328974,13.1371735836-2.2451306877,5.3995872371-.071569489,13.1683384793.2794504811,18.2040018275-1.122773666.4674369774.049879139,5.0520080639.0819535812,3.1906660736-.7484633631Z"/>
  </g>
</svg>