<?xml version="1.0" encoding="UTF-8"?>
<svg id="Layer_2" data-name="Layer 2" xmlns="http://www.w3.org/2000/svg" viewBox="0 0 90.8942710089 43.4383131083">
  <defs>
    <style>
      .cls-1 {
        fill: #82ff82;
        fill-rule: evenodd;
      }
    </style>
  </defs>
  <g id="Layer_1-2" data-name="Layer 1">
    <path class="cls-1" d="M85.6537924933,31.8099365234c-4.4051513672,1.0221557617-9.5213623047-.5059204102-14.26171875-1.1204833984-7.6803588867-.8971557617-15.2888183594-3.8107910156-22.3428344727-6.1774291992-.8864746094-.0325927734-1.6812744141-.2913208008-2.6275024414-.1872558594-.7695922852.01953125-1.5946044922-.1053466797-2.2520141602.1872558594-1.9020385742.0443725586-3.6254272461.3510131836-5.4424438477.7483520508-1.6063232422-.5144042969-3.1556396484-.6259155273-4.8798217773-.9356079102-.9092407227-.244934082-1.8876342773-.3577270508-2.8150024414-.5612182617-.9589233398-.1250610352-1.876953125-.3875732422-2.8150024414-.5612792969-5.3943481445-1.2821044922-9.3880004883-5.7623291016-12.7384033203-10.2677612305-1.4777832031-2.8840942383-2.7664794922-5.7401123047-4.7155151367-8.4144897461C8.4788657355,1.9908447266,5.7322837042.6655883789,2.5147544074,0,1.8235312628.2642211914-1.6871498895,2.0801391602.9964438605,2.0582885742c1.7474975586.4262695312-1.7299194336.4524536133-.1795043945,1.3095092773,8.4002685547-2.2236938477,11.0768432617,10.7098999023,14.3724975586,15.8270263672,3.2191162109,4.3963623047,7.3661499023,7.8037109375,12.0657958984,9.7844848633,1.4559326172.5217285156,3.020324707,1.0166625977,4.6827392578,1.3333740234,1.1771850586,1.7296142578,2.2733764648,3.7525024414,2.6604003906,5.9795532227.231628418,1.0083618164-1.8666992188,2.426574707-1.318359375,3.7416381836-.0764770508.5974121094.4136352539.8119506836.5631103516,1.4968261719.0051879883.5703735352-.1051635742,1.5130004883.755065918,1.3186035156,3.5516967773.5233154297,1.3737182617-.2877807617,3.0029296875-2.4327392578-.0479125977.0313110352.8728027344-1.1002807617.9383544922-2.2369995117.578918457-.3994750977-.4276733398-1.2568359375.1877441406-1.6920166016,1.8502197266.3298339844,4.0106811523.4944458008,5.6302490234.9061889648.0155029297.2836914062-.0761108398.5850830078.171081543.9321899414.0084838867.119934082-.710144043.9266357422-.2006835938.9683227539.2896728516.8271484375-.1297607422,1.5050048828-.3462524414,2.4030761719-.1422119141.4483032227-.5180053711.8421020508-.7504882812,1.3101806641.3592529297.3222045898,1.3112792969.6486206055,1.8529663086.2393798828,1.1906738281.236328125.456237793-1.0615234375.9329833984-1.5202026367.7587890625.1762084961.1206054688-.5667114258.5687866211-.9119873047.1306152344-.9327392578.624206543-1.8330688477.9618530273-2.8009643555.6153564453-1.4606933594,1.3087768555-.0692138672,1.8530883789.6954345703.5828857422.6169433594,1.3993530273,1.2434082031,1.712890625,2.052734375,1.438293457,1.6986694336-1.5655517578,3.5928955078,2.0357055664,1.5262451172,1.8433837891-.7310180664-2.2375488281-4.2537841797-1.2850341797-5.9585571289.0765991211-1.6112060547-.7132568359-1.6049804688.9302978516-2.462097168,1.8604125977-2.3071899414,7.8793334961-.0012817383,10.6967773438-.7481079102,8.1076049805.0366210938,16.7478637695,1.1072387695,24.5859985352-.374206543.8604736328-.4733276367,1.9383544922-.3007202148,2.8168334961-.7425537109-.0853271484-.9564208984-4.1868896484-.1265258789-5.2404785156-.1926879883Z"/>
  </g>
</svg>