<?xml version="1.0" encoding="UTF-8"?>
<svg id="Layer_2" data-name="Layer 2" xmlns="http://www.w3.org/2000/svg" viewBox="0 0 90.5903195996 31.5007603411">
  <defs>
    <style>
      .cls-1 {
        fill: #f2cc0d;
        fill-rule: evenodd;
      }
    </style>
  </defs>
  <g id="Layer_1-2" data-name="Layer 1">
    <path class="cls-1" d="M90.4593619858,7.3736492411c-16.5512005187,1.9489881918-33.789123346,2.5261046539-50.4845031682,2.2497284346-4.0193441268-1.1993659082-8.3651029781-.8711334701-12.3864710649-.1875843039-2.3554019685.7335107592-4.9079650556,1.4863391607-7.3192575211,2.2488762234-2.2769116841,1.0426775362-5.2837589415,2.2427321278-7.5070893376.562136016-3.7140105495-2.4908652473-3.1470683967-7.6274530886-6.1932376127-10.6836696277-1.3150698599-1.9404573915-5.8784317483-2.2230058223-6.5688032813-.0003168066.47171858.3262058211,1.0105161121.4161297593,1.5019346086.5625513708,1.0135572759.357098473-2.401284306,1.2197478442-.5628976694,1.8743362791,2.5530481578.2243033997,3.8926687176.5695390178,4.6915078708,3.1868715088,1.6357706465,2.6514910961,1.9255717351,6.0473261237,4.3166490462,8.4343086569,1.9646745126,1.8178006011,4.8238792955,2.8497804904,6.1929287381,5.0610480849.1251745069,1.1043857279.0364285832,1.0275266288-.7505536625,1.31119804-.4105218417.3173433752-.9565092613.7314039589-1.501396028.9373819487-1.2050427367,1.5700521691-1.9239199451,4.0400189365-1.3136584569,5.9983834835.1382270218.2139826688.4267769209.1595449152.5631393877.3747438829-.2429928457-3.3781292302,3.4372259752-5.2095486419,6.3812038531-4.685381694.7884260049-.8096554834,1.0540775441-1.4910916116,2.0640244959-.5625685272,2.3807824946,4.061474737,1.3662520821,5.272308339-2.8150839811,6.1848300508-1.3996376499,1.8954883547,5.2269287438,1.0077105445,5.8177506804.0008200595,1.4300727053-2.4560776864-.0091214813-5.2064357041-.0000218726-7.8727098512.4795180518.2771552396,13.1653750407-2.3328362627,9.1959405809.5618937844-.788195714.151154133-1.3108347189.9421205196-2.0640841157,1.3123445878-1.2272614013,1.7437389236-.1181445548,4.5657275294,1.5009145037,5.8106946815.5517378408.332740732,2.0908100525,1.6846151467,1.8769899193.5622915666-4.0627344166-5.3196216369,2.348284502-2.0371538582.0003863118-4.3114678625-.005827881-.5904091625-1.1420123846-.6782680987-.7510132273-.9369076325,1.4174144669-.1021076161,2.5878550091-.650711577,3.753690212-1.4996656233,1.981689735,1.1160031476,7.1516861254,3.5627791235,3.9411828565,5.9984647385-7.1347971159.9875171972,1.1878423293,2.6841868965,2.815206174.7494328146-.0871987995-1.536166372,1.7350209216-.999808683,1.1259073648-2.0616572956-1.7361861245-2.7024956964-.3940890668-4.6898290782-4.3166622281-5.2481397791-1.6866121332-.3922335618-.3393304176-2.5198682723-.5628895517-3.7489931395-1.2456899882-.3620179829,3.2532556491-3.4683145445,3.3778453005-3.3741750234,4.0325575427-1.4500705766,8.9074825953-1.3475856119,13.3251500085-1.686996767,5.7885014212-1.3854885098,12.2636512499-1.7218377067,18.3919740687-2.8114179662,1.921834143-.6366879824,15.8864224857-2.4695518506,14.2632967976-4.3106843139Z"/>
  </g>
</svg>