<?xml version="1.0" encoding="UTF-8"?>
<svg id="Layer_2" data-name="Layer 2" xmlns="http://www.w3.org/2000/svg" viewBox="0 0 90.8985726562 61.9786825758">
  <defs>
    <style>
      .cls-1 {
        fill: #a8a800;
        fill-rule: evenodd;
      }
    </style>
  </defs>
  <g id="Layer_1-2" data-name="Layer 1">
    <path class="cls-1" d="M89.3408550409,52.976279689c-5.9070124472,2.9980281217-13.0597831428.2045787897-18.3920767723-2.9980517365-7.6555907557-4.5360299643-13.084241989-12.9197176322-21.3952075381-17.0515337189-2.8779675996-1.6031920361-6.1375280689-2.511420166-9.3834980434-2.99840551-3.3701424216.2287410013-6.7751218527-.9264845215-8.8208940877-3.3731644592-7.3011598489-5.951422482-11.4509777054-15.6064425062-18.3915379758-22.2990230455C11.1456906528,2.5001888346,1.7989698491-2.4215624374,1.5091677753,1.4455457098c-.825637742.8425164162-2.4798226252,1.7025483337-.7501913289,2.8109938154C12.3818926881.9880059038,14.9464965737,15.1575125683,20.8400331809,22.0580334566c2.2514738017,3.4194488545,4.3413336795,6.7898045677,6.7558554682,10.1184789374,1.0100135844.6630231577,1.4516531887,2.0337240171,2.4400756594,2.8106414908.9960151097,1.0698621145,1.9911123829,1.4755031782.9379277313,2.6234768107-.3536563931,1.0473573418-.3650384005,1.7730309629.1882904481,2.8109290856.4756562208,2.0358219803.3697271629,5.032189409.7498793424,7.1205508251.0481699778,3.9168599718,2.0017790867,8.8110580375-.5626710474,12.1798258755-.9792248104,2.0494633283,2.6334557504,1.1098145464,3.565894703.7501577085.2858134585-.4098774188-.249948936-3.4796332709.188146123-4.3101926679,1.3428268333-1.7123869332.0555831066-7.1822362013,1.1258880728-8.2449279743,1.5018814789,3.1104729596,2.3107246556,9.6813371544.938744765,12.742190358-.2740226426,2.2177863322,2.8442356575.9790149258,4.1279606524.9367342333-.8394727514-4.2981319669.5076516771-8.6548041709.0004120278-12.9293911369-1.1250932407-1.6377243592,1.6397813704-.0858269175,2.6272665374-.0003023872,2.6897141959.3367478491,5.648126232-.2900516031,8.2576664219.3747953337-1.3517662221,2.2206657308,1.5487657735,8.8696230365-.750322833,10.3066347504-.9900527494.3136007874-.9591795889,1.2443823436-.0002581106,1.4987494842,5.561561461,1.64791459,3.680840544-3.812636129,4.3159641429-7.1210170894,1.0939726558,1.1384970088,3.696824287,3.0127263632,1.6894609679,4.3105421547-1.9801624739,1.7856847161,1.6291982029,1.1985388009,2.8152354738,1.3115024972.7313621173-.3549801614.59955429-1.4843529728.7508444272-2.2486321959-.1305159141-4.3722726331-5.4858470381-6.7041793508-3.1910580536-7.4952630925,9.2960379993,2.2963718493,18.6836297917,7.9125011173,28.1514672754,6.1837979931,1.3375949314-.211741008,2.7482835849-.5437008305,3.9410749326-1.1246367304,1.2481894291-1.0175961743,1.5885761658-2.0168297815-.5629232678-1.6863980314Z"/>
  </g>
</svg>