<?xml version="1.0" encoding="UTF-8"?>
<svg id="Layer_2" data-name="Layer 2" xmlns="http://www.w3.org/2000/svg" viewBox="0 0 81.1064851878 17.2794294536">
  <defs>
    <style>
      .cls-1 {
        fill: #745254;
      }
    </style>
  </defs>
  <g id="Layer_1-2" data-name="Layer 1">
    <path class="cls-1" d="M0,6.7805459186c.8599651163-.8012186078,1.6548769178-1.0900001257,2.7575996028-1.5263681739-.1935741639-.1824494902-.3871362225-.3648989804-.5822961668-.5473484706,1.5787110345-.4808183221,3.0574694788.1317045152,4.6060506845-.0809595402,1.6548769178-.2268997641,3.5652097533-.3617032091,5.1121930732-1.0202257851,1.5676105713-.666366742,2.9321322959-1.2391845417,4.6361926186-1.5073388083.8710776847-.1364497514,1.41529091-.0443534323,2.2768418067.0143325502.7346279333.0491955101,1.7611847351-.1856452615,2.4466171584-.0253724875,1.4787705494.3442717291,3.1479315967,1.4042025519,4.613991692,1.1423429863,1.7421311591-.312507699,3.4081206454-.760012526,5.1264772027-1.1693617803,1.7215039078-.4077997894,3.4541445945-.5917987445,5.1978736393-.8932665061,1.5533143366-.2697037315,3.2605583255-.8822265688,4.8376956847-.8822265688,3.5271147064,0,7.0526557376.1047825628,10.5671084107-.2173124501,3.1209370131-.287232053,6.6528211662.4140944905,9.7579003746.7695029984,1.7199302326.1967820404,3.4509730336.9186389936,5.1217077561.793326021,1.7722973036-.1349002865,3.3081801603.3300360205,5.0154241491.7298948023,1.6834209662.3934672392,3.2796119015.8092080361,4.7996127431,1.6389464819,1.4057762272.7648546038,3.113020216,1.0694212952,4.2649263059,2.2451746181.4315743912.4426627493.5505684523.6377984832.5505684523,1.232792999,0,.5807103864-.8504625387.2808405104-1.2677528005.6981307722-.7187338131.7187580235-2.1816465579.5965924014-3.1177654522.971030275-2.15624986.8599530111-4.3378964178,1.642190674-6.6797915393,1.4089477881-.2887815179-.0285682588-.7029002188.5315632971-1.0551371658.620415424-.510887625.1300582088-1.0329120289.2347923508-1.537456532.388722003-1.1297051634.3395264929-2.2895522608.6314553614-3.4478014726.8567572398-.2887573075.055538632-.9043790746.2427817791-1.1757049022.0618817538-.2824141857-.1871947264-.563254696-.3744378736-.8456930921-.5616810208-.1983315052-.1316560944-.3427222642.4204860331-.5156570716.4997992669-.8202963942.3760357592-2.4450313779.6346995534-3.3129253965.3332317918.0602838682-.1349002865.0380829416-.3157518911.1110530535-.4427111701-.4363196274.0333619158-.5569115742.1904389185-.4950298203.5505926627.0174556903.1078814926-.0682248757.7584146404-.055538632.7758461203.2713258276.4284270407,1.3613501637.266556381,1.7405574838.4919066802.5696220283.3395264929,1.0202257851.2792426247,1.6834451766.2792426247.5553378989,0,1.1868174706.7568167547,1.6517053568,1.1011369046-.3680947517-.071420647-.7362137138-.144390759-1.1043084655-.2174092917.2237282031.2205566422.444260635.4411132844.6663909524.6600720409-.2586153734-.0365092664-.5172549573-.071420647-.777444006-.1078814926.1110530535.2935267541.2237039927.5870535082.3347812567.882178148-.7838113382,0-2.8623216397-.815551158-2.757611708.4410648636-.4918582594-.3807809954-1.1519060899-.5537400132-1.7643562961-.5537400132-.7108170159,0-1.4406876079-.5235738687-1.9801434917-.932923123-1.0551129554-.7965217924-2.0325105627-2.1340489334-2.8781794444-3.1495294823-.4220597084,1.009137427-2.1483330628.3728884087-2.9337180763.3284381348-1.3581786027-.0809111195-2.6973036295-.1062836069-4.0586537931-.1062836069-1.1423914071,0-2.2879543752-.1126751496-3.4366889042-.1126751496-.4791720156,0-1.131303049-.0872542413-1.5803089202-.2554680229-.8139532723-.3030172265-.8028407038-.3363307216-1.0138826632-1.177254367-.3252665739,1.2946747528-.2966983151,2.3624981624,1.1059063512,2.9813157008.5013729422.2221061071,1.4644864201.155479117,2.0134569867.211017749.4823435766.0475976244,1.1773027878.9218347649,1.5136577198,1.2201067553-.4458343102-.2237039927-1.0979411332-.8472667673-1.4327466003-.2189587565.4030303428.2031251622.6838466428.5267696401.5521663379.9948532976-.4982013813-.3792315306-1.0583087267-.4347217418-1.6548769178-.5521421276.3458938252.2776447391.563254696.6251122395.2205324318.993255412-.1523075561-.6870424141-1.0789117676-.709267551-1.6564505931-.6632678123.1491359952.2935751749.2951246398.5886513939.4442606349.882178148-.2031009519-.0745679976-.4061776933-.1824494902-.5585094598-.333183371-.4458343102-.4458585206-.2760710638-.1285087439-.7679293232-.2189587565-.8806044727-.1618222389-.7885807848-.0491955101-.9948290872.7742966554-.1237635077-1.0106868919-.1142488249-.7552672898-.990083851-1.1043326759-.6394205793-.2538217164-.8044143791-.9281778868-1.3375513514-1.1566271157-1.4422612831-.620415424-.4299765056-2.0166769684-.4299765056-3.2574109749-.6679888381.4886624881-1.2597875825-.1713611321-1.9484036719-.2284976497-.9250305362-.0761658832-1.6199655371-.2253018784-2.5021436851-.5204265182-.782237663-.261762724-1.2296698588-.6949350009-2.0769366262-.8488162322-.7615862013-.1396455227-1.500971476-.5109360458-2.2181316138-.798119678-.6092786452-.2427333584-1.4390897222-.2586153734-2.0927944309-.4664857719-.8425215312-.266556381-1.6279065447-.2808405104-2.5148541393-.3315854854-1.5422259786-.0857047764-3.0638247059-.033313495-4.5981096769.1507338808-1.4708295419.1745084827-2.9543453276.5743672645-4.429932211.6679646277-1.6279065446.1031362564-3.2970675918.0079410075-4.9249741365-.0999404851-.8060122648-.055538632-1.5104861588-.1824494902-2.2990548385-.3649474012-.7393852747-.1713611321-1.4264034784-.0142841294-2.1530904042-.2760468534-.6886039842-.249124901-1.2851842804-.7298948023-1.9817292721-.9202853-.5584973546-.1523317665-1.7818119864-.2094198633-1.7897408887-.9440599019"/>
  </g>
</svg>