<?xml version="1.0" encoding="UTF-8"?>
<svg id="Layer_2" data-name="Layer 2" xmlns="http://www.w3.org/2000/svg" viewBox="0 0 90.6638797738 33.2790877349">
  <defs>
    <style>
      .cls-1 {
        fill: #ffa940;
        fill-rule: evenodd;
      }
    </style>
  </defs>
  <g id="Layer_1-2" data-name="Layer 1">
    <path class="cls-1" d="M90.6638797738,22.4938022372c-13.9309185437-.9464158514-26.4763737312-8.1603348818-39.9748282467-10.5223527402-10.5778375209-3.2753454324-15.0572582211-2.2774221599-25.3358963838.7520370401-5.3175249869,1.9587645139-10.3316800307-4.9215439466-13.1373031147-8.831704776C9.0099459906.5206300778,3.6302966451-1.8949586875.0172464252,2.012564169c-.2275865521,2.4329439809,1.8554930232.0278797636,2.814904981.5633771285-.4998864513.4932805066-1.2201793797.632385549-1.8767280515.7517908902-.7509363694,1.1650585444.7410601854,1.1254509972,1.5014944332.9390531825C9.8885862947-.3358944798,12.7185659841,16.4303493269,18.7849414535,19.2988671888c1.3808306392.8159402212,2.767340086,1.1466636112,3.7530458283,2.443461391.6715792975.4888100273,1.8799087318.6172284676,1.5012898379,1.6908215178-.6451789395,1.7525654603-2.6888519509,2.1216123318-4.1287234592,3.1943457473-.9276411108.6627319753-.6764120486,1.1926835285-.3746304677,2.2551948589.5736238383.1069745293,1.4360597931-.2681090619,1.8760087921-.0003366309-.6547407715.8069288639-.6232644182,1.8780990892-1.3137072952,2.6306617195-.6925311615.1203694511-.835165237,1.1208910175-.9384908209,1.6912053974.5444871192-.5159271477,2.8258195427.2410243496,3.1906132464-.5635967699.6346156059-2.777591873,3.3258617238-4.4952762975,4.6920666843-7.1401385161,2.3334270971-1.6143456295,7.8925656448.0532344254,10.8848144879-.1888763904-.484648627,2.442424808,4.7545482948,4.1035854092,1.5011969724,6.0138453464-.6796099137,1.2086609999.438779633.9932492927.7508087285,1.6909701764.0752054213-.3001636396.6964771265-.6643286034,1.1261314642-.5638552786.2974604355,1.2373512697,1.5662883569.9012610808,2.2523667451.1879314107,1.1831771605-.0937657464,1.2020747348-1.415025336,1.1257491352-2.442831477-.2779887968-3.4673843682-3.3079875037-4.981805582-2.0646839193-6.2004143235,1.0906575863-.5767056666,2.06035066-.9165241401,2.2524091389-2.2552154422.6800954346.0672773302.9540645562-.6153756388,1.5014919245-.9393650849.5737279625-.2261265508,1.6499889348.0211635067,2.0644572212-.5636724174,8.9715017665-6.9652933965,34.2980087179,7.274042687,42.2267240755,2.254799814Z"/>
  </g>
</svg>